999
dxfrw 0.6.3
  0
SECTION
  2
HEADER
  9
$ACADVER
  1
AC1021
  9
$DWGCODEPAGE
  3
ANSI_1252
  9
$INSBASE
 10
0
 20
0
 30
0
  9
$EXTMIN
 10
-73.5776
 20
-3.848455214080066
 30
0
  9
$EXTMAX
 10
21.434747
 20
4.714137899520038
 30
0
  9
$LIMMIN
 10
0
 20
0
  9
$LIMMAX
 10
420
 20
297
  9
$ORTHOMODE
 70
    0
  9
$REGENMODE
 70
    1
  9
$FILLMODE
 70
    1
  9
$QTEXTMODE
 70
    0
  9
$MIRRTEXT
 70
    0
  9
$LTSCALE
 40
1
  9
$ATTMODE
 70
    0
  9
$TEXTSIZE
 40
2.5
  9
$TRACEWID
 40
15.68
  9
$TEXTSTYLE
  7
STANDARD
  9
$CLAYER
  8
0
  9
$CELTYPE
  6
BYLAYER
  9
$CECOLOR
 62
  256
  9
$CELTSCALE
 40
1
  9
$DISPSILH
 70
    0
  9
$DIMSCALE
 40
1
  9
$DIMASZ
 40
2.5
  9
$DIMEXO
 40
0.625
  9
$DIMDLI
 40
3.75
  9
$DIMRND
 40
0
  9
$DIMDLE
 40
0
  9
$DIMEXE
 40
1.25
  9
$DIMTP
 40
0
  9
$DIMTM
 40
0
  9
$DIMTXT
 40
2.5
  9
$DIMCEN
 40
2.5
  9
$DIMTSZ
 40
0
  9
$DIMTOL
 70
    0
  9
$DIMLIM
 70
    0
  9
$DIMTIH
 70
    0
  9
$DIMTOH
 70
    0
  9
$DIMSE1
 70
    0
  9
$DIMSE2
 70
    0
  9
$DIMTAD
 70
    1
  9
$DIMZIN
 70
    8
  9
$DIMBLK
  1

  9
$DIMASO
 70
    1
  9
$DIMSHO
 70
    1
  9
$DIMPOST
  1

  9
$DIMAPOST
  1

  9
$DIMALT
 70
    0
  9
$DIMALTD
 70
    3
  9
$DIMALTF
 40
0.03937
  9
$DIMLFAC
 40
1
  9
$DIMTOFL
 70
    1
  9
$DIMTVP
 40
0
  9
$DIMTIX
 70
    0
  9
$DIMSOXD
 70
    0
  9
$DIMSAH
 70
    0
  9
$DIMBLK1
  1

  9
$DIMBLK2
  1

  9
$DIMSTYLE
  2
STANDARD
  9
$DIMCLRD
 70
    0
  9
$DIMCLRE
 70
    0
  9
$DIMCLRT
 70
    0
  9
$DIMTFAC
 40
1
  9
$DIMGAP
 40
0.625
  9
$DIMJUST
 70
    0
  9
$DIMSD1
 70
    0
  9
$DIMSD2
 70
    0
  9
$DIMTOLJ
 70
    0
  9
$DIMTZIN
 70
    8
  9
$DIMALTZ
 70
    0
  9
$DIMALTTZ
 70
    0
  9
$DIMUPT
 70
    0
  9
$DIMDEC
 70
    2
  9
$DIMTDEC
 70
    2
  9
$DIMALTU
 70
    2
  9
$DIMALTTD
 70
    3
  9
$DIMTXSTY
  7
STANDARD
  9
$DIMAUNIT
 70
    0
  9
$DIMADEC
 70
    0
  9
$DIMALTRND
 40
0
  9
$DIMAZIN
 70
    0
  9
$DIMDSEP
 70
   44
  9
$DIMATFIT
 70
    3
  9
$DIMFRAC
 70
    0
  9
$DIMLDRBLK
  1
STANDARD
  9
$DIMLUNIT
 70
    2
  9
$DIMLWD
 70
   -2
  9
$DIMLWE
 70
   -2
  9
$DIMTMOVE
 70
    0
  9
$DIMFXL
 40
1
  9
$DIMFXLON
 70
    0
  9
$DIMJOGANG
 40
0.7854
  9
$DIMTFILL
 70
    0
  9
$DIMTFILLCLR
 70
    0
  9
$DIMARCSYM
 70
    0
  9
$DIMLTYPE
  6

  9
$DIMLTEX1
  6

  9
$DIMLTEX2
  6

  9
$LUNITS
 70
    2
  9
$LUPREC
 70
    4
  9
$SKETCHINC
 40
1
  9
$FILLETRAD
 40
0
  9
$AUNITS
 70
    0
  9
$AUPREC
 70
    2
  9
$MENU
  1
.
  9
$ELEVATION
 40
0
  9
$PELEVATION
 40
0
  9
$THICKNESS
 40
0
  9
$LIMCHECK
 70
    0
  9
$CHAMFERA
 40
0
  9
$CHAMFERB
 40
0
  9
$CHAMFERC
 40
0
  9
$CHAMFERD
 40
0
  9
$SKPOLY
 70
    0
  9
$USRTIMER
 70
    1
  9
$ANGBASE
 50
0
  9
$ANGDIR
 70
    0
  9
$PDMODE
 70
   34
  9
$PDSIZE
 40
0
  9
$PLINEWID
 40
0
  9
$SPLFRAME
 70
    0
  9
$SPLINETYPE
 70
    2
  9
$SPLINESEGS
 70
    8
  9
$HANDSEED
  5
20000
  9
$SURFTAB1
 70
    6
  9
$SURFTAB2
 70
    6
  9
$SURFTYPE
 70
    6
  9
$SURFU
 70
    6
  9
$SURFV
 70
    6
  9
$UCSBASE
  2

  9
$UCSNAME
  2

  9
$UCSORG
 10
0
 20
0
 30
0
  9
$UCSXDIR
 10
1
 20
0
 30
0
  9
$UCSYDIR
 10
0
 20
1
 30
0
  9
$UCSORTHOREF
  2

  9
$UCSORTHOVIEW
 70
    0
  9
$UCSORGTOP
 10
0
 20
0
 30
0
  9
$UCSORGBOTTOM
 10
0
 20
0
 30
0
  9
$UCSORGLEFT
 10
0
 20
0
 30
0
  9
$UCSORGRIGHT
 10
0
 20
0
 30
0
  9
$UCSORGFRONT
 10
0
 20
0
 30
0
  9
$UCSORGBACK
 10
0
 20
0
 30
0
  9
$PUCSBASE
  2

  9
$PUCSNAME
  2

  9
$PUCSORG
 10
0
 20
0
 30
0
  9
$PUCSXDIR
 10
1
 20
0
 30
0
  9
$PUCSYDIR
 10
0
 20
1
 30
0
  9
$PUCSORTHOREF
  2

  9
$PUCSORTHOVIEW
 70
    0
  9
$PUCSORGTOP
 10
0
 20
0
 30
0
  9
$PUCSORGBOTTOM
 10
0
 20
0
 30
0
  9
$PUCSORGLEFT
 10
0
 20
0
 30
0
  9
$PUCSORGRIGHT
 10
0
 20
0
 30
0
  9
$PUCSORGFRONT
 10
0
 20
0
 30
0
  9
$PUCSORGBACK
 10
0
 20
0
 30
0
  9
$USERI1
 70
    0
  9
$USERI2
 70
    0
  9
$USERI3
 70
    0
  9
$USERI4
 70
    0
  9
$USERI5
 70
    0
  9
$USERR1
 40
0
  9
$USERR2
 40
0
  9
$USERR3
 40
0
  9
$USERR4
 40
0
  9
$USERR5
 40
0
  9
$WORLDVIEW
 70
    1
  9
$SHADEDGE
 70
    3
  9
$SHADEDIF
 70
   70
  9
$TILEMODE
 70
    1
  9
$MAXACTVP
 70
   64
  9
$PINSBASE
 10
0
 20
0
 30
0
  9
$PLIMCHECK
 70
    0
  9
$PEXTMIN
 10
0
 20
0
 30
0
  9
$PEXTMAX
 10
0
 20
0
 30
0
  9
$GRIDMODE
 70
    1
  9
$SNAPSTYLE
 70
    0
  9
$PLIMMIN
 10
0
 20
0
  9
$PLIMMAX
 10
210
 20
297
  9
$UNITMODE
 70
    0
  9
$VISRETAIN
 70
    1
  9
$PLINEGEN
 70
    0
  9
$PSLTSCALE
 70
    1
  9
$TREEDEPTH
 70
 3020
  9
$CMLSTYLE
  2
Standard
  9
$CMLJUST
 70
    0
  9
$CMLSCALE
 40
20
  9
$PROXYGRAPHICS
 70
    1
  9
$MEASUREMENT
 70
    1
  9
$CELWEIGHT
370
   -1
  9
$ENDCAPS
280
    0
  9
$JOINSTYLE
280
    0
  9
$LWDISPLAY
290
    0
  9
$INSUNITS
 70
    0
  9
$HYPERLINKBASE
  1

  9
$STYLESHEET
  1

  9
$XEDIT
290
    1
  9
$CEPSNTYPE
380
    0
  9
$PSTYLEMODE
290
    1
  9
$EXTNAMES
290
    1
  9
$PSVPSCALE
 40
1
  9
$OLESTARTUP
290
    0
  9
$SORTENTS
280
  127
  9
$INDEXCTL
280
    0
  9
$HIDETEXT
280
    1
  9
$XCLIPFRAME
290
    0
  9
$HALOGAP
280
    0
  9
$OBSCOLOR
 70
  257
  9
$OBSLTYPE
280
    0
  9
$INTERSECTIONDISPLAY
280
    0
  9
$INTERSECTIONCOLOR
 70
  257
  9
$DIMASSOC
280
    1
  9
$PROJECTNAME
  1

  9
$CAMERADISPLAY
290
    0
  9
$LENSLENGTH
 40
50
  9
$CAMERAHEIGHT
 40
0
  9
$STEPSPERSEC
 40
2
  9
$STEPSIZE
 40
50
  9
$3DDWFPREC
 40
2
  9
$PSOLWIDTH
 40
5
  9
$PSOLHEIGHT
 40
80
  9
$LOFTANG1
 40
1.570796326794897
  9
$LOFTANG2
 40
1.570796326794897
  9
$LOFTMAG1
 40
0
  9
$LOFTMAG2
 40
0
  9
$LOFTPARAM
 70
    7
  9
$LOFTNORMALS
280
    1
  9
$LATITUDE
 40
1
  9
$LONGITUDE
 40
1
  9
$NORTHDIRECTION
 40
0
  9
$TIMEZONE
 70
-8000
  9
$LIGHTGLYPHDISPLAY
280
    1
  9
$TILEMODELIGHTSYNCH
280
    1
  9
$SOLIDHIST
280
    1
  9
$SHOWHIST
280
    1
  9
$DWFFRAME
280
    2
  9
$DGNFRAME
280
    0
  9
$REALWORLDSCALE
290
    1
  9
$INTERFERECOLOR
 62
    1
  9
$CSHADOW
280
    0
  9
$SHADOWPLANELOCATION
 40
0
  0
ENDSEC
  0
SECTION
  2
CLASSES
  0
ENDSEC
  0
SECTION
  2
TABLES
  0
TABLE
  2
VPORT
  5
8
330
0
100
AcDbSymbolTable
 70
    1
  0
VPORT
  5
31
330
2
100
AcDbSymbolTableRecord
100
AcDbViewportTableRecord
  2
*ACTIVE
 70
    0
 10
0
 20
0
 11
1
 21
1
 12
31.02720000000101
 22
16.84480000000055
 13
0
 23
0
 14
10
 24
10
 15
10
 25
10
 16
0
 26
0
 36
1
 17
0
 27
0
 37
0
 40
77.82400000000251
 41
2.05
 42
50
 43
0
 44
0
 50
0
 51
0
 71
    0
 72
  100
 73
    1
 74
    3
 75
    0
 76
    1
 77
    0
 78
    0
281
    0
 65
    1
110
0
120
0
130
0
111
1
121
0
131
0
112
0
122
1
132
0
 79
    0
146
0
348
10020
 60
    7
 61
    5
292
1
282
    1
141
0
142
0
 63
  250
421
3358443
  0
ENDTAB
  0
TABLE
  2
LTYPE
  5
5
330
0
100
AcDbSymbolTable
 70
    4
  0
LTYPE
  5
14
330
5
100
AcDbSymbolTableRecord
100
AcDbLinetypeTableRecord
  2
ByBlock
 70
    0
  3

 72
   65
 73
    0
 40
0
  0
LTYPE
  5
15
330
5
100
AcDbSymbolTableRecord
100
AcDbLinetypeTableRecord
  2
ByLayer
 70
    0
  3

 72
   65
 73
    0
 40
0
  0
LTYPE
  5
16
330
5
100
AcDbSymbolTableRecord
100
AcDbLinetypeTableRecord
  2
Continuous
 70
    0
  3
Solid line
 72
   65
 73
    0
 40
0
  0
LTYPE
  5
32
330
5
100
AcDbSymbolTableRecord
100
AcDbLinetypeTableRecord
  2
DOT
 70
    0
  3
Dot . . . . . . . . . . . . . . . . . . . . . .
 72
   65
 73
    2
 40
6.35
 49
0
 74
    0
 49
-6.35
 74
    0
  0
LTYPE
  5
33
330
5
100
AcDbSymbolTableRecord
100
AcDbLinetypeTableRecord
  2
DOTTINY
 70
    0
  3
Dot (.15x) .....................................
 72
   65
 73
    2
 40
0.9525
 49
0
 74
    0
 49
-0.9525
 74
    0
  0
LTYPE
  5
34
330
5
100
AcDbSymbolTableRecord
100
AcDbLinetypeTableRecord
  2
DOT2
 70
    0
  3
Dot (.5x) .....................................
 72
   65
 73
    2
 40
3.175
 49
0
 74
    0
 49
-3.175
 74
    0
  0
LTYPE
  5
35
330
5
100
AcDbSymbolTableRecord
100
AcDbLinetypeTableRecord
  2
DOTX2
 70
    0
  3
Dot (2x) .  .  .  .  .  .  .  .  .  .  .  .  .
 72
   65
 73
    2
 40
12.7
 49
0
 74
    0
 49
-12.7
 74
    0
  0
LTYPE
  5
36
330
5
100
AcDbSymbolTableRecord
100
AcDbLinetypeTableRecord
  2
DASHED
 70
    0
  3
Dashed _ _ _ _ _ _ _ _ _ _ _ _ _ _ _ _ _
 72
   65
 73
    2
 40
19.05
 49
12.7
 74
    0
 49
-6.35
 74
    0
  0
LTYPE
  5
37
330
5
100
AcDbSymbolTableRecord
100
AcDbLinetypeTableRecord
  2
DASHEDTINY
 70
    0
  3
Dashed (.15x) _ _ _ _ _ _ _ _ _ _ _ _ _ _ _ _ _
 72
   65
 73
    2
 40
2.8575
 49
1.905
 74
    0
 49
-0.9525
 74
    0
  0
LTYPE
  5
38
330
5
100
AcDbSymbolTableRecord
100
AcDbLinetypeTableRecord
  2
DASHED2
 70
    0
  3
Dashed (.5x) _ _ _ _ _ _ _ _ _ _ _ _ _ _ _ _ _
 72
   65
 73
    2
 40
9.524999999999999
 49
6.35
 74
    0
 49
-3.175
 74
    0
  0
LTYPE
  5
39
330
5
100
AcDbSymbolTableRecord
100
AcDbLinetypeTableRecord
  2
DASHEDX2
 70
    0
  3
Dashed (2x) ____  ____  ____  ____  ____  ___
 72
   65
 73
    2
 40
38.09999999999999
 49
25.4
 74
    0
 49
-12.7
 74
    0
  0
LTYPE
  5
3A
330
5
100
AcDbSymbolTableRecord
100
AcDbLinetypeTableRecord
  2
DASHDOT
 70
    0
  3
Dash dot __ . __ . __ . __ . __ . __ . __ . __
 72
   65
 73
    4
 40
25.4
 49
12.7
 74
    0
 49
-6.35
 74
    0
 49
0
 74
    0
 49
-6.35
 74
    0
  0
LTYPE
  5
3B
330
5
100
AcDbSymbolTableRecord
100
AcDbLinetypeTableRecord
  2
DASHDOTTINY
 70
    0
  3
Dash dot (.15x) _._._._._._._._._._._._._._._.
 72
   65
 73
    4
 40
3.81
 49
1.905
 74
    0
 49
-0.9525
 74
    0
 49
0
 74
    0
 49
-0.9525
 74
    0
  0
LTYPE
  5
3C
330
5
100
AcDbSymbolTableRecord
100
AcDbLinetypeTableRecord
  2
DASHDOT2
 70
    0
  3
Dash dot (.5x) _._._._._._._._._._._._._._._.
 72
   65
 73
    4
 40
12.7
 49
6.35
 74
    0
 49
-3.175
 74
    0
 49
0
 74
    0
 49
-3.175
 74
    0
  0
LTYPE
  5
3D
330
5
100
AcDbSymbolTableRecord
100
AcDbLinetypeTableRecord
  2
DASHDOTX2
 70
    0
  3
Dash dot (2x) ____  .  ____  .  ____  .  ___
 72
   65
 73
    4
 40
50.8
 49
25.4
 74
    0
 49
-12.7
 74
    0
 49
0
 74
    0
 49
-12.7
 74
    0
  0
LTYPE
  5
3E
330
5
100
AcDbSymbolTableRecord
100
AcDbLinetypeTableRecord
  2
DIVIDE
 70
    0
  3
Divide ____ . . ____ . . ____ . . ____ . . ____
 72
   65
 73
    6
 40
31.75
 49
12.7
 74
    0
 49
-6.35
 74
    0
 49
0
 74
    0
 49
-6.35
 74
    0
 49
0
 74
    0
 49
-6.35
 74
    0
  0
LTYPE
  5
3F
330
5
100
AcDbSymbolTableRecord
100
AcDbLinetypeTableRecord
  2
DIVIDETINY
 70
    0
  3
Divide (.15x) __..__..__..__..__..__..__..__.._
 72
   65
 73
    6
 40
4.7625
 49
1.905
 74
    0
 49
-0.9525
 74
    0
 49
0
 74
    0
 49
-0.9525
 74
    0
 49
0
 74
    0
 49
-0.9525
 74
    0
  0
LTYPE
  5
40
330
5
100
AcDbSymbolTableRecord
100
AcDbLinetypeTableRecord
  2
DIVIDE2
 70
    0
  3
Divide (.5x) __..__..__..__..__..__..__..__.._
 72
   65
 73
    6
 40
15.875
 49
6.35
 74
    0
 49
-3.175
 74
    0
 49
0
 74
    0
 49
-3.175
 74
    0
 49
0
 74
    0
 49
-3.175
 74
    0
  0
LTYPE
  5
41
330
5
100
AcDbSymbolTableRecord
100
AcDbLinetypeTableRecord
  2
DIVIDEX2
 70
    0
  3
Divide (2x) ________  .  .  ________  .  .  _
 72
   65
 73
    6
 40
63.5
 49
25.4
 74
    0
 49
-12.7
 74
    0
 49
0
 74
    0
 49
-12.7
 74
    0
 49
0
 74
    0
 49
-12.7
 74
    0
  0
LTYPE
  5
42
330
5
100
AcDbSymbolTableRecord
100
AcDbLinetypeTableRecord
  2
BORDER
 70
    0
  3
Border __ __ . __ __ . __ __ . __ __ . __ __ .
 72
   65
 73
    6
 40
44.45
 49
12.7
 74
    0
 49
-6.35
 74
    0
 49
12.7
 74
    0
 49
-6.35
 74
    0
 49
0
 74
    0
 49
-6.35
 74
    0
  0
LTYPE
  5
43
330
5
100
AcDbSymbolTableRecord
100
AcDbLinetypeTableRecord
  2
BORDERTINY
 70
    0
  3
Border (.15x) __.__.__.__.__.__.__.__.__.__.__.
 72
   65
 73
    6
 40
6.6675
 49
1.905
 74
    0
 49
-0.9525
 74
    0
 49
1.905
 74
    0
 49
-0.9525
 74
    0
 49
0
 74
    0
 49
-0.9525
 74
    0
  0
LTYPE
  5
44
330
5
100
AcDbSymbolTableRecord
100
AcDbLinetypeTableRecord
  2
BORDER2
 70
    0
  3
Border (.5x) __.__.__.__.__.__.__.__.__.__.__.
 72
   65
 73
    6
 40
22.225
 49
6.35
 74
    0
 49
-3.175
 74
    0
 49
6.35
 74
    0
 49
-3.175
 74
    0
 49
0
 74
    0
 49
-3.175
 74
    0
  0
LTYPE
  5
45
330
5
100
AcDbSymbolTableRecord
100
AcDbLinetypeTableRecord
  2
BORDERX2
 70
    0
  3
Border (2x) ____  ____  .  ____  ____  .  ___
 72
   65
 73
    6
 40
88.89999999999999
 49
25.4
 74
    0
 49
-12.7
 74
    0
 49
25.4
 74
    0
 49
-12.7
 74
    0
 49
0
 74
    0
 49
-12.7
 74
    0
  0
LTYPE
  5
46
330
5
100
AcDbSymbolTableRecord
100
AcDbLinetypeTableRecord
  2
CENTER
 70
    0
  3
Center ____ _ ____ _ ____ _ ____ _ ____ _ ____
 72
   65
 73
    4
 40
50.8
 49
31.75
 74
    0
 49
-6.35
 74
    0
 49
6.35
 74
    0
 49
-6.35
 74
    0
  0
LTYPE
  5
47
330
5
100
AcDbSymbolTableRecord
100
AcDbLinetypeTableRecord
  2
CENTERTINY
 70
    0
  3
Center (.15x) ___ _ ___ _ ___ _ ___ _ ___ _ ___
 72
   65
 73
    4
 40
7.619999999999999
 49
4.7625
 74
    0
 49
-0.9525
 74
    0
 49
0.9525
 74
    0
 49
-0.9525
 74
    0
  0
LTYPE
  5
48
330
5
100
AcDbSymbolTableRecord
100
AcDbLinetypeTableRecord
  2
CENTER2
 70
    0
  3
Center (.5x) ___ _ ___ _ ___ _ ___ _ ___ _ ___
 72
   65
 73
    4
 40
28.575
 49
19.05
 74
    0
 49
-3.175
 74
    0
 49
3.175
 74
    0
 49
-3.175
 74
    0
  0
LTYPE
  5
49
330
5
100
AcDbSymbolTableRecord
100
AcDbLinetypeTableRecord
  2
CENTERX2
 70
    0
  3
Center (2x) ________  __  ________  __  _____
 72
   65
 73
    4
 40
101.6
 49
63.5
 74
    0
 49
-12.7
 74
    0
 49
12.7
 74
    0
 49
-12.7
 74
    0
  0
ENDTAB
  0
TABLE
  2
LAYER
  5
2
330
0
100
AcDbSymbolTable
 70
    1
  0
LAYER
  5
10
330
2
100
AcDbSymbolTableRecord
100
AcDbLayerTableRecord
  2
0
 70
    0
 62
    7
  6
CONTINUOUS
370
    0
390
F
  0
LAYER
  5
4A
330
2
100
AcDbSymbolTableRecord
100
AcDbLayerTableRecord
  2
Capa_1
 70
    0
 62
    7
  6
CONTINUOUS
370
   -3
390
F
  0
ENDTAB
  0
TABLE
  2
STYLE
  5
3
330
0
100
AcDbSymbolTable
 70
    3
  0
STYLE
  5
4B
330
2
100
AcDbSymbolTableRecord
100
AcDbTextStyleTableRecord
  2
Standard
 70
    0
 40
0
 41
1
 50
0
 71
    0
 42
1
  3
txt
  4

  0
ENDTAB
  0
TABLE
  2
VIEW
  5
6
330
0
100
AcDbSymbolTable
 70
    0
  0
ENDTAB
  0
TABLE
  2
UCS
  5
7
330
0
100
AcDbSymbolTable
 70
    0
  0
ENDTAB
  0
TABLE
  2
APPID
  5
9
330
0
100
AcDbSymbolTable
 70
    1
  0
APPID
  5
12
330
9
100
AcDbSymbolTableRecord
100
AcDbRegAppTableRecord
  2
ACAD
 70
    0
  0
APPID
  5
4C
330
9
100
AcDbSymbolTableRecord
100
AcDbRegAppTableRecord
  2
LibreCad
 70
    0
  0
ENDTAB
  0
TABLE
  2
DIMSTYLE
  5
A
330
0
100
AcDbSymbolTable
 70
    1
100
AcDbDimStyleTable
 71
    1
  0
DIMSTYLE
105
4D
330
A
100
AcDbSymbolTableRecord
100
AcDbDimStyleTableRecord
  2
Standard
 70
    0
 40
1
 41
2.5
 42
0.625
 43
0.38
 44
1.25
 45
0
 46
0
 47
0
 48
0
 49
1
140
2.5
141
0.09
142
0
143
25.4
144
1
145
0
146
1
147
0.625
148
0
 71
    0
 72
    0
 73
    0
 74
    1
 75
    0
 76
    0
 77
    0
 78
    8
 79
    0
170
    0
171
    2
172
    0
173
    0
174
    0
175
    0
176
    0
177
    0
178
    0
179
    0
271
    2
272
    4
273
    2
274
    2
275
    0
276
    0
277
    2
278
   44
279
    0
280
    0
281
    0
282
    0
283
    1
284
    0
285
    0
286
    0
288
    0
289
    3
340
STANDARD
341

371
   -2
372
   -2
  0
ENDTAB
  0
TABLE
  2
BLOCK_RECORD
  5
1
330
0
100
AcDbSymbolTable
 70
    2
  0
BLOCK_RECORD
  5
1F
330
1
100
AcDbSymbolTableRecord
100
AcDbBlockTableRecord
  2
*Model_Space
 70
    0
280
    1
281
    0
  0
BLOCK_RECORD
  5
1E
330
1
100
AcDbSymbolTableRecord
100
AcDbBlockTableRecord
  2
*Paper_Space
 70
    0
280
    1
281
    0
  0
BLOCK_RECORD
  5
4E
330
1
100
AcDbSymbolTableRecord
100
AcDbBlockTableRecord
  2
*D3
 70
    0
280
    1
281
    0
  0
BLOCK_RECORD
  5
51
330
1
100
AcDbSymbolTableRecord
100
AcDbBlockTableRecord
  2
*D1
 70
    0
280
    1
281
    0
  0
BLOCK_RECORD
  5
54
330
1
100
AcDbSymbolTableRecord
100
AcDbBlockTableRecord
  2
*D2
 70
    0
280
    1
281
    0
  0
BLOCK_RECORD
  5
57
330
1
100
AcDbSymbolTableRecord
100
AcDbBlockTableRecord
  2
gear_N108P2.1
 70
    0
280
    1
281
    0
  0
BLOCK_RECORD
  5
5A
330
1
100
AcDbSymbolTableRecord
100
AcDbBlockTableRecord
  2
gear_N30P2.1
 70
    0
280
    1
281
    0
  0
ENDTAB
  0
ENDSEC
  0
SECTION
  2
BLOCKS
  0
BLOCK
  5
20
330
1F
100
AcDbEntity
  8
0
100
AcDbBlockBegin
  2
*Model_Space
 70
    0
 10
0
 20
0
 30
0
  3
*Model_Space
  1

  0
ENDBLK
  5
21
330
1F
100
AcDbEntity
  8
0
100
AcDbBlockEnd
  0
BLOCK
  5
1C
330
1B
100
AcDbEntity
  8
0
100
AcDbBlockBegin
  2
*Paper_Space
 70
    0
 10
0
 20
0
 30
0
  3
*Paper_Space
  1

  0
ENDBLK
  5
1D
330
1F
100
AcDbEntity
  8
0
100
AcDbBlockEnd
  0
BLOCK
  5
4F
330
4E
100
AcDbEntity
  8
0
100
AcDbBlockBegin
  2
*D3
 70
    1
 10
0
 20
0
  3
*D3
  1

  0
LINE
  5
5D
100
AcDbEntity
  8
0
  6
ByBlock
 62
    0
370
   -2
100
AcDbLine
 10
-6.393554999999992
 20
-2.598455214080065
 11
4.949997999999994
 21
-2.598455214080066
  0
SOLID
  5
5E
100
AcDbEntity
  8
0
  6
ByBlock
 62
    0
370
   -2
100
AcDbTrace
 10
-1.393554999999992
 20
-2.598455214080066
 30
0
 11
-3.893554999999992
 21
-3.014739871852906
 31
0
 12
-3.893554999999992
 22
-2.182170556307225
 32
0
 13
-3.893554999999992
 23
-2.182170556307225
 33
0
  0
SOLID
  5
5F
100
AcDbEntity
  8
0
  6
ByBlock
 62
    0
370
   -2
100
AcDbTrace
 10
-0.05000200000000632
 20
-2.598455214080066
 30
0
 11
2.449997999999994
 21
-2.182170556307225
 31
0
 12
2.449997999999994
 22
-3.014739871852906
 32
0
 13
2.449997999999994
 23
-3.014739871852906
 33
0
  0
MTEXT
  5
60
100
AcDbEntity
  8
0
  6
CONTINUOUS
 62
    0
370
   -2
100
AcDbMText
 10
3.422220222222293
 20
-0.7234552140800656
 30
0
 40
2.5
 41
5.6944444444446
 71
    5
 72
    1
  1
1,34
  7
STANDARD
210
0
220
0
230
1
 50
0
 73
    2
 44
1
  0
LINE
  5
61
100
AcDbEntity
  8
0
  6
ByBlock
 62
    0
370
   -2
100
AcDbLine
 10
-1.393554999999992
 20
-1.361095000000013
 11
-1.393554999999992
 21
-3.848455214080066
  0
LINE
  5
62
100
AcDbEntity
  8
0
  6
ByBlock
 62
    0
370
   -2
100
AcDbLine
 10
-0.05000200000000644
 20
-0.8956139999999877
 11
-0.05000200000000655
 21
-3.848455214080066
  0
ENDBLK
  5
50
330
4E
100
AcDbEntity
  8
0
100
AcDbBlockEnd
  0
BLOCK
  5
52
330
51
100
AcDbEntity
  8
0
100
AcDbBlockBegin
  2
*D1
 70
    1
 10
0
 20
0
  3
*D1
  1

  0
LINE
  5
63
100
AcDbEntity
  8
0
  6
ByBlock
 62
    0
370
   -2
100
AcDbLine
 10
-73.5776
 20
1.562500000000025
 11
-0.05000200000000632
 21
1.562500000000025
  0
SOLID
  5
64
100
AcDbEntity
  8
0
  6
ByBlock
 62
    0
370
   -2
100
AcDbTrace
 10
-73.5776
 20
1.562500000000025
 30
0
 11
-71.0776
 21
1.978784657772865
 31
0
 12
-71.0776
 22
1.146215342227184
 32
0
 13
-71.0776
 23
1.146215342227184
 33
0
  0
SOLID
  5
65
100
AcDbEntity
  8
0
  6
ByBlock
 62
    0
370
   -2
100
AcDbTrace
 10
-0.05000200000000632
 20
1.562500000000025
 30
0
 11
-2.550002000000006
 21
1.146215342227184
 31
0
 12
-2.550002000000006
 22
1.978784657772865
 32
0
 13
-2.550002000000006
 23
1.978784657772865
 33
0
  0
MTEXT
  5
66
100
AcDbEntity
  8
0
  6
CONTINUOUS
 62
    0
370
   -2
100
AcDbMText
 10
-36.81380100000001
 20
3.437500000000025
 30
0
 40
2.5
 41
7.916666666667133
 71
    5
 72
    1
  1
73,53
  7
STANDARD
210
0
220
0
230
1
 50
0
 73
    2
 44
1
  0
LINE
  5
67
100
AcDbEntity
  8
0
  6
ByBlock
 62
    0
370
   -2
100
AcDbLine
 10
-73.5776
 20
0.3543860000000123
 11
-73.5776
 21
2.812500000000025
  0
LINE
  5
68
100
AcDbEntity
  8
0
  6
ByBlock
 62
    0
370
   -2
100
AcDbLine
 10
-0.05000200000000628
 20
0.3543860000000123
 11
-0.05000200000000624
 21
2.812500000000025
  0
ENDBLK
  5
53
330
51
100
AcDbEntity
  8
0
100
AcDbBlockEnd
  0
BLOCK
  5
55
330
54
100
AcDbEntity
  8
0
100
AcDbBlockBegin
  2
*D2
 70
    1
 10
0
 20
0
  3
*D2
  1

  0
LINE
  5
69
100
AcDbEntity
  8
0
  6
ByBlock
 62
    0
370
   -2
100
AcDbLine
 10
0.05000100000000174
 20
1.589137899520038
 11
21.434747
 21
1.589137899520038
  0
SOLID
  5
6A
100
AcDbEntity
  8
0
  6
ByBlock
 62
    0
370
   -2
100
AcDbTrace
 10
0.05000100000000174
 20
1.589137899520038
 30
0
 11
2.550001000000002
 21
2.005422557292878
 31
0
 12
2.550001000000002
 22
1.172853241747197
 32
0
 13
2.550001000000002
 23
1.172853241747197
 33
0
  0
SOLID
  5
6B
100
AcDbEntity
  8
0
  6
ByBlock
 62
    0
370
   -2
100
AcDbTrace
 10
21.434747
 20
1.589137899520038
 30
0
 11
18.934747
 21
1.172853241747197
 31
0
 12
18.934747
 22
2.005422557292878
 32
0
 13
18.934747
 23
2.005422557292878
 33
0
  0
MTEXT
  5
6C
100
AcDbEntity
  8
0
  6
CONTINUOUS
 62
    0
370
   -2
100
AcDbMText
 10
10.742374
 20
3.464137899520038
 30
0
 40
2.5
 41
7.361111111111266
 71
    5
 72
    1
  1
21,38
  7
STANDARD
210
0
220
0
230
1
 50
0
 73
    2
 44
1
  0
LINE
  5
6D
100
AcDbEntity
  8
0
  6
ByBlock
 62
    0
370
   -2
100
AcDbLine
 10
0.05000100000000073
 20
0.8418530000000004
 11
0.0500010000000032
 21
2.839137899520038
  0
LINE
  5
6E
100
AcDbEntity
  8
0
  6
ByBlock
 62
    0
370
   -2
100
AcDbLine
 10
21.434747
 20
0.8418530000000004
 11
21.434747
 21
2.839137899520038
  0
ENDBLK
  5
56
330
54
100
AcDbEntity
  8
0
100
AcDbBlockEnd
  0
BLOCK
  5
58
330
57
100
AcDbEntity
  8
0
100
AcDbBlockBegin
  2
gear_N108P2.1
 70
    0
 10
0
 20
0
  3
gear_N108P2.1
  1

  0
LWPOLYLINE
  5
6F
100
AcDbEntity
  8
Capa_1
  6
ByLayer
 62
    7
370
   -1
100
AcDbPolyline
 90
  649
 70
    1
 43
0
 10
72.23404500000001
 20
37.54990099999999
 10
72.906327
 20
37.33878399999999
 10
73.57759799999999
 20
37.08442000000001
 10
73.57759799999999
 20
36.54318600000001
 10
72.906327
 20
36.288822
 10
72.23404500000001
 20
36.07770499999999
 10
72.216915
 20
35.48915100000001
 10
72.87578199999999
 20
35.239302
 10
73.53112999999999
 20
34.94633900000001
 10
73.49966000000001
 20
34.406018
 10
72.81473200000002
 20
34.19111700000001
 10
72.131314
 20
34.019447
 10
72.07999700000002
 20
33.43288199999999
 10
72.723221
 20
33.14514799999999
 10
73.36042499999999
 20
32.814576
 10
73.297594
 20
32.276999
 10
72.60132899999999
 20
32.10228600000001
 10
71.909086
 20
31.97064400000001
 10
71.82374799999999
 20
31.38805499999999
 10
72.44915499999999
 20
31.06340899999999
 10
73.06606200000002
 20
30.696343
 10
72.97207599999999
 20
30.163332
 10
72.266831
 20
30.02939500000001
 10
71.568105
 20
29.93822899999999
 10
71.449039
 20
29.36158999999999
 10
72.05450999999999
 20
29.001124
 10
72.64902800000002
 20
28.598811
 10
72.52421200000001
 20
28.072164
 10
71.81237400000001
 20
27.979463
 10
71.10952799999998
 20
27.929078
 10
70.957134
 20
27.360338
 10
71.54062300000001
 20
26.965278
 10
72.11074299999999
 20
26.529078
 10
71.95551500000002
 20
26.010579
 10
71.23948900000002
 20
25.959423
 10
70.53490400000001
 20
25.949992
 10
70.34969800000002
 20
25.391073
 10
70.90922900000001
 20
24.962756
 10
71.45302100000001
 20
24.494143
 10
71.26790800000001
 20
23.985547
 10
70.55012100000002
 20
23.976112
 10
69.84617699999998
 20
24.007662
 10
69.62878700000002
 20
23.460459
 10
70.16246900000002
 20
23.000332
 10
70.67809200000002
 20
22.500894
 10
70.46372199999999
 20
22.003924
 10
69.74659800000001
 20
22.036238
 10
69.045682
 20
22.108665
 10
68.796841
 20
21.575028
 10
69.30286599999999
 20
21.08465
 10
69.788579
 20
20.556076
 10
69.54567299999999
 20
20.072409
 10
68.83164200000002
 20
20.146368
 10
68.136122
 20
20.259426
 10
67.85667700000002
 20
19.741162
 10
68.33333100000002
 20
19.222189
 10
68.787488
 20
18.666268
 10
68.51687100000001
 20
18.19754500000001
 10
67.80834899999999
 20
18.312895
 10
67.12057899999999
 20
18.466203
 10
66.81147000000001
 20
17.965061
 10
67.25714400000001
 20
17.419255
 10
67.67820800000001
 20
16.83786600000001
 10
67.38079400000001
 20
16.38567
 10
66.68017999999998
 20
16.542023
 10
66.002486
 20
16.735063
 10
65.664762
 20
16.252743
 10
66.077946
 20
15.681943
 10
66.46449200000001
 20
15.077056
 10
66.141288
 20
14.642919
 10
65.45095000000001
 20
14.839744
 10
64.785628
 20
15.07186
 10
64.42043200000001
 20
14.609995
 10
64.799725
 20
14.016137
 10
65.15044800000001
 20
13.389796
 10
64.80255
 20
12.975186
 10
64.12482400000002
 20
13.211818
 10
63.47412399999999
 20
13.482229
 10
63.08268799999999
 20
13.042378
 10
63.42681300000001
 20
12.427469
 10
63.740522
 20
11.781795
 10
63.36910399999999
 20
11.388118
 10
62.70628200000002
 20
11.663753
 10
62.07240899999999
 20
11.971542
 10
61.65606
 20
11.555193
 10
61.96384900000001
 20
10.92132
 10
62.239484
 20
10.258498
 10
61.84580700000001
 20
9.887079999999997
 10
61.20013299999999
 20
10.200789
 10
60.58522400000001
 20
10.544914
 10
60.14537300000001
 20
10.153478
 10
60.415784
 20
9.502777999999999
 10
60.65241599999999
 20
8.825051999999999
 10
60.23780600000001
 20
8.477153999999999
 10
59.61146500000001
 20
8.827877000000001
 10
59.017607
 20
9.207169
 10
58.55574200000001
 20
8.841974
 10
58.787858
 20
8.176652000000004
 10
58.98468299999999
 20
7.486314
 10
58.550546
 20
7.163110000000003
 10
57.94565900000001
 20
7.549655999999999
 10
57.37485899999999
 20
7.96284
 10
56.892539
 20
7.625115999999998
 10
57.085579
 20
6.947422000000003
 10
57.24193199999999
 20
6.246808000000001
 10
56.789736
 20
5.949393999999998
 10
56.208347
 20
6.370457999999999
 10
55.662541
 20
6.816131999999996
 10
55.16139899999999
 20
6.507021999999999
 10
55.314707
 20
5.819253000000003
 10
55.43005700000001
 20
5.110731000000001
 10
54.96133399999999
 20
4.840114
 10
54.40541300000001
 20
5.294271000000002
 10
53.88643999999999
 20
5.770924999999998
 10
53.36817600000001
 20
5.491480000000003
 10
53.481234
 20
4.795960000000001
 10
53.555193
 20
4.081929000000002
 10
53.07152600000001
 20
3.839022999999997
 10
52.542952
 20
4.324736000000001
 10
52.05257399999999
 20
4.830761000000003
 10
51.51893699999999
 20
4.581919999999997
 10
51.591364
 20
3.881003999999997
 10
51.623678
 20
3.163879999999999
 10
51.12670800000001
 20
2.949510000000004
 10
50.62727000000001
 20
3.465133000000002
 10
50.16714300000001
 20
3.998815
 10
49.61994
 20
3.781424999999999
 10
49.65149
 20
3.077480999999999
 10
49.642055
 20
2.359693999999998
 10
49.133459
 20
2.174581000000003
 10
48.664846
 20
2.718373
 10
48.23652899999999
 20
3.277903999999999
 10
47.67761
 20
3.092697999999999
 10
47.66817900000001
 20
2.388112999999997
 10
47.617023
 20
1.672086999999998
 10
47.098524
 20
1.516858999999997
 10
46.662324
 20
2.086978999999999
 10
46.267264
 20
2.670468
 10
45.69852399999999
 20
2.518073999999999
 10
45.648139
 20
1.815227999999998
 10
45.55543800000001
 20
1.103389999999997
 10
45.028791
 20
0.9785740000000018
 10
44.62647799999999
 20
1.573092000000003
 10
44.266012
 20
2.178562999999997
 10
43.689373
 20
2.059497
 10
43.598207
 20
1.360771
 10
43.46427
 20
0.6555260000000018
 10
42.931259
 20
0.5615400000000008
 10
42.564193
 20
1.178446999999998
 10
42.239547
 20
1.803854000000001
 10
41.656958
 20
1.718516000000001
 10
41.525316
 20
1.026273000000003
 10
41.35060300000001
 20
0.3300079999999994
 10
40.81302600000001
 20
0.2671769999999967
 10
40.48245399999999
 20
0.9043810000000008
 10
40.19471999999999
 20
1.547604999999997
 10
39.608155
 20
1.496288
 10
39.43648400000001
 20
0.8128699999999967
 10
39.22158400000001
 20
0.1279419999999973
 10
38.681263
 20
0.09647199999999856
 10
38.3883
 20
0.7518200000000022
 10
38.138451
 20
1.410687000000003
 10
37.549897
 20
1.393557000000001
 10
37.33878
 20
0.7212749999999986
 10
37.084416
 20
0.05000400000000127
 10
36.543182
 20
0.05000400000000127
 10
36.28881799999999
 20
0.7212749999999986
 10
36.07770099999999
 20
1.393557000000001
 10
35.489147
 20
1.410687000000003
 10
35.23929799999999
 20
0.7518200000000022
 10
34.946335
 20
0.09647199999999856
 10
34.406014
 20
0.1279419999999973
 10
34.191114
 20
0.8128699999999967
 10
34.019443
 20
1.496288
 10
33.432878
 20
1.547604999999997
 10
33.145144
 20
0.9043810000000008
 10
32.814572
 20
0.2671769999999967
 10
32.276995
 20
0.3300079999999994
 10
32.102282
 20
1.026273000000003
 10
31.97064
 20
1.718516000000001
 10
31.388051
 20
1.803854000000001
 10
31.063406
 20
1.178446999999998
 10
30.69633899999999
 20
0.5615400000000008
 10
30.16332800000001
 20
0.6555260000000018
 10
30.029391
 20
1.360771
 10
29.938225
 20
2.059497
 10
29.361586
 20
2.178562999999997
 10
29.00112
 20
1.573092000000003
 10
28.59880699999999
 20
0.9785740000000018
 10
28.07216
 20
1.103389999999997
 10
27.97945899999999
 20
1.815227999999998
 10
27.929074
 20
2.518073999999999
 10
27.36033399999999
 20
2.670468
 10
26.96527399999999
 20
2.086978999999999
 10
26.52907400000001
 20
1.516858999999997
 10
26.010575
 20
1.672086999999998
 10
25.959419
 20
2.388112999999997
 10
25.949988
 20
3.092697999999999
 10
25.391069
 20
3.277903999999999
 10
24.96275199999999
 20
2.718373
 10
24.494139
 20
2.174581000000003
 10
23.98554300000001
 20
2.359693999999998
 10
23.976108
 20
3.077480999999999
 10
24.00765799999999
 20
3.781424999999999
 10
23.460455
 20
3.998815
 10
23.000328
 20
3.465133000000002
 10
22.500891
 20
2.949510000000004
 10
22.00391999999999
 20
3.163879999999999
 10
22.03623400000001
 20
3.881003999999997
 10
22.108661
 20
4.581919999999997
 10
21.575024
 20
4.830761000000003
 10
21.08464599999999
 20
4.324736000000001
 10
20.556072
 20
3.839022999999997
 10
20.072405
 20
4.081929000000002
 10
20.14636400000001
 20
4.795960000000001
 10
20.259422
 20
5.491480000000003
 10
19.741158
 20
5.770924999999998
 10
19.222185
 20
5.294271000000002
 10
18.666264
 20
4.840114
 10
18.197541
 20
5.110731000000001
 10
18.31289100000001
 20
5.819253000000003
 10
18.466199
 20
6.507021999999999
 10
17.965057
 20
6.816131999999996
 10
17.419251
 20
6.370457999999999
 10
16.837862
 20
5.949393999999998
 10
16.385666
 20
6.246808000000001
 10
16.54202000000001
 20
6.947422000000003
 10
16.73506
 20
7.625115999999998
 10
16.25273899999999
 20
7.96284
 10
15.681939
 20
7.549655999999999
 10
15.07705199999999
 20
7.163110000000003
 10
14.642915
 20
7.486314
 10
14.83974000000001
 20
8.176652000000004
 10
15.071856
 20
8.841974
 10
14.60999100000001
 20
9.207169
 10
14.016133
 20
8.827877000000001
 10
13.389792
 20
8.477153999999999
 10
12.975182
 20
8.825051999999999
 10
13.211814
 20
9.502777999999999
 10
13.482225
 20
10.153478
 10
13.042374
 20
10.544914
 10
12.427465
 20
10.200789
 10
11.781791
 20
9.887079999999997
 10
11.388114
 20
10.258498
 10
11.663749
 20
10.92132
 10
11.971538
 20
11.555193
 10
11.55519
 20
11.971542
 10
10.921316
 20
11.663753
 10
10.258494
 20
11.388118
 10
9.887076000000008
 20
11.781795
 10
10.200785
 20
12.427469
 10
10.54491
 20
13.042378
 10
10.153474
 20
13.482229
 10
9.502774000000002
 20
13.211818
 10
8.825047999999995
 20
12.975186
 10
8.477149999999995
 20
13.389796
 10
8.827872999999997
 20
14.016137
 10
9.207166000000001
 20
14.609995
 10
8.841970000000003
 20
15.07186
 10
8.176648
 20
14.839744
 10
7.486310000000003
 20
14.642919
 10
7.163105999999999
 20
15.077056
 10
7.549651999999995
 20
15.681943
 10
7.962837000000007
 20
16.252743
 10
7.625112000000001
 20
16.735063
 10
6.947417999999999
 20
16.542023
 10
6.246803999999997
 20
16.38567
 10
5.949389999999994
 20
16.83786600000001
 10
6.370453999999995
 20
17.419255
 10
6.816128000000006
 20
17.965061
 10
6.507019
 20
18.466203
 10
5.819248999999999
 20
18.312895
 10
5.110726999999997
 20
18.19754500000001
 10
4.840109999999996
 20
18.666268
 10
5.294267000000005
 20
19.222189
 10
5.770921000000001
 20
19.741162
 10
5.491476000000006
 20
20.259426
 10
4.795956000000004
 20
20.146368
 10
4.081924999999998
 20
20.072409
 10
3.839020000000005
 20
20.556076
 10
4.324731999999997
 20
21.08465
 10
4.830757000000006
 20
21.575028
 10
4.581916000000007
 20
22.108665
 10
3.881
 20
22.036238
 10
3.163876000000002
 20
22.003924
 10
2.949506
 20
22.500894
 10
3.465129000000005
 20
23.000332
 10
3.998811000000003
 20
23.460459
 10
3.781420999999995
 20
24.007662
 10
3.077477000000002
 20
23.976112
 10
2.359690000000001
 20
23.985547
 10
2.174576999999999
 20
24.494143
 10
2.718368999999996
 20
24.962756
 10
3.277900000000002
 20
25.391073
 10
3.092693999999995
 20
25.949992
 10
2.388109
 20
25.959423
 10
1.672083000000001
 20
26.010579
 10
1.516856000000004
 20
26.529078
 10
2.086974999999995
 20
26.965278
 10
2.670463999999996
 20
27.360338
 10
2.518069999999994
 20
27.929078
 10
1.815224000000001
 20
27.979463
 10
1.103386
 20
28.072164
 10
0.9785700000000048
 20
28.598811
 10
1.573087999999998
 20
29.001124
 10
2.178559000000007
 20
29.36158999999999
 10
2.059493000000003
 20
29.93822899999999
 10
1.360766999999996
 20
30.02939500000001
 10
0.6555220000000048
 20
30.163332
 10
0.5615360000000038
 20
30.696343
 10
1.178443000000001
 20
31.06340899999999
 10
1.803849999999997
 20
31.38805499999999
 10
1.718512000000004
 20
31.97064400000001
 10
1.026268999999999
 20
32.10228600000001
 10
0.3300040000000024
 20
32.276999
 10
0.2671729999999997
 20
32.814576
 10
0.9043769999999967
 20
33.14514799999999
 10
1.547601
 20
33.43288199999999
 10
1.496284000000003
 20
34.019447
 10
0.8128659999999996
 20
34.19111700000001
 10
0.1279380000000003
 20
34.406018
 10
0.09646800000000155
 20
34.94633900000001
 10
0.7518160000000051
 20
35.239302
 10
1.410684000000003
 20
35.48915100000001
 10
1.393552999999997
 20
36.07770499999999
 10
0.7212710000000015
 20
36.288822
 10
0.04999999999999716
 20
36.54318600000001
 10
0.04999999999999716
 20
37.08442000000001
 10
0.7212710000000015
 20
37.33878399999999
 10
1.393552999999997
 20
37.54990099999999
 10
1.410684000000003
 20
38.13845500000001
 10
0.7518160000000051
 20
38.38830399999999
 10
0.09646800000000155
 20
38.68126700000001
 10
0.1279380000000003
 20
39.221587
 10
0.8128659999999996
 20
39.436488
 10
1.496284000000003
 20
39.608159
 10
1.547601
 20
40.19472399999999
 10
0.9043769999999967
 20
40.48245799999999
 10
0.2671729999999997
 20
40.81303
 10
0.3300040000000024
 20
41.350607
 10
1.026268999999999
 20
41.52532000000001
 10
1.718512000000004
 20
41.65696200000001
 10
1.803849999999997
 20
42.23955099999999
 10
1.178443000000001
 20
42.564196
 10
0.5615360000000038
 20
42.931263
 10
0.6555220000000048
 20
43.464274
 10
1.360766999999996
 20
43.59821100000001
 10
2.059493000000003
 20
43.68937699999999
 10
2.178559000000007
 20
44.26601599999999
 10
1.573087999999998
 20
44.626482
 10
0.9785700000000048
 20
45.028795
 10
1.103386
 20
45.555442
 10
1.815224000000001
 20
45.64814299999999
 10
2.518069999999994
 20
45.698528
 10
2.670463999999996
 20
46.267268
 10
2.086974999999995
 20
46.662328
 10
1.516856000000004
 20
47.098528
 10
1.672083000000001
 20
47.61702699999999
 10
2.388109
 20
47.668183
 10
3.092693999999995
 20
47.67761399999999
 10
3.277900000000002
 20
48.23653299999999
 10
2.718368999999996
 20
48.66485
 10
2.174576999999999
 20
49.13346299999999
 10
2.359690000000001
 20
49.642059
 10
3.077477000000002
 20
49.651494
 10
3.781420999999995
 20
49.61994399999999
 10
3.998811000000003
 20
50.167147
 10
3.465129000000005
 20
50.627274
 10
2.949506
 20
51.126711
 10
3.163876000000002
 20
51.623682
 10
3.881
 20
51.591368
 10
4.581916000000007
 20
51.518941
 10
4.830757000000006
 20
52.052578
 10
4.324731999999997
 20
52.54295599999999
 10
3.839020000000005
 20
53.07153000000001
 10
4.081924999999998
 20
53.55519700000001
 10
4.795956000000004
 20
53.481238
 10
5.491476000000006
 20
53.36818000000001
 10
5.770921000000001
 20
53.886444
 10
5.294267000000005
 20
54.405417
 10
4.840109999999996
 20
54.961338
 10
5.110726999999997
 20
55.43006100000001
 10
5.819248999999999
 20
55.314711
 10
6.507019
 20
55.16140299999999
 10
6.816128000000006
 20
55.66254500000001
 10
6.370453999999995
 20
56.20835100000001
 10
5.949389999999994
 20
56.78974000000001
 10
6.246803999999997
 20
57.241936
 10
6.947417999999999
 20
57.085582
 10
7.625112000000001
 20
56.89254200000001
 10
7.962837000000007
 20
57.37486299999999
 10
7.549651999999995
 20
57.94566300000001
 10
7.163105999999999
 20
58.55055
 10
7.486310000000003
 20
58.98468699999999
 10
8.176648
 20
58.787862
 10
8.841970000000003
 20
58.555746
 10
9.207166000000001
 20
59.017611
 10
8.827872999999997
 20
59.611469
 10
8.477149999999995
 20
60.23781000000001
 10
8.825047999999995
 20
60.65241999999999
 10
9.502774000000002
 20
60.41578800000001
 10
10.153474
 20
60.14537700000001
 10
10.54491
 20
60.585228
 10
10.200785
 20
61.200137
 10
9.887076000000008
 20
61.845811
 10
10.258494
 20
62.23948800000001
 10
10.921316
 20
61.963853
 10
11.55519
 20
61.656064
 10
11.971538
 20
62.072412
 10
11.663749
 20
62.70628599999999
 10
11.388114
 20
63.369108
 10
11.781791
 20
63.740526
 10
12.427465
 20
63.426817
 10
13.042374
 20
63.08269199999999
 10
13.482225
 20
63.47412799999999
 10
13.211814
 20
64.12482799999999
 10
12.975182
 20
64.802554
 10
13.389792
 20
65.150452
 10
14.016133
 20
64.799729
 10
14.60999100000001
 20
64.420436
 10
15.071856
 20
64.78563200000001
 10
14.83974000000001
 20
65.450954
 10
14.642915
 20
66.14129200000001
 10
15.07705199999999
 20
66.464496
 10
15.681939
 20
66.07795
 10
16.25273899999999
 20
65.664765
 10
16.73506
 20
66.00248999999999
 10
16.54202000000001
 20
66.680184
 10
16.385666
 20
67.380798
 10
16.837862
 20
67.678212
 10
17.419251
 20
67.257148
 10
17.965057
 20
66.811474
 10
18.466199
 20
67.120583
 10
18.31289100000001
 20
67.808353
 10
18.197541
 20
68.516875
 10
18.666264
 20
68.787492
 10
19.222185
 20
68.33333500000001
 10
19.741158
 20
67.85668099999999
 10
20.259422
 20
68.136126
 10
20.14636400000001
 20
68.83164600000001
 10
20.072405
 20
69.545677
 10
20.556072
 20
69.78858200000001
 10
21.08464599999999
 20
69.30287
 10
21.575024
 20
68.796845
 10
22.108661
 20
69.045686
 10
22.03623400000001
 20
69.746602
 10
22.00391999999999
 20
70.46372599999999
 10
22.500891
 20
70.678096
 10
23.000328
 20
70.16247300000001
 10
23.460455
 20
69.62879100000001
 10
24.00765799999999
 20
69.846181
 10
23.976108
 20
70.55012499999999
 10
23.98554300000001
 20
71.267912
 10
24.494139
 20
71.453025
 10
24.96275199999999
 20
70.909233
 10
25.391069
 20
70.34970199999999
 10
25.949988
 20
70.534908
 10
25.959419
 20
71.239493
 10
26.010575
 20
71.955519
 10
26.52907400000001
 20
72.11074600000001
 10
26.96527399999999
 20
71.540627
 10
27.36033399999999
 20
70.957138
 10
27.929074
 20
71.109532
 10
27.97945899999999
 20
71.812378
 10
28.07216
 20
72.524216
 10
28.59880699999999
 20
72.64903200000001
 10
29.00112
 20
72.054514
 10
29.361586
 20
71.449043
 10
29.938225
 20
71.56810900000001
 10
30.029391
 20
72.266835
 10
30.16332800000001
 20
72.97208000000001
 10
30.69633899999999
 20
73.06606600000001
 10
31.063406
 20
72.44915899999999
 10
31.388051
 20
71.823752
 10
31.97064
 20
71.90909000000001
 10
32.102282
 20
72.601333
 10
32.276995
 20
73.29759799999999
 10
32.814572
 20
73.360429
 10
33.145144
 20
72.723225
 10
33.432878
 20
72.080001
 10
34.019443
 20
72.13131799999999
 10
34.191114
 20
72.814736
 10
34.406015
 20
73.499664
 10
34.946335
 20
73.53113399999999
 10
35.23929799999999
 20
72.87578600000001
 10
35.489147
 20
72.21691800000001
 10
36.07770099999999
 20
72.234049
 10
36.28881799999999
 20
72.90633099999999
 10
36.543182
 20
73.577602
 10
37.084416
 20
73.577602
 10
37.33878
 20
72.90633099999999
 10
37.549897
 20
72.234049
 10
38.138451
 20
72.21691800000001
 10
38.3883
 20
72.87578600000001
 10
38.681263
 20
73.53113399999999
 10
39.22158400000001
 20
73.499664
 10
39.436485
 20
72.814736
 10
39.608155
 20
72.13131799999999
 10
40.19471999999999
 20
72.080001
 10
40.48245399999999
 20
72.723225
 10
40.81302600000001
 20
73.360429
 10
41.35060300000001
 20
73.29759799999999
 10
41.525316
 20
72.601333
 10
41.656958
 20
71.90909000000001
 10
42.239547
 20
71.823752
 10
42.564193
 20
72.44915899999999
 10
42.931259
 20
73.06606600000001
 10
43.46427
 20
72.97208000000001
 10
43.598207
 20
72.266835
 10
43.689373
 20
71.56810900000001
 10
44.266012
 20
71.449043
 10
44.62647799999999
 20
72.054514
 10
45.028791
 20
72.64903200000001
 10
45.55543800000001
 20
72.524216
 10
45.648139
 20
71.812378
 10
45.69852399999999
 20
71.109532
 10
46.267264
 20
70.957138
 10
46.662324
 20
71.540627
 10
47.098524
 20
72.11074600000001
 10
47.617023
 20
71.955519
 10
47.66817900000001
 20
71.239493
 10
47.67761
 20
70.534908
 10
48.23652899999999
 20
70.34970199999999
 10
48.664846
 20
70.909233
 10
49.133459
 20
71.453025
 10
49.642055
 20
71.267912
 10
49.65149
 20
70.55012499999999
 10
49.61994
 20
69.846181
 10
50.16714300000001
 20
69.62879100000001
 10
50.62727000000001
 20
70.16247300000001
 10
51.12670800000001
 20
70.678096
 10
51.623678
 20
70.46372599999999
 10
51.591364
 20
69.746602
 10
51.51893699999999
 20
69.045686
 10
52.05257399999999
 20
68.796845
 10
52.542952
 20
69.30287
 10
53.07152600000001
 20
69.78858200000001
 10
53.555193
 20
69.545677
 10
53.481234
 20
68.83164600000001
 10
53.36817600000001
 20
68.136126
 10
53.88643999999999
 20
67.85668099999999
 10
54.40541300000001
 20
68.33333500000001
 10
54.96133399999999
 20
68.787492
 10
55.43005700000001
 20
68.516875
 10
55.314707
 20
67.808353
 10
55.16139899999999
 20
67.120583
 10
55.662541
 20
66.811474
 10
56.208347
 20
67.257148
 10
56.789736
 20
67.678212
 10
57.24193199999999
 20
67.380798
 10
57.085579
 20
66.680184
 10
56.892539
 20
66.00248999999999
 10
57.37485899999999
 20
65.664765
 10
57.94565900000001
 20
66.07795
 10
58.550546
 20
66.464496
 10
58.98468299999999
 20
66.14129200000001
 10
58.787858
 20
65.450954
 10
58.55574200000001
 20
64.78563200000001
 10
59.017607
 20
64.420436
 10
59.61146500000001
 20
64.799729
 10
60.23780600000001
 20
65.150452
 10
60.65241599999999
 20
64.802554
 10
60.415784
 20
64.12482799999999
 10
60.14537300000001
 20
63.47412799999999
 10
60.58522400000001
 20
63.08269199999999
 10
61.20013299999999
 20
63.426817
 10
61.84580700000001
 20
63.740526
 10
62.239484
 20
63.369108
 10
61.96384900000001
 20
62.70628599999999
 10
61.65606
 20
62.072412
 10
62.07240899999999
 20
61.656064
 10
62.70628200000002
 20
61.963853
 10
63.36910399999999
 20
62.23948800000001
 10
63.740522
 20
61.845811
 10
63.42681300000001
 20
61.200137
 10
63.08268799999999
 20
60.585228
 10
63.47412399999999
 20
60.14537700000001
 10
64.12482400000002
 20
60.41578800000001
 10
64.80255
 20
60.65241999999999
 10
65.15044800000001
 20
60.23781000000001
 10
64.799725
 20
59.611469
 10
64.420433
 20
59.017611
 10
64.785628
 20
58.555746
 10
65.45095000000001
 20
58.787862
 10
66.141288
 20
58.98468699999999
 10
66.46449200000001
 20
58.55055
 10
66.077946
 20
57.94566300000001
 10
65.664762
 20
57.37486299999999
 10
66.002486
 20
56.89254200000001
 10
66.68017999999998
 20
57.085582
 10
67.38079400000001
 20
57.241936
 10
67.67820800000001
 20
56.78974000000001
 10
67.25714400000001
 20
56.20835100000001
 10
66.81147000000001
 20
55.66254500000001
 10
67.12057899999999
 20
55.16140299999999
 10
67.80834899999999
 20
55.314711
 10
68.51687100000001
 20
55.43006100000001
 10
68.787488
 20
54.961338
 10
68.33333100000002
 20
54.405417
 10
67.85667700000002
 20
53.886444
 10
68.136122
 20
53.36818000000001
 10
68.83164200000002
 20
53.481238
 10
69.54567299999999
 20
53.55519700000001
 10
69.788579
 20
53.07153000000001
 10
69.30286599999999
 20
52.54295599999999
 10
68.796841
 20
52.052578
 10
69.045682
 20
51.518941
 10
69.74659800000001
 20
51.591368
 10
70.46372199999999
 20
51.623682
 10
70.67809200000002
 20
51.126711
 10
70.16246900000002
 20
50.627274
 10
69.62878700000002
 20
50.167147
 10
69.84617699999998
 20
49.61994399999999
 10
70.55012100000002
 20
49.651494
 10
71.26790800000001
 20
49.642059
 10
71.45302100000001
 20
49.13346299999999
 10
70.90922900000001
 20
48.66485
 10
70.34969800000002
 20
48.23653299999999
 10
70.53490400000001
 20
47.67761399999999
 10
71.23948900000002
 20
47.668183
 10
71.95551500000002
 20
47.61702699999999
 10
72.11074299999999
 20
47.098528
 10
71.54062300000001
 20
46.662328
 10
70.957134
 20
46.267268
 10
71.10952799999998
 20
45.698528
 10
71.81237400000001
 20
45.64814299999999
 10
72.52421200000001
 20
45.555442
 10
72.64902800000002
 20
45.028795
 10
72.05450999999999
 20
44.626482
 10
71.449039
 20
44.26601599999999
 10
71.568105
 20
43.68937699999999
 10
72.266831
 20
43.59821100000001
 10
72.97207599999999
 20
43.464274
 10
73.06606200000002
 20
42.931263
 10
72.44915499999999
 20
42.564196
 10
71.82374799999999
 20
42.23955099999999
 10
71.909086
 20
41.65696200000001
 10
72.60132899999999
 20
41.52532000000001
 10
73.297594
 20
41.350607
 10
73.36042499999999
 20
40.81303
 10
72.723221
 20
40.48245799999999
 10
72.07999700000002
 20
40.19472399999999
 10
72.131314
 20
39.608159
 10
72.81473200000002
 20
39.436488
 10
73.49966000000001
 20
39.221587
 10
73.53112999999999
 20
38.68126700000001
 10
72.87578199999999
 20
38.38830399999999
 10
72.216915
 20
38.13845500000001
 10
72.23404500000001
 20
37.54990099999999
  0
ENDBLK
  5
59
330
57
100
AcDbEntity
  8
0
100
AcDbBlockEnd
  0
BLOCK
  5
5B
330
5A
100
AcDbEntity
  8
0
100
AcDbBlockBegin
  2
gear_N30P2.1
 70
    0
 10
0
 20
0
  3
gear_N30P2.1
  1

  0
LWPOLYLINE
  5
70
100
AcDbEntity
  8
Capa_1
  6
ByLayer
 62
    7
370
   -1
100
AcDbPolyline
 90
  241
 70
    1
 43
0
 10
20.079521
 20
11.341797
 10
20.14314
 20
11.346081
 10
20.755393
 20
11.237553
 10
21.434747
 20
10.959228
 10
21.434747
 20
10.466355
 10
20.755393
 20
10.18803
 10
20.14314
 20
10.079502
 10
20.079521
 20
10.083786
 10
20.006259
 20
9.386751
 10
20.069381
 20
9.377714000000001
 10
20.64569
 20
9.144259999999999
 10
21.25233
 20
8.730772999999999
 10
21.149855
 20
8.248673
 10
20.427482
 20
8.117673999999997
 10
19.806042
 20
8.138808999999998
 10
19.744704
 20
8.156231000000002
 10
19.528121
 20
7.489656
 10
19.587983
 20
7.467696
 10
20.103163
 20
7.119520999999999
 10
20.610576
 20
6.588943
 10
20.410108
 20
6.138680000000001
 10
19.676282
 20
6.160736
 10
19.072818
 20
6.310616
 10
19.016444
 20
6.340406999999999
 10
18.666006
 20
5.733429000000001
 10
18.719992
 20
5.699503
 10
19.151524
 20
5.251825
 10
19.537536
 20
4.627344000000001
 10
19.247832
 20
4.228603
 10
18.534631
 20
4.402746
 10
17.975515
 20
4.674816
 10
17.926564
 20
4.715679
 10
17.457587
 20
4.194824000000001
 10
17.50334
 20
4.150414
 10
17.832364
 20
3.622802
 10
18.080104
 20
2.931708
 10
17.71383
 20
2.601914000000001
 10
17.05242
 20
2.920534
 10
16.562087
 20
3.302906
 10
16.522703
 20
3.353051000000001
 10
15.955682
 20
2.941089
 10
15.991202
 20
2.888135
 10
16.20334
 20
2.303642
 10
16.30198
 20
1.576143
 10
15.875141
 20
1.329706999999999
 10
15.294429
 20
1.778883
 10
14.894312
 20
2.254843000000001
 10
14.866214
 20
2.312082999999999
 10
14.22593
 20
2.027010000000001
 10
14.249665
 20
1.967828000000001
 10
14.335644
 20
1.352003
 10
14.280873
 20
0.6198949999999996
 10
13.812125
 20
0.4675890000000003
 10
13.337492
 20
1.027684000000001
 10
13.045076
 20
1.576433999999999
 10
13.029492
 20
1.638263
 10
12.343932
 20
1.492544000000001
 10
12.354842
 20
1.429721000000001
 10
12.310906
 20
0.8094749999999991
 10
12.105118
 20
0.1047519999999995
 10
11.614946
 20
0.05323300000000053
 10
11.267135
 20
0.6997730000000004
 10
11.0952
 20
1.297328
 10
11.092812
 20
1.361045000000001
 10
10.391936
 20
1.361045000000001
 10
10.389548
 20
1.297328
 10
10.217613
 20
0.6997730000000004
 10
9.869802
 20
0.05323300000000053
 10
9.379630000000001
 20
0.1047519999999995
 10
9.173842
 20
0.8094749999999991
 10
9.129906
 20
1.429721000000001
 10
9.140817
 20
1.492544000000001
 10
8.455256
 20
1.638263
 10
8.439672
 20
1.576433999999999
 10
8.147256
 20
1.027684000000001
 10
7.672623
 20
0.4675890000000003
 10
7.203875
 20
0.6198949999999996
 10
7.149104
 20
1.352003
 10
7.235083
 20
1.967828000000001
 10
7.258818
 20
2.027010000000001
 10
6.618534
 20
2.312082999999999
 10
6.590436
 20
2.254843000000001
 10
6.190319
 20
1.778883
 10
5.609607
 20
1.329706999999999
 10
5.182768
 20
1.576143
 10
5.281408
 20
2.303642
 10
5.493546
 20
2.888135
 10
5.529066
 20
2.941089
 10
4.962045
 20
3.353051000000001
 10
4.922661
 20
3.302906
 10
4.432328
 20
2.920534
 10
3.770918
 20
2.601914000000001
 10
3.404644
 20
2.931708
 10
3.652385
 20
3.622802
 10
3.981408
 20
4.150414
 10
4.027162
 20
4.194824000000001
 10
3.558184
 20
4.715679
 10
3.509233
 20
4.674816
 10
2.950117
 20
4.402746
 10
2.236916
 20
4.228603
 10
1.947212
 20
4.627344000000001
 10
2.333224
 20
5.251825
 10
2.764756
 20
5.699503
 10
2.818742
 20
5.733429000000001
 10
2.468304
 20
6.340406999999999
 10
2.41193
 20
6.310616
 10
1.808466
 20
6.160736
 10
1.07464
 20
6.138680000000001
 10
0.8741719999999999
 20
6.588943
 10
1.381585
 20
7.119520999999999
 10
1.896765
 20
7.467696
 10
1.956627
 20
7.489656
 10
1.740044
 20
8.156231000000002
 10
1.678706
 20
8.138808999999998
 10
1.057267
 20
8.117673999999997
 10
0.334893
 20
8.248673
 10
0.232418
 20
8.730772999999999
 10
0.839058
 20
9.144259999999999
 10
1.415367
 20
9.377714000000001
 10
1.478489
 20
9.386751
 10
1.405227
 20
10.083786
 10
1.341608
 20
10.079502
 10
0.729355
 20
10.18803
 10
0.050001
 20
10.466355
 10
0.050001
 20
10.959228
 10
0.729355
 20
11.237553
 10
1.341608
 20
11.346081
 10
1.405227
 20
11.341797
 10
1.478489
 20
12.038832
 10
1.415367
 20
12.047869
 10
0.839058
 20
12.281323
 10
0.232418
 20
12.69481
 10
0.334893
 20
13.17691
 10
1.057267
 20
13.30791
 10
1.678706
 20
13.286774
 10
1.740044
 20
13.269352
 10
1.956627
 20
13.935927
 10
1.896765
 20
13.957887
 10
1.381585
 20
14.306062
 10
0.8741719999999999
 20
14.83664
 10
1.07464
 20
15.286903
 10
1.808466
 20
15.264847
 10
2.41193
 20
15.114967
 10
2.468304
 20
15.085176
 10
2.818742
 20
15.692154
 10
2.764756
 20
15.72608
 10
2.333224
 20
16.173758
 10
1.947212
 20
16.798239
 10
2.236916
 20
17.19698
 10
2.950117
 20
17.022837
 10
3.509233
 20
16.750767
 10
3.558184
 20
16.709904
 10
4.027162
 20
17.230759
 10
3.981408
 20
17.275169
 10
3.652385
 20
17.802781
 10
3.404644
 20
18.493875
 10
3.770918
 20
18.823669
 10
4.432328
 20
18.505049
 10
4.922661
 20
18.122677
 10
4.962045
 20
18.072532
 10
5.529066
 20
18.484494
 10
5.493546
 20
18.537448
 10
5.281408
 20
19.121941
 10
5.182768
 20
19.84944
 10
5.609607
 20
20.095876
 10
6.190319
 20
19.6467
 10
6.590436
 20
19.17074
 10
6.618534
 20
19.1135
 10
7.258818
 20
19.398573
 10
7.235083
 20
19.457755
 10
7.149104
 20
20.073581
 10
7.203875
 20
20.805688
 10
7.672623
 20
20.957994
 10
8.147256
 20
20.397899
 10
8.439672
 20
19.849149
 10
8.455256
 20
19.78732
 10
9.140817
 20
19.933039
 10
9.129906
 20
19.995862
 10
9.173842
 20
20.616108
 10
9.379630000000001
 20
21.32083099999999
 10
9.869802
 20
21.37235
 10
10.217613
 20
20.72581
 10
10.389548
 20
20.128255
 10
10.391936
 20
20.064538
 10
11.092812
 20
20.064538
 10
11.0952
 20
20.128255
 10
11.267135
 20
20.72581
 10
11.614946
 20
21.37235
 10
12.105118
 20
21.32083099999999
 10
12.310906
 20
20.616108
 10
12.354842
 20
19.995862
 10
12.343932
 20
19.933039
 10
13.029492
 20
19.78732
 10
13.045076
 20
19.849149
 10
13.337492
 20
20.397899
 10
13.812125
 20
20.957994
 10
14.280873
 20
20.805688
 10
14.335644
 20
20.073581
 10
14.249665
 20
19.457755
 10
14.22593
 20
19.398573
 10
14.866214
 20
19.1135
 10
14.894312
 20
19.17074
 10
15.294429
 20
19.6467
 10
15.875141
 20
20.095876
 10
16.30198
 20
19.84944
 10
16.20334
 20
19.121941
 10
15.991202
 20
18.537448
 10
15.955682
 20
18.484494
 10
16.522703
 20
18.072532
 10
16.562087
 20
18.122677
 10
17.05242
 20
18.505049
 10
17.71383
 20
18.823669
 10
18.080104
 20
18.493875
 10
17.832364
 20
17.802781
 10
17.50334
 20
17.275169
 10
17.457587
 20
17.230759
 10
17.926564
 20
16.709904
 10
17.975515
 20
16.750767
 10
18.534631
 20
17.022837
 10
19.247832
 20
17.19698
 10
19.537536
 20
16.798239
 10
19.151524
 20
16.173758
 10
18.719992
 20
15.72608
 10
18.666006
 20
15.692154
 10
19.016444
 20
15.085176
 10
19.072818
 20
15.114967
 10
19.676282
 20
15.264847
 10
20.410108
 20
15.286903
 10
20.610576
 20
14.83664
 10
20.103163
 20
14.306062
 10
19.587983
 20
13.957887
 10
19.528121
 20
13.935927
 10
19.744704
 20
13.269352
 10
19.806042
 20
13.286774
 10
20.427482
 20
13.30791
 10
21.149855
 20
13.17691
 10
21.25233
 20
12.69481
 10
20.64569
 20
12.281323
 10
20.069381
 20
12.047869
 10
20.006259
 20
12.038832
 10
20.079521
 20
11.341797
  0
ENDBLK
  5
5C
330
5A
100
AcDbEntity
  8
0
100
AcDbBlockEnd
  0
ENDSEC
  0
SECTION
  2
ENTITIES
  0
INSERT
  5
71
100
AcDbEntity
  8
0
  6
ByLayer
 62
  256
370
   -1
100
AcDbBlockReference
  2
gear_N108P2.1
 10
-73.6276
 20
-36.8138
 30
0
 41
1
 42
1
 43
0
 50
0
 70
    1
 71
    1
 44
0
 45
0
  0
INSERT
  5
72
100
AcDbEntity
  8
0
  6
ByLayer
 62
  256
370
   -1
100
AcDbBlockReference
  2
gear_N30P2.1
 10
0
 20
-10.742375
 30
0
 41
1
 42
1
 43
0
 50
0
 70
    1
 71
    1
 44
0
 45
0
  0
DIMENSION
  5
73
100
AcDbEntity
  8
0
  6
ByLayer
 62
  256
370
   -1
100
AcDbDimension
  2
*D1
 10
-0.05000200000000621
 20
1.562500000000025
 30
0
 11
-36.81380100000001
 21
3.437500000000025
 31
0
 70
   32
 71
    5
  3
Standard
 53
0
210
0
220
0
230
1
100
AcDbAlignedDimension
 13
-73.5776
 23
-0.2706139999999877
 33
0
 14
-0.05000200000000632
 24
-0.2706139999999877
 34
0
100
AcDbRotatedDimension
  0
DIMENSION
  5
74
100
AcDbEntity
  8
0
  6
ByLayer
 62
  256
370
   -1
100
AcDbDimension
  2
*D2
 10
21.434747
 20
1.589137899520038
 30
0
 11
10.742374
 21
3.464137899520038
 31
0
 70
   32
 71
    5
  3
Standard
 53
0
210
0
220
0
230
1
100
AcDbAlignedDimension
 13
0.050001
 23
0.2168530000000004
 33
0
 14
21.434747
 24
0.2168530000000004
 34
0
100
AcDbRotatedDimension
  0
DIMENSION
  5
75
100
AcDbEntity
  8
0
  6
ByLayer
 62
  256
370
   -1
100
AcDbDimension
  2
*D3
 10
-0.05000200000000646
 20
-2.598455214080066
 30
0
 11
-0.7217784999999991
 21
-0.7234552140800656
 31
0
 70
   32
 71
    5
  3
Standard
 53
0
210
0
220
0
230
1
100
AcDbAlignedDimension
 13
-1.393554999999992
 23
-0.736095000000013
 33
0
 14
-0.05000200000000632
 24
-0.2706139999999877
 34
0
100
AcDbRotatedDimension
  0
ENDSEC
  0
SECTION
  2
OBJECTS
  0
DICTIONARY
  5
C
330
0
100
AcDbDictionary
281
    1
  3
ACAD_GROUP
350
D
  0
DICTIONARY
  5
D
330
C
100
AcDbDictionary
281
    1
  0
ENDSEC
  0
EOF
