999
dxfrw 0.6.3
  0
SECTION
  2
HEADER
  9
$ACADVER
  1
AC1021
  9
$DWGCODEPAGE
  3
ANSI_1252
  9
$INSBASE
 10
0
 20
0
 30
0
  9
$EXTMIN
 10
-36.76379299999999
 20
-36.76379400000002
 30
0
  9
$EXTMAX
 10
142.597127
 20
183.519349
 30
0
  9
$LIMMIN
 10
0
 20
0
  9
$LIMMAX
 10
420
 20
297
  9
$ORTHOMODE
 70
    0
  9
$REGENMODE
 70
    1
  9
$FILLMODE
 70
    1
  9
$QTEXTMODE
 70
    0
  9
$MIRRTEXT
 70
    0
  9
$LTSCALE
 40
1
  9
$ATTMODE
 70
    0
  9
$TEXTSIZE
 40
2.5
  9
$TRACEWID
 40
15.68
  9
$TEXTSTYLE
  7
STANDARD
  9
$CLAYER
  8
0
  9
$CELTYPE
  6
BYLAYER
  9
$CECOLOR
 62
  256
  9
$CELTSCALE
 40
1
  9
$DISPSILH
 70
    0
  9
$DIMSCALE
 40
2.5
  9
$DIMASZ
 40
2.5
  9
$DIMEXO
 40
0.625
  9
$DIMDLI
 40
3.75
  9
$DIMRND
 40
0
  9
$DIMDLE
 40
0
  9
$DIMEXE
 40
1.25
  9
$DIMTP
 40
0
  9
$DIMTM
 40
0
  9
$DIMTXT
 40
2.5
  9
$DIMCEN
 40
2.5
  9
$DIMTSZ
 40
0
  9
$DIMTOL
 70
    0
  9
$DIMLIM
 70
    0
  9
$DIMTIH
 70
    0
  9
$DIMTOH
 70
    0
  9
$DIMSE1
 70
    0
  9
$DIMSE2
 70
    0
  9
$DIMTAD
 70
    1
  9
$DIMZIN
 70
    8
  9
$DIMBLK
  1

  9
$DIMASO
 70
    1
  9
$DIMSHO
 70
    1
  9
$DIMPOST
  1

  9
$DIMAPOST
  1

  9
$DIMALT
 70
    0
  9
$DIMALTD
 70
    3
  9
$DIMALTF
 40
0.03937
  9
$DIMLFAC
 40
1
  9
$DIMTOFL
 70
    1
  9
$DIMTVP
 40
0
  9
$DIMTIX
 70
    0
  9
$DIMSOXD
 70
    0
  9
$DIMSAH
 70
    0
  9
$DIMBLK1
  1

  9
$DIMBLK2
  1

  9
$DIMSTYLE
  2
Standard
  9
$DIMCLRD
 70
    0
  9
$DIMCLRE
 70
    0
  9
$DIMCLRT
 70
    0
  9
$DIMTFAC
 40
1
  9
$DIMGAP
 40
0.625
  9
$DIMJUST
 70
    0
  9
$DIMSD1
 70
    0
  9
$DIMSD2
 70
    0
  9
$DIMTOLJ
 70
    0
  9
$DIMTZIN
 70
    8
  9
$DIMALTZ
 70
    0
  9
$DIMALTTZ
 70
    0
  9
$DIMUPT
 70
    0
  9
$DIMDEC
 70
    2
  9
$DIMTDEC
 70
    2
  9
$DIMALTU
 70
    2
  9
$DIMALTTD
 70
    3
  9
$DIMTXSTY
  7
STANDARD
  9
$DIMAUNIT
 70
    0
  9
$DIMADEC
 70
    0
  9
$DIMALTRND
 40
0
  9
$DIMAZIN
 70
    0
  9
$DIMDSEP
 70
   44
  9
$DIMATFIT
 70
    3
  9
$DIMFRAC
 70
    0
  9
$DIMLDRBLK
  1
STANDARD
  9
$DIMLUNIT
 70
    2
  9
$DIMLWD
 70
   -2
  9
$DIMLWE
 70
   -2
  9
$DIMTMOVE
 70
    0
  9
$DIMFXL
 40
1
  9
$DIMFXLON
 70
    0
  9
$DIMJOGANG
 40
0.7854
  9
$DIMTFILL
 70
    0
  9
$DIMTFILLCLR
 70
    0
  9
$DIMARCSYM
 70
    0
  9
$DIMLTYPE
  6

  9
$DIMLTEX1
  6

  9
$DIMLTEX2
  6

  9
$LUNITS
 70
    2
  9
$LUPREC
 70
    4
  9
$SKETCHINC
 40
1
  9
$FILLETRAD
 40
0
  9
$AUNITS
 70
    0
  9
$AUPREC
 70
    2
  9
$MENU
  1
.
  9
$ELEVATION
 40
0
  9
$PELEVATION
 40
0
  9
$THICKNESS
 40
0
  9
$LIMCHECK
 70
    0
  9
$CHAMFERA
 40
0
  9
$CHAMFERB
 40
0
  9
$CHAMFERC
 40
0
  9
$CHAMFERD
 40
0
  9
$SKPOLY
 70
    0
  9
$USRTIMER
 70
    1
  9
$ANGBASE
 50
0
  9
$ANGDIR
 70
    0
  9
$PDMODE
 70
   34
  9
$PDSIZE
 40
0
  9
$PLINEWID
 40
0
  9
$SPLFRAME
 70
    0
  9
$SPLINETYPE
 70
    2
  9
$SPLINESEGS
 70
    8
  9
$HANDSEED
  5
20000
  9
$SURFTAB1
 70
    6
  9
$SURFTAB2
 70
    6
  9
$SURFTYPE
 70
    6
  9
$SURFU
 70
    6
  9
$SURFV
 70
    6
  9
$UCSBASE
  2

  9
$UCSNAME
  2

  9
$UCSORG
 10
0
 20
0
 30
0
  9
$UCSXDIR
 10
1
 20
0
 30
0
  9
$UCSYDIR
 10
0
 20
1
 30
0
  9
$UCSORTHOREF
  2

  9
$UCSORTHOVIEW
 70
    0
  9
$UCSORGTOP
 10
0
 20
0
 30
0
  9
$UCSORGBOTTOM
 10
0
 20
0
 30
0
  9
$UCSORGLEFT
 10
0
 20
0
 30
0
  9
$UCSORGRIGHT
 10
0
 20
0
 30
0
  9
$UCSORGFRONT
 10
0
 20
0
 30
0
  9
$UCSORGBACK
 10
0
 20
0
 30
0
  9
$PUCSBASE
  2

  9
$PUCSNAME
  2

  9
$PUCSORG
 10
0
 20
0
 30
0
  9
$PUCSXDIR
 10
1
 20
0
 30
0
  9
$PUCSYDIR
 10
0
 20
1
 30
0
  9
$PUCSORTHOREF
  2

  9
$PUCSORTHOVIEW
 70
    0
  9
$PUCSORGTOP
 10
0
 20
0
 30
0
  9
$PUCSORGBOTTOM
 10
0
 20
0
 30
0
  9
$PUCSORGLEFT
 10
0
 20
0
 30
0
  9
$PUCSORGRIGHT
 10
0
 20
0
 30
0
  9
$PUCSORGFRONT
 10
0
 20
0
 30
0
  9
$PUCSORGBACK
 10
0
 20
0
 30
0
  9
$USERI1
 70
    0
  9
$USERI2
 70
    0
  9
$USERI3
 70
    0
  9
$USERI4
 70
    0
  9
$USERI5
 70
    0
  9
$USERR1
 40
0
  9
$USERR2
 40
0
  9
$USERR3
 40
0
  9
$USERR4
 40
0
  9
$USERR5
 40
0
  9
$WORLDVIEW
 70
    1
  9
$SHADEDGE
 70
    3
  9
$SHADEDIF
 70
   70
  9
$TILEMODE
 70
    1
  9
$MAXACTVP
 70
   64
  9
$PINSBASE
 10
0
 20
0
 30
0
  9
$PLIMCHECK
 70
    0
  9
$PEXTMIN
 10
0
 20
0
 30
0
  9
$PEXTMAX
 10
0
 20
0
 30
0
  9
$GRIDMODE
 70
    0
  9
$SNAPSTYLE
 70
    0
  9
$PLIMMIN
 10
0
 20
0
  9
$PLIMMAX
 10
210
 20
297
  9
$UNITMODE
 70
    0
  9
$VISRETAIN
 70
    1
  9
$PLINEGEN
 70
    0
  9
$PSLTSCALE
 70
    1
  9
$TREEDEPTH
 70
 3020
  9
$CMLSTYLE
  2
Standard
  9
$CMLJUST
 70
    0
  9
$CMLSCALE
 40
20
  9
$PROXYGRAPHICS
 70
    1
  9
$MEASUREMENT
 70
    1
  9
$CELWEIGHT
370
   -1
  9
$ENDCAPS
280
    0
  9
$JOINSTYLE
280
    0
  9
$LWDISPLAY
290
    0
  9
$INSUNITS
 70
    4
  9
$HYPERLINKBASE
  1

  9
$STYLESHEET
  1

  9
$XEDIT
290
    1
  9
$CEPSNTYPE
380
    0
  9
$PSTYLEMODE
290
    1
  9
$EXTNAMES
290
    1
  9
$PSVPSCALE
 40
1
  9
$OLESTARTUP
290
    0
  9
$SORTENTS
280
  127
  9
$INDEXCTL
280
    0
  9
$HIDETEXT
280
    1
  9
$XCLIPFRAME
290
    0
  9
$HALOGAP
280
    0
  9
$OBSCOLOR
 70
  257
  9
$OBSLTYPE
280
    0
  9
$INTERSECTIONDISPLAY
280
    0
  9
$INTERSECTIONCOLOR
 70
  257
  9
$DIMASSOC
280
    1
  9
$PROJECTNAME
  1

  9
$CAMERADISPLAY
290
    0
  9
$LENSLENGTH
 40
50
  9
$CAMERAHEIGHT
 40
0
  9
$STEPSPERSEC
 40
2
  9
$STEPSIZE
 40
50
  9
$3DDWFPREC
 40
2
  9
$PSOLWIDTH
 40
5
  9
$PSOLHEIGHT
 40
80
  9
$LOFTANG1
 40
1.570796326794897
  9
$LOFTANG2
 40
1.570796326794897
  9
$LOFTMAG1
 40
0
  9
$LOFTMAG2
 40
0
  9
$LOFTPARAM
 70
    7
  9
$LOFTNORMALS
280
    1
  9
$LATITUDE
 40
1
  9
$LONGITUDE
 40
1
  9
$NORTHDIRECTION
 40
0
  9
$TIMEZONE
 70
-8000
  9
$LIGHTGLYPHDISPLAY
280
    1
  9
$TILEMODELIGHTSYNCH
280
    1
  9
$SOLIDHIST
280
    1
  9
$SHOWHIST
280
    1
  9
$DWFFRAME
280
    2
  9
$DGNFRAME
280
    0
  9
$REALWORLDSCALE
290
    1
  9
$INTERFERECOLOR
 62
    1
  9
$CSHADOW
280
    0
  9
$SHADOWPLANELOCATION
 40
0
  0
ENDSEC
  0
SECTION
  2
CLASSES
  0
ENDSEC
  0
SECTION
  2
TABLES
  0
TABLE
  2
VPORT
  5
8
330
0
100
AcDbSymbolTable
 70
    1
  0
VPORT
  5
31
330
2
100
AcDbSymbolTableRecord
100
AcDbViewportTableRecord
  2
*ACTIVE
 70
    0
 10
0
 20
0
 11
1
 21
1
 12
74.2494646475203
 22
29.46638872062691
 13
0
 23
0
 14
10
 24
10
 15
10
 25
10
 16
0
 26
0
 36
1
 17
0
 27
0
 37
0
 40
111.7388800000011
 41
2.033942558746736
 42
50
 43
0
 44
0
 50
0
 51
0
 71
    0
 72
  100
 73
    1
 74
    3
 75
    0
 76
    0
 77
    0
 78
    0
281
    0
 65
    1
110
0
120
0
130
0
111
1
121
0
131
0
112
0
122
1
132
0
 79
    0
146
0
348
10020
 60
    7
 61
    5
292
1
282
    1
141
0
142
0
 63
  250
421
3358443
  0
ENDTAB
  0
TABLE
  2
LTYPE
  5
5
330
0
100
AcDbSymbolTable
 70
    4
  0
LTYPE
  5
14
330
5
100
AcDbSymbolTableRecord
100
AcDbLinetypeTableRecord
  2
ByBlock
 70
    0
  3

 72
   65
 73
    0
 40
0
  0
LTYPE
  5
15
330
5
100
AcDbSymbolTableRecord
100
AcDbLinetypeTableRecord
  2
ByLayer
 70
    0
  3

 72
   65
 73
    0
 40
0
  0
LTYPE
  5
16
330
5
100
AcDbSymbolTableRecord
100
AcDbLinetypeTableRecord
  2
Continuous
 70
    0
  3
Solid line
 72
   65
 73
    0
 40
0
  0
LTYPE
  5
32
330
5
100
AcDbSymbolTableRecord
100
AcDbLinetypeTableRecord
  2
DOT
 70
    0
  3
Dot . . . . . . . . . . . . . . . . . . . . . .
 72
   65
 73
    2
 40
6.35
 49
0
 74
    0
 49
-6.35
 74
    0
  0
LTYPE
  5
33
330
5
100
AcDbSymbolTableRecord
100
AcDbLinetypeTableRecord
  2
DOTTINY
 70
    0
  3
Dot (.15x) .....................................
 72
   65
 73
    2
 40
0.9525
 49
0
 74
    0
 49
-0.9525
 74
    0
  0
LTYPE
  5
34
330
5
100
AcDbSymbolTableRecord
100
AcDbLinetypeTableRecord
  2
DOT2
 70
    0
  3
Dot (.5x) .....................................
 72
   65
 73
    2
 40
3.175
 49
0
 74
    0
 49
-3.175
 74
    0
  0
LTYPE
  5
35
330
5
100
AcDbSymbolTableRecord
100
AcDbLinetypeTableRecord
  2
DOTX2
 70
    0
  3
Dot (2x) .  .  .  .  .  .  .  .  .  .  .  .  .
 72
   65
 73
    2
 40
12.7
 49
0
 74
    0
 49
-12.7
 74
    0
  0
LTYPE
  5
36
330
5
100
AcDbSymbolTableRecord
100
AcDbLinetypeTableRecord
  2
DASHED
 70
    0
  3
Dashed _ _ _ _ _ _ _ _ _ _ _ _ _ _ _ _ _
 72
   65
 73
    2
 40
19.05
 49
12.7
 74
    0
 49
-6.35
 74
    0
  0
LTYPE
  5
37
330
5
100
AcDbSymbolTableRecord
100
AcDbLinetypeTableRecord
  2
DASHEDTINY
 70
    0
  3
Dashed (.15x) _ _ _ _ _ _ _ _ _ _ _ _ _ _ _ _ _
 72
   65
 73
    2
 40
2.8575
 49
1.905
 74
    0
 49
-0.9525
 74
    0
  0
LTYPE
  5
38
330
5
100
AcDbSymbolTableRecord
100
AcDbLinetypeTableRecord
  2
DASHED2
 70
    0
  3
Dashed (.5x) _ _ _ _ _ _ _ _ _ _ _ _ _ _ _ _ _
 72
   65
 73
    2
 40
9.524999999999999
 49
6.35
 74
    0
 49
-3.175
 74
    0
  0
LTYPE
  5
39
330
5
100
AcDbSymbolTableRecord
100
AcDbLinetypeTableRecord
  2
DASHEDX2
 70
    0
  3
Dashed (2x) ____  ____  ____  ____  ____  ___
 72
   65
 73
    2
 40
38.09999999999999
 49
25.4
 74
    0
 49
-12.7
 74
    0
  0
LTYPE
  5
3A
330
5
100
AcDbSymbolTableRecord
100
AcDbLinetypeTableRecord
  2
DASHDOT
 70
    0
  3
Dash dot __ . __ . __ . __ . __ . __ . __ . __
 72
   65
 73
    4
 40
25.4
 49
12.7
 74
    0
 49
-6.35
 74
    0
 49
0
 74
    0
 49
-6.35
 74
    0
  0
LTYPE
  5
3B
330
5
100
AcDbSymbolTableRecord
100
AcDbLinetypeTableRecord
  2
DASHDOTTINY
 70
    0
  3
Dash dot (.15x) _._._._._._._._._._._._._._._.
 72
   65
 73
    4
 40
3.81
 49
1.905
 74
    0
 49
-0.9525
 74
    0
 49
0
 74
    0
 49
-0.9525
 74
    0
  0
LTYPE
  5
3C
330
5
100
AcDbSymbolTableRecord
100
AcDbLinetypeTableRecord
  2
DASHDOT2
 70
    0
  3
Dash dot (.5x) _._._._._._._._._._._._._._._.
 72
   65
 73
    4
 40
12.7
 49
6.35
 74
    0
 49
-3.175
 74
    0
 49
0
 74
    0
 49
-3.175
 74
    0
  0
LTYPE
  5
3D
330
5
100
AcDbSymbolTableRecord
100
AcDbLinetypeTableRecord
  2
DASHDOTX2
 70
    0
  3
Dash dot (2x) ____  .  ____  .  ____  .  ___
 72
   65
 73
    4
 40
50.8
 49
25.4
 74
    0
 49
-12.7
 74
    0
 49
0
 74
    0
 49
-12.7
 74
    0
  0
LTYPE
  5
3E
330
5
100
AcDbSymbolTableRecord
100
AcDbLinetypeTableRecord
  2
DIVIDE
 70
    0
  3
Divide ____ . . ____ . . ____ . . ____ . . ____
 72
   65
 73
    6
 40
31.75
 49
12.7
 74
    0
 49
-6.35
 74
    0
 49
0
 74
    0
 49
-6.35
 74
    0
 49
0
 74
    0
 49
-6.35
 74
    0
  0
LTYPE
  5
3F
330
5
100
AcDbSymbolTableRecord
100
AcDbLinetypeTableRecord
  2
DIVIDETINY
 70
    0
  3
Divide (.15x) __..__..__..__..__..__..__..__.._
 72
   65
 73
    6
 40
4.7625
 49
1.905
 74
    0
 49
-0.9525
 74
    0
 49
0
 74
    0
 49
-0.9525
 74
    0
 49
0
 74
    0
 49
-0.9525
 74
    0
  0
LTYPE
  5
40
330
5
100
AcDbSymbolTableRecord
100
AcDbLinetypeTableRecord
  2
DIVIDE2
 70
    0
  3
Divide (.5x) __..__..__..__..__..__..__..__.._
 72
   65
 73
    6
 40
15.875
 49
6.35
 74
    0
 49
-3.175
 74
    0
 49
0
 74
    0
 49
-3.175
 74
    0
 49
0
 74
    0
 49
-3.175
 74
    0
  0
LTYPE
  5
41
330
5
100
AcDbSymbolTableRecord
100
AcDbLinetypeTableRecord
  2
DIVIDEX2
 70
    0
  3
Divide (2x) ________  .  .  ________  .  .  _
 72
   65
 73
    6
 40
63.5
 49
25.4
 74
    0
 49
-12.7
 74
    0
 49
0
 74
    0
 49
-12.7
 74
    0
 49
0
 74
    0
 49
-12.7
 74
    0
  0
LTYPE
  5
42
330
5
100
AcDbSymbolTableRecord
100
AcDbLinetypeTableRecord
  2
BORDER
 70
    0
  3
Border __ __ . __ __ . __ __ . __ __ . __ __ .
 72
   65
 73
    6
 40
44.45
 49
12.7
 74
    0
 49
-6.35
 74
    0
 49
12.7
 74
    0
 49
-6.35
 74
    0
 49
0
 74
    0
 49
-6.35
 74
    0
  0
LTYPE
  5
43
330
5
100
AcDbSymbolTableRecord
100
AcDbLinetypeTableRecord
  2
BORDERTINY
 70
    0
  3
Border (.15x) __.__.__.__.__.__.__.__.__.__.__.
 72
   65
 73
    6
 40
6.6675
 49
1.905
 74
    0
 49
-0.9525
 74
    0
 49
1.905
 74
    0
 49
-0.9525
 74
    0
 49
0
 74
    0
 49
-0.9525
 74
    0
  0
LTYPE
  5
44
330
5
100
AcDbSymbolTableRecord
100
AcDbLinetypeTableRecord
  2
BORDER2
 70
    0
  3
Border (.5x) __.__.__.__.__.__.__.__.__.__.__.
 72
   65
 73
    6
 40
22.225
 49
6.35
 74
    0
 49
-3.175
 74
    0
 49
6.35
 74
    0
 49
-3.175
 74
    0
 49
0
 74
    0
 49
-3.175
 74
    0
  0
LTYPE
  5
45
330
5
100
AcDbSymbolTableRecord
100
AcDbLinetypeTableRecord
  2
BORDERX2
 70
    0
  3
Border (2x) ____  ____  .  ____  ____  .  ___
 72
   65
 73
    6
 40
88.89999999999999
 49
25.4
 74
    0
 49
-12.7
 74
    0
 49
25.4
 74
    0
 49
-12.7
 74
    0
 49
0
 74
    0
 49
-12.7
 74
    0
  0
LTYPE
  5
46
330
5
100
AcDbSymbolTableRecord
100
AcDbLinetypeTableRecord
  2
CENTER
 70
    0
  3
Center ____ _ ____ _ ____ _ ____ _ ____ _ ____
 72
   65
 73
    4
 40
50.8
 49
31.75
 74
    0
 49
-6.35
 74
    0
 49
6.35
 74
    0
 49
-6.35
 74
    0
  0
LTYPE
  5
47
330
5
100
AcDbSymbolTableRecord
100
AcDbLinetypeTableRecord
  2
CENTERTINY
 70
    0
  3
Center (.15x) ___ _ ___ _ ___ _ ___ _ ___ _ ___
 72
   65
 73
    4
 40
7.619999999999999
 49
4.7625
 74
    0
 49
-0.9525
 74
    0
 49
0.9525
 74
    0
 49
-0.9525
 74
    0
  0
LTYPE
  5
48
330
5
100
AcDbSymbolTableRecord
100
AcDbLinetypeTableRecord
  2
CENTER2
 70
    0
  3
Center (.5x) ___ _ ___ _ ___ _ ___ _ ___ _ ___
 72
   65
 73
    4
 40
28.575
 49
19.05
 74
    0
 49
-3.175
 74
    0
 49
3.175
 74
    0
 49
-3.175
 74
    0
  0
LTYPE
  5
49
330
5
100
AcDbSymbolTableRecord
100
AcDbLinetypeTableRecord
  2
CENTERX2
 70
    0
  3
Center (2x) ________  __  ________  __  _____
 72
   65
 73
    4
 40
101.6
 49
63.5
 74
    0
 49
-12.7
 74
    0
 49
12.7
 74
    0
 49
-12.7
 74
    0
  0
ENDTAB
  0
TABLE
  2
LAYER
  5
2
330
0
100
AcDbSymbolTable
 70
    1
  0
LAYER
  5
10
330
2
100
AcDbSymbolTableRecord
100
AcDbLayerTableRecord
  2
0
 70
    0
 62
    7
  6
CONTINUOUS
370
   -3
390
F
  0
LAYER
  5
4A
330
2
100
AcDbSymbolTableRecord
100
AcDbLayerTableRecord
  2
Capa_1
 70
    0
 62
    7
  6
CONTINUOUS
370
   -3
390
F
  0
ENDTAB
  0
TABLE
  2
STYLE
  5
3
330
0
100
AcDbSymbolTable
 70
    3
  0
STYLE
  5
4B
330
2
100
AcDbSymbolTableRecord
100
AcDbTextStyleTableRecord
  2
Standard
 70
    0
 40
0
 41
1
 50
0
 71
    0
 42
1
  3
txt
  4

  0
ENDTAB
  0
TABLE
  2
VIEW
  5
6
330
0
100
AcDbSymbolTable
 70
    0
  0
ENDTAB
  0
TABLE
  2
UCS
  5
7
330
0
100
AcDbSymbolTable
 70
    0
  0
ENDTAB
  0
TABLE
  2
APPID
  5
9
330
0
100
AcDbSymbolTable
 70
    1
  0
APPID
  5
12
330
9
100
AcDbSymbolTableRecord
100
AcDbRegAppTableRecord
  2
ACAD
 70
    0
  0
APPID
  5
4C
330
9
100
AcDbSymbolTableRecord
100
AcDbRegAppTableRecord
  2
LibreCad
 70
    0
  0
ENDTAB
  0
TABLE
  2
DIMSTYLE
  5
A
330
0
100
AcDbSymbolTable
 70
    1
100
AcDbDimStyleTable
 71
    1
  0
DIMSTYLE
105
4D
330
A
100
AcDbSymbolTableRecord
100
AcDbDimStyleTableRecord
  2
Standard
 70
    0
 40
1
 41
2.5
 42
0.625
 43
0.38
 44
1.25
 45
0
 46
0
 47
0
 48
0
 49
1
140
2.5
141
0.09
142
2.5
143
25.4
144
1
145
0
146
1
147
0.625
148
0
 71
    0
 72
    0
 73
    0
 74
    1
 75
    0
 76
    0
 77
    0
 78
    1
 79
    0
170
    0
171
    2
172
    0
173
    0
174
    0
175
    0
176
    0
177
    0
178
    0
179
    0
271
    2
272
    4
273
    2
274
    2
275
    0
276
    0
277
    2
278
    0
279
    0
280
    0
281
    0
282
    0
283
    1
284
    0
285
    0
286
    0
288
    0
289
    3
340
standard
341

371
   -2
372
   -2
  0
ENDTAB
  0
TABLE
  2
BLOCK_RECORD
  5
1
330
0
100
AcDbSymbolTable
 70
    2
  0
BLOCK_RECORD
  5
1F
330
1
100
AcDbSymbolTableRecord
100
AcDbBlockTableRecord
  2
*Model_Space
 70
    0
280
    1
281
    0
  0
BLOCK_RECORD
  5
1E
330
1
100
AcDbSymbolTableRecord
100
AcDbBlockTableRecord
  2
*Paper_Space
 70
    0
280
    1
281
    0
  0
ENDTAB
  0
ENDSEC
  0
SECTION
  2
BLOCKS
  0
BLOCK
  5
20
330
1F
100
AcDbEntity
  8
0
100
AcDbBlockBegin
  2
*Model_Space
 70
    0
 10
0
 20
0
 30
0
  3
*Model_Space
  1

  0
ENDBLK
  5
21
330
1F
100
AcDbEntity
  8
0
100
AcDbBlockEnd
  0
BLOCK
  5
1C
330
1B
100
AcDbEntity
  8
0
100
AcDbBlockBegin
  2
*Paper_Space
 70
    0
 10
0
 20
0
 30
0
  3
*Paper_Space
  1

  0
ENDBLK
  5
1D
330
1F
100
AcDbEntity
  8
0
100
AcDbBlockEnd
  0
ENDSEC
  0
SECTION
  2
ENTITIES
  0
LWPOLYLINE
  5
4E
100
AcDbEntity
  8
0
  6
ByLayer
 62
    7
370
   -1
100
AcDbPolyline
 90
  649
 70
    1
 43
0
 10
35.42024099999999
 20
0.7360970000000009
 10
36.09252300000001
 20
0.5249809999999968
 10
36.763794
 20
0.2706169999999872
 10
36.763794
 20
-0.2706180000000131
 10
36.09252300000001
 20
-0.5249820000000227
 10
35.42024099999999
 20
-0.7360980000000268
 10
35.403116
 20
-1.324653000000012
 10
36.06198300000001
 20
-1.574501000000026
 10
36.71733200000001
 20
-1.86746500000001
 10
36.685861
 20
-2.407785000000018
 10
36.00093300000002
 20
-2.622686000000016
 10
35.317515
 20
-2.794356000000022
 10
35.26619900000001
 20
-3.380921000000001
 10
35.90942199999999
 20
-3.668655000000001
 10
36.54662700000002
 20
-3.999228000000016
 10
36.483796
 20
-4.536805000000015
 10
35.78753100000002
 20
-4.711517000000015
 10
35.095288
 20
-4.843160000000012
 10
35.00994899999999
 20
-5.425747999999999
 10
35.63535600000002
 20
-5.750394
 10
36.25226300000001
 20
-6.11746100000002
 10
36.15827800000001
 20
-6.65047100000001
 10
35.45303199999999
 20
-6.784408000000013
 10
34.754307
 20
-6.875574
 10
34.63524
 20
-7.452214000000026
 10
35.24071099999999
 20
-7.812679000000003
 10
35.83522900000001
 20
-8.214993000000021
 10
35.710413
 20
-8.741639000000021
 10
34.998576
 20
-8.834341000000023
 10
34.29572900000001
 20
-8.884726000000001
 10
34.14333499999999
 20
-9.45346600000002
 10
34.72682400000001
 20
-9.848526000000021
 10
35.29694400000001
 20
-10.28472600000001
 10
35.14171600000002
 20
-10.803224
 10
34.42569000000002
 20
-10.85438000000002
 10
33.72110500000001
 20
-10.86381200000002
 10
33.53590000000001
 20
-11.42273
 10
34.095431
 20
-11.85104800000002
 10
34.639222
 20
-12.31966100000002
 10
34.45411
 20
-12.82825600000001
 10
33.73632300000001
 20
-12.83769100000001
 10
33.03237900000001
 20
-12.80614100000003
 10
32.81498800000001
 20
-13.35334500000002
 10
33.34867100000001
 20
-13.81347200000002
 10
33.86429400000002
 20
-14.31290900000002
 10
33.64992300000002
 20
-14.80988000000002
 10
32.932799
 20
-14.77756500000001
 10
32.231883
 20
-14.705139
 10
31.983043
 20
-15.238776
 10
32.48906699999999
 20
-15.72915400000002
 10
32.97478
 20
-16.25772800000001
 10
32.73187399999999
 20
-16.74139400000001
 10
32.01784300000001
 20
-16.66743500000001
 10
31.32232399999999
 20
-16.55437700000002
 10
31.04287800000002
 20
-17.072641
 10
31.51953200000001
 20
-17.59161400000002
 10
31.97368999999999
 20
-18.147536
 10
31.70307200000001
 20
-18.61625900000001
 10
30.99455100000002
 20
-18.50090900000001
 10
30.30678100000002
 20
-18.3476
 10
29.99767100000001
 20
-18.84874200000002
 10
30.44334500000001
 20
-19.39454900000001
 10
30.86441000000001
 20
-19.97593800000001
 10
30.56699500000001
 20
-20.42813400000001
 10
29.866381
 20
-20.27178000000001
 10
29.188687
 20
-20.07874000000001
 10
28.85096299999999
 20
-20.56106100000001
 10
29.26414699999999
 20
-21.13186100000001
 10
29.650693
 20
-21.73674800000001
 10
29.327489
 20
-22.17088400000002
 10
28.637151
 20
-21.97406000000001
 10
27.971829
 20
-21.74194300000001
 10
27.606634
 20
-22.20380800000001
 10
27.98592599999999
 20
-22.79766600000001
 10
28.33665000000001
 20
-23.42400700000002
 10
27.98875099999999
 20
-23.83861700000001
 10
27.31102600000001
 20
-23.60198500000001
 10
26.66032600000001
 20
-23.33157400000002
 10
26.26888900000002
 20
-23.77142600000002
 10
26.61301400000001
 20
-24.38633400000002
 10
26.92672399999999
 20
-25.03200800000002
 10
26.55530499999999
 20
-25.42568500000002
 10
25.89248400000001
 20
-25.15005000000001
 10
25.25860999999999
 20
-24.84226200000002
 10
24.84226099999999
 20
-25.25861000000002
 10
25.15005000000001
 20
-25.89248400000001
 10
25.425685
 20
-26.55530500000002
 10
25.032008
 20
-26.92672400000001
 10
24.38633399999999
 20
-26.61301400000001
 10
23.77142600000001
 20
-26.26888900000002
 10
23.331574
 20
-26.66032600000001
 10
23.601985
 20
-27.31102600000001
 10
23.83861700000001
 20
-27.98875200000002
 10
23.424007
 20
-28.33665000000001
 10
22.79766600000001
 20
-27.98592600000001
 10
22.203808
 20
-27.60663400000001
 10
21.74194300000001
 20
-27.97182900000001
 10
21.97406000000001
 20
-28.63715100000002
 10
22.17088400000002
 20
-29.32749000000001
 10
21.73674700000001
 20
-29.65069300000002
 10
21.131861
 20
-29.26414800000001
 10
20.56106
 20
-28.85096300000001
 10
20.07874000000001
 20
-29.18868700000002
 10
20.27178000000001
 20
-29.86638200000002
 10
20.428134
 20
-30.56699500000001
 10
19.975938
 20
-30.86441000000001
 10
19.394549
 20
-30.44334500000001
 10
18.848742
 20
-29.99767100000001
 10
18.3476
 20
-30.30678100000002
 10
18.50090900000001
 20
-30.99455100000002
 10
18.616259
 20
-31.70307300000002
 10
18.147536
 20
-31.97369000000002
 10
17.59161400000001
 20
-31.51953200000001
 10
17.072641
 20
-31.04287900000001
 10
16.554377
 20
-31.32232400000001
 10
16.667435
 20
-32.01784300000001
 10
16.741394
 20
-32.73187400000002
 10
16.257728
 20
-32.97478000000001
 10
15.72915400000001
 20
-32.48906700000001
 10
15.238775
 20
-31.98304300000001
 10
14.70513800000001
 20
-32.23188400000001
 10
14.77756500000001
 20
-32.93279900000002
 10
14.80988000000001
 20
-33.64992300000002
 10
14.312909
 20
-33.86429400000002
 10
13.81347100000001
 20
-33.34867100000001
 10
13.353345
 20
-32.81498900000001
 10
12.80614100000001
 20
-33.03237900000001
 10
12.83769100000001
 20
-33.73632300000001
 10
12.82825600000001
 20
-34.45411000000001
 10
12.31966100000001
 20
-34.63922200000002
 10
11.85104800000001
 20
-34.09543100000002
 10
11.42273
 20
-33.53590000000001
 10
10.86381200000001
 20
-33.72110500000001
 10
10.85438000000001
 20
-34.42569000000002
 10
10.803224
 20
-35.14171600000002
 10
10.28472600000001
 20
-35.29694400000001
 10
9.848526000000007
 20
-34.72682400000001
 10
9.453465000000008
 20
-34.14333500000001
 10
8.884726000000001
 20
-34.29573000000001
 10
8.834339999999997
 20
-34.99857600000001
 10
8.741639000000006
 20
-35.71041400000001
 10
8.214993000000007
 20
-35.83522900000001
 10
7.812679000000003
 20
-35.24071100000002
 10
7.452213999999998
 20
-34.63524000000001
 10
6.875574
 20
-34.75430700000001
 10
6.784407999999999
 20
-35.45303300000002
 10
6.65047100000001
 20
-36.15827800000001
 10
6.117461000000006
 20
-36.25226300000001
 10
5.750394
 20
-35.63535700000001
 10
5.425747999999999
 20
-35.00994900000001
 10
4.843159
 20
-35.09528800000001
 10
4.711517000000001
 20
-35.78753100000002
 10
4.536804000000004
 20
-36.48379600000001
 10
3.999228000000002
 20
-36.54662700000002
 10
3.668655000000001
 20
-35.90942300000002
 10
3.380921000000001
 20
-35.26619900000001
 10
2.794356000000008
 20
-35.31751500000001
 10
2.622686000000002
 20
-36.00093300000002
 10
2.407785000000004
 20
-36.68586100000002
 10
1.86746500000001
 20
-36.71733200000001
 10
1.574500999999998
 20
-36.06198300000001
 10
1.324652999999998
 20
-35.40311600000001
 10
0.7360979999999984
 20
-35.42024100000002
 10
0.5249820000000085
 20
-36.09252300000001
 10
0.2706179999999989
 20
-36.76379400000002
 10
-0.2706170000000014
 20
-36.76379400000002
 10
-0.5249809999999968
 20
-36.09252300000001
 10
-0.7360970000000009
 20
-35.42024100000002
 10
-1.324652
 20
-35.40311600000001
 10
-1.574500999999998
 20
-36.06198300000001
 10
-1.867463999999998
 20
-36.71733200000001
 10
-2.407783999999992
 20
-36.68586100000002
 10
-2.62268499999999
 20
-36.00093300000002
 10
-2.794354999999996
 20
-35.31751500000001
 10
-3.380919999999989
 20
-35.26619900000001
 10
-3.668653999999989
 20
-35.90942300000002
 10
-3.999226999999991
 20
-36.54662700000002
 10
-4.536803999999989
 20
-36.48379600000001
 10
-4.711516000000003
 20
-35.78753100000002
 10
-4.843159
 20
-35.09528800000001
 10
-5.425747000000001
 20
-35.00994900000001
 10
-5.750393000000003
 20
-35.63535700000001
 10
-6.117459999999994
 20
-36.25226300000001
 10
-6.650469999999999
 20
-36.15827800000001
 10
-6.784407000000002
 20
-35.45303300000002
 10
-6.875574
 20
-34.75430700000001
 10
-7.452213
 20
-34.63524000000001
 10
-7.812677999999991
 20
-35.24071100000002
 10
-8.214991999999995
 20
-35.83522900000001
 10
-8.741637999999995
 20
-35.71041400000001
 10
-8.834339999999997
 20
-34.99857600000001
 10
-8.884725000000003
 20
-34.29573000000001
 10
-9.453464999999994
 20
-34.14333500000001
 10
-9.848524999999995
 20
-34.72682400000001
 10
-10.28472499999999
 20
-35.29694400000001
 10
-10.803224
 20
-35.14171600000002
 10
-10.85437899999999
 20
-34.42569000000002
 10
-10.863811
 20
-33.72110500000001
 10
-11.42273
 20
-33.53590000000001
 10
-11.85104699999999
 20
-34.09543100000002
 10
-12.31966
 20
-34.63922200000002
 10
-12.828256
 20
-34.45411000000001
 10
-12.83768999999999
 20
-33.73632300000001
 10
-12.806141
 20
-33.03237900000001
 10
-13.35334399999999
 20
-32.81498900000001
 10
-13.81347099999999
 20
-33.34867100000001
 10
-14.31290799999999
 20
-33.86429400000002
 10
-14.809879
 20
-33.64992300000002
 10
-14.777564
 20
-32.93279900000002
 10
-14.70513799999999
 20
-32.23188400000001
 10
-15.23877499999999
 20
-31.98304300000001
 10
-15.729153
 20
-32.48906700000001
 10
-16.257727
 20
-32.97478000000001
 10
-16.741394
 20
-32.73187400000002
 10
-16.667435
 20
-32.01784300000001
 10
-16.55437599999999
 20
-31.32232400000001
 10
-17.07264099999999
 20
-31.04287900000001
 10
-17.59161399999999
 20
-31.51953200000001
 10
-18.14753499999999
 20
-31.97369000000002
 10
-18.616258
 20
-31.70307300000002
 10
-18.500908
 20
-30.99455100000002
 10
-18.347599
 20
-30.30678100000002
 10
-18.84874099999999
 20
-29.99767100000001
 10
-19.394548
 20
-30.44334500000001
 10
-19.975937
 20
-30.86441000000001
 10
-20.428133
 20
-30.56699500000001
 10
-20.271779
 20
-29.86638200000002
 10
-20.078739
 20
-29.18868700000002
 10
-20.56106
 20
-28.85096300000001
 10
-21.13186
 20
-29.26414800000001
 10
-21.73674699999999
 20
-29.65069300000002
 10
-22.170884
 20
-29.32749000000001
 10
-21.974059
 20
-28.63715100000002
 10
-21.74194199999999
 20
-27.97182900000001
 10
-22.203808
 20
-27.60663400000001
 10
-22.79766499999999
 20
-27.98592600000001
 10
-23.424007
 20
-28.33665000000001
 10
-23.838617
 20
-27.98875200000002
 10
-23.601984
 20
-27.31102600000001
 10
-23.33157299999999
 20
-26.66032600000001
 10
-23.77142499999999
 20
-26.26888900000002
 10
-24.38633399999999
 20
-26.61301400000001
 10
-25.03200699999999
 20
-26.92672400000001
 10
-25.425685
 20
-26.55530500000002
 10
-25.15004999999999
 20
-25.89248400000001
 10
-24.84226099999999
 20
-25.25861000000002
 10
-25.25860899999999
 20
-24.84226200000002
 10
-25.892483
 20
-25.15005000000001
 10
-26.55530499999999
 20
-25.42568500000002
 10
-26.926723
 20
-25.03200800000002
 10
-26.613013
 20
-24.38633400000002
 10
-26.268889
 20
-23.77142600000002
 10
-26.660325
 20
-23.33157400000002
 10
-27.311025
 20
-23.60198500000001
 10
-27.98875099999999
 20
-23.83861700000001
 10
-28.33664899999999
 20
-23.42400700000002
 10
-27.98592599999999
 20
-22.79766600000001
 10
-27.606633
 20
-22.20380800000001
 10
-27.971829
 20
-21.74194300000001
 10
-28.637151
 20
-21.97406000000001
 10
-29.327489
 20
-22.17088400000002
 10
-29.65069199999999
 20
-21.73674800000001
 10
-29.26414699999999
 20
-21.13186100000001
 10
-28.850962
 20
-20.56106100000001
 10
-29.18868599999999
 20
-20.07874000000001
 10
-29.86638099999999
 20
-20.27178000000001
 10
-30.56699499999999
 20
-20.42813400000001
 10
-30.86440899999999
 20
-19.97593800000001
 10
-30.44334499999999
 20
-19.39454900000001
 10
-29.997671
 20
-18.84874200000002
 10
-30.30677999999999
 20
-18.3476
 10
-30.99454999999999
 20
-18.50090900000001
 10
-31.70307199999999
 20
-18.61625900000001
 10
-31.97368899999999
 20
-18.147536
 10
-31.519531
 20
-17.59161400000002
 10
-31.042878
 20
-17.072641
 10
-31.322323
 20
-16.55437700000002
 10
-32.017843
 20
-16.66743500000001
 10
-32.73187299999999
 20
-16.74139400000001
 10
-32.974779
 20
-16.25772800000001
 10
-32.48906599999999
 20
-15.72915400000002
 10
-31.983042
 20
-15.238776
 10
-32.231883
 20
-14.705139
 10
-32.932799
 20
-14.77756500000001
 10
-33.64992199999999
 20
-14.80988000000002
 10
-33.86429299999999
 20
-14.31290900000002
 10
-33.34867
 20
-13.81347200000002
 10
-32.814988
 20
-13.35334500000002
 10
-33.03237799999999
 20
-12.80614100000003
 10
-33.736322
 20
-12.83769100000001
 10
-34.454109
 20
-12.82825600000001
 10
-34.63922099999999
 20
-12.31966100000002
 10
-34.09542999999999
 20
-11.85104800000002
 10
-33.535899
 20
-11.42273
 10
-33.72110499999999
 20
-10.86381200000002
 10
-34.42568899999999
 20
-10.85438000000002
 10
-35.14171499999999
 20
-10.803224
 10
-35.296943
 20
-10.28472600000001
 10
-34.726823
 20
-9.848526000000021
 10
-34.143334
 20
-9.45346600000002
 10
-34.29572899999999
 20
-8.884726000000001
 10
-34.998575
 20
-8.834341000000023
 10
-35.710413
 20
-8.741639000000021
 10
-35.835228
 20
-8.214993000000021
 10
-35.24070999999999
 20
-7.812679000000003
 10
-34.635239
 20
-7.452214000000026
 10
-34.754306
 20
-6.875574
 10
-35.45303199999999
 20
-6.784408000000013
 10
-36.158277
 20
-6.65047100000001
 10
-36.252263
 20
-6.11746100000002
 10
-35.635356
 20
-5.750394
 10
-35.00994899999999
 20
-5.425747999999999
 10
-35.095287
 20
-4.843160000000012
 10
-35.78752999999999
 20
-4.711517000000015
 10
-36.483795
 20
-4.536805000000015
 10
-36.54662599999999
 20
-3.999228000000016
 10
-35.90942199999999
 20
-3.668655000000001
 10
-35.266198
 20
-3.380921000000001
 10
-35.317514
 20
-2.794356000000022
 10
-36.00093199999999
 20
-2.622686000000016
 10
-36.68585999999999
 20
-2.407785000000018
 10
-36.717331
 20
-1.86746500000001
 10
-36.061983
 20
-1.574501000000026
 10
-35.403115
 20
-1.324653000000012
 10
-35.42023999999999
 20
-0.7360980000000268
 10
-36.092522
 20
-0.5249820000000227
 10
-36.76379299999999
 20
-0.2706180000000131
 10
-36.76379299999999
 20
0.2706169999999872
 10
-36.092522
 20
0.5249809999999968
 10
-35.42023999999999
 20
0.7360970000000009
 10
-35.403115
 20
1.324651999999986
 10
-36.061983
 20
1.5745
 10
-36.717331
 20
1.867463999999984
 10
-36.68585999999999
 20
2.407783999999992
 10
-36.00093199999999
 20
2.62268499999999
 10
-35.317514
 20
2.794354999999996
 10
-35.266198
 20
3.380919999999975
 10
-35.90942199999999
 20
3.668653999999975
 10
-36.54662599999999
 20
3.999226999999991
 10
-36.483795
 20
4.536803999999989
 10
-35.78752999999999
 20
4.711515999999989
 10
-35.095287
 20
4.843158999999986
 10
-35.00994899999999
 20
5.425747000000001
 10
-35.635356
 20
5.750392999999974
 10
-36.252263
 20
6.117459999999994
 10
-36.158277
 20
6.650469999999984
 10
-35.45303199999999
 20
6.784406999999987
 10
-34.754306
 20
6.875574
 10
-34.635239
 20
7.452213
 10
-35.24070999999999
 20
7.812677999999977
 10
-35.835228
 20
8.214991999999995
 10
-35.710413
 20
8.741637999999995
 10
-34.998575
 20
8.834339999999997
 10
-34.29572899999999
 20
8.884724999999975
 10
-34.143334
 20
9.453464999999994
 10
-34.726823
 20
9.848524999999995
 10
-35.296943
 20
10.28472499999998
 10
-35.14171499999999
 20
10.803224
 10
-34.42568899999999
 20
10.85437899999999
 10
-33.72110499999999
 20
10.863811
 10
-33.535899
 20
11.42273
 10
-34.09542999999999
 20
11.85104699999999
 10
-34.63922099999999
 20
12.31966
 10
-34.454109
 20
12.82825499999998
 10
-33.736322
 20
12.83768999999998
 10
-33.03237799999999
 20
12.806141
 10
-32.814988
 20
13.35334399999999
 10
-33.34867
 20
13.81347099999999
 10
-33.86429299999999
 20
14.31290799999999
 10
-33.64992199999999
 20
14.809879
 10
-32.932799
 20
14.77756399999998
 10
-32.231883
 20
14.70513799999998
 10
-31.983042
 20
15.23877499999998
 10
-32.48906599999999
 20
15.729153
 10
-32.974779
 20
16.25772699999999
 10
-32.73187299999999
 20
16.74139399999999
 10
-32.017843
 20
16.66743399999999
 10
-31.322323
 20
16.55437599999999
 10
-31.042878
 20
17.07264099999998
 10
-31.519531
 20
17.591613
 10
-31.97368899999999
 20
18.14753499999998
 10
-31.70307199999999
 20
18.61625799999999
 10
-30.99454999999999
 20
18.50090799999998
 10
-30.30677999999999
 20
18.34759899999997
 10
-29.997671
 20
18.84874099999999
 10
-30.44334499999999
 20
19.39454799999999
 10
-30.86440899999999
 20
19.97593699999999
 10
-30.56699499999999
 20
20.42813299999997
 10
-29.86638099999999
 20
20.27177899999998
 10
-29.18868599999999
 20
20.07873899999998
 10
-28.850962
 20
20.56106
 10
-29.26414699999999
 20
21.13185999999999
 10
-29.65069199999999
 20
21.73674699999998
 10
-29.327489
 20
22.17088299999998
 10
-28.637151
 20
21.97405899999998
 10
-27.971829
 20
21.74194199999999
 10
-27.606633
 20
22.20380699999998
 10
-27.98592599999999
 20
22.79766499999999
 10
-28.33664899999999
 20
23.42400699999999
 10
-27.98875099999999
 20
23.83861599999997
 10
-27.311025
 20
23.60198399999999
 10
-26.660325
 20
23.33157299999999
 10
-26.268889
 20
23.77142499999999
 10
-26.613013
 20
24.38633399999998
 10
-26.926723
 20
25.03200699999999
 10
-26.55530499999999
 20
25.42568499999999
 10
-25.892483
 20
25.150049
 10
-25.25860899999999
 20
24.84226099999998
 10
-24.84226099999999
 20
25.25860899999998
 10
-25.15004999999999
 20
25.892483
 10
-25.425685
 20
26.55530399999998
 10
-25.03200699999999
 20
26.92672299999998
 10
-24.38633399999999
 20
26.613013
 10
-23.77142499999999
 20
26.26888799999998
 10
-23.33157299999999
 20
26.660325
 10
-23.601984
 20
27.311025
 10
-23.838617
 20
27.98875099999998
 10
-23.424007
 20
28.33664899999999
 10
-22.79766499999999
 20
27.98592599999998
 10
-22.203808
 20
27.60663299999999
 10
-21.74194199999999
 20
27.97182899999999
 10
-21.974059
 20
28.63715099999999
 10
-22.170884
 20
29.32748899999999
 10
-21.73674699999999
 20
29.65069199999999
 10
-21.13186
 20
29.26414699999998
 10
-20.56106
 20
28.85096199999998
 10
-20.078739
 20
29.18868599999999
 10
-20.271779
 20
29.86638099999999
 10
-20.428133
 20
30.56699499999999
 10
-19.975937
 20
30.86440899999999
 10
-19.394548
 20
30.44334499999999
 10
-18.84874099999999
 20
29.99767
 10
-18.347599
 20
30.30677999999997
 10
-18.500908
 20
30.99454999999998
 10
-18.616258
 20
31.70307199999999
 10
-18.14753499999999
 20
31.97368899999998
 10
-17.59161399999999
 20
31.519531
 10
-17.07264099999999
 20
31.04287799999997
 10
-16.55437599999999
 20
31.32232299999998
 10
-16.667435
 20
32.017843
 10
-16.741394
 20
32.73187299999998
 10
-16.257727
 20
32.97477899999998
 10
-15.729153
 20
32.48906599999998
 10
-15.23877499999999
 20
31.98304199999998
 10
-14.70513799999999
 20
32.23188299999998
 10
-14.777564
 20
32.93279899999999
 10
-14.809879
 20
33.64992199999998
 10
-14.31290799999999
 20
33.86429299999998
 10
-13.81347099999999
 20
33.34867
 10
-13.35334399999999
 20
32.814988
 10
-12.806141
 20
33.03237799999999
 10
-12.83768999999999
 20
33.736322
 10
-12.828256
 20
34.45410899999999
 10
-12.31966
 20
34.63922099999999
 10
-11.85104699999999
 20
34.09542999999999
 10
-11.42273
 20
33.535899
 10
-10.863811
 20
33.721104
 10
-10.85437899999999
 20
34.42568899999998
 10
-10.803224
 20
35.14171499999998
 10
-10.28472499999999
 20
35.296943
 10
-9.848524999999995
 20
34.726823
 10
-9.453464999999994
 20
34.14333399999998
 10
-8.884725000000003
 20
34.29572899999999
 10
-8.834339999999997
 20
34.99857499999999
 10
-8.741637999999995
 20
35.71041299999999
 10
-8.214991999999995
 20
35.835228
 10
-7.812677999999991
 20
35.24070999999998
 10
-7.452213
 20
34.63523899999998
 10
-6.875574
 20
34.75430599999999
 10
-6.784407000000002
 20
35.45303199999998
 10
-6.650469999999999
 20
36.158277
 10
-6.117459999999994
 20
36.25226199999997
 10
-5.750393000000003
 20
35.63535599999997
 10
-5.425747000000001
 20
35.00994799999998
 10
-4.843159
 20
35.09528699999998
 10
-4.711516000000003
 20
35.78752999999998
 10
-4.536803999999989
 20
36.48379499999999
 10
-3.999226999999991
 20
36.54662599999997
 10
-3.668653999999989
 20
35.90942199999998
 10
-3.380919999999989
 20
35.26619799999997
 10
-2.794354999999996
 20
35.31751399999999
 10
-2.62268499999999
 20
36.00093199999998
 10
-2.407783999999992
 20
36.68585999999999
 10
-1.867463999999998
 20
36.71733099999997
 10
-1.574500999999998
 20
36.061983
 10
-1.324652
 20
35.40311499999999
 10
-0.7360970000000009
 20
35.42023999999998
 10
-0.5249809999999968
 20
36.09252199999997
 10
-0.2706170000000014
 20
36.76379299999999
 10
0.2706179999999989
 20
36.76379299999999
 10
0.5249820000000085
 20
36.09252199999997
 10
0.7360979999999984
 20
35.42023999999998
 10
1.324652999999998
 20
35.40311499999999
 10
1.574500999999998
 20
36.061983
 10
1.86746500000001
 20
36.71733099999997
 10
2.407785000000004
 20
36.68585999999999
 10
2.622686000000002
 20
36.00093199999998
 10
2.794356000000008
 20
35.31751399999999
 10
3.380921000000001
 20
35.26619799999997
 10
3.668655000000001
 20
35.90942199999998
 10
3.999228000000002
 20
36.54662599999997
 10
4.536804000000004
 20
36.48379499999999
 10
4.711517000000001
 20
35.78752999999998
 10
4.843159
 20
35.09528699999998
 10
5.425747999999999
 20
35.00994799999998
 10
5.750394
 20
35.63535599999997
 10
6.117461000000006
 20
36.25226199999997
 10
6.65047100000001
 20
36.158277
 10
6.784407999999999
 20
35.45303199999998
 10
6.875574
 20
34.75430599999999
 10
7.452213999999998
 20
34.63523899999998
 10
7.812679000000003
 20
35.24070999999998
 10
8.214993000000007
 20
35.835228
 10
8.741639000000006
 20
35.71041299999999
 10
8.834339999999997
 20
34.99857499999999
 10
8.884726000000001
 20
34.29572899999999
 10
9.453465000000008
 20
34.14333399999998
 10
9.848526000000007
 20
34.726823
 10
10.28472600000001
 20
35.296943
 10
10.803224
 20
35.14171499999998
 10
10.85438000000001
 20
34.42568899999998
 10
10.86381200000001
 20
33.721104
 10
11.42273
 20
33.535899
 10
11.85104800000001
 20
34.09542999999999
 10
12.31966100000001
 20
34.63922099999999
 10
12.82825600000001
 20
34.45410899999999
 10
12.83769100000001
 20
33.736322
 10
12.80614100000001
 20
33.03237799999999
 10
13.353345
 20
32.814988
 10
13.81347100000001
 20
33.34867
 10
14.312909
 20
33.86429299999998
 10
14.80988000000001
 20
33.64992199999998
 10
14.77756500000001
 20
32.93279899999999
 10
14.70513800000001
 20
32.23188299999998
 10
15.238775
 20
31.98304199999998
 10
15.72915400000001
 20
32.48906599999998
 10
16.257728
 20
32.97477899999998
 10
16.741394
 20
32.73187299999998
 10
16.667435
 20
32.017843
 10
16.554377
 20
31.32232299999998
 10
17.072641
 20
31.04287799999997
 10
17.59161400000001
 20
31.519531
 10
18.147536
 20
31.97368899999998
 10
18.616259
 20
31.70307199999999
 10
18.50090900000001
 20
30.99454999999998
 10
18.3476
 20
30.30677999999997
 10
18.848742
 20
29.99767
 10
19.394549
 20
30.44334499999999
 10
19.975938
 20
30.86440899999999
 10
20.428134
 20
30.56699499999999
 10
20.27178000000001
 20
29.86638099999999
 10
20.07874000000001
 20
29.18868599999999
 10
20.56106
 20
28.85096199999998
 10
21.131861
 20
29.26414699999998
 10
21.73674700000001
 20
29.65069199999999
 10
22.17088400000002
 20
29.32748899999999
 10
21.97406000000001
 20
28.63715099999999
 10
21.74194300000001
 20
27.97182899999999
 10
22.203808
 20
27.60663299999999
 10
22.79766600000001
 20
27.98592599999998
 10
23.424007
 20
28.33664899999999
 10
23.83861700000001
 20
27.98875099999998
 10
23.601985
 20
27.311025
 10
23.331574
 20
26.660325
 10
23.77142600000001
 20
26.26888799999998
 10
24.38633399999999
 20
26.613013
 10
25.032008
 20
26.92672299999998
 10
25.425685
 20
26.55530399999998
 10
25.15005000000001
 20
25.892483
 10
24.84226099999999
 20
25.25860899999998
 10
25.25860999999999
 20
24.84226099999998
 10
25.89248400000001
 20
25.150049
 10
26.55530499999999
 20
25.42568499999999
 10
26.92672399999999
 20
25.03200699999999
 10
26.61301400000001
 20
24.38633399999998
 10
26.26888900000002
 20
23.77142499999999
 10
26.66032600000001
 20
23.33157299999999
 10
27.31102600000001
 20
23.60198399999999
 10
27.98875099999999
 20
23.83861599999997
 10
28.33665000000001
 20
23.42400699999999
 10
27.98592599999999
 20
22.79766499999999
 10
27.606634
 20
22.20380699999998
 10
27.971829
 20
21.74194199999999
 10
28.637151
 20
21.97405899999998
 10
29.327489
 20
22.17088299999998
 10
29.650693
 20
21.73674699999998
 10
29.26414699999999
 20
21.13185999999999
 10
28.85096299999999
 20
20.56106
 10
29.188687
 20
20.07873899999998
 10
29.866381
 20
20.27177899999998
 10
30.56699500000001
 20
20.42813299999997
 10
30.86441000000001
 20
19.97593699999999
 10
30.44334500000001
 20
19.39454799999999
 10
29.99767100000001
 20
18.84874099999999
 10
30.30678100000002
 20
18.34759899999997
 10
30.99455100000002
 20
18.50090799999998
 10
31.70307200000001
 20
18.61625799999999
 10
31.97368999999999
 20
18.14753499999998
 10
31.51953200000001
 20
17.591613
 10
31.04287800000002
 20
17.07264099999998
 10
31.32232399999999
 20
16.55437599999999
 10
32.01784300000001
 20
16.66743399999999
 10
32.73187399999999
 20
16.74139399999999
 10
32.97478
 20
16.25772699999999
 10
32.48906699999999
 20
15.729153
 10
31.983043
 20
15.23877499999998
 10
32.231883
 20
14.70513799999998
 10
32.932799
 20
14.77756399999998
 10
33.64992300000002
 20
14.809879
 10
33.86429400000002
 20
14.31290799999999
 10
33.34867100000001
 20
13.81347099999999
 10
32.81498800000001
 20
13.35334399999999
 10
33.03237900000001
 20
12.806141
 10
33.73632300000001
 20
12.83768999999998
 10
34.45411
 20
12.82825499999998
 10
34.639222
 20
12.31966
 10
34.095431
 20
11.85104699999999
 10
33.53590000000001
 20
11.42273
 10
33.72110500000001
 20
10.863811
 10
34.42569000000002
 20
10.85437899999999
 10
35.14171600000002
 20
10.803224
 10
35.29694400000001
 20
10.28472499999998
 10
34.72682400000001
 20
9.848524999999995
 10
34.14333499999999
 20
9.453464999999994
 10
34.29572900000001
 20
8.884724999999975
 10
34.998576
 20
8.834339999999997
 10
35.710413
 20
8.741637999999995
 10
35.83522900000001
 20
8.214991999999995
 10
35.24071099999999
 20
7.812677999999977
 10
34.63524
 20
7.452213
 10
34.754307
 20
6.875574
 10
35.45303199999999
 20
6.784406999999987
 10
36.15827800000001
 20
6.650469999999984
 10
36.25226300000001
 20
6.117459999999994
 10
35.63535600000002
 20
5.750392999999974
 10
35.00994899999999
 20
5.425747000000001
 10
35.095288
 20
4.843158999999986
 10
35.78753100000002
 20
4.711515999999989
 10
36.483796
 20
4.536803999999989
 10
36.54662700000002
 20
3.999226999999991
 10
35.90942199999999
 20
3.668653999999975
 10
35.26619900000001
 20
3.380919999999975
 10
35.317515
 20
2.794354999999996
 10
36.00093300000002
 20
2.62268499999999
 10
36.685861
 20
2.407783999999992
 10
36.71733200000001
 20
1.867463999999984
 10
36.06198300000001
 20
1.5745
 10
35.403116
 20
1.324651999999986
 10
35.42024099999999
 20
0.7360970000000009
  0
ENDSEC
  0
SECTION
  2
OBJECTS
  0
DICTIONARY
  5
C
330
0
100
AcDbDictionary
281
    1
  3
ACAD_GROUP
350
D
  0
DICTIONARY
  5
D
330
C
100
AcDbDictionary
281
    1
  0
ENDSEC
  0
EOF
