  0
SECTION
  2
HEADER
  9
$ACADVER
  1
AC1014
  9
$HANDSEED
  5
FFFF
  9
$MEASUREMENT
 70
     1
  0
ENDSEC
  0
SECTION
  2
TABLES
  0
TABLE
  2
VPORT
  5
8
330
0
100
AcDbSymbolTable
 70
     4
  0
VPORT
  5
2E
330
8
100
AcDbSymbolTableRecord
100
AcDbViewportTableRecord
  2
*ACTIVE
 70
     0
 10
0.0
 20
0.0
 11
1.0
 21
1.0
 12
210.0
 22
148.5
 13
0.0
 23
0.0
 14
10.0
 24
10.0
 15
10.0
 25
10.0
 16
0.0
 26
0.0
 36
1.0
 17
0.0
 27
0.0
 37
0.0
 40
341.0
 41
1.24
 42
50.0
 43
0.0
 44
0.0
 50
0.0
 51
0.0
 71
     0
 72
   100
 73
     1
 74
     3
 75
     0
 76
     0
 77
     0
 78
     0
  0
ENDTAB
  0
TABLE
  2
LTYPE
  5
5
330
0
100
AcDbSymbolTable
 70
     1
  0
LTYPE
  5
14
330
5
100
AcDbSymbolTableRecord
100
AcDbLinetypeTableRecord
  2
BYBLOCK
 70
     0
  3

 72
    65
 73
     0
 40
0.0
  0
LTYPE
  5
15
330
5
100
AcDbSymbolTableRecord
100
AcDbLinetypeTableRecord
  2
BYLAYER
 70
     0
  3

 72
    65
 73
     0
 40
0.0
  0
LTYPE
  5
16
330
5
100
AcDbSymbolTableRecord
100
AcDbLinetypeTableRecord
  2
CONTINUOUS
 70
     0
  3
Solid line
 72
    65
 73
     0
 40
0.0
  0
ENDTAB
  0
TABLE
  2
LAYER
  5
2
100
AcDbSymbolTable
 70
2
  0
LAYER
  5
50
100
AcDbSymbolTableRecord
100
AcDbLayerTableRecord
  2
0
 70
0
  6
CONTINUOUS
  0
LAYER
  5
51
100
AcDbSymbolTableRecord
100
AcDbLayerTableRecord
  2
Capa_1
 70
0
  6
CONTINUOUS
  0
ENDTAB
  0
TABLE
  2
STYLE
  5
3
330
0
100
AcDbSymbolTable
 70
     1
  0
STYLE
  5
11
330
3
100
AcDbSymbolTableRecord
100
AcDbTextStyleTableRecord
  2
STANDARD
 70
     0
 40
0.0
 41
1.0
 50
0.0
 71
     0
 42
2.5
  3
txt
  4

  0
ENDTAB
  0
TABLE
  2
VIEW
  5
6
330
0
100
AcDbSymbolTable
 70
     0
  0
ENDTAB
  0
TABLE
  2
UCS
  5
7
330
0
100
AcDbSymbolTable
 70
     0
  0
ENDTAB
  0
TABLE
  2
APPID
  5
9
330
0
100
AcDbSymbolTable
 70
     2
  0
APPID
  5
12
330
9
100
AcDbSymbolTableRecord
100
AcDbRegAppTableRecord
  2
ACAD
 70
     0
  0
ENDTAB
  0
TABLE
  2
DIMSTYLE
  5
A
330
0
100
AcDbSymbolTable
 70
     1
  0
DIMSTYLE
105
27
330
A
100
AcDbSymbolTableRecord
100
AcDbDimStyleTableRecord
  2
ISO-25
 70
     0
  3

  4

  5

  6

  7

 40
1.0
 41
2.5
 42
0.625
 43
3.75
 44
1.25
 45
0.0
 46
0.0
 47
0.0
 48
0.0
140
2.5
141
2.5
142
0.0
143
0.03937007874016
144
1.0
145
0.0
146
1.0
147
0.625
 71
     0
 72
     0
 73
     0
 74
     0
 75
     0
 76
     0
 77
     1
 78
     8
170
     0
171
     3
172
     1
173
     0
174
     0
175
     0
176
     0
177
     0
178
     0
270
     2
271
     2
272
     2
273
     2
274
     3
340
11
275
     0
280
     0
281
     0
282
     0
283
     0
284
     8
285
     0
286
     0
287
     3
288
     0
  0
ENDTAB
  0
TABLE
  2
BLOCK_RECORD
  5
1
330
0
100
AcDbSymbolTable
 70
     1
  0
BLOCK_RECORD
  5
1F
330
1
100
AcDbSymbolTableRecord
100
AcDbBlockTableRecord
  2
*MODEL_SPACE
  0
BLOCK_RECORD
  5
1B
330
1
100
AcDbSymbolTableRecord
100
AcDbBlockTableRecord
  2
*PAPER_SPACE
  0
ENDTAB
  0
ENDSEC
  0
SECTION
  2
BLOCKS
  0
BLOCK
  5
20
330
1F
100
AcDbEntity
  8
0
100
AcDbBlockBegin
  2
*MODEL_SPACE
 70
     0
 10
0.0
 20
0.0
 30
0.0
  3
*MODEL_SPACE
  1

  0
ENDBLK
  5
21
330
1F
100
AcDbEntity
  8
0
100
AcDbBlockEnd
  0
BLOCK
  5
1C
330
1B
100
AcDbEntity
 67
     1
  8
0
100
AcDbBlockBegin
  2
*PAPER_SPACE
  1

  0
ENDBLK
  5
1D
330
1B
100
AcDbEntity
 67
     1
  8
0
100
AcDbBlockEnd
  0
ENDSEC
  0
SECTION
  2
ENTITIES
  0
LWPOLYLINE
  5
100
100
AcDbEntity
  8
Capa_1
 62
7
100
AcDbPolyline
 90
649
 70
1
 10
72.234045
 20
37.549901
 30
0.0
 10
72.906327
 20
37.338784
 30
0.0
 10
73.577598
 20
37.084420
 30
0.0
 10
73.577598
 20
36.543186
 30
0.0
 10
72.906327
 20
36.288822
 30
0.0
 10
72.234045
 20
36.077705
 30
0.0
 10
72.216915
 20
35.489151
 30
0.0
 10
72.875782
 20
35.239302
 30
0.0
 10
73.531130
 20
34.946339
 30
0.0
 10
73.499660
 20
34.406018
 30
0.0
 10
72.814732
 20
34.191117
 30
0.0
 10
72.131314
 20
34.019447
 30
0.0
 10
72.079997
 20
33.432882
 30
0.0
 10
72.723221
 20
33.145148
 30
0.0
 10
73.360425
 20
32.814576
 30
0.0
 10
73.297594
 20
32.276999
 30
0.0
 10
72.601329
 20
32.102286
 30
0.0
 10
71.909086
 20
31.970644
 30
0.0
 10
71.823748
 20
31.388055
 30
0.0
 10
72.449155
 20
31.063409
 30
0.0
 10
73.066062
 20
30.696343
 30
0.0
 10
72.972076
 20
30.163332
 30
0.0
 10
72.266831
 20
30.029395
 30
0.0
 10
71.568105
 20
29.938229
 30
0.0
 10
71.449039
 20
29.361590
 30
0.0
 10
72.054510
 20
29.001124
 30
0.0
 10
72.649028
 20
28.598811
 30
0.0
 10
72.524212
 20
28.072164
 30
0.0
 10
71.812374
 20
27.979463
 30
0.0
 10
71.109528
 20
27.929078
 30
0.0
 10
70.957134
 20
27.360338
 30
0.0
 10
71.540623
 20
26.965278
 30
0.0
 10
72.110743
 20
26.529078
 30
0.0
 10
71.955515
 20
26.010579
 30
0.0
 10
71.239489
 20
25.959423
 30
0.0
 10
70.534904
 20
25.949992
 30
0.0
 10
70.349698
 20
25.391073
 30
0.0
 10
70.909229
 20
24.962756
 30
0.0
 10
71.453021
 20
24.494143
 30
0.0
 10
71.267908
 20
23.985547
 30
0.0
 10
70.550121
 20
23.976112
 30
0.0
 10
69.846177
 20
24.007662
 30
0.0
 10
69.628787
 20
23.460459
 30
0.0
 10
70.162469
 20
23.000332
 30
0.0
 10
70.678092
 20
22.500894
 30
0.0
 10
70.463722
 20
22.003924
 30
0.0
 10
69.746598
 20
22.036238
 30
0.0
 10
69.045682
 20
22.108665
 30
0.0
 10
68.796841
 20
21.575028
 30
0.0
 10
69.302866
 20
21.084650
 30
0.0
 10
69.788579
 20
20.556076
 30
0.0
 10
69.545673
 20
20.072409
 30
0.0
 10
68.831642
 20
20.146368
 30
0.0
 10
68.136122
 20
20.259426
 30
0.0
 10
67.856677
 20
19.741162
 30
0.0
 10
68.333331
 20
19.222189
 30
0.0
 10
68.787488
 20
18.666268
 30
0.0
 10
68.516871
 20
18.197545
 30
0.0
 10
67.808349
 20
18.312895
 30
0.0
 10
67.120579
 20
18.466203
 30
0.0
 10
66.811470
 20
17.965061
 30
0.0
 10
67.257144
 20
17.419255
 30
0.0
 10
67.678208
 20
16.837866
 30
0.0
 10
67.380794
 20
16.385670
 30
0.0
 10
66.680180
 20
16.542023
 30
0.0
 10
66.002486
 20
16.735063
 30
0.0
 10
65.664762
 20
16.252743
 30
0.0
 10
66.077946
 20
15.681943
 30
0.0
 10
66.464492
 20
15.077056
 30
0.0
 10
66.141288
 20
14.642919
 30
0.0
 10
65.450950
 20
14.839744
 30
0.0
 10
64.785628
 20
15.071860
 30
0.0
 10
64.420432
 20
14.609995
 30
0.0
 10
64.799725
 20
14.016137
 30
0.0
 10
65.150448
 20
13.389796
 30
0.0
 10
64.802550
 20
12.975186
 30
0.0
 10
64.124824
 20
13.211818
 30
0.0
 10
63.474124
 20
13.482229
 30
0.0
 10
63.082688
 20
13.042378
 30
0.0
 10
63.426813
 20
12.427469
 30
0.0
 10
63.740522
 20
11.781795
 30
0.0
 10
63.369104
 20
11.388118
 30
0.0
 10
62.706282
 20
11.663753
 30
0.0
 10
62.072409
 20
11.971542
 30
0.0
 10
61.656060
 20
11.555193
 30
0.0
 10
61.963849
 20
10.921320
 30
0.0
 10
62.239484
 20
10.258498
 30
0.0
 10
61.845807
 20
9.887080
 30
0.0
 10
61.200133
 20
10.200789
 30
0.0
 10
60.585224
 20
10.544914
 30
0.0
 10
60.145373
 20
10.153478
 30
0.0
 10
60.415784
 20
9.502778
 30
0.0
 10
60.652416
 20
8.825052
 30
0.0
 10
60.237806
 20
8.477154
 30
0.0
 10
59.611465
 20
8.827877
 30
0.0
 10
59.017607
 20
9.207169
 30
0.0
 10
58.555742
 20
8.841974
 30
0.0
 10
58.787858
 20
8.176652
 30
0.0
 10
58.984683
 20
7.486314
 30
0.0
 10
58.550546
 20
7.163110
 30
0.0
 10
57.945659
 20
7.549656
 30
0.0
 10
57.374859
 20
7.962840
 30
0.0
 10
56.892539
 20
7.625116
 30
0.0
 10
57.085579
 20
6.947422
 30
0.0
 10
57.241932
 20
6.246808
 30
0.0
 10
56.789736
 20
5.949394
 30
0.0
 10
56.208347
 20
6.370458
 30
0.0
 10
55.662541
 20
6.816132
 30
0.0
 10
55.161399
 20
6.507022
 30
0.0
 10
55.314707
 20
5.819253
 30
0.0
 10
55.430057
 20
5.110731
 30
0.0
 10
54.961334
 20
4.840114
 30
0.0
 10
54.405413
 20
5.294271
 30
0.0
 10
53.886440
 20
5.770925
 30
0.0
 10
53.368176
 20
5.491480
 30
0.0
 10
53.481234
 20
4.795960
 30
0.0
 10
53.555193
 20
4.081929
 30
0.0
 10
53.071526
 20
3.839023
 30
0.0
 10
52.542952
 20
4.324736
 30
0.0
 10
52.052574
 20
4.830761
 30
0.0
 10
51.518937
 20
4.581920
 30
0.0
 10
51.591364
 20
3.881004
 30
0.0
 10
51.623678
 20
3.163880
 30
0.0
 10
51.126708
 20
2.949510
 30
0.0
 10
50.627270
 20
3.465133
 30
0.0
 10
50.167143
 20
3.998815
 30
0.0
 10
49.619940
 20
3.781425
 30
0.0
 10
49.651490
 20
3.077481
 30
0.0
 10
49.642055
 20
2.359694
 30
0.0
 10
49.133459
 20
2.174581
 30
0.0
 10
48.664846
 20
2.718373
 30
0.0
 10
48.236529
 20
3.277904
 30
0.0
 10
47.677610
 20
3.092698
 30
0.0
 10
47.668179
 20
2.388113
 30
0.0
 10
47.617023
 20
1.672087
 30
0.0
 10
47.098524
 20
1.516859
 30
0.0
 10
46.662324
 20
2.086979
 30
0.0
 10
46.267264
 20
2.670468
 30
0.0
 10
45.698524
 20
2.518074
 30
0.0
 10
45.648139
 20
1.815228
 30
0.0
 10
45.555438
 20
1.103390
 30
0.0
 10
45.028791
 20
0.978574
 30
0.0
 10
44.626478
 20
1.573092
 30
0.0
 10
44.266012
 20
2.178563
 30
0.0
 10
43.689373
 20
2.059497
 30
0.0
 10
43.598207
 20
1.360771
 30
0.0
 10
43.464270
 20
0.655526
 30
0.0
 10
42.931259
 20
0.561540
 30
0.0
 10
42.564193
 20
1.178447
 30
0.0
 10
42.239547
 20
1.803854
 30
0.0
 10
41.656958
 20
1.718516
 30
0.0
 10
41.525316
 20
1.026273
 30
0.0
 10
41.350603
 20
0.330008
 30
0.0
 10
40.813026
 20
0.267177
 30
0.0
 10
40.482454
 20
0.904381
 30
0.0
 10
40.194720
 20
1.547605
 30
0.0
 10
39.608155
 20
1.496288
 30
0.0
 10
39.436484
 20
0.812870
 30
0.0
 10
39.221584
 20
0.127942
 30
0.0
 10
38.681263
 20
0.096472
 30
0.0
 10
38.388300
 20
0.751820
 30
0.0
 10
38.138451
 20
1.410687
 30
0.0
 10
37.549897
 20
1.393557
 30
0.0
 10
37.338780
 20
0.721275
 30
0.0
 10
37.084416
 20
0.050004
 30
0.0
 10
36.543182
 20
0.050004
 30
0.0
 10
36.288818
 20
0.721275
 30
0.0
 10
36.077701
 20
1.393557
 30
0.0
 10
35.489147
 20
1.410687
 30
0.0
 10
35.239298
 20
0.751820
 30
0.0
 10
34.946335
 20
0.096472
 30
0.0
 10
34.406014
 20
0.127942
 30
0.0
 10
34.191114
 20
0.812870
 30
0.0
 10
34.019443
 20
1.496288
 30
0.0
 10
33.432878
 20
1.547605
 30
0.0
 10
33.145144
 20
0.904381
 30
0.0
 10
32.814572
 20
0.267177
 30
0.0
 10
32.276995
 20
0.330008
 30
0.0
 10
32.102282
 20
1.026273
 30
0.0
 10
31.970640
 20
1.718516
 30
0.0
 10
31.388051
 20
1.803854
 30
0.0
 10
31.063406
 20
1.178447
 30
0.0
 10
30.696339
 20
0.561540
 30
0.0
 10
30.163328
 20
0.655526
 30
0.0
 10
30.029391
 20
1.360771
 30
0.0
 10
29.938225
 20
2.059497
 30
0.0
 10
29.361586
 20
2.178563
 30
0.0
 10
29.001120
 20
1.573092
 30
0.0
 10
28.598807
 20
0.978574
 30
0.0
 10
28.072160
 20
1.103390
 30
0.0
 10
27.979459
 20
1.815228
 30
0.0
 10
27.929074
 20
2.518074
 30
0.0
 10
27.360334
 20
2.670468
 30
0.0
 10
26.965274
 20
2.086979
 30
0.0
 10
26.529074
 20
1.516859
 30
0.0
 10
26.010575
 20
1.672087
 30
0.0
 10
25.959419
 20
2.388113
 30
0.0
 10
25.949988
 20
3.092698
 30
0.0
 10
25.391069
 20
3.277904
 30
0.0
 10
24.962752
 20
2.718373
 30
0.0
 10
24.494139
 20
2.174581
 30
0.0
 10
23.985543
 20
2.359694
 30
0.0
 10
23.976108
 20
3.077481
 30
0.0
 10
24.007658
 20
3.781425
 30
0.0
 10
23.460455
 20
3.998815
 30
0.0
 10
23.000328
 20
3.465133
 30
0.0
 10
22.500891
 20
2.949510
 30
0.0
 10
22.003920
 20
3.163880
 30
0.0
 10
22.036234
 20
3.881004
 30
0.0
 10
22.108661
 20
4.581920
 30
0.0
 10
21.575024
 20
4.830761
 30
0.0
 10
21.084646
 20
4.324736
 30
0.0
 10
20.556072
 20
3.839023
 30
0.0
 10
20.072405
 20
4.081929
 30
0.0
 10
20.146364
 20
4.795960
 30
0.0
 10
20.259422
 20
5.491480
 30
0.0
 10
19.741158
 20
5.770925
 30
0.0
 10
19.222185
 20
5.294271
 30
0.0
 10
18.666264
 20
4.840114
 30
0.0
 10
18.197541
 20
5.110731
 30
0.0
 10
18.312891
 20
5.819253
 30
0.0
 10
18.466199
 20
6.507022
 30
0.0
 10
17.965057
 20
6.816132
 30
0.0
 10
17.419251
 20
6.370458
 30
0.0
 10
16.837862
 20
5.949394
 30
0.0
 10
16.385666
 20
6.246808
 30
0.0
 10
16.542020
 20
6.947422
 30
0.0
 10
16.735060
 20
7.625116
 30
0.0
 10
16.252739
 20
7.962840
 30
0.0
 10
15.681939
 20
7.549656
 30
0.0
 10
15.077052
 20
7.163110
 30
0.0
 10
14.642915
 20
7.486314
 30
0.0
 10
14.839740
 20
8.176652
 30
0.0
 10
15.071856
 20
8.841974
 30
0.0
 10
14.609991
 20
9.207169
 30
0.0
 10
14.016133
 20
8.827877
 30
0.0
 10
13.389792
 20
8.477154
 30
0.0
 10
12.975182
 20
8.825052
 30
0.0
 10
13.211814
 20
9.502778
 30
0.0
 10
13.482225
 20
10.153478
 30
0.0
 10
13.042374
 20
10.544914
 30
0.0
 10
12.427465
 20
10.200789
 30
0.0
 10
11.781791
 20
9.887080
 30
0.0
 10
11.388114
 20
10.258498
 30
0.0
 10
11.663749
 20
10.921320
 30
0.0
 10
11.971538
 20
11.555193
 30
0.0
 10
11.555190
 20
11.971542
 30
0.0
 10
10.921316
 20
11.663753
 30
0.0
 10
10.258494
 20
11.388118
 30
0.0
 10
9.887076
 20
11.781795
 30
0.0
 10
10.200785
 20
12.427469
 30
0.0
 10
10.544910
 20
13.042378
 30
0.0
 10
10.153474
 20
13.482229
 30
0.0
 10
9.502774
 20
13.211818
 30
0.0
 10
8.825048
 20
12.975186
 30
0.0
 10
8.477150
 20
13.389796
 30
0.0
 10
8.827873
 20
14.016137
 30
0.0
 10
9.207166
 20
14.609995
 30
0.0
 10
8.841970
 20
15.071860
 30
0.0
 10
8.176648
 20
14.839744
 30
0.0
 10
7.486310
 20
14.642919
 30
0.0
 10
7.163106
 20
15.077056
 30
0.0
 10
7.549652
 20
15.681943
 30
0.0
 10
7.962837
 20
16.252743
 30
0.0
 10
7.625112
 20
16.735063
 30
0.0
 10
6.947418
 20
16.542023
 30
0.0
 10
6.246804
 20
16.385670
 30
0.0
 10
5.949390
 20
16.837866
 30
0.0
 10
6.370454
 20
17.419255
 30
0.0
 10
6.816128
 20
17.965061
 30
0.0
 10
6.507019
 20
18.466203
 30
0.0
 10
5.819249
 20
18.312895
 30
0.0
 10
5.110727
 20
18.197545
 30
0.0
 10
4.840110
 20
18.666268
 30
0.0
 10
5.294267
 20
19.222189
 30
0.0
 10
5.770921
 20
19.741162
 30
0.0
 10
5.491476
 20
20.259426
 30
0.0
 10
4.795956
 20
20.146368
 30
0.0
 10
4.081925
 20
20.072409
 30
0.0
 10
3.839020
 20
20.556076
 30
0.0
 10
4.324732
 20
21.084650
 30
0.0
 10
4.830757
 20
21.575028
 30
0.0
 10
4.581916
 20
22.108665
 30
0.0
 10
3.881000
 20
22.036238
 30
0.0
 10
3.163876
 20
22.003924
 30
0.0
 10
2.949506
 20
22.500894
 30
0.0
 10
3.465129
 20
23.000332
 30
0.0
 10
3.998811
 20
23.460459
 30
0.0
 10
3.781421
 20
24.007662
 30
0.0
 10
3.077477
 20
23.976112
 30
0.0
 10
2.359690
 20
23.985547
 30
0.0
 10
2.174577
 20
24.494143
 30
0.0
 10
2.718369
 20
24.962756
 30
0.0
 10
3.277900
 20
25.391073
 30
0.0
 10
3.092694
 20
25.949992
 30
0.0
 10
2.388109
 20
25.959423
 30
0.0
 10
1.672083
 20
26.010579
 30
0.0
 10
1.516856
 20
26.529078
 30
0.0
 10
2.086975
 20
26.965278
 30
0.0
 10
2.670464
 20
27.360338
 30
0.0
 10
2.518070
 20
27.929078
 30
0.0
 10
1.815224
 20
27.979463
 30
0.0
 10
1.103386
 20
28.072164
 30
0.0
 10
0.978570
 20
28.598811
 30
0.0
 10
1.573088
 20
29.001124
 30
0.0
 10
2.178559
 20
29.361590
 30
0.0
 10
2.059493
 20
29.938229
 30
0.0
 10
1.360767
 20
30.029395
 30
0.0
 10
0.655522
 20
30.163332
 30
0.0
 10
0.561536
 20
30.696343
 30
0.0
 10
1.178443
 20
31.063409
 30
0.0
 10
1.803850
 20
31.388055
 30
0.0
 10
1.718512
 20
31.970644
 30
0.0
 10
1.026269
 20
32.102286
 30
0.0
 10
0.330004
 20
32.276999
 30
0.0
 10
0.267173
 20
32.814576
 30
0.0
 10
0.904377
 20
33.145148
 30
0.0
 10
1.547601
 20
33.432882
 30
0.0
 10
1.496284
 20
34.019447
 30
0.0
 10
0.812866
 20
34.191117
 30
0.0
 10
0.127938
 20
34.406018
 30
0.0
 10
0.096468
 20
34.946339
 30
0.0
 10
0.751816
 20
35.239302
 30
0.0
 10
1.410684
 20
35.489151
 30
0.0
 10
1.393553
 20
36.077705
 30
0.0
 10
0.721271
 20
36.288822
 30
0.0
 10
0.050000
 20
36.543186
 30
0.0
 10
0.050000
 20
37.084420
 30
0.0
 10
0.721271
 20
37.338784
 30
0.0
 10
1.393553
 20
37.549901
 30
0.0
 10
1.410684
 20
38.138455
 30
0.0
 10
0.751816
 20
38.388304
 30
0.0
 10
0.096468
 20
38.681267
 30
0.0
 10
0.127938
 20
39.221587
 30
0.0
 10
0.812866
 20
39.436488
 30
0.0
 10
1.496284
 20
39.608159
 30
0.0
 10
1.547601
 20
40.194724
 30
0.0
 10
0.904377
 20
40.482458
 30
0.0
 10
0.267173
 20
40.813030
 30
0.0
 10
0.330004
 20
41.350607
 30
0.0
 10
1.026269
 20
41.525320
 30
0.0
 10
1.718512
 20
41.656962
 30
0.0
 10
1.803850
 20
42.239551
 30
0.0
 10
1.178443
 20
42.564196
 30
0.0
 10
0.561536
 20
42.931263
 30
0.0
 10
0.655522
 20
43.464274
 30
0.0
 10
1.360767
 20
43.598211
 30
0.0
 10
2.059493
 20
43.689377
 30
0.0
 10
2.178559
 20
44.266016
 30
0.0
 10
1.573088
 20
44.626482
 30
0.0
 10
0.978570
 20
45.028795
 30
0.0
 10
1.103386
 20
45.555442
 30
0.0
 10
1.815224
 20
45.648143
 30
0.0
 10
2.518070
 20
45.698528
 30
0.0
 10
2.670464
 20
46.267268
 30
0.0
 10
2.086975
 20
46.662328
 30
0.0
 10
1.516856
 20
47.098528
 30
0.0
 10
1.672083
 20
47.617027
 30
0.0
 10
2.388109
 20
47.668183
 30
0.0
 10
3.092694
 20
47.677614
 30
0.0
 10
3.277900
 20
48.236533
 30
0.0
 10
2.718369
 20
48.664850
 30
0.0
 10
2.174577
 20
49.133463
 30
0.0
 10
2.359690
 20
49.642059
 30
0.0
 10
3.077477
 20
49.651494
 30
0.0
 10
3.781421
 20
49.619944
 30
0.0
 10
3.998811
 20
50.167147
 30
0.0
 10
3.465129
 20
50.627274
 30
0.0
 10
2.949506
 20
51.126711
 30
0.0
 10
3.163876
 20
51.623682
 30
0.0
 10
3.881000
 20
51.591368
 30
0.0
 10
4.581916
 20
51.518941
 30
0.0
 10
4.830757
 20
52.052578
 30
0.0
 10
4.324732
 20
52.542956
 30
0.0
 10
3.839020
 20
53.071530
 30
0.0
 10
4.081925
 20
53.555197
 30
0.0
 10
4.795956
 20
53.481238
 30
0.0
 10
5.491476
 20
53.368180
 30
0.0
 10
5.770921
 20
53.886444
 30
0.0
 10
5.294267
 20
54.405417
 30
0.0
 10
4.840110
 20
54.961338
 30
0.0
 10
5.110727
 20
55.430061
 30
0.0
 10
5.819249
 20
55.314711
 30
0.0
 10
6.507019
 20
55.161403
 30
0.0
 10
6.816128
 20
55.662545
 30
0.0
 10
6.370454
 20
56.208351
 30
0.0
 10
5.949390
 20
56.789740
 30
0.0
 10
6.246804
 20
57.241936
 30
0.0
 10
6.947418
 20
57.085582
 30
0.0
 10
7.625112
 20
56.892542
 30
0.0
 10
7.962837
 20
57.374863
 30
0.0
 10
7.549652
 20
57.945663
 30
0.0
 10
7.163106
 20
58.550550
 30
0.0
 10
7.486310
 20
58.984687
 30
0.0
 10
8.176648
 20
58.787862
 30
0.0
 10
8.841970
 20
58.555746
 30
0.0
 10
9.207166
 20
59.017611
 30
0.0
 10
8.827873
 20
59.611469
 30
0.0
 10
8.477150
 20
60.237810
 30
0.0
 10
8.825048
 20
60.652420
 30
0.0
 10
9.502774
 20
60.415788
 30
0.0
 10
10.153474
 20
60.145377
 30
0.0
 10
10.544910
 20
60.585228
 30
0.0
 10
10.200785
 20
61.200137
 30
0.0
 10
9.887076
 20
61.845811
 30
0.0
 10
10.258494
 20
62.239488
 30
0.0
 10
10.921316
 20
61.963853
 30
0.0
 10
11.555190
 20
61.656064
 30
0.0
 10
11.971538
 20
62.072412
 30
0.0
 10
11.663749
 20
62.706286
 30
0.0
 10
11.388114
 20
63.369108
 30
0.0
 10
11.781791
 20
63.740526
 30
0.0
 10
12.427465
 20
63.426817
 30
0.0
 10
13.042374
 20
63.082692
 30
0.0
 10
13.482225
 20
63.474128
 30
0.0
 10
13.211814
 20
64.124828
 30
0.0
 10
12.975182
 20
64.802554
 30
0.0
 10
13.389792
 20
65.150452
 30
0.0
 10
14.016133
 20
64.799729
 30
0.0
 10
14.609991
 20
64.420436
 30
0.0
 10
15.071856
 20
64.785632
 30
0.0
 10
14.839740
 20
65.450954
 30
0.0
 10
14.642915
 20
66.141292
 30
0.0
 10
15.077052
 20
66.464496
 30
0.0
 10
15.681939
 20
66.077950
 30
0.0
 10
16.252739
 20
65.664765
 30
0.0
 10
16.735060
 20
66.002490
 30
0.0
 10
16.542020
 20
66.680184
 30
0.0
 10
16.385666
 20
67.380798
 30
0.0
 10
16.837862
 20
67.678212
 30
0.0
 10
17.419251
 20
67.257148
 30
0.0
 10
17.965057
 20
66.811474
 30
0.0
 10
18.466199
 20
67.120583
 30
0.0
 10
18.312891
 20
67.808353
 30
0.0
 10
18.197541
 20
68.516875
 30
0.0
 10
18.666264
 20
68.787492
 30
0.0
 10
19.222185
 20
68.333335
 30
0.0
 10
19.741158
 20
67.856681
 30
0.0
 10
20.259422
 20
68.136126
 30
0.0
 10
20.146364
 20
68.831646
 30
0.0
 10
20.072405
 20
69.545677
 30
0.0
 10
20.556072
 20
69.788582
 30
0.0
 10
21.084646
 20
69.302870
 30
0.0
 10
21.575024
 20
68.796845
 30
0.0
 10
22.108661
 20
69.045686
 30
0.0
 10
22.036234
 20
69.746602
 30
0.0
 10
22.003920
 20
70.463726
 30
0.0
 10
22.500891
 20
70.678096
 30
0.0
 10
23.000328
 20
70.162473
 30
0.0
 10
23.460455
 20
69.628791
 30
0.0
 10
24.007658
 20
69.846181
 30
0.0
 10
23.976108
 20
70.550125
 30
0.0
 10
23.985543
 20
71.267912
 30
0.0
 10
24.494139
 20
71.453025
 30
0.0
 10
24.962752
 20
70.909233
 30
0.0
 10
25.391069
 20
70.349702
 30
0.0
 10
25.949988
 20
70.534908
 30
0.0
 10
25.959419
 20
71.239493
 30
0.0
 10
26.010575
 20
71.955519
 30
0.0
 10
26.529074
 20
72.110746
 30
0.0
 10
26.965274
 20
71.540627
 30
0.0
 10
27.360334
 20
70.957138
 30
0.0
 10
27.929074
 20
71.109532
 30
0.0
 10
27.979459
 20
71.812378
 30
0.0
 10
28.072160
 20
72.524216
 30
0.0
 10
28.598807
 20
72.649032
 30
0.0
 10
29.001120
 20
72.054514
 30
0.0
 10
29.361586
 20
71.449043
 30
0.0
 10
29.938225
 20
71.568109
 30
0.0
 10
30.029391
 20
72.266835
 30
0.0
 10
30.163328
 20
72.972080
 30
0.0
 10
30.696339
 20
73.066066
 30
0.0
 10
31.063406
 20
72.449159
 30
0.0
 10
31.388051
 20
71.823752
 30
0.0
 10
31.970640
 20
71.909090
 30
0.0
 10
32.102282
 20
72.601333
 30
0.0
 10
32.276995
 20
73.297598
 30
0.0
 10
32.814572
 20
73.360429
 30
0.0
 10
33.145144
 20
72.723225
 30
0.0
 10
33.432878
 20
72.080001
 30
0.0
 10
34.019443
 20
72.131318
 30
0.0
 10
34.191114
 20
72.814736
 30
0.0
 10
34.406015
 20
73.499664
 30
0.0
 10
34.946335
 20
73.531134
 30
0.0
 10
35.239298
 20
72.875786
 30
0.0
 10
35.489147
 20
72.216918
 30
0.0
 10
36.077701
 20
72.234049
 30
0.0
 10
36.288818
 20
72.906331
 30
0.0
 10
36.543182
 20
73.577602
 30
0.0
 10
37.084416
 20
73.577602
 30
0.0
 10
37.338780
 20
72.906331
 30
0.0
 10
37.549897
 20
72.234049
 30
0.0
 10
38.138451
 20
72.216918
 30
0.0
 10
38.388300
 20
72.875786
 30
0.0
 10
38.681263
 20
73.531134
 30
0.0
 10
39.221584
 20
73.499664
 30
0.0
 10
39.436485
 20
72.814736
 30
0.0
 10
39.608155
 20
72.131318
 30
0.0
 10
40.194720
 20
72.080001
 30
0.0
 10
40.482454
 20
72.723225
 30
0.0
 10
40.813026
 20
73.360429
 30
0.0
 10
41.350603
 20
73.297598
 30
0.0
 10
41.525316
 20
72.601333
 30
0.0
 10
41.656958
 20
71.909090
 30
0.0
 10
42.239547
 20
71.823752
 30
0.0
 10
42.564193
 20
72.449159
 30
0.0
 10
42.931259
 20
73.066066
 30
0.0
 10
43.464270
 20
72.972080
 30
0.0
 10
43.598207
 20
72.266835
 30
0.0
 10
43.689373
 20
71.568109
 30
0.0
 10
44.266012
 20
71.449043
 30
0.0
 10
44.626478
 20
72.054514
 30
0.0
 10
45.028791
 20
72.649032
 30
0.0
 10
45.555438
 20
72.524216
 30
0.0
 10
45.648139
 20
71.812378
 30
0.0
 10
45.698524
 20
71.109532
 30
0.0
 10
46.267264
 20
70.957138
 30
0.0
 10
46.662324
 20
71.540627
 30
0.0
 10
47.098524
 20
72.110746
 30
0.0
 10
47.617023
 20
71.955519
 30
0.0
 10
47.668179
 20
71.239493
 30
0.0
 10
47.677610
 20
70.534908
 30
0.0
 10
48.236529
 20
70.349702
 30
0.0
 10
48.664846
 20
70.909233
 30
0.0
 10
49.133459
 20
71.453025
 30
0.0
 10
49.642055
 20
71.267912
 30
0.0
 10
49.651490
 20
70.550125
 30
0.0
 10
49.619940
 20
69.846181
 30
0.0
 10
50.167143
 20
69.628791
 30
0.0
 10
50.627270
 20
70.162473
 30
0.0
 10
51.126708
 20
70.678096
 30
0.0
 10
51.623678
 20
70.463726
 30
0.0
 10
51.591364
 20
69.746602
 30
0.0
 10
51.518937
 20
69.045686
 30
0.0
 10
52.052574
 20
68.796845
 30
0.0
 10
52.542952
 20
69.302870
 30
0.0
 10
53.071526
 20
69.788582
 30
0.0
 10
53.555193
 20
69.545677
 30
0.0
 10
53.481234
 20
68.831646
 30
0.0
 10
53.368176
 20
68.136126
 30
0.0
 10
53.886440
 20
67.856681
 30
0.0
 10
54.405413
 20
68.333335
 30
0.0
 10
54.961334
 20
68.787492
 30
0.0
 10
55.430057
 20
68.516875
 30
0.0
 10
55.314707
 20
67.808353
 30
0.0
 10
55.161399
 20
67.120583
 30
0.0
 10
55.662541
 20
66.811474
 30
0.0
 10
56.208347
 20
67.257148
 30
0.0
 10
56.789736
 20
67.678212
 30
0.0
 10
57.241932
 20
67.380798
 30
0.0
 10
57.085579
 20
66.680184
 30
0.0
 10
56.892539
 20
66.002490
 30
0.0
 10
57.374859
 20
65.664765
 30
0.0
 10
57.945659
 20
66.077950
 30
0.0
 10
58.550546
 20
66.464496
 30
0.0
 10
58.984683
 20
66.141292
 30
0.0
 10
58.787858
 20
65.450954
 30
0.0
 10
58.555742
 20
64.785632
 30
0.0
 10
59.017607
 20
64.420436
 30
0.0
 10
59.611465
 20
64.799729
 30
0.0
 10
60.237806
 20
65.150452
 30
0.0
 10
60.652416
 20
64.802554
 30
0.0
 10
60.415784
 20
64.124828
 30
0.0
 10
60.145373
 20
63.474128
 30
0.0
 10
60.585224
 20
63.082692
 30
0.0
 10
61.200133
 20
63.426817
 30
0.0
 10
61.845807
 20
63.740526
 30
0.0
 10
62.239484
 20
63.369108
 30
0.0
 10
61.963849
 20
62.706286
 30
0.0
 10
61.656060
 20
62.072412
 30
0.0
 10
62.072409
 20
61.656064
 30
0.0
 10
62.706282
 20
61.963853
 30
0.0
 10
63.369104
 20
62.239488
 30
0.0
 10
63.740522
 20
61.845811
 30
0.0
 10
63.426813
 20
61.200137
 30
0.0
 10
63.082688
 20
60.585228
 30
0.0
 10
63.474124
 20
60.145377
 30
0.0
 10
64.124824
 20
60.415788
 30
0.0
 10
64.802550
 20
60.652420
 30
0.0
 10
65.150448
 20
60.237810
 30
0.0
 10
64.799725
 20
59.611469
 30
0.0
 10
64.420433
 20
59.017611
 30
0.0
 10
64.785628
 20
58.555746
 30
0.0
 10
65.450950
 20
58.787862
 30
0.0
 10
66.141288
 20
58.984687
 30
0.0
 10
66.464492
 20
58.550550
 30
0.0
 10
66.077946
 20
57.945663
 30
0.0
 10
65.664762
 20
57.374863
 30
0.0
 10
66.002486
 20
56.892542
 30
0.0
 10
66.680180
 20
57.085582
 30
0.0
 10
67.380794
 20
57.241936
 30
0.0
 10
67.678208
 20
56.789740
 30
0.0
 10
67.257144
 20
56.208351
 30
0.0
 10
66.811470
 20
55.662545
 30
0.0
 10
67.120579
 20
55.161403
 30
0.0
 10
67.808349
 20
55.314711
 30
0.0
 10
68.516871
 20
55.430061
 30
0.0
 10
68.787488
 20
54.961338
 30
0.0
 10
68.333331
 20
54.405417
 30
0.0
 10
67.856677
 20
53.886444
 30
0.0
 10
68.136122
 20
53.368180
 30
0.0
 10
68.831642
 20
53.481238
 30
0.0
 10
69.545673
 20
53.555197
 30
0.0
 10
69.788579
 20
53.071530
 30
0.0
 10
69.302866
 20
52.542956
 30
0.0
 10
68.796841
 20
52.052578
 30
0.0
 10
69.045682
 20
51.518941
 30
0.0
 10
69.746598
 20
51.591368
 30
0.0
 10
70.463722
 20
51.623682
 30
0.0
 10
70.678092
 20
51.126711
 30
0.0
 10
70.162469
 20
50.627274
 30
0.0
 10
69.628787
 20
50.167147
 30
0.0
 10
69.846177
 20
49.619944
 30
0.0
 10
70.550121
 20
49.651494
 30
0.0
 10
71.267908
 20
49.642059
 30
0.0
 10
71.453021
 20
49.133463
 30
0.0
 10
70.909229
 20
48.664850
 30
0.0
 10
70.349698
 20
48.236533
 30
0.0
 10
70.534904
 20
47.677614
 30
0.0
 10
71.239489
 20
47.668183
 30
0.0
 10
71.955515
 20
47.617027
 30
0.0
 10
72.110743
 20
47.098528
 30
0.0
 10
71.540623
 20
46.662328
 30
0.0
 10
70.957134
 20
46.267268
 30
0.0
 10
71.109528
 20
45.698528
 30
0.0
 10
71.812374
 20
45.648143
 30
0.0
 10
72.524212
 20
45.555442
 30
0.0
 10
72.649028
 20
45.028795
 30
0.0
 10
72.054510
 20
44.626482
 30
0.0
 10
71.449039
 20
44.266016
 30
0.0
 10
71.568105
 20
43.689377
 30
0.0
 10
72.266831
 20
43.598211
 30
0.0
 10
72.972076
 20
43.464274
 30
0.0
 10
73.066062
 20
42.931263
 30
0.0
 10
72.449155
 20
42.564196
 30
0.0
 10
71.823748
 20
42.239551
 30
0.0
 10
71.909086
 20
41.656962
 30
0.0
 10
72.601329
 20
41.525320
 30
0.0
 10
73.297594
 20
41.350607
 30
0.0
 10
73.360425
 20
40.813030
 30
0.0
 10
72.723221
 20
40.482458
 30
0.0
 10
72.079997
 20
40.194724
 30
0.0
 10
72.131314
 20
39.608159
 30
0.0
 10
72.814732
 20
39.436488
 30
0.0
 10
73.499660
 20
39.221587
 30
0.0
 10
73.531130
 20
38.681267
 30
0.0
 10
72.875782
 20
38.388304
 30
0.0
 10
72.216915
 20
38.138455
 30
0.0
 10
72.234045
 20
37.549901
 30
0.0
  0
ENDSEC
  0
SECTION
  2
OBJECTS
  0
DICTIONARY
  5
C
330
0
100
AcDbDictionary
  3
ACAD_GROUP
350
D
  3
ACAD_MLINESTYLE
350
17
  0
DICTIONARY
  5
D
330
C
100
AcDbDictionary
  0
DICTIONARY
  5
1A
330
C
100
AcDbDictionary
  0
DICTIONARY
  5
17
330
C
100
AcDbDictionary
  3
STANDARD
350
18
  0
DICTIONARY
  5
19
330
C
100
AcDbDictionary
  0
ENDSEC
  0
EOF
