999
dxfrw 0.6.3
  0
SECTION
  2
HEADER
  9
$ACADVER
  1
AC1021
  9
$DWGCODEPAGE
  3
ANSI_1252
  9
$INSBASE
 10
0
 20
0
 30
0
  9
$EXTMIN
 10
-40.72888
 20
-10.659559
 30
0
  9
$EXTMAX
 10
10.692373
 20
157.415114
 30
0
  9
$LIMMIN
 10
0
 20
0
  9
$LIMMAX
 10
420
 20
297
  9
$ORTHOMODE
 70
    0
  9
$REGENMODE
 70
    1
  9
$FILLMODE
 70
    1
  9
$QTEXTMODE
 70
    0
  9
$MIRRTEXT
 70
    0
  9
$LTSCALE
 40
1
  9
$ATTMODE
 70
    0
  9
$TEXTSIZE
 40
2.5
  9
$TRACEWID
 40
15.68
  9
$TEXTSTYLE
  7
STANDARD
  9
$CLAYER
  8
0
  9
$CELTYPE
  6
BYLAYER
  9
$CECOLOR
 62
  256
  9
$CELTSCALE
 40
1
  9
$DISPSILH
 70
    0
  9
$DIMSCALE
 40
2.5
  9
$DIMASZ
 40
2.5
  9
$DIMEXO
 40
0.625
  9
$DIMDLI
 40
3.75
  9
$DIMRND
 40
0
  9
$DIMDLE
 40
0
  9
$DIMEXE
 40
1.25
  9
$DIMTP
 40
0
  9
$DIMTM
 40
0
  9
$DIMTXT
 40
2.5
  9
$DIMCEN
 40
2.5
  9
$DIMTSZ
 40
0
  9
$DIMTOL
 70
    0
  9
$DIMLIM
 70
    0
  9
$DIMTIH
 70
    0
  9
$DIMTOH
 70
    0
  9
$DIMSE1
 70
    0
  9
$DIMSE2
 70
    0
  9
$DIMTAD
 70
    1
  9
$DIMZIN
 70
    8
  9
$DIMBLK
  1

  9
$DIMASO
 70
    1
  9
$DIMSHO
 70
    1
  9
$DIMPOST
  1

  9
$DIMAPOST
  1

  9
$DIMALT
 70
    0
  9
$DIMALTD
 70
    3
  9
$DIMALTF
 40
0.03937
  9
$DIMLFAC
 40
1
  9
$DIMTOFL
 70
    1
  9
$DIMTVP
 40
0
  9
$DIMTIX
 70
    0
  9
$DIMSOXD
 70
    0
  9
$DIMSAH
 70
    0
  9
$DIMBLK1
  1

  9
$DIMBLK2
  1

  9
$DIMSTYLE
  2
Standard
  9
$DIMCLRD
 70
    0
  9
$DIMCLRE
 70
    0
  9
$DIMCLRT
 70
    0
  9
$DIMTFAC
 40
1
  9
$DIMGAP
 40
0.625
  9
$DIMJUST
 70
    0
  9
$DIMSD1
 70
    0
  9
$DIMSD2
 70
    0
  9
$DIMTOLJ
 70
    0
  9
$DIMTZIN
 70
    8
  9
$DIMALTZ
 70
    0
  9
$DIMALTTZ
 70
    0
  9
$DIMUPT
 70
    0
  9
$DIMDEC
 70
    2
  9
$DIMTDEC
 70
    2
  9
$DIMALTU
 70
    2
  9
$DIMALTTD
 70
    3
  9
$DIMTXSTY
  7
STANDARD
  9
$DIMAUNIT
 70
    0
  9
$DIMADEC
 70
    0
  9
$DIMALTRND
 40
0
  9
$DIMAZIN
 70
    0
  9
$DIMDSEP
 70
   44
  9
$DIMATFIT
 70
    3
  9
$DIMFRAC
 70
    0
  9
$DIMLDRBLK
  1
STANDARD
  9
$DIMLUNIT
 70
    2
  9
$DIMLWD
 70
   -2
  9
$DIMLWE
 70
   -2
  9
$DIMTMOVE
 70
    0
  9
$DIMFXL
 40
1
  9
$DIMFXLON
 70
    0
  9
$DIMJOGANG
 40
0.7854
  9
$DIMTFILL
 70
    0
  9
$DIMTFILLCLR
 70
    0
  9
$DIMARCSYM
 70
    0
  9
$DIMLTYPE
  6

  9
$DIMLTEX1
  6

  9
$DIMLTEX2
  6

  9
$LUNITS
 70
    2
  9
$LUPREC
 70
    4
  9
$SKETCHINC
 40
1
  9
$FILLETRAD
 40
0
  9
$AUNITS
 70
    0
  9
$AUPREC
 70
    2
  9
$MENU
  1
.
  9
$ELEVATION
 40
0
  9
$PELEVATION
 40
0
  9
$THICKNESS
 40
0
  9
$LIMCHECK
 70
    0
  9
$CHAMFERA
 40
0
  9
$CHAMFERB
 40
0
  9
$CHAMFERC
 40
0
  9
$CHAMFERD
 40
0
  9
$SKPOLY
 70
    0
  9
$USRTIMER
 70
    1
  9
$ANGBASE
 50
0
  9
$ANGDIR
 70
    0
  9
$PDMODE
 70
   34
  9
$PDSIZE
 40
0
  9
$PLINEWID
 40
0
  9
$SPLFRAME
 70
    0
  9
$SPLINETYPE
 70
    2
  9
$SPLINESEGS
 70
    8
  9
$HANDSEED
  5
20000
  9
$SURFTAB1
 70
    6
  9
$SURFTAB2
 70
    6
  9
$SURFTYPE
 70
    6
  9
$SURFU
 70
    6
  9
$SURFV
 70
    6
  9
$UCSBASE
  2

  9
$UCSNAME
  2

  9
$UCSORG
 10
0
 20
0
 30
0
  9
$UCSXDIR
 10
1
 20
0
 30
0
  9
$UCSYDIR
 10
0
 20
1
 30
0
  9
$UCSORTHOREF
  2

  9
$UCSORTHOVIEW
 70
    0
  9
$UCSORGTOP
 10
0
 20
0
 30
0
  9
$UCSORGBOTTOM
 10
0
 20
0
 30
0
  9
$UCSORGLEFT
 10
0
 20
0
 30
0
  9
$UCSORGRIGHT
 10
0
 20
0
 30
0
  9
$UCSORGFRONT
 10
0
 20
0
 30
0
  9
$UCSORGBACK
 10
0
 20
0
 30
0
  9
$PUCSBASE
  2

  9
$PUCSNAME
  2

  9
$PUCSORG
 10
0
 20
0
 30
0
  9
$PUCSXDIR
 10
1
 20
0
 30
0
  9
$PUCSYDIR
 10
0
 20
1
 30
0
  9
$PUCSORTHOREF
  2

  9
$PUCSORTHOVIEW
 70
    0
  9
$PUCSORGTOP
 10
0
 20
0
 30
0
  9
$PUCSORGBOTTOM
 10
0
 20
0
 30
0
  9
$PUCSORGLEFT
 10
0
 20
0
 30
0
  9
$PUCSORGRIGHT
 10
0
 20
0
 30
0
  9
$PUCSORGFRONT
 10
0
 20
0
 30
0
  9
$PUCSORGBACK
 10
0
 20
0
 30
0
  9
$USERI1
 70
    0
  9
$USERI2
 70
    0
  9
$USERI3
 70
    0
  9
$USERI4
 70
    0
  9
$USERI5
 70
    0
  9
$USERR1
 40
0
  9
$USERR2
 40
0
  9
$USERR3
 40
0
  9
$USERR4
 40
0
  9
$USERR5
 40
0
  9
$WORLDVIEW
 70
    1
  9
$SHADEDGE
 70
    3
  9
$SHADEDIF
 70
   70
  9
$TILEMODE
 70
    1
  9
$MAXACTVP
 70
   64
  9
$PINSBASE
 10
0
 20
0
 30
0
  9
$PLIMCHECK
 70
    0
  9
$PEXTMIN
 10
0
 20
0
 30
0
  9
$PEXTMAX
 10
0
 20
0
 30
0
  9
$GRIDMODE
 70
    0
  9
$SNAPSTYLE
 70
    0
  9
$PLIMMIN
 10
0
 20
0
  9
$PLIMMAX
 10
210
 20
297
  9
$UNITMODE
 70
    0
  9
$VISRETAIN
 70
    1
  9
$PLINEGEN
 70
    0
  9
$PSLTSCALE
 70
    1
  9
$TREEDEPTH
 70
 3020
  9
$CMLSTYLE
  2
Standard
  9
$CMLJUST
 70
    0
  9
$CMLSCALE
 40
20
  9
$PROXYGRAPHICS
 70
    1
  9
$MEASUREMENT
 70
    1
  9
$CELWEIGHT
370
   -1
  9
$ENDCAPS
280
    0
  9
$JOINSTYLE
280
    0
  9
$LWDISPLAY
290
    0
  9
$INSUNITS
 70
    4
  9
$HYPERLINKBASE
  1

  9
$STYLESHEET
  1

  9
$XEDIT
290
    1
  9
$CEPSNTYPE
380
    0
  9
$PSTYLEMODE
290
    1
  9
$EXTNAMES
290
    1
  9
$PSVPSCALE
 40
1
  9
$OLESTARTUP
290
    0
  9
$SORTENTS
280
  127
  9
$INDEXCTL
280
    0
  9
$HIDETEXT
280
    1
  9
$XCLIPFRAME
290
    0
  9
$HALOGAP
280
    0
  9
$OBSCOLOR
 70
  257
  9
$OBSLTYPE
280
    0
  9
$INTERSECTIONDISPLAY
280
    0
  9
$INTERSECTIONCOLOR
 70
  257
  9
$DIMASSOC
280
    1
  9
$PROJECTNAME
  1

  9
$CAMERADISPLAY
290
    0
  9
$LENSLENGTH
 40
50
  9
$CAMERAHEIGHT
 40
0
  9
$STEPSPERSEC
 40
2
  9
$STEPSIZE
 40
50
  9
$3DDWFPREC
 40
2
  9
$PSOLWIDTH
 40
5
  9
$PSOLHEIGHT
 40
80
  9
$LOFTANG1
 40
1.570796326794897
  9
$LOFTANG2
 40
1.570796326794897
  9
$LOFTMAG1
 40
0
  9
$LOFTMAG2
 40
0
  9
$LOFTPARAM
 70
    7
  9
$LOFTNORMALS
280
    1
  9
$LATITUDE
 40
1
  9
$LONGITUDE
 40
1
  9
$NORTHDIRECTION
 40
0
  9
$TIMEZONE
 70
-8000
  9
$LIGHTGLYPHDISPLAY
280
    1
  9
$TILEMODELIGHTSYNCH
280
    1
  9
$SOLIDHIST
280
    1
  9
$SHOWHIST
280
    1
  9
$DWFFRAME
280
    2
  9
$DGNFRAME
280
    0
  9
$REALWORLDSCALE
290
    1
  9
$INTERFERECOLOR
 62
    1
  9
$CSHADOW
280
    0
  9
$SHADOWPLANELOCATION
 40
0
  0
ENDSEC
  0
SECTION
  2
CLASSES
  0
ENDSEC
  0
SECTION
  2
TABLES
  0
TABLE
  2
VPORT
  5
8
330
0
100
AcDbSymbolTable
 70
    1
  0
VPORT
  5
31
330
2
100
AcDbSymbolTableRecord
100
AcDbViewportTableRecord
  2
*ACTIVE
 70
    0
 10
0
 20
0
 11
1
 21
1
 12
11.62489529432237
 22
5.934814966048788
 13
0
 23
0
 14
10
 24
10
 15
10
 25
10
 16
0
 26
0
 36
1
 17
0
 27
0
 37
0
 40
23.43334156697614
 41
2.033942558746736
 42
50
 43
0
 44
0
 50
0
 51
0
 71
    0
 72
  100
 73
    1
 74
    3
 75
    0
 76
    0
 77
    0
 78
    0
281
    0
 65
    1
110
0
120
0
130
0
111
1
121
0
131
0
112
0
122
1
132
0
 79
    0
146
0
348
10020
 60
    7
 61
    5
292
1
282
    1
141
0
142
0
 63
  250
421
3358443
  0
ENDTAB
  0
TABLE
  2
LTYPE
  5
5
330
0
100
AcDbSymbolTable
 70
    4
  0
LTYPE
  5
14
330
5
100
AcDbSymbolTableRecord
100
AcDbLinetypeTableRecord
  2
ByBlock
 70
    0
  3

 72
   65
 73
    0
 40
0
  0
LTYPE
  5
15
330
5
100
AcDbSymbolTableRecord
100
AcDbLinetypeTableRecord
  2
ByLayer
 70
    0
  3

 72
   65
 73
    0
 40
0
  0
LTYPE
  5
16
330
5
100
AcDbSymbolTableRecord
100
AcDbLinetypeTableRecord
  2
Continuous
 70
    0
  3
Solid line
 72
   65
 73
    0
 40
0
  0
LTYPE
  5
32
330
5
100
AcDbSymbolTableRecord
100
AcDbLinetypeTableRecord
  2
DOT
 70
    0
  3
Dot . . . . . . . . . . . . . . . . . . . . . .
 72
   65
 73
    2
 40
6.35
 49
0
 74
    0
 49
-6.35
 74
    0
  0
LTYPE
  5
33
330
5
100
AcDbSymbolTableRecord
100
AcDbLinetypeTableRecord
  2
DOTTINY
 70
    0
  3
Dot (.15x) .....................................
 72
   65
 73
    2
 40
0.9525
 49
0
 74
    0
 49
-0.9525
 74
    0
  0
LTYPE
  5
34
330
5
100
AcDbSymbolTableRecord
100
AcDbLinetypeTableRecord
  2
DOT2
 70
    0
  3
Dot (.5x) .....................................
 72
   65
 73
    2
 40
3.175
 49
0
 74
    0
 49
-3.175
 74
    0
  0
LTYPE
  5
35
330
5
100
AcDbSymbolTableRecord
100
AcDbLinetypeTableRecord
  2
DOTX2
 70
    0
  3
Dot (2x) .  .  .  .  .  .  .  .  .  .  .  .  .
 72
   65
 73
    2
 40
12.7
 49
0
 74
    0
 49
-12.7
 74
    0
  0
LTYPE
  5
36
330
5
100
AcDbSymbolTableRecord
100
AcDbLinetypeTableRecord
  2
DASHED
 70
    0
  3
Dashed _ _ _ _ _ _ _ _ _ _ _ _ _ _ _ _ _
 72
   65
 73
    2
 40
19.05
 49
12.7
 74
    0
 49
-6.35
 74
    0
  0
LTYPE
  5
37
330
5
100
AcDbSymbolTableRecord
100
AcDbLinetypeTableRecord
  2
DASHEDTINY
 70
    0
  3
Dashed (.15x) _ _ _ _ _ _ _ _ _ _ _ _ _ _ _ _ _
 72
   65
 73
    2
 40
2.8575
 49
1.905
 74
    0
 49
-0.9525
 74
    0
  0
LTYPE
  5
38
330
5
100
AcDbSymbolTableRecord
100
AcDbLinetypeTableRecord
  2
DASHED2
 70
    0
  3
Dashed (.5x) _ _ _ _ _ _ _ _ _ _ _ _ _ _ _ _ _
 72
   65
 73
    2
 40
9.524999999999999
 49
6.35
 74
    0
 49
-3.175
 74
    0
  0
LTYPE
  5
39
330
5
100
AcDbSymbolTableRecord
100
AcDbLinetypeTableRecord
  2
DASHEDX2
 70
    0
  3
Dashed (2x) ____  ____  ____  ____  ____  ___
 72
   65
 73
    2
 40
38.09999999999999
 49
25.4
 74
    0
 49
-12.7
 74
    0
  0
LTYPE
  5
3A
330
5
100
AcDbSymbolTableRecord
100
AcDbLinetypeTableRecord
  2
DASHDOT
 70
    0
  3
Dash dot __ . __ . __ . __ . __ . __ . __ . __
 72
   65
 73
    4
 40
25.4
 49
12.7
 74
    0
 49
-6.35
 74
    0
 49
0
 74
    0
 49
-6.35
 74
    0
  0
LTYPE
  5
3B
330
5
100
AcDbSymbolTableRecord
100
AcDbLinetypeTableRecord
  2
DASHDOTTINY
 70
    0
  3
Dash dot (.15x) _._._._._._._._._._._._._._._.
 72
   65
 73
    4
 40
3.81
 49
1.905
 74
    0
 49
-0.9525
 74
    0
 49
0
 74
    0
 49
-0.9525
 74
    0
  0
LTYPE
  5
3C
330
5
100
AcDbSymbolTableRecord
100
AcDbLinetypeTableRecord
  2
DASHDOT2
 70
    0
  3
Dash dot (.5x) _._._._._._._._._._._._._._._.
 72
   65
 73
    4
 40
12.7
 49
6.35
 74
    0
 49
-3.175
 74
    0
 49
0
 74
    0
 49
-3.175
 74
    0
  0
LTYPE
  5
3D
330
5
100
AcDbSymbolTableRecord
100
AcDbLinetypeTableRecord
  2
DASHDOTX2
 70
    0
  3
Dash dot (2x) ____  .  ____  .  ____  .  ___
 72
   65
 73
    4
 40
50.8
 49
25.4
 74
    0
 49
-12.7
 74
    0
 49
0
 74
    0
 49
-12.7
 74
    0
  0
LTYPE
  5
3E
330
5
100
AcDbSymbolTableRecord
100
AcDbLinetypeTableRecord
  2
DIVIDE
 70
    0
  3
Divide ____ . . ____ . . ____ . . ____ . . ____
 72
   65
 73
    6
 40
31.75
 49
12.7
 74
    0
 49
-6.35
 74
    0
 49
0
 74
    0
 49
-6.35
 74
    0
 49
0
 74
    0
 49
-6.35
 74
    0
  0
LTYPE
  5
3F
330
5
100
AcDbSymbolTableRecord
100
AcDbLinetypeTableRecord
  2
DIVIDETINY
 70
    0
  3
Divide (.15x) __..__..__..__..__..__..__..__.._
 72
   65
 73
    6
 40
4.7625
 49
1.905
 74
    0
 49
-0.9525
 74
    0
 49
0
 74
    0
 49
-0.9525
 74
    0
 49
0
 74
    0
 49
-0.9525
 74
    0
  0
LTYPE
  5
40
330
5
100
AcDbSymbolTableRecord
100
AcDbLinetypeTableRecord
  2
DIVIDE2
 70
    0
  3
Divide (.5x) __..__..__..__..__..__..__..__.._
 72
   65
 73
    6
 40
15.875
 49
6.35
 74
    0
 49
-3.175
 74
    0
 49
0
 74
    0
 49
-3.175
 74
    0
 49
0
 74
    0
 49
-3.175
 74
    0
  0
LTYPE
  5
41
330
5
100
AcDbSymbolTableRecord
100
AcDbLinetypeTableRecord
  2
DIVIDEX2
 70
    0
  3
Divide (2x) ________  .  .  ________  .  .  _
 72
   65
 73
    6
 40
63.5
 49
25.4
 74
    0
 49
-12.7
 74
    0
 49
0
 74
    0
 49
-12.7
 74
    0
 49
0
 74
    0
 49
-12.7
 74
    0
  0
LTYPE
  5
42
330
5
100
AcDbSymbolTableRecord
100
AcDbLinetypeTableRecord
  2
BORDER
 70
    0
  3
Border __ __ . __ __ . __ __ . __ __ . __ __ .
 72
   65
 73
    6
 40
44.45
 49
12.7
 74
    0
 49
-6.35
 74
    0
 49
12.7
 74
    0
 49
-6.35
 74
    0
 49
0
 74
    0
 49
-6.35
 74
    0
  0
LTYPE
  5
43
330
5
100
AcDbSymbolTableRecord
100
AcDbLinetypeTableRecord
  2
BORDERTINY
 70
    0
  3
Border (.15x) __.__.__.__.__.__.__.__.__.__.__.
 72
   65
 73
    6
 40
6.6675
 49
1.905
 74
    0
 49
-0.9525
 74
    0
 49
1.905
 74
    0
 49
-0.9525
 74
    0
 49
0
 74
    0
 49
-0.9525
 74
    0
  0
LTYPE
  5
44
330
5
100
AcDbSymbolTableRecord
100
AcDbLinetypeTableRecord
  2
BORDER2
 70
    0
  3
Border (.5x) __.__.__.__.__.__.__.__.__.__.__.
 72
   65
 73
    6
 40
22.225
 49
6.35
 74
    0
 49
-3.175
 74
    0
 49
6.35
 74
    0
 49
-3.175
 74
    0
 49
0
 74
    0
 49
-3.175
 74
    0
  0
LTYPE
  5
45
330
5
100
AcDbSymbolTableRecord
100
AcDbLinetypeTableRecord
  2
BORDERX2
 70
    0
  3
Border (2x) ____  ____  .  ____  ____  .  ___
 72
   65
 73
    6
 40
88.89999999999999
 49
25.4
 74
    0
 49
-12.7
 74
    0
 49
25.4
 74
    0
 49
-12.7
 74
    0
 49
0
 74
    0
 49
-12.7
 74
    0
  0
LTYPE
  5
46
330
5
100
AcDbSymbolTableRecord
100
AcDbLinetypeTableRecord
  2
CENTER
 70
    0
  3
Center ____ _ ____ _ ____ _ ____ _ ____ _ ____
 72
   65
 73
    4
 40
50.8
 49
31.75
 74
    0
 49
-6.35
 74
    0
 49
6.35
 74
    0
 49
-6.35
 74
    0
  0
LTYPE
  5
47
330
5
100
AcDbSymbolTableRecord
100
AcDbLinetypeTableRecord
  2
CENTERTINY
 70
    0
  3
Center (.15x) ___ _ ___ _ ___ _ ___ _ ___ _ ___
 72
   65
 73
    4
 40
7.619999999999999
 49
4.7625
 74
    0
 49
-0.9525
 74
    0
 49
0.9525
 74
    0
 49
-0.9525
 74
    0
  0
LTYPE
  5
48
330
5
100
AcDbSymbolTableRecord
100
AcDbLinetypeTableRecord
  2
CENTER2
 70
    0
  3
Center (.5x) ___ _ ___ _ ___ _ ___ _ ___ _ ___
 72
   65
 73
    4
 40
28.575
 49
19.05
 74
    0
 49
-3.175
 74
    0
 49
3.175
 74
    0
 49
-3.175
 74
    0
  0
LTYPE
  5
49
330
5
100
AcDbSymbolTableRecord
100
AcDbLinetypeTableRecord
  2
CENTERX2
 70
    0
  3
Center (2x) ________  __  ________  __  _____
 72
   65
 73
    4
 40
101.6
 49
63.5
 74
    0
 49
-12.7
 74
    0
 49
12.7
 74
    0
 49
-12.7
 74
    0
  0
ENDTAB
  0
TABLE
  2
LAYER
  5
2
330
0
100
AcDbSymbolTable
 70
    1
  0
LAYER
  5
10
330
2
100
AcDbSymbolTableRecord
100
AcDbLayerTableRecord
  2
0
 70
    0
 62
    7
  6
CONTINUOUS
370
   -3
390
F
  0
LAYER
  5
4A
330
2
100
AcDbSymbolTableRecord
100
AcDbLayerTableRecord
  2
Capa_1
 70
    0
 62
    7
  6
CONTINUOUS
370
   -3
390
F
  0
ENDTAB
  0
TABLE
  2
STYLE
  5
3
330
0
100
AcDbSymbolTable
 70
    3
  0
STYLE
  5
4B
330
2
100
AcDbSymbolTableRecord
100
AcDbTextStyleTableRecord
  2
Standard
 70
    0
 40
0
 41
1
 50
0
 71
    0
 42
1
  3
txt
  4

  0
ENDTAB
  0
TABLE
  2
VIEW
  5
6
330
0
100
AcDbSymbolTable
 70
    0
  0
ENDTAB
  0
TABLE
  2
UCS
  5
7
330
0
100
AcDbSymbolTable
 70
    0
  0
ENDTAB
  0
TABLE
  2
APPID
  5
9
330
0
100
AcDbSymbolTable
 70
    1
  0
APPID
  5
12
330
9
100
AcDbSymbolTableRecord
100
AcDbRegAppTableRecord
  2
ACAD
 70
    0
  0
APPID
  5
4C
330
9
100
AcDbSymbolTableRecord
100
AcDbRegAppTableRecord
  2
LibreCad
 70
    0
  0
ENDTAB
  0
TABLE
  2
DIMSTYLE
  5
A
330
0
100
AcDbSymbolTable
 70
    1
100
AcDbDimStyleTable
 71
    1
  0
DIMSTYLE
105
4D
330
A
100
AcDbSymbolTableRecord
100
AcDbDimStyleTableRecord
  2
Standard
 70
    0
 40
1
 41
2.5
 42
0.625
 43
0.38
 44
1.25
 45
0
 46
0
 47
0
 48
0
 49
1
140
2.5
141
0.09
142
2.5
143
25.4
144
1
145
0
146
1
147
0.625
148
0
 71
    0
 72
    0
 73
    0
 74
    1
 75
    0
 76
    0
 77
    0
 78
    1
 79
    0
170
    0
171
    2
172
    0
173
    0
174
    0
175
    0
176
    0
177
    0
178
    0
179
    0
271
    2
272
    4
273
    2
274
    2
275
    0
276
    0
277
    2
278
    0
279
    0
280
    0
281
    0
282
    0
283
    1
284
    0
285
    0
286
    0
288
    0
289
    3
340
standard
341

371
   -2
372
   -2
  0
ENDTAB
  0
TABLE
  2
BLOCK_RECORD
  5
1
330
0
100
AcDbSymbolTable
 70
    2
  0
BLOCK_RECORD
  5
1F
330
1
100
AcDbSymbolTableRecord
100
AcDbBlockTableRecord
  2
*Model_Space
 70
    0
280
    1
281
    0
  0
BLOCK_RECORD
  5
1E
330
1
100
AcDbSymbolTableRecord
100
AcDbBlockTableRecord
  2
*Paper_Space
 70
    0
280
    1
281
    0
  0
ENDTAB
  0
ENDSEC
  0
SECTION
  2
BLOCKS
  0
BLOCK
  5
20
330
1F
100
AcDbEntity
  8
0
100
AcDbBlockBegin
  2
*Model_Space
 70
    0
 10
0
 20
0
 30
0
  3
*Model_Space
  1

  0
ENDBLK
  5
21
330
1F
100
AcDbEntity
  8
0
100
AcDbBlockEnd
  0
BLOCK
  5
1C
330
1B
100
AcDbEntity
  8
0
100
AcDbBlockBegin
  2
*Paper_Space
 70
    0
 10
0
 20
0
 30
0
  3
*Paper_Space
  1

  0
ENDBLK
  5
1D
330
1F
100
AcDbEntity
  8
0
100
AcDbBlockEnd
  0
ENDSEC
  0
SECTION
  2
ENTITIES
  0
LWPOLYLINE
  5
4E
100
AcDbEntity
  8
0
  6
ByLayer
 62
    7
370
   -1
100
AcDbPolyline
 90
  241
 70
    1
 43
0
 10
9.337148000000006
 20
0.6290049999999781
 10
9.400766000000004
 20
0.6332889999999907
 10
10.013019
 20
0.5247609999999838
 10
10.692373
 20
0.2464359999999886
 10
10.692373
 20
-0.2464370000000145
 10
10.013019
 20
-0.5247620000000097
 10
9.400766000000004
 20
-0.6332900000000166
 10
9.337148000000006
 20
-0.629006000000004
 10
9.263886000000007
 20
-1.326041000000004
 10
9.327007000000005
 20
-1.33507800000001
 10
9.903317000000005
 20
-1.568532000000005
 10
10.50995600000001
 20
-1.982019000000008
 10
10.407481
 20
-2.464119000000011
 10
9.685108000000003
 20
-2.595118000000014
 10
9.063669000000004
 20
-2.573983000000027
 10
9.002331000000005
 20
-2.556561000000016
 10
8.785748000000005
 20
-3.223136000000011
 10
8.845610000000004
 20
-3.245096000000018
 10
9.360789000000004
 20
-3.593271000000016
 10
9.868202000000004
 20
-4.12384800000001
 10
9.667734000000006
 20
-4.574111000000016
 10
8.933909000000003
 20
-4.552056000000022
 10
8.330444000000004
 20
-4.402176000000026
 10
8.274070000000005
 20
-4.372385000000008
 10
7.923632000000005
 20
-4.979363000000006
 10
7.977618000000003
 20
-5.013289000000015
 10
8.409150000000004
 20
-5.460967000000011
 10
8.795163000000006
 20
-6.085448000000014
 10
8.505459000000005
 20
-6.484189000000015
 10
7.792258000000004
 20
-6.310046
 10
7.233142000000004
 20
-6.037976000000015
 10
7.184190000000005
 20
-5.997113000000013
 10
6.715213000000006
 20
-6.517968000000025
 10
6.760967000000004
 20
-6.562378000000024
 10
7.089990000000004
 20
-7.08999
 10
7.337730000000004
 20
-7.781084000000021
 10
6.971457000000004
 20
-8.110878000000014
 10
6.310046000000003
 20
-7.792258000000004
 10
5.819713000000004
 20
-7.409886
 10
5.780329000000005
 20
-7.359741000000014
 10
5.213308000000005
 20
-7.771703000000002
 10
5.248829000000004
 20
-7.824657000000002
 10
5.460967000000004
 20
-8.409150000000011
 10
5.559606000000006
 20
-9.136649000000006
 10
5.132768000000006
 20
-9.383085000000023
 10
4.552056000000004
 20
-8.933909
 10
4.151938000000005
 20
-8.457949000000013
 10
4.123840000000005
 20
-8.400709000000006
 10
3.483557000000005
 20
-8.685782000000017
 10
3.507292000000003
 20
-8.74496400000001
 10
3.593271000000005
 20
-9.360789000000011
 10
3.538500000000006
 20
-10.09289600000002
 10
3.069751000000004
 20
-10.245203
 10
2.595118000000006
 20
-9.685108000000014
 10
2.302702000000004
 20
-9.136358000000001
 10
2.287118000000007
 20
-9.074529000000013
 10
1.601558000000004
 20
-9.220248000000026
 10
1.612469000000004
 20
-9.283071000000007
 10
1.568532000000005
 20
-9.903317000000015
 10
1.362744000000006
 20
-10.60804000000002
 10
0.8725720000000052
 20
-10.659559
 10
0.5247620000000062
 20
-10.01301900000001
 10
0.3528260000000039
 20
-9.415464000000014
 10
0.3504390000000051
 20
-9.351747000000017
 10
-0.3504379999999934
 20
-9.351747000000017
 10
-0.3528249999999957
 20
-9.415464000000014
 10
-0.5247609999999945
 20
-10.01301900000001
 10
-0.8725709999999935
 20
-10.659559
 10
-1.362742999999995
 20
-10.60804000000002
 10
-1.568530999999997
 20
-9.903317000000015
 10
-1.612467999999996
 20
-9.283071000000007
 10
-1.601556999999996
 20
-9.220248000000026
 10
-2.287116999999995
 20
-9.074529000000013
 10
-2.302700999999992
 20
-9.136358000000001
 10
-2.595117999999992
 20
-9.685108000000014
 10
-3.069749999999992
 20
-10.245203
 10
-3.538498999999995
 20
-10.09289600000002
 10
-3.593269999999997
 20
-9.360789000000011
 10
-3.507290999999995
 20
-8.74496400000001
 10
-3.483555999999993
 20
-8.685782000000017
 10
-4.123838999999997
 20
-8.400709000000006
 10
-4.151936999999997
 20
-8.457949000000013
 10
-4.552054999999996
 20
-8.933909
 10
-5.132766999999994
 20
-9.383085000000023
 10
-5.559604999999998
 20
-9.136649000000006
 10
-5.460965999999992
 20
-8.409150000000011
 10
-5.248827999999996
 20
-7.824657000000002
 10
-5.213306999999993
 20
-7.771703000000002
 10
-5.780327999999997
 20
-7.359741000000014
 10
-5.819711999999996
 20
-7.409886
 10
-6.310044999999995
 20
-7.792258000000004
 10
-6.971455999999996
 20
-8.110878000000014
 10
-7.337728999999996
 20
-7.781084000000021
 10
-7.089988999999996
 20
-7.08999
 10
-6.760965999999996
 20
-6.562378000000024
 10
-6.715211999999994
 20
-6.517968000000025
 10
-7.184188999999996
 20
-5.997113000000013
 10
-7.233140999999996
 20
-6.037976000000015
 10
-7.792256999999992
 20
-6.310046
 10
-8.505457999999997
 20
-6.484189000000015
 10
-8.795161999999998
 20
-6.085448000000014
 10
-8.409148999999992
 20
-5.460967000000011
 10
-7.977616999999995
 20
-5.013289000000015
 10
-7.923630999999993
 20
-4.979363000000006
 10
-8.274068999999997
 20
-4.372385000000008
 10
-8.330442999999995
 20
-4.402176000000026
 10
-8.933907999999995
 20
-4.552056000000022
 10
-9.667732999999998
 20
-4.574111000000016
 10
-9.868201999999997
 20
-4.12384800000001
 10
-9.360788999999997
 20
-3.593271000000016
 10
-8.845608999999996
 20
-3.245096000000018
 10
-8.785746999999994
 20
-3.223136000000011
 10
-9.002329999999994
 20
-2.556561000000016
 10
-9.063667999999993
 20
-2.573983000000027
 10
-9.685106999999995
 20
-2.595118000000014
 10
-10.40747999999999
 20
-2.464119000000011
 10
-10.509955
 20
-1.982019000000008
 10
-9.903315999999997
 20
-1.568532000000005
 10
-9.327006999999995
 20
-1.33507800000001
 10
-9.263884999999995
 20
-1.326041000000004
 10
-9.337146999999995
 20
-0.629006000000004
 10
-9.400764999999993
 20
-0.6332900000000166
 10
-10.013018
 20
-0.5247620000000097
 10
-10.69237199999999
 20
-0.2464370000000145
 10
-10.69237199999999
 20
0.2464359999999886
 10
-10.013018
 20
0.5247609999999838
 10
-9.400764999999993
 20
0.6332889999999907
 10
-9.337146999999995
 20
0.6290049999999781
 10
-9.263884999999995
 20
1.326039999999978
 10
-9.327006999999995
 20
1.335076999999984
 10
-9.903315999999997
 20
1.568530999999979
 10
-10.509955
 20
1.982017999999982
 10
-10.40747999999999
 20
2.464117999999985
 10
-9.685106999999995
 20
2.595117999999985
 10
-9.063667999999993
 20
2.573982000000001
 10
-9.002329999999994
 20
2.55655999999999
 10
-8.785746999999994
 20
3.223134999999985
 10
-8.845608999999996
 20
3.245094999999992
 10
-9.360788999999997
 20
3.59326999999999
 10
-9.868201999999997
 20
4.123847999999981
 10
-9.667732999999998
 20
4.574110999999988
 10
-8.933907999999995
 20
4.552054999999996
 10
-8.330442999999995
 20
4.402175
 10
-8.274068999999997
 20
4.372383999999983
 10
-7.923630999999993
 20
4.979361999999981
 10
-7.977616999999995
 20
5.013287999999989
 10
-8.409148999999992
 20
5.460965999999985
 10
-8.795161999999998
 20
6.085446999999988
 10
-8.505457999999997
 20
6.484187999999989
 10
-7.792256999999992
 20
6.310044999999974
 10
-7.233140999999996
 20
6.037974999999989
 10
-7.184188999999996
 20
5.997111999999987
 10
-6.715211999999994
 20
6.517966999999999
 10
-6.760965999999996
 20
6.562376999999998
 10
-7.089988999999996
 20
7.089988999999974
 10
-7.337728999999996
 20
7.781083999999993
 10
-6.971455999999996
 20
8.110876999999988
 10
-6.310044999999995
 20
7.792256999999978
 10
-5.819711999999996
 20
7.409884999999974
 10
-5.780327999999997
 20
7.359739999999988
 10
-5.213306999999993
 20
7.771701999999976
 10
-5.248827999999996
 20
7.824655999999976
 10
-5.460965999999992
 20
8.409148999999985
 10
-5.559604999999998
 20
9.13664799999998
 10
-5.132766999999994
 20
9.383083999999997
 10
-4.552054999999996
 20
8.933907999999974
 10
-4.151936999999997
 20
8.457947999999988
 10
-4.123838999999997
 20
8.40070799999998
 10
-3.483555999999993
 20
8.685780999999992
 10
-3.507290999999995
 20
8.744962999999984
 10
-3.593269999999997
 20
9.360788999999983
 10
-3.538498999999995
 20
10.092896
 10
-3.069749999999992
 20
10.24520199999998
 10
-2.595117999999992
 20
9.685106999999988
 10
-2.302700999999992
 20
9.136356999999975
 10
-2.287116999999995
 20
9.074527999999987
 10
-1.601556999999996
 20
9.220247999999998
 10
-1.612467999999996
 20
9.283069999999981
 10
-1.568530999999997
 20
9.90331599999999
 10
-1.362742999999995
 20
10.60803899999999
 10
-0.8725709999999935
 20
10.65955799999998
 10
-0.5247609999999945
 20
10.01301799999999
 10
-0.3528249999999957
 20
9.415462999999988
 10
-0.3504379999999934
 20
9.351745999999991
 10
0.3504390000000051
 20
9.351745999999991
 10
0.3528260000000039
 20
9.415462999999988
 10
0.5247620000000062
 20
10.01301799999999
 10
0.8725720000000052
 20
10.65955799999998
 10
1.362744000000006
 20
10.60803899999999
 10
1.568532000000005
 20
9.90331599999999
 10
1.612469000000004
 20
9.283069999999981
 10
1.601558000000004
 20
9.220247999999998
 10
2.287118000000007
 20
9.074527999999987
 10
2.302702000000004
 20
9.136356999999975
 10
2.595118000000006
 20
9.685106999999988
 10
3.069751000000004
 20
10.24520199999998
 10
3.538500000000006
 20
10.092896
 10
3.593271000000005
 20
9.360788999999983
 10
3.507292000000003
 20
8.744962999999984
 10
3.483557000000005
 20
8.685780999999992
 10
4.123840000000005
 20
8.40070799999998
 10
4.151938000000005
 20
8.457947999999988
 10
4.552056000000004
 20
8.933907999999974
 10
5.132768000000006
 20
9.383083999999997
 10
5.559606000000006
 20
9.13664799999998
 10
5.460967000000004
 20
8.409148999999985
 10
5.248829000000004
 20
7.824655999999976
 10
5.213308000000005
 20
7.771701999999976
 10
5.780329000000005
 20
7.359739999999988
 10
5.819713000000004
 20
7.409884999999974
 10
6.310046000000003
 20
7.792256999999978
 10
6.971457000000004
 20
8.110876999999988
 10
7.337730000000004
 20
7.781083999999993
 10
7.089990000000004
 20
7.089988999999974
 10
6.760967000000004
 20
6.562376999999998
 10
6.715213000000006
 20
6.517966999999999
 10
7.184190000000005
 20
5.997111999999987
 10
7.233142000000004
 20
6.037974999999989
 10
7.792258000000004
 20
6.310044999999974
 10
8.505459000000005
 20
6.484187999999989
 10
8.795163000000006
 20
6.085446999999988
 10
8.409150000000004
 20
5.460965999999985
 10
7.977618000000003
 20
5.013287999999989
 10
7.923632000000005
 20
4.979361999999981
 10
8.274070000000005
 20
4.372383999999983
 10
8.330444000000004
 20
4.402175
 10
8.933909000000003
 20
4.552054999999996
 10
9.667734000000006
 20
4.574110999999988
 10
9.868202000000004
 20
4.123847999999981
 10
9.360789000000004
 20
3.59326999999999
 10
8.845610000000004
 20
3.245094999999992
 10
8.785748000000005
 20
3.223134999999985
 10
9.002331000000005
 20
2.55655999999999
 10
9.063669000000004
 20
2.573982000000001
 10
9.685108000000003
 20
2.595117999999985
 10
10.407481
 20
2.464117999999985
 10
10.50995600000001
 20
1.982017999999982
 10
9.903317000000005
 20
1.568530999999979
 10
9.327007000000005
 20
1.335076999999984
 10
9.263886000000007
 20
1.326039999999978
 10
9.337148000000006
 20
0.6290049999999781
  0
ENDSEC
  0
SECTION
  2
OBJECTS
  0
DICTIONARY
  5
C
330
0
100
AcDbDictionary
281
    1
  3
ACAD_GROUP
350
D
  0
DICTIONARY
  5
D
330
C
100
AcDbDictionary
281
    1
  0
ENDSEC
  0
EOF
