  0
SECTION
  2
HEADER
  9
$ACADVER
  1
AC1014
  9
$HANDSEED
  5
FFFF
  9
$MEASUREMENT
 70
     1
  0
ENDSEC
  0
SECTION
  2
TABLES
  0
TABLE
  2
VPORT
  5
8
330
0
100
AcDbSymbolTable
 70
     4
  0
VPORT
  5
2E
330
8
100
AcDbSymbolTableRecord
100
AcDbViewportTableRecord
  2
*ACTIVE
 70
     0
 10
0.0
 20
0.0
 11
1.0
 21
1.0
 12
210.0
 22
148.5
 13
0.0
 23
0.0
 14
10.0
 24
10.0
 15
10.0
 25
10.0
 16
0.0
 26
0.0
 36
1.0
 17
0.0
 27
0.0
 37
0.0
 40
341.0
 41
1.24
 42
50.0
 43
0.0
 44
0.0
 50
0.0
 51
0.0
 71
     0
 72
   100
 73
     1
 74
     3
 75
     0
 76
     0
 77
     0
 78
     0
  0
ENDTAB
  0
TABLE
  2
LTYPE
  5
5
330
0
100
AcDbSymbolTable
 70
     1
  0
LTYPE
  5
14
330
5
100
AcDbSymbolTableRecord
100
AcDbLinetypeTableRecord
  2
BYBLOCK
 70
     0
  3

 72
    65
 73
     0
 40
0.0
  0
LTYPE
  5
15
330
5
100
AcDbSymbolTableRecord
100
AcDbLinetypeTableRecord
  2
BYLAYER
 70
     0
  3

 72
    65
 73
     0
 40
0.0
  0
LTYPE
  5
16
330
5
100
AcDbSymbolTableRecord
100
AcDbLinetypeTableRecord
  2
CONTINUOUS
 70
     0
  3
Solid line
 72
    65
 73
     0
 40
0.0
  0
ENDTAB
  0
TABLE
  2
LAYER
  5
2
100
AcDbSymbolTable
 70
2
  0
LAYER
  5
50
100
AcDbSymbolTableRecord
100
AcDbLayerTableRecord
  2
0
 70
0
  6
CONTINUOUS
  0
LAYER
  5
51
100
AcDbSymbolTableRecord
100
AcDbLayerTableRecord
  2
Capa_1
 70
0
  6
CONTINUOUS
  0
ENDTAB
  0
TABLE
  2
STYLE
  5
3
330
0
100
AcDbSymbolTable
 70
     1
  0
STYLE
  5
11
330
3
100
AcDbSymbolTableRecord
100
AcDbTextStyleTableRecord
  2
STANDARD
 70
     0
 40
0.0
 41
1.0
 50
0.0
 71
     0
 42
2.5
  3
txt
  4

  0
ENDTAB
  0
TABLE
  2
VIEW
  5
6
330
0
100
AcDbSymbolTable
 70
     0
  0
ENDTAB
  0
TABLE
  2
UCS
  5
7
330
0
100
AcDbSymbolTable
 70
     0
  0
ENDTAB
  0
TABLE
  2
APPID
  5
9
330
0
100
AcDbSymbolTable
 70
     2
  0
APPID
  5
12
330
9
100
AcDbSymbolTableRecord
100
AcDbRegAppTableRecord
  2
ACAD
 70
     0
  0
ENDTAB
  0
TABLE
  2
DIMSTYLE
  5
A
330
0
100
AcDbSymbolTable
 70
     1
  0
DIMSTYLE
105
27
330
A
100
AcDbSymbolTableRecord
100
AcDbDimStyleTableRecord
  2
ISO-25
 70
     0
  3

  4

  5

  6

  7

 40
1.0
 41
2.5
 42
0.625
 43
3.75
 44
1.25
 45
0.0
 46
0.0
 47
0.0
 48
0.0
140
2.5
141
2.5
142
0.0
143
0.03937007874016
144
1.0
145
0.0
146
1.0
147
0.625
 71
     0
 72
     0
 73
     0
 74
     0
 75
     0
 76
     0
 77
     1
 78
     8
170
     0
171
     3
172
     1
173
     0
174
     0
175
     0
176
     0
177
     0
178
     0
270
     2
271
     2
272
     2
273
     2
274
     3
340
11
275
     0
280
     0
281
     0
282
     0
283
     0
284
     8
285
     0
286
     0
287
     3
288
     0
  0
ENDTAB
  0
TABLE
  2
BLOCK_RECORD
  5
1
330
0
100
AcDbSymbolTable
 70
     1
  0
BLOCK_RECORD
  5
1F
330
1
100
AcDbSymbolTableRecord
100
AcDbBlockTableRecord
  2
*MODEL_SPACE
  0
BLOCK_RECORD
  5
1B
330
1
100
AcDbSymbolTableRecord
100
AcDbBlockTableRecord
  2
*PAPER_SPACE
  0
ENDTAB
  0
ENDSEC
  0
SECTION
  2
BLOCKS
  0
BLOCK
  5
20
330
1F
100
AcDbEntity
  8
0
100
AcDbBlockBegin
  2
*MODEL_SPACE
 70
     0
 10
0.0
 20
0.0
 30
0.0
  3
*MODEL_SPACE
  1

  0
ENDBLK
  5
21
330
1F
100
AcDbEntity
  8
0
100
AcDbBlockEnd
  0
BLOCK
  5
1C
330
1B
100
AcDbEntity
 67
     1
  8
0
100
AcDbBlockBegin
  2
*PAPER_SPACE
  1

  0
ENDBLK
  5
1D
330
1B
100
AcDbEntity
 67
     1
  8
0
100
AcDbBlockEnd
  0
ENDSEC
  0
SECTION
  2
ENTITIES
  0
LWPOLYLINE
  5
100
100
AcDbEntity
  8
Capa_1
 62
7
100
AcDbPolyline
 90
241
 70
1
 10
20.079521
 20
11.341797
 30
0.0
 10
20.143140
 20
11.346081
 30
0.0
 10
20.755393
 20
11.237553
 30
0.0
 10
21.434747
 20
10.959228
 30
0.0
 10
21.434747
 20
10.466355
 30
0.0
 10
20.755393
 20
10.188030
 30
0.0
 10
20.143140
 20
10.079502
 30
0.0
 10
20.079521
 20
10.083786
 30
0.0
 10
20.006259
 20
9.386751
 30
0.0
 10
20.069381
 20
9.377714
 30
0.0
 10
20.645690
 20
9.144260
 30
0.0
 10
21.252330
 20
8.730773
 30
0.0
 10
21.149855
 20
8.248673
 30
0.0
 10
20.427482
 20
8.117674
 30
0.0
 10
19.806042
 20
8.138809
 30
0.0
 10
19.744704
 20
8.156231
 30
0.0
 10
19.528121
 20
7.489656
 30
0.0
 10
19.587983
 20
7.467696
 30
0.0
 10
20.103163
 20
7.119521
 30
0.0
 10
20.610576
 20
6.588943
 30
0.0
 10
20.410108
 20
6.138680
 30
0.0
 10
19.676282
 20
6.160736
 30
0.0
 10
19.072818
 20
6.310616
 30
0.0
 10
19.016444
 20
6.340407
 30
0.0
 10
18.666006
 20
5.733429
 30
0.0
 10
18.719992
 20
5.699503
 30
0.0
 10
19.151524
 20
5.251825
 30
0.0
 10
19.537536
 20
4.627344
 30
0.0
 10
19.247832
 20
4.228603
 30
0.0
 10
18.534631
 20
4.402746
 30
0.0
 10
17.975515
 20
4.674816
 30
0.0
 10
17.926564
 20
4.715679
 30
0.0
 10
17.457587
 20
4.194824
 30
0.0
 10
17.503340
 20
4.150414
 30
0.0
 10
17.832364
 20
3.622802
 30
0.0
 10
18.080104
 20
2.931708
 30
0.0
 10
17.713830
 20
2.601914
 30
0.0
 10
17.052420
 20
2.920534
 30
0.0
 10
16.562087
 20
3.302906
 30
0.0
 10
16.522703
 20
3.353051
 30
0.0
 10
15.955682
 20
2.941089
 30
0.0
 10
15.991202
 20
2.888135
 30
0.0
 10
16.203340
 20
2.303642
 30
0.0
 10
16.301980
 20
1.576143
 30
0.0
 10
15.875141
 20
1.329707
 30
0.0
 10
15.294429
 20
1.778883
 30
0.0
 10
14.894312
 20
2.254843
 30
0.0
 10
14.866214
 20
2.312083
 30
0.0
 10
14.225930
 20
2.027010
 30
0.0
 10
14.249665
 20
1.967828
 30
0.0
 10
14.335644
 20
1.352003
 30
0.0
 10
14.280873
 20
0.619895
 30
0.0
 10
13.812125
 20
0.467589
 30
0.0
 10
13.337492
 20
1.027684
 30
0.0
 10
13.045076
 20
1.576434
 30
0.0
 10
13.029492
 20
1.638263
 30
0.0
 10
12.343932
 20
1.492544
 30
0.0
 10
12.354842
 20
1.429721
 30
0.0
 10
12.310906
 20
0.809475
 30
0.0
 10
12.105118
 20
0.104752
 30
0.0
 10
11.614946
 20
0.053233
 30
0.0
 10
11.267135
 20
0.699773
 30
0.0
 10
11.095200
 20
1.297328
 30
0.0
 10
11.092812
 20
1.361045
 30
0.0
 10
10.391936
 20
1.361045
 30
0.0
 10
10.389548
 20
1.297328
 30
0.0
 10
10.217613
 20
0.699773
 30
0.0
 10
9.869802
 20
0.053233
 30
0.0
 10
9.379630
 20
0.104752
 30
0.0
 10
9.173842
 20
0.809475
 30
0.0
 10
9.129906
 20
1.429721
 30
0.0
 10
9.140817
 20
1.492544
 30
0.0
 10
8.455256
 20
1.638263
 30
0.0
 10
8.439672
 20
1.576434
 30
0.0
 10
8.147256
 20
1.027684
 30
0.0
 10
7.672623
 20
0.467589
 30
0.0
 10
7.203875
 20
0.619895
 30
0.0
 10
7.149104
 20
1.352003
 30
0.0
 10
7.235083
 20
1.967828
 30
0.0
 10
7.258818
 20
2.027010
 30
0.0
 10
6.618534
 20
2.312083
 30
0.0
 10
6.590436
 20
2.254843
 30
0.0
 10
6.190319
 20
1.778883
 30
0.0
 10
5.609607
 20
1.329707
 30
0.0
 10
5.182768
 20
1.576143
 30
0.0
 10
5.281408
 20
2.303642
 30
0.0
 10
5.493546
 20
2.888135
 30
0.0
 10
5.529066
 20
2.941089
 30
0.0
 10
4.962045
 20
3.353051
 30
0.0
 10
4.922661
 20
3.302906
 30
0.0
 10
4.432328
 20
2.920534
 30
0.0
 10
3.770918
 20
2.601914
 30
0.0
 10
3.404644
 20
2.931708
 30
0.0
 10
3.652385
 20
3.622802
 30
0.0
 10
3.981408
 20
4.150414
 30
0.0
 10
4.027162
 20
4.194824
 30
0.0
 10
3.558184
 20
4.715679
 30
0.0
 10
3.509233
 20
4.674816
 30
0.0
 10
2.950117
 20
4.402746
 30
0.0
 10
2.236916
 20
4.228603
 30
0.0
 10
1.947212
 20
4.627344
 30
0.0
 10
2.333224
 20
5.251825
 30
0.0
 10
2.764756
 20
5.699503
 30
0.0
 10
2.818742
 20
5.733429
 30
0.0
 10
2.468304
 20
6.340407
 30
0.0
 10
2.411930
 20
6.310616
 30
0.0
 10
1.808466
 20
6.160736
 30
0.0
 10
1.074640
 20
6.138680
 30
0.0
 10
0.874172
 20
6.588943
 30
0.0
 10
1.381585
 20
7.119521
 30
0.0
 10
1.896765
 20
7.467696
 30
0.0
 10
1.956627
 20
7.489656
 30
0.0
 10
1.740044
 20
8.156231
 30
0.0
 10
1.678706
 20
8.138809
 30
0.0
 10
1.057267
 20
8.117674
 30
0.0
 10
0.334893
 20
8.248673
 30
0.0
 10
0.232418
 20
8.730773
 30
0.0
 10
0.839058
 20
9.144260
 30
0.0
 10
1.415367
 20
9.377714
 30
0.0
 10
1.478489
 20
9.386751
 30
0.0
 10
1.405227
 20
10.083786
 30
0.0
 10
1.341608
 20
10.079502
 30
0.0
 10
0.729355
 20
10.188030
 30
0.0
 10
0.050001
 20
10.466355
 30
0.0
 10
0.050001
 20
10.959228
 30
0.0
 10
0.729355
 20
11.237553
 30
0.0
 10
1.341608
 20
11.346081
 30
0.0
 10
1.405227
 20
11.341797
 30
0.0
 10
1.478489
 20
12.038832
 30
0.0
 10
1.415367
 20
12.047869
 30
0.0
 10
0.839058
 20
12.281323
 30
0.0
 10
0.232418
 20
12.694810
 30
0.0
 10
0.334893
 20
13.176910
 30
0.0
 10
1.057267
 20
13.307910
 30
0.0
 10
1.678706
 20
13.286774
 30
0.0
 10
1.740044
 20
13.269352
 30
0.0
 10
1.956627
 20
13.935927
 30
0.0
 10
1.896765
 20
13.957887
 30
0.0
 10
1.381585
 20
14.306062
 30
0.0
 10
0.874172
 20
14.836640
 30
0.0
 10
1.074640
 20
15.286903
 30
0.0
 10
1.808466
 20
15.264847
 30
0.0
 10
2.411930
 20
15.114967
 30
0.0
 10
2.468304
 20
15.085176
 30
0.0
 10
2.818742
 20
15.692154
 30
0.0
 10
2.764756
 20
15.726080
 30
0.0
 10
2.333224
 20
16.173758
 30
0.0
 10
1.947212
 20
16.798239
 30
0.0
 10
2.236916
 20
17.196980
 30
0.0
 10
2.950117
 20
17.022837
 30
0.0
 10
3.509233
 20
16.750767
 30
0.0
 10
3.558184
 20
16.709904
 30
0.0
 10
4.027162
 20
17.230759
 30
0.0
 10
3.981408
 20
17.275169
 30
0.0
 10
3.652385
 20
17.802781
 30
0.0
 10
3.404644
 20
18.493875
 30
0.0
 10
3.770918
 20
18.823669
 30
0.0
 10
4.432328
 20
18.505049
 30
0.0
 10
4.922661
 20
18.122677
 30
0.0
 10
4.962045
 20
18.072532
 30
0.0
 10
5.529066
 20
18.484494
 30
0.0
 10
5.493546
 20
18.537448
 30
0.0
 10
5.281408
 20
19.121941
 30
0.0
 10
5.182768
 20
19.849440
 30
0.0
 10
5.609607
 20
20.095876
 30
0.0
 10
6.190319
 20
19.646700
 30
0.0
 10
6.590436
 20
19.170740
 30
0.0
 10
6.618534
 20
19.113500
 30
0.0
 10
7.258818
 20
19.398573
 30
0.0
 10
7.235083
 20
19.457755
 30
0.0
 10
7.149104
 20
20.073581
 30
0.0
 10
7.203875
 20
20.805688
 30
0.0
 10
7.672623
 20
20.957994
 30
0.0
 10
8.147256
 20
20.397899
 30
0.0
 10
8.439672
 20
19.849149
 30
0.0
 10
8.455256
 20
19.787320
 30
0.0
 10
9.140817
 20
19.933039
 30
0.0
 10
9.129906
 20
19.995862
 30
0.0
 10
9.173842
 20
20.616108
 30
0.0
 10
9.379630
 20
21.320831
 30
0.0
 10
9.869802
 20
21.372350
 30
0.0
 10
10.217613
 20
20.725810
 30
0.0
 10
10.389548
 20
20.128255
 30
0.0
 10
10.391936
 20
20.064538
 30
0.0
 10
11.092812
 20
20.064538
 30
0.0
 10
11.095200
 20
20.128255
 30
0.0
 10
11.267135
 20
20.725810
 30
0.0
 10
11.614946
 20
21.372350
 30
0.0
 10
12.105118
 20
21.320831
 30
0.0
 10
12.310906
 20
20.616108
 30
0.0
 10
12.354842
 20
19.995862
 30
0.0
 10
12.343932
 20
19.933039
 30
0.0
 10
13.029492
 20
19.787320
 30
0.0
 10
13.045076
 20
19.849149
 30
0.0
 10
13.337492
 20
20.397899
 30
0.0
 10
13.812125
 20
20.957994
 30
0.0
 10
14.280873
 20
20.805688
 30
0.0
 10
14.335644
 20
20.073581
 30
0.0
 10
14.249665
 20
19.457755
 30
0.0
 10
14.225930
 20
19.398573
 30
0.0
 10
14.866214
 20
19.113500
 30
0.0
 10
14.894312
 20
19.170740
 30
0.0
 10
15.294429
 20
19.646700
 30
0.0
 10
15.875141
 20
20.095876
 30
0.0
 10
16.301980
 20
19.849440
 30
0.0
 10
16.203340
 20
19.121941
 30
0.0
 10
15.991202
 20
18.537448
 30
0.0
 10
15.955682
 20
18.484494
 30
0.0
 10
16.522703
 20
18.072532
 30
0.0
 10
16.562087
 20
18.122677
 30
0.0
 10
17.052420
 20
18.505049
 30
0.0
 10
17.713830
 20
18.823669
 30
0.0
 10
18.080104
 20
18.493875
 30
0.0
 10
17.832364
 20
17.802781
 30
0.0
 10
17.503340
 20
17.275169
 30
0.0
 10
17.457587
 20
17.230759
 30
0.0
 10
17.926564
 20
16.709904
 30
0.0
 10
17.975515
 20
16.750767
 30
0.0
 10
18.534631
 20
17.022837
 30
0.0
 10
19.247832
 20
17.196980
 30
0.0
 10
19.537536
 20
16.798239
 30
0.0
 10
19.151524
 20
16.173758
 30
0.0
 10
18.719992
 20
15.726080
 30
0.0
 10
18.666006
 20
15.692154
 30
0.0
 10
19.016444
 20
15.085176
 30
0.0
 10
19.072818
 20
15.114967
 30
0.0
 10
19.676282
 20
15.264847
 30
0.0
 10
20.410108
 20
15.286903
 30
0.0
 10
20.610576
 20
14.836640
 30
0.0
 10
20.103163
 20
14.306062
 30
0.0
 10
19.587983
 20
13.957887
 30
0.0
 10
19.528121
 20
13.935927
 30
0.0
 10
19.744704
 20
13.269352
 30
0.0
 10
19.806042
 20
13.286774
 30
0.0
 10
20.427482
 20
13.307910
 30
0.0
 10
21.149855
 20
13.176910
 30
0.0
 10
21.252330
 20
12.694810
 30
0.0
 10
20.645690
 20
12.281323
 30
0.0
 10
20.069381
 20
12.047869
 30
0.0
 10
20.006259
 20
12.038832
 30
0.0
 10
20.079521
 20
11.341797
 30
0.0
  0
ENDSEC
  0
SECTION
  2
OBJECTS
  0
DICTIONARY
  5
C
330
0
100
AcDbDictionary
  3
ACAD_GROUP
350
D
  3
ACAD_MLINESTYLE
350
17
  0
DICTIONARY
  5
D
330
C
100
AcDbDictionary
  0
DICTIONARY
  5
1A
330
C
100
AcDbDictionary
  0
DICTIONARY
  5
17
330
C
100
AcDbDictionary
  3
STANDARD
350
18
  0
DICTIONARY
  5
19
330
C
100
AcDbDictionary
  0
ENDSEC
  0
EOF
