999
dxfrw 0.6.3
  0
SECTION
  2
HEADER
  9
$ACADVER
  1
AC1021
  9
$DWGCODEPAGE
  3
ANSI_1252
  9
$INSBASE
 10
0
 20
0
 30
0
  9
$EXTMIN
 10
-6.81613
 20
-6.81613
 30
0
  9
$EXTMAX
 10
13.66213
 20
13.66213
 30
0
  9
$LIMMIN
 10
0
 20
0
  9
$LIMMAX
 10
420
 20
297
  9
$ORTHOMODE
 70
    0
  9
$REGENMODE
 70
    1
  9
$FILLMODE
 70
    1
  9
$QTEXTMODE
 70
    0
  9
$MIRRTEXT
 70
    0
  9
$LTSCALE
 40
1
  9
$ATTMODE
 70
    0
  9
$TEXTSIZE
 40
2.5
  9
$TRACEWID
 40
15.68
  9
$TEXTSTYLE
  7
STANDARD
  9
$CLAYER
  8
0
  9
$CELTYPE
  6
BYLAYER
  9
$CECOLOR
 62
  256
  9
$CELTSCALE
 40
1
  9
$DISPSILH
 70
    0
  9
$DIMSCALE
 40
2.5
  9
$DIMASZ
 40
2.5
  9
$DIMEXO
 40
0.625
  9
$DIMDLI
 40
3.75
  9
$DIMRND
 40
0
  9
$DIMDLE
 40
0
  9
$DIMEXE
 40
1.25
  9
$DIMTP
 40
0
  9
$DIMTM
 40
0
  9
$DIMTXT
 40
2.5
  9
$DIMCEN
 40
2.5
  9
$DIMTSZ
 40
0
  9
$DIMTOL
 70
    0
  9
$DIMLIM
 70
    0
  9
$DIMTIH
 70
    0
  9
$DIMTOH
 70
    0
  9
$DIMSE1
 70
    0
  9
$DIMSE2
 70
    0
  9
$DIMTAD
 70
    1
  9
$DIMZIN
 70
    8
  9
$DIMBLK
  1

  9
$DIMASO
 70
    1
  9
$DIMSHO
 70
    1
  9
$DIMPOST
  1

  9
$DIMAPOST
  1

  9
$DIMALT
 70
    0
  9
$DIMALTD
 70
    3
  9
$DIMALTF
 40
0.03937
  9
$DIMLFAC
 40
1
  9
$DIMTOFL
 70
    1
  9
$DIMTVP
 40
0
  9
$DIMTIX
 70
    0
  9
$DIMSOXD
 70
    0
  9
$DIMSAH
 70
    0
  9
$DIMBLK1
  1

  9
$DIMBLK2
  1

  9
$DIMSTYLE
  2
STANDARD
  9
$DIMCLRD
 70
    0
  9
$DIMCLRE
 70
    0
  9
$DIMCLRT
 70
    0
  9
$DIMTFAC
 40
1
  9
$DIMGAP
 40
0.625
  9
$DIMJUST
 70
    0
  9
$DIMSD1
 70
    0
  9
$DIMSD2
 70
    0
  9
$DIMTOLJ
 70
    0
  9
$DIMTZIN
 70
    8
  9
$DIMALTZ
 70
    0
  9
$DIMALTTZ
 70
    0
  9
$DIMUPT
 70
    0
  9
$DIMDEC
 70
    2
  9
$DIMTDEC
 70
    2
  9
$DIMALTU
 70
    2
  9
$DIMALTTD
 70
    3
  9
$DIMTXSTY
  7
STANDARD
  9
$DIMAUNIT
 70
    0
  9
$DIMADEC
 70
    0
  9
$DIMALTRND
 40
0
  9
$DIMAZIN
 70
    0
  9
$DIMDSEP
 70
   44
  9
$DIMATFIT
 70
    3
  9
$DIMFRAC
 70
    0
  9
$DIMLDRBLK
  1
STANDARD
  9
$DIMLUNIT
 70
    2
  9
$DIMLWD
 70
   -2
  9
$DIMLWE
 70
   -2
  9
$DIMTMOVE
 70
    0
  9
$DIMFXL
 40
1
  9
$DIMFXLON
 70
    0
  9
$DIMJOGANG
 40
0.7854
  9
$DIMTFILL
 70
    0
  9
$DIMTFILLCLR
 70
    0
  9
$DIMARCSYM
 70
    0
  9
$DIMLTYPE
  6

  9
$DIMLTEX1
  6

  9
$DIMLTEX2
  6

  9
$LUNITS
 70
    2
  9
$LUPREC
 70
    4
  9
$SKETCHINC
 40
1
  9
$FILLETRAD
 40
0
  9
$AUNITS
 70
    0
  9
$AUPREC
 70
    2
  9
$MENU
  1
.
  9
$ELEVATION
 40
0
  9
$PELEVATION
 40
0
  9
$THICKNESS
 40
0
  9
$LIMCHECK
 70
    0
  9
$CHAMFERA
 40
0
  9
$CHAMFERB
 40
0
  9
$CHAMFERC
 40
0
  9
$CHAMFERD
 40
0
  9
$SKPOLY
 70
    0
  9
$USRTIMER
 70
    1
  9
$ANGBASE
 50
0
  9
$ANGDIR
 70
    0
  9
$PDMODE
 70
   34
  9
$PDSIZE
 40
0
  9
$PLINEWID
 40
0
  9
$SPLFRAME
 70
    0
  9
$SPLINETYPE
 70
    2
  9
$SPLINESEGS
 70
    8
  9
$HANDSEED
  5
20000
  9
$SURFTAB1
 70
    6
  9
$SURFTAB2
 70
    6
  9
$SURFTYPE
 70
    6
  9
$SURFU
 70
    6
  9
$SURFV
 70
    6
  9
$UCSBASE
  2

  9
$UCSNAME
  2

  9
$UCSORG
 10
0
 20
0
 30
0
  9
$UCSXDIR
 10
1
 20
0
 30
0
  9
$UCSYDIR
 10
0
 20
1
 30
0
  9
$UCSORTHOREF
  2

  9
$UCSORTHOVIEW
 70
    0
  9
$UCSORGTOP
 10
0
 20
0
 30
0
  9
$UCSORGBOTTOM
 10
0
 20
0
 30
0
  9
$UCSORGLEFT
 10
0
 20
0
 30
0
  9
$UCSORGRIGHT
 10
0
 20
0
 30
0
  9
$UCSORGFRONT
 10
0
 20
0
 30
0
  9
$UCSORGBACK
 10
0
 20
0
 30
0
  9
$PUCSBASE
  2

  9
$PUCSNAME
  2

  9
$PUCSORG
 10
0
 20
0
 30
0
  9
$PUCSXDIR
 10
1
 20
0
 30
0
  9
$PUCSYDIR
 10
0
 20
1
 30
0
  9
$PUCSORTHOREF
  2

  9
$PUCSORTHOVIEW
 70
    0
  9
$PUCSORGTOP
 10
0
 20
0
 30
0
  9
$PUCSORGBOTTOM
 10
0
 20
0
 30
0
  9
$PUCSORGLEFT
 10
0
 20
0
 30
0
  9
$PUCSORGRIGHT
 10
0
 20
0
 30
0
  9
$PUCSORGFRONT
 10
0
 20
0
 30
0
  9
$PUCSORGBACK
 10
0
 20
0
 30
0
  9
$USERI1
 70
    0
  9
$USERI2
 70
    0
  9
$USERI3
 70
    0
  9
$USERI4
 70
    0
  9
$USERI5
 70
    0
  9
$USERR1
 40
0
  9
$USERR2
 40
0
  9
$USERR3
 40
0
  9
$USERR4
 40
0
  9
$USERR5
 40
0
  9
$WORLDVIEW
 70
    1
  9
$SHADEDGE
 70
    3
  9
$SHADEDIF
 70
   70
  9
$TILEMODE
 70
    1
  9
$MAXACTVP
 70
   64
  9
$PINSBASE
 10
0
 20
0
 30
0
  9
$PLIMCHECK
 70
    0
  9
$PEXTMIN
 10
0
 20
0
 30
0
  9
$PEXTMAX
 10
0
 20
0
 30
0
  9
$SNAPSTYLE
 70
    0
  9
$PLIMMIN
 10
0
 20
0
  9
$PLIMMAX
 10
297
 20
210
  9
$UNITMODE
 70
    0
  9
$VISRETAIN
 70
    1
  9
$PLINEGEN
 70
    0
  9
$PSLTSCALE
 70
    1
  9
$TREEDEPTH
 70
 3020
  9
$CMLSTYLE
  2
Standard
  9
$CMLJUST
 70
    0
  9
$CMLSCALE
 40
20
  9
$PROXYGRAPHICS
 70
    1
  9
$MEASUREMENT
 70
    1
  9
$CELWEIGHT
370
   -1
  9
$ENDCAPS
280
    0
  9
$JOINSTYLE
280
    0
  9
$LWDISPLAY
290
    0
  9
$INSUNITS
 70
    4
  9
$HYPERLINKBASE
  1

  9
$STYLESHEET
  1

  9
$XEDIT
290
    1
  9
$CEPSNTYPE
380
    0
  9
$PSTYLEMODE
290
    1
  9
$EXTNAMES
290
    1
  9
$PSVPSCALE
 40
1
  9
$OLESTARTUP
290
    0
  9
$SORTENTS
280
  127
  9
$INDEXCTL
280
    0
  9
$HIDETEXT
280
    1
  9
$XCLIPFRAME
290
    0
  9
$HALOGAP
280
    0
  9
$OBSCOLOR
 70
  257
  9
$OBSLTYPE
280
    0
  9
$INTERSECTIONDISPLAY
280
    0
  9
$INTERSECTIONCOLOR
 70
  257
  9
$DIMASSOC
280
    1
  9
$PROJECTNAME
  1

  9
$CAMERADISPLAY
290
    0
  9
$LENSLENGTH
 40
50
  9
$CAMERAHEIGHT
 40
0
  9
$STEPSPERSEC
 40
2
  9
$STEPSIZE
 40
50
  9
$3DDWFPREC
 40
2
  9
$PSOLWIDTH
 40
5
  9
$PSOLHEIGHT
 40
80
  9
$LOFTANG1
 40
1.570796326794897
  9
$LOFTANG2
 40
1.570796326794897
  9
$LOFTMAG1
 40
0
  9
$LOFTMAG2
 40
0
  9
$LOFTPARAM
 70
    7
  9
$LOFTNORMALS
280
    1
  9
$LATITUDE
 40
1
  9
$LONGITUDE
 40
1
  9
$NORTHDIRECTION
 40
0
  9
$TIMEZONE
 70
-8000
  9
$LIGHTGLYPHDISPLAY
280
    1
  9
$TILEMODELIGHTSYNCH
280
    1
  9
$SOLIDHIST
280
    1
  9
$SHOWHIST
280
    1
  9
$DWFFRAME
280
    2
  9
$DGNFRAME
280
    0
  9
$REALWORLDSCALE
290
    1
  9
$INTERFERECOLOR
 62
    1
  9
$CSHADOW
280
    0
  9
$SHADOWPLANELOCATION
 40
0
  0
ENDSEC
  0
SECTION
  2
CLASSES
  0
ENDSEC
  0
SECTION
  2
TABLES
  0
TABLE
  2
VPORT
  5
8
330
0
100
AcDbSymbolTable
 70
    1
  0
VPORT
  5
31
330
2
100
AcDbSymbolTableRecord
100
AcDbViewportTableRecord
  2
*ACTIVE
 70
    0
 10
0
 20
0
 11
1
 21
1
 12
8.181912698880048
 22
4.026531840000024
 13
0
 23
0
 14
10
 24
10
 15
10
 25
10
 16
0
 26
0
 36
1
 17
0
 27
0
 37
0
 40
16.4497247436801
 41
2.033942558746736
 42
50
 43
0
 44
0
 50
0
 51
0
 71
    0
 72
  100
 73
    1
 74
    3
 75
    0
 76
    1
 77
    0
 78
    0
281
    0
 65
    1
110
0
120
0
130
0
111
1
121
0
131
0
112
0
122
1
132
0
 79
    0
146
0
348
10020
 60
    7
 61
    5
292
1
282
    1
141
0
142
0
 63
  250
421
3358443
  0
ENDTAB
  0
TABLE
  2
LTYPE
  5
5
330
0
100
AcDbSymbolTable
 70
    4
  0
LTYPE
  5
14
330
5
100
AcDbSymbolTableRecord
100
AcDbLinetypeTableRecord
  2
ByBlock
 70
    0
  3

 72
   65
 73
    0
 40
0
  0
LTYPE
  5
15
330
5
100
AcDbSymbolTableRecord
100
AcDbLinetypeTableRecord
  2
ByLayer
 70
    0
  3

 72
   65
 73
    0
 40
0
  0
LTYPE
  5
16
330
5
100
AcDbSymbolTableRecord
100
AcDbLinetypeTableRecord
  2
Continuous
 70
    0
  3
Solid line
 72
   65
 73
    0
 40
0
  0
LTYPE
  5
32
330
5
100
AcDbSymbolTableRecord
100
AcDbLinetypeTableRecord
  2
DOT
 70
    0
  3
Dot . . . . . . . . . . . . . . . . . . . . . .
 72
   65
 73
    2
 40
6.35
 49
0
 74
    0
 49
-6.35
 74
    0
  0
LTYPE
  5
33
330
5
100
AcDbSymbolTableRecord
100
AcDbLinetypeTableRecord
  2
DOTTINY
 70
    0
  3
Dot (.15x) .....................................
 72
   65
 73
    2
 40
0.9525
 49
0
 74
    0
 49
-0.9525
 74
    0
  0
LTYPE
  5
34
330
5
100
AcDbSymbolTableRecord
100
AcDbLinetypeTableRecord
  2
DOT2
 70
    0
  3
Dot (.5x) .....................................
 72
   65
 73
    2
 40
3.175
 49
0
 74
    0
 49
-3.175
 74
    0
  0
LTYPE
  5
35
330
5
100
AcDbSymbolTableRecord
100
AcDbLinetypeTableRecord
  2
DOTX2
 70
    0
  3
Dot (2x) .  .  .  .  .  .  .  .  .  .  .  .  .
 72
   65
 73
    2
 40
12.7
 49
0
 74
    0
 49
-12.7
 74
    0
  0
LTYPE
  5
36
330
5
100
AcDbSymbolTableRecord
100
AcDbLinetypeTableRecord
  2
DASHED
 70
    0
  3
Dashed _ _ _ _ _ _ _ _ _ _ _ _ _ _ _ _ _
 72
   65
 73
    2
 40
19.05
 49
12.7
 74
    0
 49
-6.35
 74
    0
  0
LTYPE
  5
37
330
5
100
AcDbSymbolTableRecord
100
AcDbLinetypeTableRecord
  2
DASHEDTINY
 70
    0
  3
Dashed (.15x) _ _ _ _ _ _ _ _ _ _ _ _ _ _ _ _ _
 72
   65
 73
    2
 40
2.8575
 49
1.905
 74
    0
 49
-0.9525
 74
    0
  0
LTYPE
  5
38
330
5
100
AcDbSymbolTableRecord
100
AcDbLinetypeTableRecord
  2
DASHED2
 70
    0
  3
Dashed (.5x) _ _ _ _ _ _ _ _ _ _ _ _ _ _ _ _ _
 72
   65
 73
    2
 40
9.524999999999999
 49
6.35
 74
    0
 49
-3.175
 74
    0
  0
LTYPE
  5
39
330
5
100
AcDbSymbolTableRecord
100
AcDbLinetypeTableRecord
  2
DASHEDX2
 70
    0
  3
Dashed (2x) ____  ____  ____  ____  ____  ___
 72
   65
 73
    2
 40
38.09999999999999
 49
25.4
 74
    0
 49
-12.7
 74
    0
  0
LTYPE
  5
3A
330
5
100
AcDbSymbolTableRecord
100
AcDbLinetypeTableRecord
  2
DASHDOT
 70
    0
  3
Dash dot __ . __ . __ . __ . __ . __ . __ . __
 72
   65
 73
    4
 40
25.4
 49
12.7
 74
    0
 49
-6.35
 74
    0
 49
0
 74
    0
 49
-6.35
 74
    0
  0
LTYPE
  5
3B
330
5
100
AcDbSymbolTableRecord
100
AcDbLinetypeTableRecord
  2
DASHDOTTINY
 70
    0
  3
Dash dot (.15x) _._._._._._._._._._._._._._._.
 72
   65
 73
    4
 40
3.81
 49
1.905
 74
    0
 49
-0.9525
 74
    0
 49
0
 74
    0
 49
-0.9525
 74
    0
  0
LTYPE
  5
3C
330
5
100
AcDbSymbolTableRecord
100
AcDbLinetypeTableRecord
  2
DASHDOT2
 70
    0
  3
Dash dot (.5x) _._._._._._._._._._._._._._._.
 72
   65
 73
    4
 40
12.7
 49
6.35
 74
    0
 49
-3.175
 74
    0
 49
0
 74
    0
 49
-3.175
 74
    0
  0
LTYPE
  5
3D
330
5
100
AcDbSymbolTableRecord
100
AcDbLinetypeTableRecord
  2
DASHDOTX2
 70
    0
  3
Dash dot (2x) ____  .  ____  .  ____  .  ___
 72
   65
 73
    4
 40
50.8
 49
25.4
 74
    0
 49
-12.7
 74
    0
 49
0
 74
    0
 49
-12.7
 74
    0
  0
LTYPE
  5
3E
330
5
100
AcDbSymbolTableRecord
100
AcDbLinetypeTableRecord
  2
DIVIDE
 70
    0
  3
Divide ____ . . ____ . . ____ . . ____ . . ____
 72
   65
 73
    6
 40
31.75
 49
12.7
 74
    0
 49
-6.35
 74
    0
 49
0
 74
    0
 49
-6.35
 74
    0
 49
0
 74
    0
 49
-6.35
 74
    0
  0
LTYPE
  5
3F
330
5
100
AcDbSymbolTableRecord
100
AcDbLinetypeTableRecord
  2
DIVIDETINY
 70
    0
  3
Divide (.15x) __..__..__..__..__..__..__..__.._
 72
   65
 73
    6
 40
4.7625
 49
1.905
 74
    0
 49
-0.9525
 74
    0
 49
0
 74
    0
 49
-0.9525
 74
    0
 49
0
 74
    0
 49
-0.9525
 74
    0
  0
LTYPE
  5
40
330
5
100
AcDbSymbolTableRecord
100
AcDbLinetypeTableRecord
  2
DIVIDE2
 70
    0
  3
Divide (.5x) __..__..__..__..__..__..__..__.._
 72
   65
 73
    6
 40
15.875
 49
6.35
 74
    0
 49
-3.175
 74
    0
 49
0
 74
    0
 49
-3.175
 74
    0
 49
0
 74
    0
 49
-3.175
 74
    0
  0
LTYPE
  5
41
330
5
100
AcDbSymbolTableRecord
100
AcDbLinetypeTableRecord
  2
DIVIDEX2
 70
    0
  3
Divide (2x) ________  .  .  ________  .  .  _
 72
   65
 73
    6
 40
63.5
 49
25.4
 74
    0
 49
-12.7
 74
    0
 49
0
 74
    0
 49
-12.7
 74
    0
 49
0
 74
    0
 49
-12.7
 74
    0
  0
LTYPE
  5
42
330
5
100
AcDbSymbolTableRecord
100
AcDbLinetypeTableRecord
  2
BORDER
 70
    0
  3
Border __ __ . __ __ . __ __ . __ __ . __ __ .
 72
   65
 73
    6
 40
44.45
 49
12.7
 74
    0
 49
-6.35
 74
    0
 49
12.7
 74
    0
 49
-6.35
 74
    0
 49
0
 74
    0
 49
-6.35
 74
    0
  0
LTYPE
  5
43
330
5
100
AcDbSymbolTableRecord
100
AcDbLinetypeTableRecord
  2
BORDERTINY
 70
    0
  3
Border (.15x) __.__.__.__.__.__.__.__.__.__.__.
 72
   65
 73
    6
 40
6.6675
 49
1.905
 74
    0
 49
-0.9525
 74
    0
 49
1.905
 74
    0
 49
-0.9525
 74
    0
 49
0
 74
    0
 49
-0.9525
 74
    0
  0
LTYPE
  5
44
330
5
100
AcDbSymbolTableRecord
100
AcDbLinetypeTableRecord
  2
BORDER2
 70
    0
  3
Border (.5x) __.__.__.__.__.__.__.__.__.__.__.
 72
   65
 73
    6
 40
22.225
 49
6.35
 74
    0
 49
-3.175
 74
    0
 49
6.35
 74
    0
 49
-3.175
 74
    0
 49
0
 74
    0
 49
-3.175
 74
    0
  0
LTYPE
  5
45
330
5
100
AcDbSymbolTableRecord
100
AcDbLinetypeTableRecord
  2
BORDERX2
 70
    0
  3
Border (2x) ____  ____  .  ____  ____  .  ___
 72
   65
 73
    6
 40
88.89999999999999
 49
25.4
 74
    0
 49
-12.7
 74
    0
 49
25.4
 74
    0
 49
-12.7
 74
    0
 49
0
 74
    0
 49
-12.7
 74
    0
  0
LTYPE
  5
46
330
5
100
AcDbSymbolTableRecord
100
AcDbLinetypeTableRecord
  2
CENTER
 70
    0
  3
Center ____ _ ____ _ ____ _ ____ _ ____ _ ____
 72
   65
 73
    4
 40
50.8
 49
31.75
 74
    0
 49
-6.35
 74
    0
 49
6.35
 74
    0
 49
-6.35
 74
    0
  0
LTYPE
  5
47
330
5
100
AcDbSymbolTableRecord
100
AcDbLinetypeTableRecord
  2
CENTERTINY
 70
    0
  3
Center (.15x) ___ _ ___ _ ___ _ ___ _ ___ _ ___
 72
   65
 73
    4
 40
7.619999999999999
 49
4.7625
 74
    0
 49
-0.9525
 74
    0
 49
0.9525
 74
    0
 49
-0.9525
 74
    0
  0
LTYPE
  5
48
330
5
100
AcDbSymbolTableRecord
100
AcDbLinetypeTableRecord
  2
CENTER2
 70
    0
  3
Center (.5x) ___ _ ___ _ ___ _ ___ _ ___ _ ___
 72
   65
 73
    4
 40
28.575
 49
19.05
 74
    0
 49
-3.175
 74
    0
 49
3.175
 74
    0
 49
-3.175
 74
    0
  0
LTYPE
  5
49
330
5
100
AcDbSymbolTableRecord
100
AcDbLinetypeTableRecord
  2
CENTERX2
 70
    0
  3
Center (2x) ________  __  ________  __  _____
 72
   65
 73
    4
 40
101.6
 49
63.5
 74
    0
 49
-12.7
 74
    0
 49
12.7
 74
    0
 49
-12.7
 74
    0
  0
ENDTAB
  0
TABLE
  2
LAYER
  5
2
330
0
100
AcDbSymbolTable
 70
    1
  0
LAYER
  5
10
330
2
100
AcDbSymbolTableRecord
100
AcDbLayerTableRecord
  2
0
 70
    0
 62
    7
  6
CONTINUOUS
370
    0
390
F
  0
ENDTAB
  0
TABLE
  2
STYLE
  5
3
330
0
100
AcDbSymbolTable
 70
    3
  0
STYLE
  5
4A
330
2
100
AcDbSymbolTableRecord
100
AcDbTextStyleTableRecord
  2
Standard
 70
    0
 40
0
 41
1
 50
0
 71
    0
 42
1
  3
txt
  4

  0
ENDTAB
  0
TABLE
  2
VIEW
  5
6
330
0
100
AcDbSymbolTable
 70
    0
  0
ENDTAB
  0
TABLE
  2
UCS
  5
7
330
0
100
AcDbSymbolTable
 70
    0
  0
ENDTAB
  0
TABLE
  2
APPID
  5
9
330
0
100
AcDbSymbolTable
 70
    1
  0
APPID
  5
12
330
9
100
AcDbSymbolTableRecord
100
AcDbRegAppTableRecord
  2
ACAD
 70
    0
  0
APPID
  5
4B
330
9
100
AcDbSymbolTableRecord
100
AcDbRegAppTableRecord
  2
LibreCad
 70
    0
  0
ENDTAB
  0
TABLE
  2
DIMSTYLE
  5
A
330
0
100
AcDbSymbolTable
 70
    1
100
AcDbDimStyleTable
 71
    1
  0
DIMSTYLE
105
4C
330
A
100
AcDbSymbolTableRecord
100
AcDbDimStyleTableRecord
  2
Standard
 70
    0
 40
1
 41
2.5
 42
0.625
 43
0.38
 44
1.25
 45
0
 46
0
 47
0
 48
0
 49
1
140
2.5
141
0.09
142
2.5
143
25.4
144
1
145
0
146
1
147
0.625
148
0
 71
    0
 72
    0
 73
    0
 74
    1
 75
    0
 76
    0
 77
    0
 78
    1
 79
    0
170
    0
171
    2
172
    0
173
    0
174
    0
175
    0
176
    0
177
    0
178
    0
179
    0
271
    2
272
    4
273
    2
274
    2
275
    0
276
    0
277
    2
278
    0
279
    0
280
    0
281
    0
282
    0
283
    1
284
    0
285
    0
286
    0
288
    0
289
    3
340
standard
341

371
   -2
372
   -2
  0
ENDTAB
  0
TABLE
  2
BLOCK_RECORD
  5
1
330
0
100
AcDbSymbolTable
 70
    2
  0
BLOCK_RECORD
  5
1F
330
1
100
AcDbSymbolTableRecord
100
AcDbBlockTableRecord
  2
*Model_Space
 70
    0
280
    1
281
    0
  0
BLOCK_RECORD
  5
1E
330
1
100
AcDbSymbolTableRecord
100
AcDbBlockTableRecord
  2
*Paper_Space
 70
    0
280
    1
281
    0
  0
ENDTAB
  0
ENDSEC
  0
SECTION
  2
BLOCKS
  0
BLOCK
  5
20
330
1F
100
AcDbEntity
  8
0
100
AcDbBlockBegin
  2
*Model_Space
 70
    0
 10
0
 20
0
 30
0
  3
*Model_Space
  1

  0
ENDBLK
  5
21
330
1F
100
AcDbEntity
  8
0
100
AcDbBlockEnd
  0
BLOCK
  5
1C
330
1B
100
AcDbEntity
  8
0
100
AcDbBlockBegin
  2
*Paper_Space
 70
    0
 10
0
 20
0
 30
0
  3
*Paper_Space
  1

  0
ENDBLK
  5
1D
330
1F
100
AcDbEntity
  8
0
100
AcDbBlockEnd
  0
ENDSEC
  0
SECTION
  2
ENTITIES
  0
LINE
  5
4D
100
AcDbEntity
  8
0
  6
ByLayer
 62
  256
370
   -1
100
AcDbLine
 10
-5.86336
 20
0.1824300000000001
 11
-5.86336
 21
0.1824300000000001
  0
LINE
  5
4E
100
AcDbEntity
  8
0
  6
ByLayer
 62
  256
370
   -1
100
AcDbLine
 10
-5.86336
 20
0.1824300000000001
 11
-5.88643
 21
0.2240000000000002
  0
LINE
  5
4F
100
AcDbEntity
  8
0
  6
ByLayer
 62
  256
370
   -1
100
AcDbLine
 10
-5.88643
 20
0.2240000000000002
 11
-5.91033
 21
0.2398400000000001
  0
LINE
  5
50
100
AcDbEntity
  8
0
  6
ByLayer
 62
  256
370
   -1
100
AcDbLine
 10
-5.91033
 20
0.2398400000000001
 11
-5.93438
 21
0.2509300000000003
  0
LINE
  5
51
100
AcDbEntity
  8
0
  6
ByLayer
 62
  256
370
   -1
100
AcDbLine
 10
-5.93438
 20
0.2509300000000003
 11
-5.95854
 21
0.2593499999999995
  0
LINE
  5
52
100
AcDbEntity
  8
0
  6
ByLayer
 62
  256
370
   -1
100
AcDbLine
 10
-5.95854
 20
0.2593499999999995
 11
-6.00705
 21
0.2713099999999997
  0
LINE
  5
53
100
AcDbEntity
  8
0
  6
ByLayer
 62
  256
370
   -1
100
AcDbLine
 10
-6.00705
 20
0.2713099999999997
 11
-6.05568
 21
0.2801599999999995
  0
LINE
  5
54
100
AcDbEntity
  8
0
  6
ByLayer
 62
  256
370
   -1
100
AcDbLine
 10
-6.05568
 20
0.2801599999999995
 11
-6.15258
 21
0.3051500000000003
  0
LINE
  5
55
100
AcDbEntity
  8
0
  6
ByLayer
 62
  256
370
   -1
100
AcDbLine
 10
-6.15258
 20
0.3051500000000003
 11
-6.24902
 21
0.3373600000000003
  0
LINE
  5
56
100
AcDbEntity
  8
0
  6
ByLayer
 62
  256
370
   -1
100
AcDbLine
 10
-6.24902
 20
0.3373600000000003
 11
-6.345
 21
0.3755299999999995
  0
LINE
  5
57
100
AcDbEntity
  8
0
  6
ByLayer
 62
  256
370
   -1
100
AcDbLine
 10
-6.345
 20
0.3755299999999995
 11
-6.44047
 21
0.41899
  0
LINE
  5
58
100
AcDbEntity
  8
0
  6
ByLayer
 62
  256
370
   -1
100
AcDbLine
 10
-6.44047
 20
0.41899
 11
-6.53537
 21
0.4673100000000003
  0
LINE
  5
59
100
AcDbEntity
  8
0
  6
ByLayer
 62
  256
370
   -1
100
AcDbLine
 10
-6.53537
 20
0.4673100000000003
 11
-6.62966
 21
0.5202
  0
LINE
  5
5A
100
AcDbEntity
  8
0
  6
ByLayer
 62
  256
370
   -1
100
AcDbLine
 10
-6.62966
 20
0.5202
 11
-6.72327
 21
0.57742
  0
LINE
  5
5B
100
AcDbEntity
  8
0
  6
ByLayer
 62
  256
370
   -1
100
AcDbLine
 10
-6.72327
 20
0.57742
 11
-6.81613
 21
0.6388100000000003
  0
LINE
  5
5C
100
AcDbEntity
  8
0
  6
ByLayer
 62
  256
370
   -1
100
AcDbLine
 10
-6.81613
 20
0.6388100000000003
 11
-6.73167
 21
1.24591
  0
LINE
  5
5D
100
AcDbEntity
  8
0
  6
ByLayer
 62
  256
370
   -1
100
AcDbLine
 10
-6.73167
 20
1.24591
 11
-6.62558
 21
1.279629999999999
  0
LINE
  5
5E
100
AcDbEntity
  8
0
  6
ByLayer
 62
  256
370
   -1
100
AcDbLine
 10
-6.62558
 20
1.279629999999999
 11
-6.51991
 21
1.30913
  0
LINE
  5
5F
100
AcDbEntity
  8
0
  6
ByLayer
 62
  256
370
   -1
100
AcDbLine
 10
-6.51991
 20
1.30913
 11
-6.41476
 21
1.33427
  0
LINE
  5
60
100
AcDbEntity
  8
0
  6
ByLayer
 62
  256
370
   -1
100
AcDbLine
 10
-6.41476
 20
1.33427
 11
-6.31027
 21
1.354850000000001
  0
LINE
  5
61
100
AcDbEntity
  8
0
  6
ByLayer
 62
  256
370
   -1
100
AcDbLine
 10
-6.31027
 20
1.354850000000001
 11
-6.20656
 21
1.370609999999999
  0
LINE
  5
62
100
AcDbEntity
  8
0
  6
ByLayer
 62
  256
370
   -1
100
AcDbLine
 10
-6.20656
 20
1.370609999999999
 11
-6.10381
 21
1.381130000000001
  0
LINE
  5
63
100
AcDbEntity
  8
0
  6
ByLayer
 62
  256
370
   -1
100
AcDbLine
 10
-6.10381
 20
1.381130000000001
 11
-6.00224
 21
1.38579
  0
LINE
  5
64
100
AcDbEntity
  8
0
  6
ByLayer
 62
  256
370
   -1
100
AcDbLine
 10
-6.00224
 20
1.38579
 11
-5.90221
 21
1.383380000000001
  0
LINE
  5
65
100
AcDbEntity
  8
0
  6
ByLayer
 62
  256
370
   -1
100
AcDbLine
 10
-5.90221
 20
1.383380000000001
 11
-5.853
 21
1.37862
  0
LINE
  5
66
100
AcDbEntity
  8
0
  6
ByLayer
 62
  256
370
   -1
100
AcDbLine
 10
-5.853
 20
1.37862
 11
-5.80307
 21
1.37689
  0
LINE
  5
67
100
AcDbEntity
  8
0
  6
ByLayer
 62
  256
370
   -1
100
AcDbLine
 10
-5.80307
 20
1.37689
 11
-5.77753
 21
1.37839
  0
LINE
  5
68
100
AcDbEntity
  8
0
  6
ByLayer
 62
  256
370
   -1
100
AcDbLine
 10
-5.77753
 20
1.37839
 11
-5.75136
 21
1.382490000000001
  0
LINE
  5
69
100
AcDbEntity
  8
0
  6
ByLayer
 62
  256
370
   -1
100
AcDbLine
 10
-5.75136
 20
1.382490000000001
 11
-5.72405
 21
1.391220000000001
  0
LINE
  5
6A
100
AcDbEntity
  8
0
  6
ByLayer
 62
  256
370
   -1
100
AcDbLine
 10
-5.72405
 20
1.391220000000001
 11
-5.69051
 21
1.424910000000001
  0
LINE
  5
6B
100
AcDbEntity
  8
0
  6
ByLayer
 62
  256
370
   -1
100
AcDbLine
 10
-5.69051
 20
1.424910000000001
 11
-5.52001
 21
1.985379999999999
  0
LINE
  5
6C
100
AcDbEntity
  8
0
  6
ByLayer
 62
  256
370
   -1
100
AcDbLine
 10
-5.52001
 20
1.985379999999999
 11
-5.52911
 21
2.03204
  0
LINE
  5
6D
100
AcDbEntity
  8
0
  6
ByLayer
 62
  256
370
   -1
100
AcDbLine
 10
-5.52911
 20
2.03204
 11
-5.54694
 21
2.054499999999999
  0
LINE
  5
6E
100
AcDbEntity
  8
0
  6
ByLayer
 62
  256
370
   -1
100
AcDbLine
 10
-5.54694
 20
2.054499999999999
 11
-5.56639
 21
2.072480000000001
  0
LINE
  5
6F
100
AcDbEntity
  8
0
  6
ByLayer
 62
  256
370
   -1
100
AcDbLine
 10
-5.56639
 20
2.072480000000001
 11
-5.58676
 21
2.08794
  0
LINE
  5
70
100
AcDbEntity
  8
0
  6
ByLayer
 62
  256
370
   -1
100
AcDbLine
 10
-5.58676
 20
2.08794
 11
-5.6292
 21
2.11431
  0
LINE
  5
71
100
AcDbEntity
  8
0
  6
ByLayer
 62
  256
370
   -1
100
AcDbLine
 10
-5.6292
 20
2.11431
 11
-5.67272
 21
2.13776
  0
LINE
  5
72
100
AcDbEntity
  8
0
  6
ByLayer
 62
  256
370
   -1
100
AcDbLine
 10
-5.67272
 20
2.13776
 11
-5.75715
 21
2.191459999999999
  0
LINE
  5
73
100
AcDbEntity
  8
0
  6
ByLayer
 62
  256
370
   -1
100
AcDbLine
 10
-5.75715
 20
2.191459999999999
 11
-5.83892
 21
2.251899999999999
  0
LINE
  5
74
100
AcDbEntity
  8
0
  6
ByLayer
 62
  256
370
   -1
100
AcDbLine
 10
-5.83892
 20
2.251899999999999
 11
-5.91841
 21
2.31786
  0
LINE
  5
75
100
AcDbEntity
  8
0
  6
ByLayer
 62
  256
370
   -1
100
AcDbLine
 10
-5.91841
 20
2.31786
 11
-5.99577
 21
2.38869
  0
LINE
  5
76
100
AcDbEntity
  8
0
  6
ByLayer
 62
  256
370
   -1
100
AcDbLine
 10
-5.99577
 20
2.38869
 11
-6.0711
 21
2.463979999999999
  0
LINE
  5
77
100
AcDbEntity
  8
0
  6
ByLayer
 62
  256
370
   -1
100
AcDbLine
 10
-6.0711
 20
2.463979999999999
 11
-6.14443
 21
2.543419999999999
  0
LINE
  5
78
100
AcDbEntity
  8
0
  6
ByLayer
 62
  256
370
   -1
100
AcDbLine
 10
-6.14443
 20
2.543419999999999
 11
-6.215780000000001
 21
2.62677
  0
LINE
  5
79
100
AcDbEntity
  8
0
  6
ByLayer
 62
  256
370
   -1
100
AcDbLine
 10
-6.215780000000001
 20
2.62677
 11
-6.28512
 21
2.713850000000001
  0
LINE
  5
7A
100
AcDbEntity
  8
0
  6
ByLayer
 62
  256
370
   -1
100
AcDbLine
 10
-6.28512
 20
2.713850000000001
 11
-6.01719
 21
3.265140000000001
  0
LINE
  5
7B
100
AcDbEntity
  8
0
  6
ByLayer
 62
  256
370
   -1
100
AcDbLine
 10
-6.01719
 20
3.265140000000001
 11
-5.90587
 21
3.26441
  0
LINE
  5
7C
100
AcDbEntity
  8
0
  6
ByLayer
 62
  256
370
   -1
100
AcDbLine
 10
-5.90587
 20
3.26441
 11
-5.79626
 21
3.259819999999999
  0
LINE
  5
7D
100
AcDbEntity
  8
0
  6
ByLayer
 62
  256
370
   -1
100
AcDbLine
 10
-5.79626
 20
3.259819999999999
 11
-5.68849
 21
3.251239999999999
  0
LINE
  5
7E
100
AcDbEntity
  8
0
  6
ByLayer
 62
  256
370
   -1
100
AcDbLine
 10
-5.68849
 20
3.251239999999999
 11
-5.58275
 21
3.238519999999999
  0
LINE
  5
7F
100
AcDbEntity
  8
0
  6
ByLayer
 62
  256
370
   -1
100
AcDbLine
 10
-5.58275
 20
3.238519999999999
 11
-5.47925
 21
3.22146
  0
LINE
  5
80
100
AcDbEntity
  8
0
  6
ByLayer
 62
  256
370
   -1
100
AcDbLine
 10
-5.47925
 20
3.22146
 11
-5.37828
 21
3.199719999999999
  0
LINE
  5
81
100
AcDbEntity
  8
0
  6
ByLayer
 62
  256
370
   -1
100
AcDbLine
 10
-5.37828
 20
3.199719999999999
 11
-5.28024
 21
3.17276
  0
LINE
  5
82
100
AcDbEntity
  8
0
  6
ByLayer
 62
  256
370
   -1
100
AcDbLine
 10
-5.28024
 20
3.17276
 11
-5.18584
 21
3.13955
  0
LINE
  5
83
100
AcDbEntity
  8
0
  6
ByLayer
 62
  256
370
   -1
100
AcDbLine
 10
-5.18584
 20
3.13955
 11
-5.14052
 21
3.119820000000001
  0
LINE
  5
84
100
AcDbEntity
  8
0
  6
ByLayer
 62
  256
370
   -1
100
AcDbLine
 10
-5.14052
 20
3.119820000000001
 11
-5.09356
 21
3.102740000000001
  0
LINE
  5
85
100
AcDbEntity
  8
0
  6
ByLayer
 62
  256
370
   -1
100
AcDbLine
 10
-5.09356
 20
3.102740000000001
 11
-5.06881
 21
3.09628
  0
LINE
  5
86
100
AcDbEntity
  8
0
  6
ByLayer
 62
  256
370
   -1
100
AcDbLine
 10
-5.06881
 20
3.09628
 11
-5.04266
 21
3.0921
  0
LINE
  5
87
100
AcDbEntity
  8
0
  6
ByLayer
 62
  256
370
   -1
100
AcDbLine
 10
-5.04266
 20
3.0921
 11
-5.01399
 21
3.09196
  0
LINE
  5
88
100
AcDbEntity
  8
0
  6
ByLayer
 62
  256
370
   -1
100
AcDbLine
 10
-5.01399
 20
3.09196
 11
-4.97168
 21
3.113630000000001
  0
LINE
  5
89
100
AcDbEntity
  8
0
  6
ByLayer
 62
  256
370
   -1
100
AcDbLine
 10
-4.97168
 20
3.113630000000001
 11
-4.63633
 21
3.59399
  0
LINE
  5
8A
100
AcDbEntity
  8
0
  6
ByLayer
 62
  256
370
   -1
100
AcDbLine
 10
-4.63633
 20
3.59399
 11
-4.63056
 21
3.641170000000001
  0
LINE
  5
8B
100
AcDbEntity
  8
0
  6
ByLayer
 62
  256
370
   -1
100
AcDbLine
 10
-4.63056
 20
3.641170000000001
 11
-4.64058
 21
3.66804
  0
LINE
  5
8C
100
AcDbEntity
  8
0
  6
ByLayer
 62
  256
370
   -1
100
AcDbLine
 10
-4.64058
 20
3.66804
 11
-4.65352
 21
3.69115
  0
LINE
  5
8D
100
AcDbEntity
  8
0
  6
ByLayer
 62
  256
370
   -1
100
AcDbLine
 10
-4.65352
 20
3.69115
 11
-4.66812
 21
3.712160000000001
  0
LINE
  5
8E
100
AcDbEntity
  8
0
  6
ByLayer
 62
  256
370
   -1
100
AcDbLine
 10
-4.66812
 20
3.712160000000001
 11
-4.70033
 21
3.750349999999999
  0
LINE
  5
8F
100
AcDbEntity
  8
0
  6
ByLayer
 62
  256
370
   -1
100
AcDbLine
 10
-4.70033
 20
3.750349999999999
 11
-4.73447
 21
3.786099999999999
  0
LINE
  5
90
100
AcDbEntity
  8
0
  6
ByLayer
 62
  256
370
   -1
100
AcDbLine
 10
-4.73447
 20
3.786099999999999
 11
-4.79818
 21
3.86326
  0
LINE
  5
91
100
AcDbEntity
  8
0
  6
ByLayer
 62
  256
370
   -1
100
AcDbLine
 10
-4.79818
 20
3.86326
 11
-4.85727
 21
3.946009999999999
  0
LINE
  5
92
100
AcDbEntity
  8
0
  6
ByLayer
 62
  256
370
   -1
100
AcDbLine
 10
-4.85727
 20
3.946009999999999
 11
-4.91248
 21
4.033300000000001
  0
LINE
  5
93
100
AcDbEntity
  8
0
  6
ByLayer
 62
  256
370
   -1
100
AcDbLine
 10
-4.91248
 20
4.033300000000001
 11
-4.96417
 21
4.12458
  0
LINE
  5
94
100
AcDbEntity
  8
0
  6
ByLayer
 62
  256
370
   -1
100
AcDbLine
 10
-4.96417
 20
4.12458
 11
-5.01255
 21
4.21946
  0
LINE
  5
95
100
AcDbEntity
  8
0
  6
ByLayer
 62
  256
370
   -1
100
AcDbLine
 10
-5.01255
 20
4.21946
 11
-5.05774
 21
4.31767
  0
LINE
  5
96
100
AcDbEntity
  8
0
  6
ByLayer
 62
  256
370
   -1
100
AcDbLine
 10
-5.05774
 20
4.31767
 11
-5.09984
 21
4.418979999999999
  0
LINE
  5
97
100
AcDbEntity
  8
0
  6
ByLayer
 62
  256
370
   -1
100
AcDbLine
 10
-5.09984
 20
4.418979999999999
 11
-5.13888
 21
4.52323
  0
LINE
  5
98
100
AcDbEntity
  8
0
  6
ByLayer
 62
  256
370
   -1
100
AcDbLine
 10
-5.13888
 20
4.52323
 11
-4.713710000000001
 21
4.964739999999999
  0
LINE
  5
99
100
AcDbEntity
  8
0
  6
ByLayer
 62
  256
370
   -1
100
AcDbLine
 10
-4.713710000000001
 20
4.964739999999999
 11
-4.60806
 21
4.92966
  0
LINE
  5
9A
100
AcDbEntity
  8
0
  6
ByLayer
 62
  256
370
   -1
100
AcDbLine
 10
-4.60806
 20
4.92966
 11
-4.50523
 21
4.89141
  0
LINE
  5
9B
100
AcDbEntity
  8
0
  6
ByLayer
 62
  256
370
   -1
100
AcDbLine
 10
-4.50523
 20
4.89141
 11
-4.405390000000001
 21
4.84995
  0
LINE
  5
9C
100
AcDbEntity
  8
0
  6
ByLayer
 62
  256
370
   -1
100
AcDbLine
 10
-4.405390000000001
 20
4.84995
 11
-4.30875
 21
4.80518
  0
LINE
  5
9D
100
AcDbEntity
  8
0
  6
ByLayer
 62
  256
370
   -1
100
AcDbLine
 10
-4.30875
 20
4.80518
 11
-4.215590000000001
 21
4.756969999999999
  0
LINE
  5
9E
100
AcDbEntity
  8
0
  6
ByLayer
 62
  256
370
   -1
100
AcDbLine
 10
-4.215590000000001
 20
4.756969999999999
 11
-4.12628
 21
4.70509
  0
LINE
  5
9F
100
AcDbEntity
  8
0
  6
ByLayer
 62
  256
370
   -1
100
AcDbLine
 10
-4.12628
 20
4.70509
 11
-4.04136
 21
4.64916
  0
LINE
  5
A0
100
AcDbEntity
  8
0
  6
ByLayer
 62
  256
370
   -1
100
AcDbLine
 10
-4.04136
 20
4.64916
 11
-3.96185
 21
4.58841
  0
LINE
  5
A1
100
AcDbEntity
  8
0
  6
ByLayer
 62
  256
370
   -1
100
AcDbLine
 10
-3.96185
 20
4.58841
 11
-3.92484
 21
4.555630000000001
  0
LINE
  5
A2
100
AcDbEntity
  8
0
  6
ByLayer
 62
  256
370
   -1
100
AcDbLine
 10
-3.92484
 20
4.555630000000001
 11
-3.88547
 21
4.52488
  0
LINE
  5
A3
100
AcDbEntity
  8
0
  6
ByLayer
 62
  256
370
   -1
100
AcDbLine
 10
-3.88547
 20
4.52488
 11
-3.86392
 21
4.511089999999999
  0
LINE
  5
A4
100
AcDbEntity
  8
0
  6
ByLayer
 62
  256
370
   -1
100
AcDbLine
 10
-3.86392
 20
4.511089999999999
 11
-3.84034
 21
4.49902
  0
LINE
  5
A5
100
AcDbEntity
  8
0
  6
ByLayer
 62
  256
370
   -1
100
AcDbLine
 10
-3.84034
 20
4.49902
 11
-3.81312
 21
4.490029999999999
  0
LINE
  5
A6
100
AcDbEntity
  8
0
  6
ByLayer
 62
  256
370
   -1
100
AcDbLine
 10
-3.81312
 20
4.490029999999999
 11
-3.76618
 21
4.49757
  0
LINE
  5
A7
100
AcDbEntity
  8
0
  6
ByLayer
 62
  256
370
   -1
100
AcDbLine
 10
-3.76618
 20
4.49757
 11
-3.29881
 21
4.85079
  0
LINE
  5
A8
100
AcDbEntity
  8
0
  6
ByLayer
 62
  256
370
   -1
100
AcDbLine
 10
-3.29881
 20
4.85079
 11
-3.27874
 21
4.893879999999999
  0
LINE
  5
A9
100
AcDbEntity
  8
0
  6
ByLayer
 62
  256
370
   -1
100
AcDbLine
 10
-3.27874
 20
4.893879999999999
 11
-3.27996
 21
4.92253
  0
LINE
  5
AA
100
AcDbEntity
  8
0
  6
ByLayer
 62
  256
370
   -1
100
AcDbLine
 10
-3.27996
 20
4.92253
 11
-3.28513
 21
4.948510000000001
  0
LINE
  5
AB
100
AcDbEntity
  8
0
  6
ByLayer
 62
  256
370
   -1
100
AcDbLine
 10
-3.28513
 20
4.948510000000001
 11
-3.29252
 21
4.973000000000001
  0
LINE
  5
AC
100
AcDbEntity
  8
0
  6
ByLayer
 62
  256
370
   -1
100
AcDbLine
 10
-3.29252
 20
4.973000000000001
 11
-3.31136
 21
5.019270000000001
  0
LINE
  5
AD
100
AcDbEntity
  8
0
  6
ByLayer
 62
  256
370
   -1
100
AcDbLine
 10
-3.31136
 20
5.019270000000001
 11
-3.33278
 21
5.06382
  0
LINE
  5
AE
100
AcDbEntity
  8
0
  6
ByLayer
 62
  256
370
   -1
100
AcDbLine
 10
-3.33278
 20
5.06382
 11
-3.36953
 21
5.1569
  0
LINE
  5
AF
100
AcDbEntity
  8
0
  6
ByLayer
 62
  256
370
   -1
100
AcDbLine
 10
-3.36953
 20
5.1569
 11
-3.40015
 21
5.25385
  0
LINE
  5
B0
100
AcDbEntity
  8
0
  6
ByLayer
 62
  256
370
   -1
100
AcDbLine
 10
-3.40015
 20
5.25385
 11
-3.42569
 21
5.35394
  0
LINE
  5
B1
100
AcDbEntity
  8
0
  6
ByLayer
 62
  256
370
   -1
100
AcDbLine
 10
-3.42569
 20
5.35394
 11
-3.44664
 21
5.456720000000001
  0
LINE
  5
B2
100
AcDbEntity
  8
0
  6
ByLayer
 62
  256
370
   -1
100
AcDbLine
 10
-3.44664
 20
5.456720000000001
 11
-3.46333
 21
5.5619
  0
LINE
  5
B3
100
AcDbEntity
  8
0
  6
ByLayer
 62
  256
370
   -1
100
AcDbLine
 10
-3.46333
 20
5.5619
 11
-3.47597
 21
5.669269999999999
  0
LINE
  5
B4
100
AcDbEntity
  8
0
  6
ByLayer
 62
  256
370
   -1
100
AcDbLine
 10
-3.47597
 20
5.669269999999999
 11
-3.48469
 21
5.778639999999999
  0
LINE
  5
B5
100
AcDbEntity
  8
0
  6
ByLayer
 62
  256
370
   -1
100
AcDbLine
 10
-3.48469
 20
5.778639999999999
 11
-3.48961
 21
5.889849999999999
  0
LINE
  5
B6
100
AcDbEntity
  8
0
  6
ByLayer
 62
  256
370
   -1
100
AcDbLine
 10
-3.48961
 20
5.889849999999999
 11
-2.94881
 21
6.17836
  0
LINE
  5
B7
100
AcDbEntity
  8
0
  6
ByLayer
 62
  256
370
   -1
100
AcDbLine
 10
-2.94881
 20
6.17836
 11
-2.85918
 21
6.112349999999999
  0
LINE
  5
B8
100
AcDbEntity
  8
0
  6
ByLayer
 62
  256
370
   -1
100
AcDbLine
 10
-2.85918
 20
6.112349999999999
 11
-2.7732
 21
6.0442
  0
LINE
  5
B9
100
AcDbEntity
  8
0
  6
ByLayer
 62
  256
370
   -1
100
AcDbLine
 10
-2.7732
 20
6.0442
 11
-2.69106
 21
5.97392
  0
LINE
  5
BA
100
AcDbEntity
  8
0
  6
ByLayer
 62
  256
370
   -1
100
AcDbLine
 10
-2.69106
 20
5.97392
 11
-2.61298
 21
5.901479999999999
  0
LINE
  5
BB
100
AcDbEntity
  8
0
  6
ByLayer
 62
  256
370
   -1
100
AcDbLine
 10
-2.61298
 20
5.901479999999999
 11
-2.53928
 21
5.826840000000001
  0
LINE
  5
BC
100
AcDbEntity
  8
0
  6
ByLayer
 62
  256
370
   -1
100
AcDbLine
 10
-2.53928
 20
5.826840000000001
 11
-2.47037
 21
5.749890000000001
  0
LINE
  5
BD
100
AcDbEntity
  8
0
  6
ByLayer
 62
  256
370
   -1
100
AcDbLine
 10
-2.47037
 20
5.749890000000001
 11
-2.4069
 21
5.67046
  0
LINE
  5
BE
100
AcDbEntity
  8
0
  6
ByLayer
 62
  256
370
   -1
100
AcDbLine
 10
-2.4069
 20
5.67046
 11
-2.35005
 21
5.58811
  0
LINE
  5
BF
100
AcDbEntity
  8
0
  6
ByLayer
 62
  256
370
   -1
100
AcDbLine
 10
-2.35005
 20
5.58811
 11
-2.32498
 21
5.54551
  0
LINE
  5
C0
100
AcDbEntity
  8
0
  6
ByLayer
 62
  256
370
   -1
100
AcDbLine
 10
-2.32498
 20
5.54551
 11
-2.29703
 21
5.50409
  0
LINE
  5
C1
100
AcDbEntity
  8
0
  6
ByLayer
 62
  256
370
   -1
100
AcDbLine
 10
-2.29703
 20
5.50409
 11
-2.28081
 21
5.48432
  0
LINE
  5
C2
100
AcDbEntity
  8
0
  6
ByLayer
 62
  256
370
   -1
100
AcDbLine
 10
-2.28081
 20
5.48432
 11
-2.26211
 21
5.46556
  0
LINE
  5
C3
100
AcDbEntity
  8
0
  6
ByLayer
 62
  256
370
   -1
100
AcDbLine
 10
-2.26211
 20
5.46556
 11
-2.23899
 21
5.448589999999999
  0
LINE
  5
C4
100
AcDbEntity
  8
0
  6
ByLayer
 62
  256
370
   -1
100
AcDbLine
 10
-2.23899
 20
5.448589999999999
 11
-2.19202
 21
5.44126
  0
LINE
  5
C5
100
AcDbEntity
  8
0
  6
ByLayer
 62
  256
370
   -1
100
AcDbLine
 10
-2.19202
 20
5.44126
 11
-1.63838
 21
5.632759999999999
  0
LINE
  5
C6
100
AcDbEntity
  8
0
  6
ByLayer
 62
  256
370
   -1
100
AcDbLine
 10
-1.63838
 20
5.632759999999999
 11
-1.60597
 21
5.66755
  0
LINE
  5
C7
100
AcDbEntity
  8
0
  6
ByLayer
 62
  256
370
   -1
100
AcDbLine
 10
-1.60597
 20
5.66755
 11
-1.59828
 21
5.695169999999999
  0
LINE
  5
C8
100
AcDbEntity
  8
0
  6
ByLayer
 62
  256
370
   -1
100
AcDbLine
 10
-1.59828
 20
5.695169999999999
 11
-1.59517
 21
5.72147
  0
LINE
  5
C9
100
AcDbEntity
  8
0
  6
ByLayer
 62
  256
370
   -1
100
AcDbLine
 10
-1.59517
 20
5.72147
 11
-1.59463
 21
5.74705
  0
LINE
  5
CA
100
AcDbEntity
  8
0
  6
ByLayer
 62
  256
370
   -1
100
AcDbLine
 10
-1.59463
 20
5.74705
 11
-1.59825
 21
5.79688
  0
LINE
  5
CB
100
AcDbEntity
  8
0
  6
ByLayer
 62
  256
370
   -1
100
AcDbLine
 10
-1.59825
 20
5.79688
 11
-1.60486
 21
5.84587
  0
LINE
  5
CC
100
AcDbEntity
  8
0
  6
ByLayer
 62
  256
370
   -1
100
AcDbLine
 10
-1.60486
 20
5.84587
 11
-1.61104
 21
5.945740000000001
  0
LINE
  5
CD
100
AcDbEntity
  8
0
  6
ByLayer
 62
  256
370
   -1
100
AcDbLine
 10
-1.61104
 20
5.945740000000001
 11
-1.61021
 21
6.047420000000001
  0
LINE
  5
CE
100
AcDbEntity
  8
0
  6
ByLayer
 62
  256
370
   -1
100
AcDbLine
 10
-1.61021
 20
6.047420000000001
 11
-1.60356
 21
6.15049
  0
LINE
  5
CF
100
AcDbEntity
  8
0
  6
ByLayer
 62
  256
370
   -1
100
AcDbLine
 10
-1.60356
 20
6.15049
 11
-1.59173
 21
6.254720000000001
  0
LINE
  5
D0
100
AcDbEntity
  8
0
  6
ByLayer
 62
  256
370
   -1
100
AcDbLine
 10
-1.59173
 20
6.254720000000001
 11
-1.5751
 21
6.359909999999999
  0
LINE
  5
D1
100
AcDbEntity
  8
0
  6
ByLayer
 62
  256
370
   -1
100
AcDbLine
 10
-1.5751
 20
6.359909999999999
 11
-1.55394
 21
6.46593
  0
LINE
  5
D2
100
AcDbEntity
  8
0
  6
ByLayer
 62
  256
370
   -1
100
AcDbLine
 10
-1.55394
 20
6.46593
 11
-1.52844
 21
6.57264
  0
LINE
  5
D3
100
AcDbEntity
  8
0
  6
ByLayer
 62
  256
370
   -1
100
AcDbLine
 10
-1.52844
 20
6.57264
 11
-1.49875
 21
6.679930000000001
  0
LINE
  5
D4
100
AcDbEntity
  8
0
  6
ByLayer
 62
  256
370
   -1
100
AcDbLine
 10
-1.49875
 20
6.679930000000001
 11
-0.89527
 21
6.78721
  0
LINE
  5
D5
100
AcDbEntity
  8
0
  6
ByLayer
 62
  256
370
   -1
100
AcDbLine
 10
-0.89527
 20
6.78721
 11
-0.8304200000000002
 21
6.696719999999999
  0
LINE
  5
D6
100
AcDbEntity
  8
0
  6
ByLayer
 62
  256
370
   -1
100
AcDbLine
 10
-0.8304200000000002
 20
6.696719999999999
 11
-0.7697099999999999
 21
6.60534
  0
LINE
  5
D7
100
AcDbEntity
  8
0
  6
ByLayer
 62
  256
370
   -1
100
AcDbLine
 10
-0.7697099999999999
 20
6.60534
 11
-0.7133000000000003
 21
6.513109999999999
  0
LINE
  5
D8
100
AcDbEntity
  8
0
  6
ByLayer
 62
  256
370
   -1
100
AcDbLine
 10
-0.7133000000000003
 20
6.513109999999999
 11
-0.6614399999999998
 21
6.42009
  0
LINE
  5
D9
100
AcDbEntity
  8
0
  6
ByLayer
 62
  256
370
   -1
100
AcDbLine
 10
-0.6614399999999998
 20
6.42009
 11
-0.6144100000000003
 21
6.32633
  0
LINE
  5
DA
100
AcDbEntity
  8
0
  6
ByLayer
 62
  256
370
   -1
100
AcDbLine
 10
-0.6144100000000003
 20
6.32633
 11
-0.5726500000000003
 21
6.231859999999999
  0
LINE
  5
DB
100
AcDbEntity
  8
0
  6
ByLayer
 62
  256
370
   -1
100
AcDbLine
 10
-0.5726500000000003
 20
6.231859999999999
 11
-0.5368200000000005
 21
6.136699999999999
  0
LINE
  5
DC
100
AcDbEntity
  8
0
  6
ByLayer
 62
  256
370
   -1
100
AcDbLine
 10
-0.5368200000000005
 20
6.136699999999999
 11
-0.5082100000000001
 21
6.04082
  0
LINE
  5
DD
100
AcDbEntity
  8
0
  6
ByLayer
 62
  256
370
   -1
100
AcDbLine
 10
-0.5082100000000001
 20
6.04082
 11
-0.4975300000000002
 21
5.99255
  0
LINE
  5
DE
100
AcDbEntity
  8
0
  6
ByLayer
 62
  256
370
   -1
100
AcDbLine
 10
-0.4975300000000002
 20
5.99255
 11
-0.4837499999999997
 21
5.94453
  0
LINE
  5
DF
100
AcDbEntity
  8
0
  6
ByLayer
 62
  256
370
   -1
100
AcDbLine
 10
-0.4837499999999997
 20
5.94453
 11
-0.4744299999999999
 21
5.9207
  0
LINE
  5
E0
100
AcDbEntity
  8
0
  6
ByLayer
 62
  256
370
   -1
100
AcDbLine
 10
-0.4744299999999999
 20
5.9207
 11
-0.46244
 21
5.897080000000001
  0
LINE
  5
E1
100
AcDbEntity
  8
0
  6
ByLayer
 62
  256
370
   -1
100
AcDbLine
 10
-0.46244
 20
5.897080000000001
 11
-0.4457000000000004
 21
5.873810000000001
  0
LINE
  5
E2
100
AcDbEntity
  8
0
  6
ByLayer
 62
  256
370
   -1
100
AcDbLine
 10
-0.4457000000000004
 20
5.873810000000001
 11
-0.4032999999999998
 21
5.852320000000001
  0
LINE
  5
E3
100
AcDbEntity
  8
0
  6
ByLayer
 62
  256
370
   -1
100
AcDbLine
 10
-0.4032999999999998
 20
5.852320000000001
 11
0.1824300000000001
 21
5.86336
  0
LINE
  5
E4
100
AcDbEntity
  8
0
  6
ByLayer
 62
  256
370
   -1
100
AcDbLine
 10
0.1824300000000001
 20
5.86336
 11
0.2240000000000002
 21
5.886430000000001
  0
LINE
  5
E5
100
AcDbEntity
  8
0
  6
ByLayer
 62
  256
370
   -1
100
AcDbLine
 10
0.2240000000000002
 20
5.886430000000001
 11
0.2398400000000001
 21
5.91032
  0
LINE
  5
E6
100
AcDbEntity
  8
0
  6
ByLayer
 62
  256
370
   -1
100
AcDbLine
 10
0.2398400000000001
 20
5.91032
 11
0.2509300000000003
 21
5.934379999999999
  0
LINE
  5
E7
100
AcDbEntity
  8
0
  6
ByLayer
 62
  256
370
   -1
100
AcDbLine
 10
0.2509300000000003
 20
5.934379999999999
 11
0.2593499999999995
 21
5.95853
  0
LINE
  5
E8
100
AcDbEntity
  8
0
  6
ByLayer
 62
  256
370
   -1
100
AcDbLine
 10
0.2593499999999995
 20
5.95853
 11
0.2713099999999997
 21
6.00704
  0
LINE
  5
E9
100
AcDbEntity
  8
0
  6
ByLayer
 62
  256
370
   -1
100
AcDbLine
 10
0.2713099999999997
 20
6.00704
 11
0.2801599999999995
 21
6.055680000000001
  0
LINE
  5
EA
100
AcDbEntity
  8
0
  6
ByLayer
 62
  256
370
   -1
100
AcDbLine
 10
0.2801599999999995
 20
6.055680000000001
 11
0.3051500000000003
 21
6.152570000000001
  0
LINE
  5
EB
100
AcDbEntity
  8
0
  6
ByLayer
 62
  256
370
   -1
100
AcDbLine
 10
0.3051500000000003
 20
6.152570000000001
 11
0.3373600000000003
 21
6.24902
  0
LINE
  5
EC
100
AcDbEntity
  8
0
  6
ByLayer
 62
  256
370
   -1
100
AcDbLine
 10
0.3373600000000003
 20
6.24902
 11
0.3755299999999995
 21
6.344989999999999
  0
LINE
  5
ED
100
AcDbEntity
  8
0
  6
ByLayer
 62
  256
370
   -1
100
AcDbLine
 10
0.3755299999999995
 20
6.344989999999999
 11
0.41899
 21
6.44046
  0
LINE
  5
EE
100
AcDbEntity
  8
0
  6
ByLayer
 62
  256
370
   -1
100
AcDbLine
 10
0.41899
 20
6.44046
 11
0.4673100000000003
 21
6.53537
  0
LINE
  5
EF
100
AcDbEntity
  8
0
  6
ByLayer
 62
  256
370
   -1
100
AcDbLine
 10
0.4673100000000003
 20
6.53537
 11
0.5202
 21
6.629659999999999
  0
LINE
  5
F0
100
AcDbEntity
  8
0
  6
ByLayer
 62
  256
370
   -1
100
AcDbLine
 10
0.5202
 20
6.629659999999999
 11
0.57742
 21
6.72326
  0
LINE
  5
F1
100
AcDbEntity
  8
0
  6
ByLayer
 62
  256
370
   -1
100
AcDbLine
 10
0.57742
 20
6.72326
 11
0.6388100000000003
 21
6.816129999999999
  0
LINE
  5
F2
100
AcDbEntity
  8
0
  6
ByLayer
 62
  256
370
   -1
100
AcDbLine
 10
0.6388100000000003
 20
6.816129999999999
 11
1.24591
 21
6.731669999999999
  0
LINE
  5
F3
100
AcDbEntity
  8
0
  6
ByLayer
 62
  256
370
   -1
100
AcDbLine
 10
1.24591
 20
6.731669999999999
 11
1.279629999999999
 21
6.625579999999999
  0
LINE
  5
F4
100
AcDbEntity
  8
0
  6
ByLayer
 62
  256
370
   -1
100
AcDbLine
 10
1.279629999999999
 20
6.625579999999999
 11
1.30913
 21
6.5199
  0
LINE
  5
F5
100
AcDbEntity
  8
0
  6
ByLayer
 62
  256
370
   -1
100
AcDbLine
 10
1.30913
 20
6.5199
 11
1.33427
 21
6.414759999999999
  0
LINE
  5
F6
100
AcDbEntity
  8
0
  6
ByLayer
 62
  256
370
   -1
100
AcDbLine
 10
1.33427
 20
6.414759999999999
 11
1.354850000000001
 21
6.310269999999999
  0
LINE
  5
F7
100
AcDbEntity
  8
0
  6
ByLayer
 62
  256
370
   -1
100
AcDbLine
 10
1.354850000000001
 20
6.310269999999999
 11
1.370609999999999
 21
6.20656
  0
LINE
  5
F8
100
AcDbEntity
  8
0
  6
ByLayer
 62
  256
370
   -1
100
AcDbLine
 10
1.370609999999999
 20
6.20656
 11
1.381130000000001
 21
6.103809999999999
  0
LINE
  5
F9
100
AcDbEntity
  8
0
  6
ByLayer
 62
  256
370
   -1
100
AcDbLine
 10
1.381130000000001
 20
6.103809999999999
 11
1.38579
 21
6.00224
  0
LINE
  5
FA
100
AcDbEntity
  8
0
  6
ByLayer
 62
  256
370
   -1
100
AcDbLine
 10
1.38579
 20
6.00224
 11
1.383380000000001
 21
5.902200000000001
  0
LINE
  5
FB
100
AcDbEntity
  8
0
  6
ByLayer
 62
  256
370
   -1
100
AcDbLine
 10
1.383380000000001
 20
5.902200000000001
 11
1.37862
 21
5.853
  0
LINE
  5
FC
100
AcDbEntity
  8
0
  6
ByLayer
 62
  256
370
   -1
100
AcDbLine
 10
1.37862
 20
5.853
 11
1.37689
 21
5.80306
  0
LINE
  5
FD
100
AcDbEntity
  8
0
  6
ByLayer
 62
  256
370
   -1
100
AcDbLine
 10
1.37689
 20
5.80306
 11
1.37839
 21
5.77753
  0
LINE
  5
FE
100
AcDbEntity
  8
0
  6
ByLayer
 62
  256
370
   -1
100
AcDbLine
 10
1.37839
 20
5.77753
 11
1.382490000000001
 21
5.75136
  0
LINE
  5
FF
100
AcDbEntity
  8
0
  6
ByLayer
 62
  256
370
   -1
100
AcDbLine
 10
1.382490000000001
 20
5.75136
 11
1.391220000000001
 21
5.72405
  0
LINE
  5
100
100
AcDbEntity
  8
0
  6
ByLayer
 62
  256
370
   -1
100
AcDbLine
 10
1.391220000000001
 20
5.72405
 11
1.424910000000001
 21
5.69051
  0
LINE
  5
101
100
AcDbEntity
  8
0
  6
ByLayer
 62
  256
370
   -1
100
AcDbLine
 10
1.424910000000001
 20
5.69051
 11
1.985379999999999
 21
5.520009999999999
  0
LINE
  5
102
100
AcDbEntity
  8
0
  6
ByLayer
 62
  256
370
   -1
100
AcDbLine
 10
1.985379999999999
 20
5.520009999999999
 11
2.03204
 21
5.529109999999999
  0
LINE
  5
103
100
AcDbEntity
  8
0
  6
ByLayer
 62
  256
370
   -1
100
AcDbLine
 10
2.03204
 20
5.529109999999999
 11
2.054499999999999
 21
5.54693
  0
LINE
  5
104
100
AcDbEntity
  8
0
  6
ByLayer
 62
  256
370
   -1
100
AcDbLine
 10
2.054499999999999
 20
5.54693
 11
2.072480000000001
 21
5.566380000000001
  0
LINE
  5
105
100
AcDbEntity
  8
0
  6
ByLayer
 62
  256
370
   -1
100
AcDbLine
 10
2.072480000000001
 20
5.566380000000001
 11
2.08794
 21
5.58676
  0
LINE
  5
106
100
AcDbEntity
  8
0
  6
ByLayer
 62
  256
370
   -1
100
AcDbLine
 10
2.08794
 20
5.58676
 11
2.11431
 21
5.629199999999999
  0
LINE
  5
107
100
AcDbEntity
  8
0
  6
ByLayer
 62
  256
370
   -1
100
AcDbLine
 10
2.11431
 20
5.629199999999999
 11
2.13776
 21
5.67272
  0
LINE
  5
108
100
AcDbEntity
  8
0
  6
ByLayer
 62
  256
370
   -1
100
AcDbLine
 10
2.13776
 20
5.67272
 11
2.191459999999999
 21
5.757149999999999
  0
LINE
  5
109
100
AcDbEntity
  8
0
  6
ByLayer
 62
  256
370
   -1
100
AcDbLine
 10
2.191459999999999
 20
5.757149999999999
 11
2.251899999999999
 21
5.83892
  0
LINE
  5
10A
100
AcDbEntity
  8
0
  6
ByLayer
 62
  256
370
   -1
100
AcDbLine
 10
2.251899999999999
 20
5.83892
 11
2.31786
 21
5.9184
  0
LINE
  5
10B
100
AcDbEntity
  8
0
  6
ByLayer
 62
  256
370
   -1
100
AcDbLine
 10
2.31786
 20
5.9184
 11
2.38869
 21
5.99577
  0
LINE
  5
10C
100
AcDbEntity
  8
0
  6
ByLayer
 62
  256
370
   -1
100
AcDbLine
 10
2.38869
 20
5.99577
 11
2.463979999999999
 21
6.071099999999999
  0
LINE
  5
10D
100
AcDbEntity
  8
0
  6
ByLayer
 62
  256
370
   -1
100
AcDbLine
 10
2.463979999999999
 20
6.071099999999999
 11
2.543419999999999
 21
6.14443
  0
LINE
  5
10E
100
AcDbEntity
  8
0
  6
ByLayer
 62
  256
370
   -1
100
AcDbLine
 10
2.543419999999999
 20
6.14443
 11
2.62677
 21
6.215769999999999
  0
LINE
  5
10F
100
AcDbEntity
  8
0
  6
ByLayer
 62
  256
370
   -1
100
AcDbLine
 10
2.62677
 20
6.215769999999999
 11
2.713850000000001
 21
6.285119999999999
  0
LINE
  5
110
100
AcDbEntity
  8
0
  6
ByLayer
 62
  256
370
   -1
100
AcDbLine
 10
2.713850000000001
 20
6.285119999999999
 11
3.265140000000001
 21
6.017189999999999
  0
LINE
  5
111
100
AcDbEntity
  8
0
  6
ByLayer
 62
  256
370
   -1
100
AcDbLine
 10
3.265140000000001
 20
6.017189999999999
 11
3.26441
 21
5.90587
  0
LINE
  5
112
100
AcDbEntity
  8
0
  6
ByLayer
 62
  256
370
   -1
100
AcDbLine
 10
3.26441
 20
5.90587
 11
3.259819999999999
 21
5.796250000000001
  0
LINE
  5
113
100
AcDbEntity
  8
0
  6
ByLayer
 62
  256
370
   -1
100
AcDbLine
 10
3.259819999999999
 20
5.796250000000001
 11
3.251239999999999
 21
5.68849
  0
LINE
  5
114
100
AcDbEntity
  8
0
  6
ByLayer
 62
  256
370
   -1
100
AcDbLine
 10
3.251239999999999
 20
5.68849
 11
3.238519999999999
 21
5.582750000000001
  0
LINE
  5
115
100
AcDbEntity
  8
0
  6
ByLayer
 62
  256
370
   -1
100
AcDbLine
 10
3.238519999999999
 20
5.582750000000001
 11
3.22146
 21
5.47925
  0
LINE
  5
116
100
AcDbEntity
  8
0
  6
ByLayer
 62
  256
370
   -1
100
AcDbLine
 10
3.22146
 20
5.47925
 11
3.199719999999999
 21
5.378270000000001
  0
LINE
  5
117
100
AcDbEntity
  8
0
  6
ByLayer
 62
  256
370
   -1
100
AcDbLine
 10
3.199719999999999
 20
5.378270000000001
 11
3.17276
 21
5.28023
  0
LINE
  5
118
100
AcDbEntity
  8
0
  6
ByLayer
 62
  256
370
   -1
100
AcDbLine
 10
3.17276
 20
5.28023
 11
3.13955
 21
5.185840000000001
  0
LINE
  5
119
100
AcDbEntity
  8
0
  6
ByLayer
 62
  256
370
   -1
100
AcDbLine
 10
3.13955
 20
5.185840000000001
 11
3.119820000000001
 21
5.140510000000001
  0
LINE
  5
11A
100
AcDbEntity
  8
0
  6
ByLayer
 62
  256
370
   -1
100
AcDbLine
 10
3.119820000000001
 20
5.140510000000001
 11
3.102740000000001
 21
5.09356
  0
LINE
  5
11B
100
AcDbEntity
  8
0
  6
ByLayer
 62
  256
370
   -1
100
AcDbLine
 10
3.102740000000001
 20
5.09356
 11
3.09628
 21
5.068809999999999
  0
LINE
  5
11C
100
AcDbEntity
  8
0
  6
ByLayer
 62
  256
370
   -1
100
AcDbLine
 10
3.09628
 20
5.068809999999999
 11
3.0921
 21
5.04265
  0
LINE
  5
11D
100
AcDbEntity
  8
0
  6
ByLayer
 62
  256
370
   -1
100
AcDbLine
 10
3.0921
 20
5.04265
 11
3.09196
 21
5.01398
  0
LINE
  5
11E
100
AcDbEntity
  8
0
  6
ByLayer
 62
  256
370
   -1
100
AcDbLine
 10
3.09196
 20
5.01398
 11
3.113630000000001
 21
4.97167
  0
LINE
  5
11F
100
AcDbEntity
  8
0
  6
ByLayer
 62
  256
370
   -1
100
AcDbLine
 10
3.113630000000001
 20
4.97167
 11
3.59399
 21
4.63632
  0
LINE
  5
120
100
AcDbEntity
  8
0
  6
ByLayer
 62
  256
370
   -1
100
AcDbLine
 10
3.59399
 20
4.63632
 11
3.641170000000001
 21
4.630559999999999
  0
LINE
  5
121
100
AcDbEntity
  8
0
  6
ByLayer
 62
  256
370
   -1
100
AcDbLine
 10
3.641170000000001
 20
4.630559999999999
 11
3.66804
 21
4.64057
  0
LINE
  5
122
100
AcDbEntity
  8
0
  6
ByLayer
 62
  256
370
   -1
100
AcDbLine
 10
3.66804
 20
4.64057
 11
3.69115
 21
4.653510000000001
  0
LINE
  5
123
100
AcDbEntity
  8
0
  6
ByLayer
 62
  256
370
   -1
100
AcDbLine
 10
3.69115
 20
4.653510000000001
 11
3.712160000000001
 21
4.66811
  0
LINE
  5
124
100
AcDbEntity
  8
0
  6
ByLayer
 62
  256
370
   -1
100
AcDbLine
 10
3.712160000000001
 20
4.66811
 11
3.750349999999999
 21
4.70032
  0
LINE
  5
125
100
AcDbEntity
  8
0
  6
ByLayer
 62
  256
370
   -1
100
AcDbLine
 10
3.750349999999999
 20
4.70032
 11
3.786099999999999
 21
4.73447
  0
LINE
  5
126
100
AcDbEntity
  8
0
  6
ByLayer
 62
  256
370
   -1
100
AcDbLine
 10
3.786099999999999
 20
4.73447
 11
3.86326
 21
4.798170000000001
  0
LINE
  5
127
100
AcDbEntity
  8
0
  6
ByLayer
 62
  256
370
   -1
100
AcDbLine
 10
3.86326
 20
4.798170000000001
 11
3.946009999999999
 21
4.85727
  0
LINE
  5
128
100
AcDbEntity
  8
0
  6
ByLayer
 62
  256
370
   -1
100
AcDbLine
 10
3.946009999999999
 20
4.85727
 11
4.033300000000001
 21
4.91248
  0
LINE
  5
129
100
AcDbEntity
  8
0
  6
ByLayer
 62
  256
370
   -1
100
AcDbLine
 10
4.033300000000001
 20
4.91248
 11
4.12458
 21
4.96416
  0
LINE
  5
12A
100
AcDbEntity
  8
0
  6
ByLayer
 62
  256
370
   -1
100
AcDbLine
 10
4.12458
 20
4.96416
 11
4.21946
 21
5.01254
  0
LINE
  5
12B
100
AcDbEntity
  8
0
  6
ByLayer
 62
  256
370
   -1
100
AcDbLine
 10
4.21946
 20
5.01254
 11
4.31767
 21
5.057740000000001
  0
LINE
  5
12C
100
AcDbEntity
  8
0
  6
ByLayer
 62
  256
370
   -1
100
AcDbLine
 10
4.31767
 20
5.057740000000001
 11
4.418979999999999
 21
5.099830000000001
  0
LINE
  5
12D
100
AcDbEntity
  8
0
  6
ByLayer
 62
  256
370
   -1
100
AcDbLine
 10
4.418979999999999
 20
5.099830000000001
 11
4.52323
 21
5.138870000000001
  0
LINE
  5
12E
100
AcDbEntity
  8
0
  6
ByLayer
 62
  256
370
   -1
100
AcDbLine
 10
4.52323
 20
5.138870000000001
 11
4.964739999999999
 21
4.713699999999999
  0
LINE
  5
12F
100
AcDbEntity
  8
0
  6
ByLayer
 62
  256
370
   -1
100
AcDbLine
 10
4.964739999999999
 20
4.713699999999999
 11
4.92966
 21
4.60806
  0
LINE
  5
130
100
AcDbEntity
  8
0
  6
ByLayer
 62
  256
370
   -1
100
AcDbLine
 10
4.92966
 20
4.60806
 11
4.89141
 21
4.50522
  0
LINE
  5
131
100
AcDbEntity
  8
0
  6
ByLayer
 62
  256
370
   -1
100
AcDbLine
 10
4.89141
 20
4.50522
 11
4.84995
 21
4.405379999999999
  0
LINE
  5
132
100
AcDbEntity
  8
0
  6
ByLayer
 62
  256
370
   -1
100
AcDbLine
 10
4.84995
 20
4.405379999999999
 11
4.80518
 21
4.30875
  0
LINE
  5
133
100
AcDbEntity
  8
0
  6
ByLayer
 62
  256
370
   -1
100
AcDbLine
 10
4.80518
 20
4.30875
 11
4.756969999999999
 21
4.215590000000001
  0
LINE
  5
134
100
AcDbEntity
  8
0
  6
ByLayer
 62
  256
370
   -1
100
AcDbLine
 10
4.756969999999999
 20
4.215590000000001
 11
4.70509
 21
4.12627
  0
LINE
  5
135
100
AcDbEntity
  8
0
  6
ByLayer
 62
  256
370
   -1
100
AcDbLine
 10
4.70509
 20
4.12627
 11
4.64916
 21
4.041359999999999
  0
LINE
  5
136
100
AcDbEntity
  8
0
  6
ByLayer
 62
  256
370
   -1
100
AcDbLine
 10
4.64916
 20
4.041359999999999
 11
4.58841
 21
3.96185
  0
LINE
  5
137
100
AcDbEntity
  8
0
  6
ByLayer
 62
  256
370
   -1
100
AcDbLine
 10
4.58841
 20
3.96185
 11
4.555630000000001
 21
3.92484
  0
LINE
  5
138
100
AcDbEntity
  8
0
  6
ByLayer
 62
  256
370
   -1
100
AcDbLine
 10
4.555630000000001
 20
3.92484
 11
4.52488
 21
3.88546
  0
LINE
  5
139
100
AcDbEntity
  8
0
  6
ByLayer
 62
  256
370
   -1
100
AcDbLine
 10
4.52488
 20
3.88546
 11
4.511089999999999
 21
3.86392
  0
LINE
  5
13A
100
AcDbEntity
  8
0
  6
ByLayer
 62
  256
370
   -1
100
AcDbLine
 10
4.511089999999999
 20
3.86392
 11
4.49902
 21
3.840339999999999
  0
LINE
  5
13B
100
AcDbEntity
  8
0
  6
ByLayer
 62
  256
370
   -1
100
AcDbLine
 10
4.49902
 20
3.840339999999999
 11
4.490029999999999
 21
3.81311
  0
LINE
  5
13C
100
AcDbEntity
  8
0
  6
ByLayer
 62
  256
370
   -1
100
AcDbLine
 10
4.490029999999999
 20
3.81311
 11
4.49757
 21
3.76618
  0
LINE
  5
13D
100
AcDbEntity
  8
0
  6
ByLayer
 62
  256
370
   -1
100
AcDbLine
 10
4.49757
 20
3.76618
 11
4.85079
 21
3.2988
  0
LINE
  5
13E
100
AcDbEntity
  8
0
  6
ByLayer
 62
  256
370
   -1
100
AcDbLine
 10
4.85079
 20
3.2988
 11
4.893879999999999
 21
3.278739999999999
  0
LINE
  5
13F
100
AcDbEntity
  8
0
  6
ByLayer
 62
  256
370
   -1
100
AcDbLine
 10
4.893879999999999
 20
3.278739999999999
 11
4.92253
 21
3.279959999999999
  0
LINE
  5
140
100
AcDbEntity
  8
0
  6
ByLayer
 62
  256
370
   -1
100
AcDbLine
 10
4.92253
 20
3.279959999999999
 11
4.948510000000001
 21
3.285130000000001
  0
LINE
  5
141
100
AcDbEntity
  8
0
  6
ByLayer
 62
  256
370
   -1
100
AcDbLine
 10
4.948510000000001
 20
3.285130000000001
 11
4.973000000000001
 21
3.29252
  0
LINE
  5
142
100
AcDbEntity
  8
0
  6
ByLayer
 62
  256
370
   -1
100
AcDbLine
 10
4.973000000000001
 20
3.29252
 11
5.019270000000001
 21
3.311349999999999
  0
LINE
  5
143
100
AcDbEntity
  8
0
  6
ByLayer
 62
  256
370
   -1
100
AcDbLine
 10
5.019270000000001
 20
3.311349999999999
 11
5.06382
 21
3.33278
  0
LINE
  5
144
100
AcDbEntity
  8
0
  6
ByLayer
 62
  256
370
   -1
100
AcDbLine
 10
5.06382
 20
3.33278
 11
5.1569
 21
3.36952
  0
LINE
  5
145
100
AcDbEntity
  8
0
  6
ByLayer
 62
  256
370
   -1
100
AcDbLine
 10
5.1569
 20
3.36952
 11
5.25385
 21
3.40015
  0
LINE
  5
146
100
AcDbEntity
  8
0
  6
ByLayer
 62
  256
370
   -1
100
AcDbLine
 10
5.25385
 20
3.40015
 11
5.35394
 21
3.42568
  0
LINE
  5
147
100
AcDbEntity
  8
0
  6
ByLayer
 62
  256
370
   -1
100
AcDbLine
 10
5.35394
 20
3.42568
 11
5.456720000000001
 21
3.44664
  0
LINE
  5
148
100
AcDbEntity
  8
0
  6
ByLayer
 62
  256
370
   -1
100
AcDbLine
 10
5.456720000000001
 20
3.44664
 11
5.5619
 21
3.463329999999999
  0
LINE
  5
149
100
AcDbEntity
  8
0
  6
ByLayer
 62
  256
370
   -1
100
AcDbLine
 10
5.5619
 20
3.463329999999999
 11
5.669269999999999
 21
3.475960000000001
  0
LINE
  5
14A
100
AcDbEntity
  8
0
  6
ByLayer
 62
  256
370
   -1
100
AcDbLine
 10
5.669269999999999
 20
3.475960000000001
 11
5.778639999999999
 21
3.484690000000001
  0
LINE
  5
14B
100
AcDbEntity
  8
0
  6
ByLayer
 62
  256
370
   -1
100
AcDbLine
 10
5.778639999999999
 20
3.484690000000001
 11
5.889849999999999
 21
3.489599999999999
  0
LINE
  5
14C
100
AcDbEntity
  8
0
  6
ByLayer
 62
  256
370
   -1
100
AcDbLine
 10
5.889849999999999
 20
3.489599999999999
 11
6.17836
 21
2.94881
  0
LINE
  5
14D
100
AcDbEntity
  8
0
  6
ByLayer
 62
  256
370
   -1
100
AcDbLine
 10
6.17836
 20
2.94881
 11
6.112349999999999
 21
2.859170000000001
  0
LINE
  5
14E
100
AcDbEntity
  8
0
  6
ByLayer
 62
  256
370
   -1
100
AcDbLine
 10
6.112349999999999
 20
2.859170000000001
 11
6.0442
 21
2.77319
  0
LINE
  5
14F
100
AcDbEntity
  8
0
  6
ByLayer
 62
  256
370
   -1
100
AcDbLine
 10
6.0442
 20
2.77319
 11
5.97392
 21
2.691050000000001
  0
LINE
  5
150
100
AcDbEntity
  8
0
  6
ByLayer
 62
  256
370
   -1
100
AcDbLine
 10
5.97392
 20
2.691050000000001
 11
5.901479999999999
 21
2.61298
  0
LINE
  5
151
100
AcDbEntity
  8
0
  6
ByLayer
 62
  256
370
   -1
100
AcDbLine
 10
5.901479999999999
 20
2.61298
 11
5.826840000000001
 21
2.53928
  0
LINE
  5
152
100
AcDbEntity
  8
0
  6
ByLayer
 62
  256
370
   -1
100
AcDbLine
 10
5.826840000000001
 20
2.53928
 11
5.749890000000001
 21
2.470369999999999
  0
LINE
  5
153
100
AcDbEntity
  8
0
  6
ByLayer
 62
  256
370
   -1
100
AcDbLine
 10
5.749890000000001
 20
2.470369999999999
 11
5.67046
 21
2.406890000000001
  0
LINE
  5
154
100
AcDbEntity
  8
0
  6
ByLayer
 62
  256
370
   -1
100
AcDbLine
 10
5.67046
 20
2.406890000000001
 11
5.58811
 21
2.35005
  0
LINE
  5
155
100
AcDbEntity
  8
0
  6
ByLayer
 62
  256
370
   -1
100
AcDbLine
 10
5.58811
 20
2.35005
 11
5.54551
 21
2.32497
  0
LINE
  5
156
100
AcDbEntity
  8
0
  6
ByLayer
 62
  256
370
   -1
100
AcDbLine
 10
5.54551
 20
2.32497
 11
5.50409
 21
2.297029999999999
  0
LINE
  5
157
100
AcDbEntity
  8
0
  6
ByLayer
 62
  256
370
   -1
100
AcDbLine
 10
5.50409
 20
2.297029999999999
 11
5.48432
 21
2.280799999999999
  0
LINE
  5
158
100
AcDbEntity
  8
0
  6
ByLayer
 62
  256
370
   -1
100
AcDbLine
 10
5.48432
 20
2.280799999999999
 11
5.46556
 21
2.2621
  0
LINE
  5
159
100
AcDbEntity
  8
0
  6
ByLayer
 62
  256
370
   -1
100
AcDbLine
 10
5.46556
 20
2.2621
 11
5.448589999999999
 21
2.238989999999999
  0
LINE
  5
15A
100
AcDbEntity
  8
0
  6
ByLayer
 62
  256
370
   -1
100
AcDbLine
 10
5.448589999999999
 20
2.238989999999999
 11
5.44126
 21
2.192019999999999
  0
LINE
  5
15B
100
AcDbEntity
  8
0
  6
ByLayer
 62
  256
370
   -1
100
AcDbLine
 10
5.44126
 20
2.192019999999999
 11
5.632759999999999
 21
1.63837
  0
LINE
  5
15C
100
AcDbEntity
  8
0
  6
ByLayer
 62
  256
370
   -1
100
AcDbLine
 10
5.632759999999999
 20
1.63837
 11
5.66755
 21
1.605969999999999
  0
LINE
  5
15D
100
AcDbEntity
  8
0
  6
ByLayer
 62
  256
370
   -1
100
AcDbLine
 10
5.66755
 20
1.605969999999999
 11
5.695169999999999
 21
1.598279999999999
  0
LINE
  5
15E
100
AcDbEntity
  8
0
  6
ByLayer
 62
  256
370
   -1
100
AcDbLine
 10
5.695169999999999
 20
1.598279999999999
 11
5.72147
 21
1.59517
  0
LINE
  5
15F
100
AcDbEntity
  8
0
  6
ByLayer
 62
  256
370
   -1
100
AcDbLine
 10
5.72147
 20
1.59517
 11
5.74705
 21
1.59463
  0
LINE
  5
160
100
AcDbEntity
  8
0
  6
ByLayer
 62
  256
370
   -1
100
AcDbLine
 10
5.74705
 20
1.59463
 11
5.79688
 21
1.598240000000001
  0
LINE
  5
161
100
AcDbEntity
  8
0
  6
ByLayer
 62
  256
370
   -1
100
AcDbLine
 10
5.79688
 20
1.598240000000001
 11
5.84587
 21
1.604850000000001
  0
LINE
  5
162
100
AcDbEntity
  8
0
  6
ByLayer
 62
  256
370
   -1
100
AcDbLine
 10
5.84587
 20
1.604850000000001
 11
5.945740000000001
 21
1.611039999999999
  0
LINE
  5
163
100
AcDbEntity
  8
0
  6
ByLayer
 62
  256
370
   -1
100
AcDbLine
 10
5.945740000000001
 20
1.611039999999999
 11
6.047420000000001
 21
1.610200000000001
  0
LINE
  5
164
100
AcDbEntity
  8
0
  6
ByLayer
 62
  256
370
   -1
100
AcDbLine
 10
6.047420000000001
 20
1.610200000000001
 11
6.15049
 21
1.60356
  0
LINE
  5
165
100
AcDbEntity
  8
0
  6
ByLayer
 62
  256
370
   -1
100
AcDbLine
 10
6.15049
 20
1.60356
 11
6.254720000000001
 21
1.59173
  0
LINE
  5
166
100
AcDbEntity
  8
0
  6
ByLayer
 62
  256
370
   -1
100
AcDbLine
 10
6.254720000000001
 20
1.59173
 11
6.359909999999999
 21
1.575099999999999
  0
LINE
  5
167
100
AcDbEntity
  8
0
  6
ByLayer
 62
  256
370
   -1
100
AcDbLine
 10
6.359909999999999
 20
1.575099999999999
 11
6.46593
 21
1.553940000000001
  0
LINE
  5
168
100
AcDbEntity
  8
0
  6
ByLayer
 62
  256
370
   -1
100
AcDbLine
 10
6.46593
 20
1.553940000000001
 11
6.57264
 21
1.52844
  0
LINE
  5
169
100
AcDbEntity
  8
0
  6
ByLayer
 62
  256
370
   -1
100
AcDbLine
 10
6.57264
 20
1.52844
 11
6.679930000000001
 21
1.498749999999999
  0
LINE
  5
16A
100
AcDbEntity
  8
0
  6
ByLayer
 62
  256
370
   -1
100
AcDbLine
 10
6.679930000000001
 20
1.498749999999999
 11
6.78721
 21
0.8952599999999995
  0
LINE
  5
16B
100
AcDbEntity
  8
0
  6
ByLayer
 62
  256
370
   -1
100
AcDbLine
 10
6.78721
 20
0.8952599999999995
 11
6.696719999999999
 21
0.8304099999999996
  0
LINE
  5
16C
100
AcDbEntity
  8
0
  6
ByLayer
 62
  256
370
   -1
100
AcDbLine
 10
6.696719999999999
 20
0.8304099999999996
 11
6.60534
 21
0.7697000000000003
  0
LINE
  5
16D
100
AcDbEntity
  8
0
  6
ByLayer
 62
  256
370
   -1
100
AcDbLine
 10
6.60534
 20
0.7697000000000003
 11
6.513109999999999
 21
0.7133000000000003
  0
LINE
  5
16E
100
AcDbEntity
  8
0
  6
ByLayer
 62
  256
370
   -1
100
AcDbLine
 10
6.513109999999999
 20
0.7133000000000003
 11
6.42009
 21
0.6614300000000002
  0
LINE
  5
16F
100
AcDbEntity
  8
0
  6
ByLayer
 62
  256
370
   -1
100
AcDbLine
 10
6.42009
 20
0.6614300000000002
 11
6.32633
 21
0.6144100000000003
  0
LINE
  5
170
100
AcDbEntity
  8
0
  6
ByLayer
 62
  256
370
   -1
100
AcDbLine
 10
6.32633
 20
0.6144100000000003
 11
6.231859999999999
 21
0.5726399999999998
  0
LINE
  5
171
100
AcDbEntity
  8
0
  6
ByLayer
 62
  256
370
   -1
100
AcDbLine
 10
6.231859999999999
 20
0.5726399999999998
 11
6.136699999999999
 21
0.5368199999999996
  0
LINE
  5
172
100
AcDbEntity
  8
0
  6
ByLayer
 62
  256
370
   -1
100
AcDbLine
 10
6.136699999999999
 20
0.5368199999999996
 11
6.04082
 21
0.5082100000000001
  0
LINE
  5
173
100
AcDbEntity
  8
0
  6
ByLayer
 62
  256
370
   -1
100
AcDbLine
 10
6.04082
 20
0.5082100000000001
 11
5.99255
 21
0.4975199999999997
  0
LINE
  5
174
100
AcDbEntity
  8
0
  6
ByLayer
 62
  256
370
   -1
100
AcDbLine
 10
5.99255
 20
0.4975199999999997
 11
5.94453
 21
0.4837400000000001
  0
LINE
  5
175
100
AcDbEntity
  8
0
  6
ByLayer
 62
  256
370
   -1
100
AcDbLine
 10
5.94453
 20
0.4837400000000001
 11
5.9207
 21
0.4744200000000003
  0
LINE
  5
176
100
AcDbEntity
  8
0
  6
ByLayer
 62
  256
370
   -1
100
AcDbLine
 10
5.9207
 20
0.4744200000000003
 11
5.897080000000001
 21
0.46244
  0
LINE
  5
177
100
AcDbEntity
  8
0
  6
ByLayer
 62
  256
370
   -1
100
AcDbLine
 10
5.897080000000001
 20
0.46244
 11
5.873810000000001
 21
0.4456999999999995
  0
LINE
  5
178
100
AcDbEntity
  8
0
  6
ByLayer
 62
  256
370
   -1
100
AcDbLine
 10
5.873810000000001
 20
0.4456999999999995
 11
5.852320000000001
 21
0.4032900000000001
  0
LINE
  5
179
100
AcDbEntity
  8
0
  6
ByLayer
 62
  256
370
   -1
100
AcDbLine
 10
5.852320000000001
 20
0.4032900000000001
 11
5.86336
 21
-0.1824399999999997
  0
LINE
  5
17A
100
AcDbEntity
  8
0
  6
ByLayer
 62
  256
370
   -1
100
AcDbLine
 10
5.86336
 20
-0.1824399999999997
 11
5.886430000000001
 21
-0.2240000000000002
  0
LINE
  5
17B
100
AcDbEntity
  8
0
  6
ByLayer
 62
  256
370
   -1
100
AcDbLine
 10
5.886430000000001
 20
-0.2240000000000002
 11
5.91032
 21
-0.2398499999999997
  0
LINE
  5
17C
100
AcDbEntity
  8
0
  6
ByLayer
 62
  256
370
   -1
100
AcDbLine
 10
5.91032
 20
-0.2398499999999997
 11
5.934379999999999
 21
-0.2509399999999999
  0
LINE
  5
17D
100
AcDbEntity
  8
0
  6
ByLayer
 62
  256
370
   -1
100
AcDbLine
 10
5.934379999999999
 20
-0.2509399999999999
 11
5.95853
 21
-0.2593500000000004
  0
LINE
  5
17E
100
AcDbEntity
  8
0
  6
ByLayer
 62
  256
370
   -1
100
AcDbLine
 10
5.95853
 20
-0.2593500000000004
 11
6.00704
 21
-0.2713099999999997
  0
LINE
  5
17F
100
AcDbEntity
  8
0
  6
ByLayer
 62
  256
370
   -1
100
AcDbLine
 10
6.00704
 20
-0.2713099999999997
 11
6.055680000000001
 21
-0.28017
  0
LINE
  5
180
100
AcDbEntity
  8
0
  6
ByLayer
 62
  256
370
   -1
100
AcDbLine
 10
6.055680000000001
 20
-0.28017
 11
6.152570000000001
 21
-0.3051500000000003
  0
LINE
  5
181
100
AcDbEntity
  8
0
  6
ByLayer
 62
  256
370
   -1
100
AcDbLine
 10
6.152570000000001
 20
-0.3051500000000003
 11
6.24902
 21
-0.3373600000000003
  0
LINE
  5
182
100
AcDbEntity
  8
0
  6
ByLayer
 62
  256
370
   -1
100
AcDbLine
 10
6.24902
 20
-0.3373600000000003
 11
6.344989999999999
 21
-0.3755300000000004
  0
LINE
  5
183
100
AcDbEntity
  8
0
  6
ByLayer
 62
  256
370
   -1
100
AcDbLine
 10
6.344989999999999
 20
-0.3755300000000004
 11
6.44046
 21
-0.41899
  0
LINE
  5
184
100
AcDbEntity
  8
0
  6
ByLayer
 62
  256
370
   -1
100
AcDbLine
 10
6.44046
 20
-0.41899
 11
6.53537
 21
-0.46732
  0
LINE
  5
185
100
AcDbEntity
  8
0
  6
ByLayer
 62
  256
370
   -1
100
AcDbLine
 10
6.53537
 20
-0.46732
 11
6.629659999999999
 21
-0.5202
  0
LINE
  5
186
100
AcDbEntity
  8
0
  6
ByLayer
 62
  256
370
   -1
100
AcDbLine
 10
6.629659999999999
 20
-0.5202
 11
6.72326
 21
-0.5774299999999997
  0
LINE
  5
187
100
AcDbEntity
  8
0
  6
ByLayer
 62
  256
370
   -1
100
AcDbLine
 10
6.72326
 20
-0.5774299999999997
 11
6.816129999999999
 21
-0.6388199999999999
  0
LINE
  5
188
100
AcDbEntity
  8
0
  6
ByLayer
 62
  256
370
   -1
100
AcDbLine
 10
6.816129999999999
 20
-0.6388199999999999
 11
6.731669999999999
 21
-1.24592
  0
LINE
  5
189
100
AcDbEntity
  8
0
  6
ByLayer
 62
  256
370
   -1
100
AcDbLine
 10
6.731669999999999
 20
-1.24592
 11
6.625579999999999
 21
-1.27963
  0
LINE
  5
18A
100
AcDbEntity
  8
0
  6
ByLayer
 62
  256
370
   -1
100
AcDbLine
 10
6.625579999999999
 20
-1.27963
 11
6.5199
 21
-1.30913
  0
LINE
  5
18B
100
AcDbEntity
  8
0
  6
ByLayer
 62
  256
370
   -1
100
AcDbLine
 10
6.5199
 20
-1.30913
 11
6.414759999999999
 21
-1.33427
  0
LINE
  5
18C
100
AcDbEntity
  8
0
  6
ByLayer
 62
  256
370
   -1
100
AcDbLine
 10
6.414759999999999
 20
-1.33427
 11
6.310269999999999
 21
-1.35486
  0
LINE
  5
18D
100
AcDbEntity
  8
0
  6
ByLayer
 62
  256
370
   -1
100
AcDbLine
 10
6.310269999999999
 20
-1.35486
 11
6.20656
 21
-1.37061
  0
LINE
  5
18E
100
AcDbEntity
  8
0
  6
ByLayer
 62
  256
370
   -1
100
AcDbLine
 10
6.20656
 20
-1.37061
 11
6.103809999999999
 21
-1.38114
  0
LINE
  5
18F
100
AcDbEntity
  8
0
  6
ByLayer
 62
  256
370
   -1
100
AcDbLine
 10
6.103809999999999
 20
-1.38114
 11
6.00224
 21
-1.3858
  0
LINE
  5
190
100
AcDbEntity
  8
0
  6
ByLayer
 62
  256
370
   -1
100
AcDbLine
 10
6.00224
 20
-1.3858
 11
5.902200000000001
 21
-1.38338
  0
LINE
  5
191
100
AcDbEntity
  8
0
  6
ByLayer
 62
  256
370
   -1
100
AcDbLine
 10
5.902200000000001
 20
-1.38338
 11
5.853
 21
-1.37863
  0
LINE
  5
192
100
AcDbEntity
  8
0
  6
ByLayer
 62
  256
370
   -1
100
AcDbLine
 10
5.853
 20
-1.37863
 11
5.80306
 21
-1.37689
  0
LINE
  5
193
100
AcDbEntity
  8
0
  6
ByLayer
 62
  256
370
   -1
100
AcDbLine
 10
5.80306
 20
-1.37689
 11
5.77753
 21
-1.37839
  0
LINE
  5
194
100
AcDbEntity
  8
0
  6
ByLayer
 62
  256
370
   -1
100
AcDbLine
 10
5.77753
 20
-1.37839
 11
5.75136
 21
-1.3825
  0
LINE
  5
195
100
AcDbEntity
  8
0
  6
ByLayer
 62
  256
370
   -1
100
AcDbLine
 10
5.75136
 20
-1.3825
 11
5.72405
 21
-1.39122
  0
LINE
  5
196
100
AcDbEntity
  8
0
  6
ByLayer
 62
  256
370
   -1
100
AcDbLine
 10
5.72405
 20
-1.39122
 11
5.69051
 21
-1.42491
  0
LINE
  5
197
100
AcDbEntity
  8
0
  6
ByLayer
 62
  256
370
   -1
100
AcDbLine
 10
5.69051
 20
-1.42491
 11
5.520009999999999
 21
-1.98538
  0
LINE
  5
198
100
AcDbEntity
  8
0
  6
ByLayer
 62
  256
370
   -1
100
AcDbLine
 10
5.520009999999999
 20
-1.98538
 11
5.529109999999999
 21
-2.03205
  0
LINE
  5
199
100
AcDbEntity
  8
0
  6
ByLayer
 62
  256
370
   -1
100
AcDbLine
 10
5.529109999999999
 20
-2.03205
 11
5.54693
 21
-2.0545
  0
LINE
  5
19A
100
AcDbEntity
  8
0
  6
ByLayer
 62
  256
370
   -1
100
AcDbLine
 10
5.54693
 20
-2.0545
 11
5.566380000000001
 21
-2.07248
  0
LINE
  5
19B
100
AcDbEntity
  8
0
  6
ByLayer
 62
  256
370
   -1
100
AcDbLine
 10
5.566380000000001
 20
-2.07248
 11
5.58676
 21
-2.08795
  0
LINE
  5
19C
100
AcDbEntity
  8
0
  6
ByLayer
 62
  256
370
   -1
100
AcDbLine
 10
5.58676
 20
-2.08795
 11
5.629199999999999
 21
-2.11431
  0
LINE
  5
19D
100
AcDbEntity
  8
0
  6
ByLayer
 62
  256
370
   -1
100
AcDbLine
 10
5.629199999999999
 20
-2.11431
 11
5.67272
 21
-2.13776
  0
LINE
  5
19E
100
AcDbEntity
  8
0
  6
ByLayer
 62
  256
370
   -1
100
AcDbLine
 10
5.67272
 20
-2.13776
 11
5.757149999999999
 21
-2.19147
  0
LINE
  5
19F
100
AcDbEntity
  8
0
  6
ByLayer
 62
  256
370
   -1
100
AcDbLine
 10
5.757149999999999
 20
-2.19147
 11
5.83892
 21
-2.2519
  0
LINE
  5
1A0
100
AcDbEntity
  8
0
  6
ByLayer
 62
  256
370
   -1
100
AcDbLine
 10
5.83892
 20
-2.2519
 11
5.9184
 21
-2.31786
  0
LINE
  5
1A1
100
AcDbEntity
  8
0
  6
ByLayer
 62
  256
370
   -1
100
AcDbLine
 10
5.9184
 20
-2.31786
 11
5.99577
 21
-2.3887
  0
LINE
  5
1A2
100
AcDbEntity
  8
0
  6
ByLayer
 62
  256
370
   -1
100
AcDbLine
 10
5.99577
 20
-2.3887
 11
6.071099999999999
 21
-2.46399
  0
LINE
  5
1A3
100
AcDbEntity
  8
0
  6
ByLayer
 62
  256
370
   -1
100
AcDbLine
 10
6.071099999999999
 20
-2.46399
 11
6.14443
 21
-2.54342
  0
LINE
  5
1A4
100
AcDbEntity
  8
0
  6
ByLayer
 62
  256
370
   -1
100
AcDbLine
 10
6.14443
 20
-2.54342
 11
6.215769999999999
 21
-2.62677
  0
LINE
  5
1A5
100
AcDbEntity
  8
0
  6
ByLayer
 62
  256
370
   -1
100
AcDbLine
 10
6.215769999999999
 20
-2.62677
 11
6.285119999999999
 21
-2.71385
  0
LINE
  5
1A6
100
AcDbEntity
  8
0
  6
ByLayer
 62
  256
370
   -1
100
AcDbLine
 10
6.285119999999999
 20
-2.71385
 11
6.017189999999999
 21
-3.26514
  0
LINE
  5
1A7
100
AcDbEntity
  8
0
  6
ByLayer
 62
  256
370
   -1
100
AcDbLine
 10
6.017189999999999
 20
-3.26514
 11
5.90587
 21
-3.26442
  0
LINE
  5
1A8
100
AcDbEntity
  8
0
  6
ByLayer
 62
  256
370
   -1
100
AcDbLine
 10
5.90587
 20
-3.26442
 11
5.796250000000001
 21
-3.25982
  0
LINE
  5
1A9
100
AcDbEntity
  8
0
  6
ByLayer
 62
  256
370
   -1
100
AcDbLine
 10
5.796250000000001
 20
-3.25982
 11
5.68849
 21
-3.25124
  0
LINE
  5
1AA
100
AcDbEntity
  8
0
  6
ByLayer
 62
  256
370
   -1
100
AcDbLine
 10
5.68849
 20
-3.25124
 11
5.582750000000001
 21
-3.23853
  0
LINE
  5
1AB
100
AcDbEntity
  8
0
  6
ByLayer
 62
  256
370
   -1
100
AcDbLine
 10
5.582750000000001
 20
-3.23853
 11
5.47925
 21
-3.22146
  0
LINE
  5
1AC
100
AcDbEntity
  8
0
  6
ByLayer
 62
  256
370
   -1
100
AcDbLine
 10
5.47925
 20
-3.22146
 11
5.378270000000001
 21
-3.19972
  0
LINE
  5
1AD
100
AcDbEntity
  8
0
  6
ByLayer
 62
  256
370
   -1
100
AcDbLine
 10
5.378270000000001
 20
-3.19972
 11
5.28023
 21
-3.17277
  0
LINE
  5
1AE
100
AcDbEntity
  8
0
  6
ByLayer
 62
  256
370
   -1
100
AcDbLine
 10
5.28023
 20
-3.17277
 11
5.185840000000001
 21
-3.13956
  0
LINE
  5
1AF
100
AcDbEntity
  8
0
  6
ByLayer
 62
  256
370
   -1
100
AcDbLine
 10
5.185840000000001
 20
-3.13956
 11
5.140510000000001
 21
-3.11983
  0
LINE
  5
1B0
100
AcDbEntity
  8
0
  6
ByLayer
 62
  256
370
   -1
100
AcDbLine
 10
5.140510000000001
 20
-3.11983
 11
5.09356
 21
-3.10275
  0
LINE
  5
1B1
100
AcDbEntity
  8
0
  6
ByLayer
 62
  256
370
   -1
100
AcDbLine
 10
5.09356
 20
-3.10275
 11
5.068809999999999
 21
-3.09629
  0
LINE
  5
1B2
100
AcDbEntity
  8
0
  6
ByLayer
 62
  256
370
   -1
100
AcDbLine
 10
5.068809999999999
 20
-3.09629
 11
5.04265
 21
-3.0921
  0
LINE
  5
1B3
100
AcDbEntity
  8
0
  6
ByLayer
 62
  256
370
   -1
100
AcDbLine
 10
5.04265
 20
-3.0921
 11
5.01398
 21
-3.09196
  0
LINE
  5
1B4
100
AcDbEntity
  8
0
  6
ByLayer
 62
  256
370
   -1
100
AcDbLine
 10
5.01398
 20
-3.09196
 11
4.97167
 21
-3.11364
  0
LINE
  5
1B5
100
AcDbEntity
  8
0
  6
ByLayer
 62
  256
370
   -1
100
AcDbLine
 10
4.97167
 20
-3.11364
 11
4.63632
 21
-3.59399
  0
LINE
  5
1B6
100
AcDbEntity
  8
0
  6
ByLayer
 62
  256
370
   -1
100
AcDbLine
 10
4.63632
 20
-3.59399
 11
4.630559999999999
 21
-3.64118
  0
LINE
  5
1B7
100
AcDbEntity
  8
0
  6
ByLayer
 62
  256
370
   -1
100
AcDbLine
 10
4.630559999999999
 20
-3.64118
 11
4.64057
 21
-3.66804
  0
LINE
  5
1B8
100
AcDbEntity
  8
0
  6
ByLayer
 62
  256
370
   -1
100
AcDbLine
 10
4.64057
 20
-3.66804
 11
4.653510000000001
 21
-3.69116
  0
LINE
  5
1B9
100
AcDbEntity
  8
0
  6
ByLayer
 62
  256
370
   -1
100
AcDbLine
 10
4.653510000000001
 20
-3.69116
 11
4.66811
 21
-3.71216
  0
LINE
  5
1BA
100
AcDbEntity
  8
0
  6
ByLayer
 62
  256
370
   -1
100
AcDbLine
 10
4.66811
 20
-3.71216
 11
4.70032
 21
-3.75035
  0
LINE
  5
1BB
100
AcDbEntity
  8
0
  6
ByLayer
 62
  256
370
   -1
100
AcDbLine
 10
4.70032
 20
-3.75035
 11
4.73447
 21
-3.7861
  0
LINE
  5
1BC
100
AcDbEntity
  8
0
  6
ByLayer
 62
  256
370
   -1
100
AcDbLine
 10
4.73447
 20
-3.7861
 11
4.798170000000001
 21
-3.86326
  0
LINE
  5
1BD
100
AcDbEntity
  8
0
  6
ByLayer
 62
  256
370
   -1
100
AcDbLine
 10
4.798170000000001
 20
-3.86326
 11
4.85727
 21
-3.94601
  0
LINE
  5
1BE
100
AcDbEntity
  8
0
  6
ByLayer
 62
  256
370
   -1
100
AcDbLine
 10
4.85727
 20
-3.94601
 11
4.91248
 21
-4.03331
  0
LINE
  5
1BF
100
AcDbEntity
  8
0
  6
ByLayer
 62
  256
370
   -1
100
AcDbLine
 10
4.91248
 20
-4.03331
 11
4.96416
 21
-4.12458
  0
LINE
  5
1C0
100
AcDbEntity
  8
0
  6
ByLayer
 62
  256
370
   -1
100
AcDbLine
 10
4.96416
 20
-4.12458
 11
5.01254
 21
-4.21946
  0
LINE
  5
1C1
100
AcDbEntity
  8
0
  6
ByLayer
 62
  256
370
   -1
100
AcDbLine
 10
5.01254
 20
-4.21946
 11
5.057740000000001
 21
-4.31767
  0
LINE
  5
1C2
100
AcDbEntity
  8
0
  6
ByLayer
 62
  256
370
   -1
100
AcDbLine
 10
5.057740000000001
 20
-4.31767
 11
5.099830000000001
 21
-4.41899
  0
LINE
  5
1C3
100
AcDbEntity
  8
0
  6
ByLayer
 62
  256
370
   -1
100
AcDbLine
 10
5.099830000000001
 20
-4.41899
 11
5.138870000000001
 21
-4.52323
  0
LINE
  5
1C4
100
AcDbEntity
  8
0
  6
ByLayer
 62
  256
370
   -1
100
AcDbLine
 10
5.138870000000001
 20
-4.52323
 11
4.713699999999999
 21
-4.96475
  0
LINE
  5
1C5
100
AcDbEntity
  8
0
  6
ByLayer
 62
  256
370
   -1
100
AcDbLine
 10
4.713699999999999
 20
-4.96475
 11
4.60806
 21
-4.92966
  0
LINE
  5
1C6
100
AcDbEntity
  8
0
  6
ByLayer
 62
  256
370
   -1
100
AcDbLine
 10
4.60806
 20
-4.92966
 11
4.50522
 21
-4.89142
  0
LINE
  5
1C7
100
AcDbEntity
  8
0
  6
ByLayer
 62
  256
370
   -1
100
AcDbLine
 10
4.50522
 20
-4.89142
 11
4.405379999999999
 21
-4.84995
  0
LINE
  5
1C8
100
AcDbEntity
  8
0
  6
ByLayer
 62
  256
370
   -1
100
AcDbLine
 10
4.405379999999999
 20
-4.84995
 11
4.30875
 21
-4.80519
  0
LINE
  5
1C9
100
AcDbEntity
  8
0
  6
ByLayer
 62
  256
370
   -1
100
AcDbLine
 10
4.30875
 20
-4.80519
 11
4.215590000000001
 21
-4.75697
  0
LINE
  5
1CA
100
AcDbEntity
  8
0
  6
ByLayer
 62
  256
370
   -1
100
AcDbLine
 10
4.215590000000001
 20
-4.75697
 11
4.12627
 21
-4.70509
  0
LINE
  5
1CB
100
AcDbEntity
  8
0
  6
ByLayer
 62
  256
370
   -1
100
AcDbLine
 10
4.12627
 20
-4.70509
 11
4.041359999999999
 21
-4.64916
  0
LINE
  5
1CC
100
AcDbEntity
  8
0
  6
ByLayer
 62
  256
370
   -1
100
AcDbLine
 10
4.041359999999999
 20
-4.64916
 11
3.96185
 21
-4.58841
  0
LINE
  5
1CD
100
AcDbEntity
  8
0
  6
ByLayer
 62
  256
370
   -1
100
AcDbLine
 10
3.96185
 20
-4.58841
 11
3.92484
 21
-4.55564
  0
LINE
  5
1CE
100
AcDbEntity
  8
0
  6
ByLayer
 62
  256
370
   -1
100
AcDbLine
 10
3.92484
 20
-4.55564
 11
3.88546
 21
-4.52489
  0
LINE
  5
1CF
100
AcDbEntity
  8
0
  6
ByLayer
 62
  256
370
   -1
100
AcDbLine
 10
3.88546
 20
-4.52489
 11
3.86392
 21
-4.51109
  0
LINE
  5
1D0
100
AcDbEntity
  8
0
  6
ByLayer
 62
  256
370
   -1
100
AcDbLine
 10
3.86392
 20
-4.51109
 11
3.840339999999999
 21
-4.49903
  0
LINE
  5
1D1
100
AcDbEntity
  8
0
  6
ByLayer
 62
  256
370
   -1
100
AcDbLine
 10
3.840339999999999
 20
-4.49903
 11
3.81311
 21
-4.49004
  0
LINE
  5
1D2
100
AcDbEntity
  8
0
  6
ByLayer
 62
  256
370
   -1
100
AcDbLine
 10
3.81311
 20
-4.49004
 11
3.76618
 21
-4.49758
  0
LINE
  5
1D3
100
AcDbEntity
  8
0
  6
ByLayer
 62
  256
370
   -1
100
AcDbLine
 10
3.76618
 20
-4.49758
 11
3.2988
 21
-4.85079
  0
LINE
  5
1D4
100
AcDbEntity
  8
0
  6
ByLayer
 62
  256
370
   -1
100
AcDbLine
 10
3.2988
 20
-4.85079
 11
3.278739999999999
 21
-4.89389
  0
LINE
  5
1D5
100
AcDbEntity
  8
0
  6
ByLayer
 62
  256
370
   -1
100
AcDbLine
 10
3.278739999999999
 20
-4.89389
 11
3.279959999999999
 21
-4.92253
  0
LINE
  5
1D6
100
AcDbEntity
  8
0
  6
ByLayer
 62
  256
370
   -1
100
AcDbLine
 10
3.279959999999999
 20
-4.92253
 11
3.285130000000001
 21
-4.948510000000001
  0
LINE
  5
1D7
100
AcDbEntity
  8
0
  6
ByLayer
 62
  256
370
   -1
100
AcDbLine
 10
3.285130000000001
 20
-4.948510000000001
 11
3.29252
 21
-4.973
  0
LINE
  5
1D8
100
AcDbEntity
  8
0
  6
ByLayer
 62
  256
370
   -1
100
AcDbLine
 10
3.29252
 20
-4.973
 11
3.311349999999999
 21
-5.01928
  0
LINE
  5
1D9
100
AcDbEntity
  8
0
  6
ByLayer
 62
  256
370
   -1
100
AcDbLine
 10
3.311349999999999
 20
-5.01928
 11
3.33278
 21
-5.06383
  0
LINE
  5
1DA
100
AcDbEntity
  8
0
  6
ByLayer
 62
  256
370
   -1
100
AcDbLine
 10
3.33278
 20
-5.06383
 11
3.36952
 21
-5.1569
  0
LINE
  5
1DB
100
AcDbEntity
  8
0
  6
ByLayer
 62
  256
370
   -1
100
AcDbLine
 10
3.36952
 20
-5.1569
 11
3.40015
 21
-5.25386
  0
LINE
  5
1DC
100
AcDbEntity
  8
0
  6
ByLayer
 62
  256
370
   -1
100
AcDbLine
 10
3.40015
 20
-5.25386
 11
3.42568
 21
-5.35394
  0
LINE
  5
1DD
100
AcDbEntity
  8
0
  6
ByLayer
 62
  256
370
   -1
100
AcDbLine
 10
3.42568
 20
-5.35394
 11
3.44664
 21
-5.45672
  0
LINE
  5
1DE
100
AcDbEntity
  8
0
  6
ByLayer
 62
  256
370
   -1
100
AcDbLine
 10
3.44664
 20
-5.45672
 11
3.463329999999999
 21
-5.56191
  0
LINE
  5
1DF
100
AcDbEntity
  8
0
  6
ByLayer
 62
  256
370
   -1
100
AcDbLine
 10
3.463329999999999
 20
-5.56191
 11
3.475960000000001
 21
-5.669280000000001
  0
LINE
  5
1E0
100
AcDbEntity
  8
0
  6
ByLayer
 62
  256
370
   -1
100
AcDbLine
 10
3.475960000000001
 20
-5.669280000000001
 11
3.484690000000001
 21
-5.77864
  0
LINE
  5
1E1
100
AcDbEntity
  8
0
  6
ByLayer
 62
  256
370
   -1
100
AcDbLine
 10
3.484690000000001
 20
-5.77864
 11
3.489599999999999
 21
-5.88985
  0
LINE
  5
1E2
100
AcDbEntity
  8
0
  6
ByLayer
 62
  256
370
   -1
100
AcDbLine
 10
3.489599999999999
 20
-5.88985
 11
2.94881
 21
-6.17837
  0
LINE
  5
1E3
100
AcDbEntity
  8
0
  6
ByLayer
 62
  256
370
   -1
100
AcDbLine
 10
2.94881
 20
-6.17837
 11
2.859170000000001
 21
-6.11236
  0
LINE
  5
1E4
100
AcDbEntity
  8
0
  6
ByLayer
 62
  256
370
   -1
100
AcDbLine
 10
2.859170000000001
 20
-6.11236
 11
2.77319
 21
-6.04421
  0
LINE
  5
1E5
100
AcDbEntity
  8
0
  6
ByLayer
 62
  256
370
   -1
100
AcDbLine
 10
2.77319
 20
-6.04421
 11
2.691050000000001
 21
-5.97392
  0
LINE
  5
1E6
100
AcDbEntity
  8
0
  6
ByLayer
 62
  256
370
   -1
100
AcDbLine
 10
2.691050000000001
 20
-5.97392
 11
2.61298
 21
-5.90148
  0
LINE
  5
1E7
100
AcDbEntity
  8
0
  6
ByLayer
 62
  256
370
   -1
100
AcDbLine
 10
2.61298
 20
-5.90148
 11
2.53928
 21
-5.82684
  0
LINE
  5
1E8
100
AcDbEntity
  8
0
  6
ByLayer
 62
  256
370
   -1
100
AcDbLine
 10
2.53928
 20
-5.82684
 11
2.470369999999999
 21
-5.7499
  0
LINE
  5
1E9
100
AcDbEntity
  8
0
  6
ByLayer
 62
  256
370
   -1
100
AcDbLine
 10
2.470369999999999
 20
-5.7499
 11
2.406890000000001
 21
-5.67047
  0
LINE
  5
1EA
100
AcDbEntity
  8
0
  6
ByLayer
 62
  256
370
   -1
100
AcDbLine
 10
2.406890000000001
 20
-5.67047
 11
2.35005
 21
-5.58812
  0
LINE
  5
1EB
100
AcDbEntity
  8
0
  6
ByLayer
 62
  256
370
   -1
100
AcDbLine
 10
2.35005
 20
-5.58812
 11
2.32497
 21
-5.54551
  0
LINE
  5
1EC
100
AcDbEntity
  8
0
  6
ByLayer
 62
  256
370
   -1
100
AcDbLine
 10
2.32497
 20
-5.54551
 11
2.297029999999999
 21
-5.5041
  0
LINE
  5
1ED
100
AcDbEntity
  8
0
  6
ByLayer
 62
  256
370
   -1
100
AcDbLine
 10
2.297029999999999
 20
-5.5041
 11
2.280799999999999
 21
-5.48432
  0
LINE
  5
1EE
100
AcDbEntity
  8
0
  6
ByLayer
 62
  256
370
   -1
100
AcDbLine
 10
2.280799999999999
 20
-5.48432
 11
2.2621
 21
-5.46556
  0
LINE
  5
1EF
100
AcDbEntity
  8
0
  6
ByLayer
 62
  256
370
   -1
100
AcDbLine
 10
2.2621
 20
-5.46556
 11
2.238989999999999
 21
-5.4486
  0
LINE
  5
1F0
100
AcDbEntity
  8
0
  6
ByLayer
 62
  256
370
   -1
100
AcDbLine
 10
2.238989999999999
 20
-5.4486
 11
2.192019999999999
 21
-5.44126
  0
LINE
  5
1F1
100
AcDbEntity
  8
0
  6
ByLayer
 62
  256
370
   -1
100
AcDbLine
 10
2.192019999999999
 20
-5.44126
 11
1.63837
 21
-5.63276
  0
LINE
  5
1F2
100
AcDbEntity
  8
0
  6
ByLayer
 62
  256
370
   -1
100
AcDbLine
 10
1.63837
 20
-5.63276
 11
1.605969999999999
 21
-5.66755
  0
LINE
  5
1F3
100
AcDbEntity
  8
0
  6
ByLayer
 62
  256
370
   -1
100
AcDbLine
 10
1.605969999999999
 20
-5.66755
 11
1.598279999999999
 21
-5.69517
  0
LINE
  5
1F4
100
AcDbEntity
  8
0
  6
ByLayer
 62
  256
370
   -1
100
AcDbLine
 10
1.598279999999999
 20
-5.69517
 11
1.59517
 21
-5.72148
  0
LINE
  5
1F5
100
AcDbEntity
  8
0
  6
ByLayer
 62
  256
370
   -1
100
AcDbLine
 10
1.59517
 20
-5.72148
 11
1.59463
 21
-5.74705
  0
LINE
  5
1F6
100
AcDbEntity
  8
0
  6
ByLayer
 62
  256
370
   -1
100
AcDbLine
 10
1.59463
 20
-5.74705
 11
1.598240000000001
 21
-5.79688
  0
LINE
  5
1F7
100
AcDbEntity
  8
0
  6
ByLayer
 62
  256
370
   -1
100
AcDbLine
 10
1.598240000000001
 20
-5.79688
 11
1.604850000000001
 21
-5.84587
  0
LINE
  5
1F8
100
AcDbEntity
  8
0
  6
ByLayer
 62
  256
370
   -1
100
AcDbLine
 10
1.604850000000001
 20
-5.84587
 11
1.611039999999999
 21
-5.94574
  0
LINE
  5
1F9
100
AcDbEntity
  8
0
  6
ByLayer
 62
  256
370
   -1
100
AcDbLine
 10
1.611039999999999
 20
-5.94574
 11
1.610200000000001
 21
-6.04742
  0
LINE
  5
1FA
100
AcDbEntity
  8
0
  6
ByLayer
 62
  256
370
   -1
100
AcDbLine
 10
1.610200000000001
 20
-6.04742
 11
1.60356
 21
-6.1505
  0
LINE
  5
1FB
100
AcDbEntity
  8
0
  6
ByLayer
 62
  256
370
   -1
100
AcDbLine
 10
1.60356
 20
-6.1505
 11
1.59173
 21
-6.25472
  0
LINE
  5
1FC
100
AcDbEntity
  8
0
  6
ByLayer
 62
  256
370
   -1
100
AcDbLine
 10
1.59173
 20
-6.25472
 11
1.575099999999999
 21
-6.35992
  0
LINE
  5
1FD
100
AcDbEntity
  8
0
  6
ByLayer
 62
  256
370
   -1
100
AcDbLine
 10
1.575099999999999
 20
-6.35992
 11
1.553940000000001
 21
-6.46593
  0
LINE
  5
1FE
100
AcDbEntity
  8
0
  6
ByLayer
 62
  256
370
   -1
100
AcDbLine
 10
1.553940000000001
 20
-6.46593
 11
1.52844
 21
-6.57264
  0
LINE
  5
1FF
100
AcDbEntity
  8
0
  6
ByLayer
 62
  256
370
   -1
100
AcDbLine
 10
1.52844
 20
-6.57264
 11
1.498749999999999
 21
-6.67993
  0
LINE
  5
200
100
AcDbEntity
  8
0
  6
ByLayer
 62
  256
370
   -1
100
AcDbLine
 10
1.498749999999999
 20
-6.67993
 11
0.8952599999999995
 21
-6.78721
  0
LINE
  5
201
100
AcDbEntity
  8
0
  6
ByLayer
 62
  256
370
   -1
100
AcDbLine
 10
0.8952599999999995
 20
-6.78721
 11
0.8304099999999996
 21
-6.696730000000001
  0
LINE
  5
202
100
AcDbEntity
  8
0
  6
ByLayer
 62
  256
370
   -1
100
AcDbLine
 10
0.8304099999999996
 20
-6.696730000000001
 11
0.7697000000000003
 21
-6.60535
  0
LINE
  5
203
100
AcDbEntity
  8
0
  6
ByLayer
 62
  256
370
   -1
100
AcDbLine
 10
0.7697000000000003
 20
-6.60535
 11
0.7133000000000003
 21
-6.51312
  0
LINE
  5
204
100
AcDbEntity
  8
0
  6
ByLayer
 62
  256
370
   -1
100
AcDbLine
 10
0.7133000000000003
 20
-6.51312
 11
0.6614300000000002
 21
-6.4201
  0
LINE
  5
205
100
AcDbEntity
  8
0
  6
ByLayer
 62
  256
370
   -1
100
AcDbLine
 10
0.6614300000000002
 20
-6.4201
 11
0.6144100000000003
 21
-6.32633
  0
LINE
  5
206
100
AcDbEntity
  8
0
  6
ByLayer
 62
  256
370
   -1
100
AcDbLine
 10
0.6144100000000003
 20
-6.32633
 11
0.5726399999999998
 21
-6.23187
  0
LINE
  5
207
100
AcDbEntity
  8
0
  6
ByLayer
 62
  256
370
   -1
100
AcDbLine
 10
0.5726399999999998
 20
-6.23187
 11
0.5368199999999996
 21
-6.1367
  0
LINE
  5
208
100
AcDbEntity
  8
0
  6
ByLayer
 62
  256
370
   -1
100
AcDbLine
 10
0.5368199999999996
 20
-6.1367
 11
0.5082100000000001
 21
-6.04082
  0
LINE
  5
209
100
AcDbEntity
  8
0
  6
ByLayer
 62
  256
370
   -1
100
AcDbLine
 10
0.5082100000000001
 20
-6.04082
 11
0.4975199999999997
 21
-5.99255
  0
LINE
  5
20A
100
AcDbEntity
  8
0
  6
ByLayer
 62
  256
370
   -1
100
AcDbLine
 10
0.4975199999999997
 20
-5.99255
 11
0.4837400000000001
 21
-5.94453
  0
LINE
  5
20B
100
AcDbEntity
  8
0
  6
ByLayer
 62
  256
370
   -1
100
AcDbLine
 10
0.4837400000000001
 20
-5.94453
 11
0.4744200000000003
 21
-5.92071
  0
LINE
  5
20C
100
AcDbEntity
  8
0
  6
ByLayer
 62
  256
370
   -1
100
AcDbLine
 10
0.4744200000000003
 20
-5.92071
 11
0.46244
 21
-5.89709
  0
LINE
  5
20D
100
AcDbEntity
  8
0
  6
ByLayer
 62
  256
370
   -1
100
AcDbLine
 10
0.46244
 20
-5.89709
 11
0.4456999999999995
 21
-5.87381
  0
LINE
  5
20E
100
AcDbEntity
  8
0
  6
ByLayer
 62
  256
370
   -1
100
AcDbLine
 10
0.4456999999999995
 20
-5.87381
 11
0.4032900000000001
 21
-5.85232
  0
LINE
  5
20F
100
AcDbEntity
  8
0
  6
ByLayer
 62
  256
370
   -1
100
AcDbLine
 10
0.4032900000000001
 20
-5.85232
 11
-0.1824399999999997
 21
-5.86336
  0
LINE
  5
210
100
AcDbEntity
  8
0
  6
ByLayer
 62
  256
370
   -1
100
AcDbLine
 10
-0.1824399999999997
 20
-5.86336
 11
-0.2240000000000002
 21
-5.88643
  0
LINE
  5
211
100
AcDbEntity
  8
0
  6
ByLayer
 62
  256
370
   -1
100
AcDbLine
 10
-0.2240000000000002
 20
-5.88643
 11
-0.2398499999999997
 21
-5.91033
  0
LINE
  5
212
100
AcDbEntity
  8
0
  6
ByLayer
 62
  256
370
   -1
100
AcDbLine
 10
-0.2398499999999997
 20
-5.91033
 11
-0.2509399999999999
 21
-5.93438
  0
LINE
  5
213
100
AcDbEntity
  8
0
  6
ByLayer
 62
  256
370
   -1
100
AcDbLine
 10
-0.2509399999999999
 20
-5.93438
 11
-0.2593500000000004
 21
-5.95854
  0
LINE
  5
214
100
AcDbEntity
  8
0
  6
ByLayer
 62
  256
370
   -1
100
AcDbLine
 10
-0.2593500000000004
 20
-5.95854
 11
-0.2713099999999997
 21
-6.00705
  0
LINE
  5
215
100
AcDbEntity
  8
0
  6
ByLayer
 62
  256
370
   -1
100
AcDbLine
 10
-0.2713099999999997
 20
-6.00705
 11
-0.28017
 21
-6.05568
  0
LINE
  5
216
100
AcDbEntity
  8
0
  6
ByLayer
 62
  256
370
   -1
100
AcDbLine
 10
-0.28017
 20
-6.05568
 11
-0.3051500000000003
 21
-6.15258
  0
LINE
  5
217
100
AcDbEntity
  8
0
  6
ByLayer
 62
  256
370
   -1
100
AcDbLine
 10
-0.3051500000000003
 20
-6.15258
 11
-0.3373600000000003
 21
-6.24902
  0
LINE
  5
218
100
AcDbEntity
  8
0
  6
ByLayer
 62
  256
370
   -1
100
AcDbLine
 10
-0.3373600000000003
 20
-6.24902
 11
-0.3755300000000004
 21
-6.345
  0
LINE
  5
219
100
AcDbEntity
  8
0
  6
ByLayer
 62
  256
370
   -1
100
AcDbLine
 10
-0.3755300000000004
 20
-6.345
 11
-0.41899
 21
-6.44047
  0
LINE
  5
21A
100
AcDbEntity
  8
0
  6
ByLayer
 62
  256
370
   -1
100
AcDbLine
 10
-0.41899
 20
-6.44047
 11
-0.46732
 21
-6.53537
  0
LINE
  5
21B
100
AcDbEntity
  8
0
  6
ByLayer
 62
  256
370
   -1
100
AcDbLine
 10
-0.46732
 20
-6.53537
 11
-0.5202
 21
-6.62966
  0
LINE
  5
21C
100
AcDbEntity
  8
0
  6
ByLayer
 62
  256
370
   -1
100
AcDbLine
 10
-0.5202
 20
-6.62966
 11
-0.5774299999999997
 21
-6.72327
  0
LINE
  5
21D
100
AcDbEntity
  8
0
  6
ByLayer
 62
  256
370
   -1
100
AcDbLine
 10
-0.5774299999999997
 20
-6.72327
 11
-0.6388199999999999
 21
-6.81613
  0
LINE
  5
21E
100
AcDbEntity
  8
0
  6
ByLayer
 62
  256
370
   -1
100
AcDbLine
 10
-0.6388199999999999
 20
-6.81613
 11
-1.24592
 21
-6.73167
  0
LINE
  5
21F
100
AcDbEntity
  8
0
  6
ByLayer
 62
  256
370
   -1
100
AcDbLine
 10
-1.24592
 20
-6.73167
 11
-1.27963
 21
-6.62558
  0
LINE
  5
220
100
AcDbEntity
  8
0
  6
ByLayer
 62
  256
370
   -1
100
AcDbLine
 10
-1.27963
 20
-6.62558
 11
-1.30913
 21
-6.51991
  0
LINE
  5
221
100
AcDbEntity
  8
0
  6
ByLayer
 62
  256
370
   -1
100
AcDbLine
 10
-1.30913
 20
-6.51991
 11
-1.33427
 21
-6.41476
  0
LINE
  5
222
100
AcDbEntity
  8
0
  6
ByLayer
 62
  256
370
   -1
100
AcDbLine
 10
-1.33427
 20
-6.41476
 11
-1.35486
 21
-6.31027
  0
LINE
  5
223
100
AcDbEntity
  8
0
  6
ByLayer
 62
  256
370
   -1
100
AcDbLine
 10
-1.35486
 20
-6.31027
 11
-1.37061
 21
-6.20656
  0
LINE
  5
224
100
AcDbEntity
  8
0
  6
ByLayer
 62
  256
370
   -1
100
AcDbLine
 10
-1.37061
 20
-6.20656
 11
-1.38114
 21
-6.10381
  0
LINE
  5
225
100
AcDbEntity
  8
0
  6
ByLayer
 62
  256
370
   -1
100
AcDbLine
 10
-1.38114
 20
-6.10381
 11
-1.3858
 21
-6.00224
  0
LINE
  5
226
100
AcDbEntity
  8
0
  6
ByLayer
 62
  256
370
   -1
100
AcDbLine
 10
-1.3858
 20
-6.00224
 11
-1.38338
 21
-5.90221
  0
LINE
  5
227
100
AcDbEntity
  8
0
  6
ByLayer
 62
  256
370
   -1
100
AcDbLine
 10
-1.38338
 20
-5.90221
 11
-1.37863
 21
-5.853
  0
LINE
  5
228
100
AcDbEntity
  8
0
  6
ByLayer
 62
  256
370
   -1
100
AcDbLine
 10
-1.37863
 20
-5.853
 11
-1.37689
 21
-5.80307
  0
LINE
  5
229
100
AcDbEntity
  8
0
  6
ByLayer
 62
  256
370
   -1
100
AcDbLine
 10
-1.37689
 20
-5.80307
 11
-1.37839
 21
-5.77753
  0
LINE
  5
22A
100
AcDbEntity
  8
0
  6
ByLayer
 62
  256
370
   -1
100
AcDbLine
 10
-1.37839
 20
-5.77753
 11
-1.3825
 21
-5.75136
  0
LINE
  5
22B
100
AcDbEntity
  8
0
  6
ByLayer
 62
  256
370
   -1
100
AcDbLine
 10
-1.3825
 20
-5.75136
 11
-1.39122
 21
-5.72405
  0
LINE
  5
22C
100
AcDbEntity
  8
0
  6
ByLayer
 62
  256
370
   -1
100
AcDbLine
 10
-1.39122
 20
-5.72405
 11
-1.42491
 21
-5.69051
  0
LINE
  5
22D
100
AcDbEntity
  8
0
  6
ByLayer
 62
  256
370
   -1
100
AcDbLine
 10
-1.42491
 20
-5.69051
 11
-1.98538
 21
-5.52001
  0
LINE
  5
22E
100
AcDbEntity
  8
0
  6
ByLayer
 62
  256
370
   -1
100
AcDbLine
 10
-1.98538
 20
-5.52001
 11
-2.03205
 21
-5.52911
  0
LINE
  5
22F
100
AcDbEntity
  8
0
  6
ByLayer
 62
  256
370
   -1
100
AcDbLine
 10
-2.03205
 20
-5.52911
 11
-2.0545
 21
-5.54694
  0
LINE
  5
230
100
AcDbEntity
  8
0
  6
ByLayer
 62
  256
370
   -1
100
AcDbLine
 10
-2.0545
 20
-5.54694
 11
-2.07248
 21
-5.56639
  0
LINE
  5
231
100
AcDbEntity
  8
0
  6
ByLayer
 62
  256
370
   -1
100
AcDbLine
 10
-2.07248
 20
-5.56639
 11
-2.08795
 21
-5.58676
  0
LINE
  5
232
100
AcDbEntity
  8
0
  6
ByLayer
 62
  256
370
   -1
100
AcDbLine
 10
-2.08795
 20
-5.58676
 11
-2.11431
 21
-5.6292
  0
LINE
  5
233
100
AcDbEntity
  8
0
  6
ByLayer
 62
  256
370
   -1
100
AcDbLine
 10
-2.11431
 20
-5.6292
 11
-2.13776
 21
-5.67272
  0
LINE
  5
234
100
AcDbEntity
  8
0
  6
ByLayer
 62
  256
370
   -1
100
AcDbLine
 10
-2.13776
 20
-5.67272
 11
-2.19147
 21
-5.75715
  0
LINE
  5
235
100
AcDbEntity
  8
0
  6
ByLayer
 62
  256
370
   -1
100
AcDbLine
 10
-2.19147
 20
-5.75715
 11
-2.2519
 21
-5.83892
  0
LINE
  5
236
100
AcDbEntity
  8
0
  6
ByLayer
 62
  256
370
   -1
100
AcDbLine
 10
-2.2519
 20
-5.83892
 11
-2.31786
 21
-5.91841
  0
LINE
  5
237
100
AcDbEntity
  8
0
  6
ByLayer
 62
  256
370
   -1
100
AcDbLine
 10
-2.31786
 20
-5.91841
 11
-2.3887
 21
-5.99577
  0
LINE
  5
238
100
AcDbEntity
  8
0
  6
ByLayer
 62
  256
370
   -1
100
AcDbLine
 10
-2.3887
 20
-5.99577
 11
-2.46399
 21
-6.0711
  0
LINE
  5
239
100
AcDbEntity
  8
0
  6
ByLayer
 62
  256
370
   -1
100
AcDbLine
 10
-2.46399
 20
-6.0711
 11
-2.54342
 21
-6.14443
  0
LINE
  5
23A
100
AcDbEntity
  8
0
  6
ByLayer
 62
  256
370
   -1
100
AcDbLine
 10
-2.54342
 20
-6.14443
 11
-2.62677
 21
-6.215780000000001
  0
LINE
  5
23B
100
AcDbEntity
  8
0
  6
ByLayer
 62
  256
370
   -1
100
AcDbLine
 10
-2.62677
 20
-6.215780000000001
 11
-2.71385
 21
-6.28512
  0
LINE
  5
23C
100
AcDbEntity
  8
0
  6
ByLayer
 62
  256
370
   -1
100
AcDbLine
 10
-2.71385
 20
-6.28512
 11
-3.26514
 21
-6.01719
  0
LINE
  5
23D
100
AcDbEntity
  8
0
  6
ByLayer
 62
  256
370
   -1
100
AcDbLine
 10
-3.26514
 20
-6.01719
 11
-3.26442
 21
-5.90587
  0
LINE
  5
23E
100
AcDbEntity
  8
0
  6
ByLayer
 62
  256
370
   -1
100
AcDbLine
 10
-3.26442
 20
-5.90587
 11
-3.25982
 21
-5.79626
  0
LINE
  5
23F
100
AcDbEntity
  8
0
  6
ByLayer
 62
  256
370
   -1
100
AcDbLine
 10
-3.25982
 20
-5.79626
 11
-3.25124
 21
-5.68849
  0
LINE
  5
240
100
AcDbEntity
  8
0
  6
ByLayer
 62
  256
370
   -1
100
AcDbLine
 10
-3.25124
 20
-5.68849
 11
-3.23853
 21
-5.58275
  0
LINE
  5
241
100
AcDbEntity
  8
0
  6
ByLayer
 62
  256
370
   -1
100
AcDbLine
 10
-3.23853
 20
-5.58275
 11
-3.22146
 21
-5.47925
  0
LINE
  5
242
100
AcDbEntity
  8
0
  6
ByLayer
 62
  256
370
   -1
100
AcDbLine
 10
-3.22146
 20
-5.47925
 11
-3.19972
 21
-5.37828
  0
LINE
  5
243
100
AcDbEntity
  8
0
  6
ByLayer
 62
  256
370
   -1
100
AcDbLine
 10
-3.19972
 20
-5.37828
 11
-3.17277
 21
-5.28024
  0
LINE
  5
244
100
AcDbEntity
  8
0
  6
ByLayer
 62
  256
370
   -1
100
AcDbLine
 10
-3.17277
 20
-5.28024
 11
-3.13956
 21
-5.18584
  0
LINE
  5
245
100
AcDbEntity
  8
0
  6
ByLayer
 62
  256
370
   -1
100
AcDbLine
 10
-3.13956
 20
-5.18584
 11
-3.11983
 21
-5.14052
  0
LINE
  5
246
100
AcDbEntity
  8
0
  6
ByLayer
 62
  256
370
   -1
100
AcDbLine
 10
-3.11983
 20
-5.14052
 11
-3.10275
 21
-5.09356
  0
LINE
  5
247
100
AcDbEntity
  8
0
  6
ByLayer
 62
  256
370
   -1
100
AcDbLine
 10
-3.10275
 20
-5.09356
 11
-3.09629
 21
-5.06881
  0
LINE
  5
248
100
AcDbEntity
  8
0
  6
ByLayer
 62
  256
370
   -1
100
AcDbLine
 10
-3.09629
 20
-5.06881
 11
-3.0921
 21
-5.04266
  0
LINE
  5
249
100
AcDbEntity
  8
0
  6
ByLayer
 62
  256
370
   -1
100
AcDbLine
 10
-3.0921
 20
-5.04266
 11
-3.09196
 21
-5.01399
  0
LINE
  5
24A
100
AcDbEntity
  8
0
  6
ByLayer
 62
  256
370
   -1
100
AcDbLine
 10
-3.09196
 20
-5.01399
 11
-3.11364
 21
-4.97168
  0
LINE
  5
24B
100
AcDbEntity
  8
0
  6
ByLayer
 62
  256
370
   -1
100
AcDbLine
 10
-3.11364
 20
-4.97168
 11
-3.59399
 21
-4.63633
  0
LINE
  5
24C
100
AcDbEntity
  8
0
  6
ByLayer
 62
  256
370
   -1
100
AcDbLine
 10
-3.59399
 20
-4.63633
 11
-3.64118
 21
-4.63056
  0
LINE
  5
24D
100
AcDbEntity
  8
0
  6
ByLayer
 62
  256
370
   -1
100
AcDbLine
 10
-3.64118
 20
-4.63056
 11
-3.66804
 21
-4.64058
  0
LINE
  5
24E
100
AcDbEntity
  8
0
  6
ByLayer
 62
  256
370
   -1
100
AcDbLine
 10
-3.66804
 20
-4.64058
 11
-3.69116
 21
-4.65352
  0
LINE
  5
24F
100
AcDbEntity
  8
0
  6
ByLayer
 62
  256
370
   -1
100
AcDbLine
 10
-3.69116
 20
-4.65352
 11
-3.71216
 21
-4.66812
  0
LINE
  5
250
100
AcDbEntity
  8
0
  6
ByLayer
 62
  256
370
   -1
100
AcDbLine
 10
-3.71216
 20
-4.66812
 11
-3.75035
 21
-4.70033
  0
LINE
  5
251
100
AcDbEntity
  8
0
  6
ByLayer
 62
  256
370
   -1
100
AcDbLine
 10
-3.75035
 20
-4.70033
 11
-3.7861
 21
-4.73447
  0
LINE
  5
252
100
AcDbEntity
  8
0
  6
ByLayer
 62
  256
370
   -1
100
AcDbLine
 10
-3.7861
 20
-4.73447
 11
-3.86326
 21
-4.79818
  0
LINE
  5
253
100
AcDbEntity
  8
0
  6
ByLayer
 62
  256
370
   -1
100
AcDbLine
 10
-3.86326
 20
-4.79818
 11
-3.94601
 21
-4.85727
  0
LINE
  5
254
100
AcDbEntity
  8
0
  6
ByLayer
 62
  256
370
   -1
100
AcDbLine
 10
-3.94601
 20
-4.85727
 11
-4.03331
 21
-4.91248
  0
LINE
  5
255
100
AcDbEntity
  8
0
  6
ByLayer
 62
  256
370
   -1
100
AcDbLine
 10
-4.03331
 20
-4.91248
 11
-4.12458
 21
-4.96417
  0
LINE
  5
256
100
AcDbEntity
  8
0
  6
ByLayer
 62
  256
370
   -1
100
AcDbLine
 10
-4.12458
 20
-4.96417
 11
-4.21946
 21
-5.01255
  0
LINE
  5
257
100
AcDbEntity
  8
0
  6
ByLayer
 62
  256
370
   -1
100
AcDbLine
 10
-4.21946
 20
-5.01255
 11
-4.31767
 21
-5.05774
  0
LINE
  5
258
100
AcDbEntity
  8
0
  6
ByLayer
 62
  256
370
   -1
100
AcDbLine
 10
-4.31767
 20
-5.05774
 11
-4.41899
 21
-5.09984
  0
LINE
  5
259
100
AcDbEntity
  8
0
  6
ByLayer
 62
  256
370
   -1
100
AcDbLine
 10
-4.41899
 20
-5.09984
 11
-4.52323
 21
-5.13888
  0
LINE
  5
25A
100
AcDbEntity
  8
0
  6
ByLayer
 62
  256
370
   -1
100
AcDbLine
 10
-4.52323
 20
-5.13888
 11
-4.96475
 21
-4.713710000000001
  0
LINE
  5
25B
100
AcDbEntity
  8
0
  6
ByLayer
 62
  256
370
   -1
100
AcDbLine
 10
-4.96475
 20
-4.713710000000001
 11
-4.92966
 21
-4.60806
  0
LINE
  5
25C
100
AcDbEntity
  8
0
  6
ByLayer
 62
  256
370
   -1
100
AcDbLine
 10
-4.92966
 20
-4.60806
 11
-4.89142
 21
-4.50523
  0
LINE
  5
25D
100
AcDbEntity
  8
0
  6
ByLayer
 62
  256
370
   -1
100
AcDbLine
 10
-4.89142
 20
-4.50523
 11
-4.84995
 21
-4.405390000000001
  0
LINE
  5
25E
100
AcDbEntity
  8
0
  6
ByLayer
 62
  256
370
   -1
100
AcDbLine
 10
-4.84995
 20
-4.405390000000001
 11
-4.80519
 21
-4.30875
  0
LINE
  5
25F
100
AcDbEntity
  8
0
  6
ByLayer
 62
  256
370
   -1
100
AcDbLine
 10
-4.80519
 20
-4.30875
 11
-4.75697
 21
-4.215590000000001
  0
LINE
  5
260
100
AcDbEntity
  8
0
  6
ByLayer
 62
  256
370
   -1
100
AcDbLine
 10
-4.75697
 20
-4.215590000000001
 11
-4.70509
 21
-4.12628
  0
LINE
  5
261
100
AcDbEntity
  8
0
  6
ByLayer
 62
  256
370
   -1
100
AcDbLine
 10
-4.70509
 20
-4.12628
 11
-4.64916
 21
-4.04136
  0
LINE
  5
262
100
AcDbEntity
  8
0
  6
ByLayer
 62
  256
370
   -1
100
AcDbLine
 10
-4.64916
 20
-4.04136
 11
-4.58841
 21
-3.96185
  0
LINE
  5
263
100
AcDbEntity
  8
0
  6
ByLayer
 62
  256
370
   -1
100
AcDbLine
 10
-4.58841
 20
-3.96185
 11
-4.55564
 21
-3.92484
  0
LINE
  5
264
100
AcDbEntity
  8
0
  6
ByLayer
 62
  256
370
   -1
100
AcDbLine
 10
-4.55564
 20
-3.92484
 11
-4.52489
 21
-3.88547
  0
LINE
  5
265
100
AcDbEntity
  8
0
  6
ByLayer
 62
  256
370
   -1
100
AcDbLine
 10
-4.52489
 20
-3.88547
 11
-4.51109
 21
-3.86392
  0
LINE
  5
266
100
AcDbEntity
  8
0
  6
ByLayer
 62
  256
370
   -1
100
AcDbLine
 10
-4.51109
 20
-3.86392
 11
-4.49903
 21
-3.84034
  0
LINE
  5
267
100
AcDbEntity
  8
0
  6
ByLayer
 62
  256
370
   -1
100
AcDbLine
 10
-4.49903
 20
-3.84034
 11
-4.49004
 21
-3.81312
  0
LINE
  5
268
100
AcDbEntity
  8
0
  6
ByLayer
 62
  256
370
   -1
100
AcDbLine
 10
-4.49004
 20
-3.81312
 11
-4.49758
 21
-3.76618
  0
LINE
  5
269
100
AcDbEntity
  8
0
  6
ByLayer
 62
  256
370
   -1
100
AcDbLine
 10
-4.49758
 20
-3.76618
 11
-4.85079
 21
-3.29881
  0
LINE
  5
26A
100
AcDbEntity
  8
0
  6
ByLayer
 62
  256
370
   -1
100
AcDbLine
 10
-4.85079
 20
-3.29881
 11
-4.89389
 21
-3.27874
  0
LINE
  5
26B
100
AcDbEntity
  8
0
  6
ByLayer
 62
  256
370
   -1
100
AcDbLine
 10
-4.89389
 20
-3.27874
 11
-4.92253
 21
-3.27996
  0
LINE
  5
26C
100
AcDbEntity
  8
0
  6
ByLayer
 62
  256
370
   -1
100
AcDbLine
 10
-4.92253
 20
-3.27996
 11
-4.948510000000001
 21
-3.28513
  0
LINE
  5
26D
100
AcDbEntity
  8
0
  6
ByLayer
 62
  256
370
   -1
100
AcDbLine
 10
-4.948510000000001
 20
-3.28513
 11
-4.973
 21
-3.29252
  0
LINE
  5
26E
100
AcDbEntity
  8
0
  6
ByLayer
 62
  256
370
   -1
100
AcDbLine
 10
-4.973
 20
-3.29252
 11
-5.01928
 21
-3.31136
  0
LINE
  5
26F
100
AcDbEntity
  8
0
  6
ByLayer
 62
  256
370
   -1
100
AcDbLine
 10
-5.01928
 20
-3.31136
 11
-5.06383
 21
-3.33278
  0
LINE
  5
270
100
AcDbEntity
  8
0
  6
ByLayer
 62
  256
370
   -1
100
AcDbLine
 10
-5.06383
 20
-3.33278
 11
-5.1569
 21
-3.36953
  0
LINE
  5
271
100
AcDbEntity
  8
0
  6
ByLayer
 62
  256
370
   -1
100
AcDbLine
 10
-5.1569
 20
-3.36953
 11
-5.25386
 21
-3.40015
  0
LINE
  5
272
100
AcDbEntity
  8
0
  6
ByLayer
 62
  256
370
   -1
100
AcDbLine
 10
-5.25386
 20
-3.40015
 11
-5.35394
 21
-3.42569
  0
LINE
  5
273
100
AcDbEntity
  8
0
  6
ByLayer
 62
  256
370
   -1
100
AcDbLine
 10
-5.35394
 20
-3.42569
 11
-5.45672
 21
-3.44664
  0
LINE
  5
274
100
AcDbEntity
  8
0
  6
ByLayer
 62
  256
370
   -1
100
AcDbLine
 10
-5.45672
 20
-3.44664
 11
-5.56191
 21
-3.46333
  0
LINE
  5
275
100
AcDbEntity
  8
0
  6
ByLayer
 62
  256
370
   -1
100
AcDbLine
 10
-5.56191
 20
-3.46333
 11
-5.669280000000001
 21
-3.47597
  0
LINE
  5
276
100
AcDbEntity
  8
0
  6
ByLayer
 62
  256
370
   -1
100
AcDbLine
 10
-5.669280000000001
 20
-3.47597
 11
-5.77864
 21
-3.48469
  0
LINE
  5
277
100
AcDbEntity
  8
0
  6
ByLayer
 62
  256
370
   -1
100
AcDbLine
 10
-5.77864
 20
-3.48469
 11
-5.88985
 21
-3.48961
  0
LINE
  5
278
100
AcDbEntity
  8
0
  6
ByLayer
 62
  256
370
   -1
100
AcDbLine
 10
-5.88985
 20
-3.48961
 11
-6.17837
 21
-2.94881
  0
LINE
  5
279
100
AcDbEntity
  8
0
  6
ByLayer
 62
  256
370
   -1
100
AcDbLine
 10
-6.17837
 20
-2.94881
 11
-6.11236
 21
-2.85918
  0
LINE
  5
27A
100
AcDbEntity
  8
0
  6
ByLayer
 62
  256
370
   -1
100
AcDbLine
 10
-6.11236
 20
-2.85918
 11
-6.04421
 21
-2.7732
  0
LINE
  5
27B
100
AcDbEntity
  8
0
  6
ByLayer
 62
  256
370
   -1
100
AcDbLine
 10
-6.04421
 20
-2.7732
 11
-5.97392
 21
-2.69106
  0
LINE
  5
27C
100
AcDbEntity
  8
0
  6
ByLayer
 62
  256
370
   -1
100
AcDbLine
 10
-5.97392
 20
-2.69106
 11
-5.90148
 21
-2.61298
  0
LINE
  5
27D
100
AcDbEntity
  8
0
  6
ByLayer
 62
  256
370
   -1
100
AcDbLine
 10
-5.90148
 20
-2.61298
 11
-5.82684
 21
-2.53928
  0
LINE
  5
27E
100
AcDbEntity
  8
0
  6
ByLayer
 62
  256
370
   -1
100
AcDbLine
 10
-5.82684
 20
-2.53928
 11
-5.7499
 21
-2.47037
  0
LINE
  5
27F
100
AcDbEntity
  8
0
  6
ByLayer
 62
  256
370
   -1
100
AcDbLine
 10
-5.7499
 20
-2.47037
 11
-5.67047
 21
-2.4069
  0
LINE
  5
280
100
AcDbEntity
  8
0
  6
ByLayer
 62
  256
370
   -1
100
AcDbLine
 10
-5.67047
 20
-2.4069
 11
-5.58812
 21
-2.35005
  0
LINE
  5
281
100
AcDbEntity
  8
0
  6
ByLayer
 62
  256
370
   -1
100
AcDbLine
 10
-5.58812
 20
-2.35005
 11
-5.54551
 21
-2.32498
  0
LINE
  5
282
100
AcDbEntity
  8
0
  6
ByLayer
 62
  256
370
   -1
100
AcDbLine
 10
-5.54551
 20
-2.32498
 11
-5.5041
 21
-2.29703
  0
LINE
  5
283
100
AcDbEntity
  8
0
  6
ByLayer
 62
  256
370
   -1
100
AcDbLine
 10
-5.5041
 20
-2.29703
 11
-5.48432
 21
-2.28081
  0
LINE
  5
284
100
AcDbEntity
  8
0
  6
ByLayer
 62
  256
370
   -1
100
AcDbLine
 10
-5.48432
 20
-2.28081
 11
-5.46556
 21
-2.26211
  0
LINE
  5
285
100
AcDbEntity
  8
0
  6
ByLayer
 62
  256
370
   -1
100
AcDbLine
 10
-5.46556
 20
-2.26211
 11
-5.4486
 21
-2.23899
  0
LINE
  5
286
100
AcDbEntity
  8
0
  6
ByLayer
 62
  256
370
   -1
100
AcDbLine
 10
-5.4486
 20
-2.23899
 11
-5.44126
 21
-2.19202
  0
LINE
  5
287
100
AcDbEntity
  8
0
  6
ByLayer
 62
  256
370
   -1
100
AcDbLine
 10
-5.44126
 20
-2.19202
 11
-5.63276
 21
-1.63838
  0
LINE
  5
288
100
AcDbEntity
  8
0
  6
ByLayer
 62
  256
370
   -1
100
AcDbLine
 10
-5.63276
 20
-1.63838
 11
-5.66755
 21
-1.60597
  0
LINE
  5
289
100
AcDbEntity
  8
0
  6
ByLayer
 62
  256
370
   -1
100
AcDbLine
 10
-5.66755
 20
-1.60597
 11
-5.69517
 21
-1.59828
  0
LINE
  5
28A
100
AcDbEntity
  8
0
  6
ByLayer
 62
  256
370
   -1
100
AcDbLine
 10
-5.69517
 20
-1.59828
 11
-5.72148
 21
-1.59517
  0
LINE
  5
28B
100
AcDbEntity
  8
0
  6
ByLayer
 62
  256
370
   -1
100
AcDbLine
 10
-5.72148
 20
-1.59517
 11
-5.74705
 21
-1.59463
  0
LINE
  5
28C
100
AcDbEntity
  8
0
  6
ByLayer
 62
  256
370
   -1
100
AcDbLine
 10
-5.74705
 20
-1.59463
 11
-5.79688
 21
-1.59825
  0
LINE
  5
28D
100
AcDbEntity
  8
0
  6
ByLayer
 62
  256
370
   -1
100
AcDbLine
 10
-5.79688
 20
-1.59825
 11
-5.84587
 21
-1.60486
  0
LINE
  5
28E
100
AcDbEntity
  8
0
  6
ByLayer
 62
  256
370
   -1
100
AcDbLine
 10
-5.84587
 20
-1.60486
 11
-5.94574
 21
-1.61104
  0
LINE
  5
28F
100
AcDbEntity
  8
0
  6
ByLayer
 62
  256
370
   -1
100
AcDbLine
 10
-5.94574
 20
-1.61104
 11
-6.04742
 21
-1.61021
  0
LINE
  5
290
100
AcDbEntity
  8
0
  6
ByLayer
 62
  256
370
   -1
100
AcDbLine
 10
-6.04742
 20
-1.61021
 11
-6.1505
 21
-1.60356
  0
LINE
  5
291
100
AcDbEntity
  8
0
  6
ByLayer
 62
  256
370
   -1
100
AcDbLine
 10
-6.1505
 20
-1.60356
 11
-6.25472
 21
-1.59173
  0
LINE
  5
292
100
AcDbEntity
  8
0
  6
ByLayer
 62
  256
370
   -1
100
AcDbLine
 10
-6.25472
 20
-1.59173
 11
-6.35992
 21
-1.5751
  0
LINE
  5
293
100
AcDbEntity
  8
0
  6
ByLayer
 62
  256
370
   -1
100
AcDbLine
 10
-6.35992
 20
-1.5751
 11
-6.46593
 21
-1.55394
  0
LINE
  5
294
100
AcDbEntity
  8
0
  6
ByLayer
 62
  256
370
   -1
100
AcDbLine
 10
-6.46593
 20
-1.55394
 11
-6.57264
 21
-1.52844
  0
LINE
  5
295
100
AcDbEntity
  8
0
  6
ByLayer
 62
  256
370
   -1
100
AcDbLine
 10
-6.57264
 20
-1.52844
 11
-6.67993
 21
-1.49875
  0
LINE
  5
296
100
AcDbEntity
  8
0
  6
ByLayer
 62
  256
370
   -1
100
AcDbLine
 10
-6.67993
 20
-1.49875
 11
-6.78721
 21
-0.89527
  0
LINE
  5
297
100
AcDbEntity
  8
0
  6
ByLayer
 62
  256
370
   -1
100
AcDbLine
 10
-6.78721
 20
-0.89527
 11
-6.696730000000001
 21
-0.8304200000000002
  0
LINE
  5
298
100
AcDbEntity
  8
0
  6
ByLayer
 62
  256
370
   -1
100
AcDbLine
 10
-6.696730000000001
 20
-0.8304200000000002
 11
-6.60535
 21
-0.7697099999999999
  0
LINE
  5
299
100
AcDbEntity
  8
0
  6
ByLayer
 62
  256
370
   -1
100
AcDbLine
 10
-6.60535
 20
-0.7697099999999999
 11
-6.51312
 21
-0.7133000000000003
  0
LINE
  5
29A
100
AcDbEntity
  8
0
  6
ByLayer
 62
  256
370
   -1
100
AcDbLine
 10
-6.51312
 20
-0.7133000000000003
 11
-6.4201
 21
-0.6614399999999998
  0
LINE
  5
29B
100
AcDbEntity
  8
0
  6
ByLayer
 62
  256
370
   -1
100
AcDbLine
 10
-6.4201
 20
-0.6614399999999998
 11
-6.32633
 21
-0.6144100000000003
  0
LINE
  5
29C
100
AcDbEntity
  8
0
  6
ByLayer
 62
  256
370
   -1
100
AcDbLine
 10
-6.32633
 20
-0.6144100000000003
 11
-6.23187
 21
-0.5726500000000003
  0
LINE
  5
29D
100
AcDbEntity
  8
0
  6
ByLayer
 62
  256
370
   -1
100
AcDbLine
 10
-6.23187
 20
-0.5726500000000003
 11
-6.1367
 21
-0.5368200000000005
  0
LINE
  5
29E
100
AcDbEntity
  8
0
  6
ByLayer
 62
  256
370
   -1
100
AcDbLine
 10
-6.1367
 20
-0.5368200000000005
 11
-6.04082
 21
-0.5082100000000001
  0
LINE
  5
29F
100
AcDbEntity
  8
0
  6
ByLayer
 62
  256
370
   -1
100
AcDbLine
 10
-6.04082
 20
-0.5082100000000001
 11
-5.99255
 21
-0.4975300000000002
  0
LINE
  5
2A0
100
AcDbEntity
  8
0
  6
ByLayer
 62
  256
370
   -1
100
AcDbLine
 10
-5.99255
 20
-0.4975300000000002
 11
-5.94453
 21
-0.4837499999999997
  0
LINE
  5
2A1
100
AcDbEntity
  8
0
  6
ByLayer
 62
  256
370
   -1
100
AcDbLine
 10
-5.94453
 20
-0.4837499999999997
 11
-5.92071
 21
-0.4744299999999999
  0
LINE
  5
2A2
100
AcDbEntity
  8
0
  6
ByLayer
 62
  256
370
   -1
100
AcDbLine
 10
-5.92071
 20
-0.4744299999999999
 11
-5.89709
 21
-0.46244
  0
LINE
  5
2A3
100
AcDbEntity
  8
0
  6
ByLayer
 62
  256
370
   -1
100
AcDbLine
 10
-5.89709
 20
-0.46244
 11
-5.87381
 21
-0.4457000000000004
  0
LINE
  5
2A4
100
AcDbEntity
  8
0
  6
ByLayer
 62
  256
370
   -1
100
AcDbLine
 10
-5.87381
 20
-0.4457000000000004
 11
-5.85232
 21
-0.4032999999999998
  0
LINE
  5
2A5
100
AcDbEntity
  8
0
  6
ByLayer
 62
  256
370
   -1
100
AcDbLine
 10
-5.85232
 20
-0.4032999999999998
 11
-5.86336
 21
0.1824300000000001
  0
ENDSEC
  0
SECTION
  2
OBJECTS
  0
DICTIONARY
  5
C
330
0
100
AcDbDictionary
281
    1
  3
ACAD_GROUP
350
D
  0
DICTIONARY
  5
D
330
C
100
AcDbDictionary
281
    1
  0
ENDSEC
  0
EOF
