G04 #@! TF.FileFunction,Legend,Bot*
%FSLAX46Y46*%
G04 Gerber Fmt 4.6, Leading zero omitted, Abs format (unit mm)*
G04 Created by KiCad (PCBNEW 4.0.4+dfsg1-stable) date Mon May  8 08:59:06 2017*
%MOMM*%
%LPD*%
G01*
G04 APERTURE LIST*
%ADD10C,0.150000*%
%ADD11R,2.032000X2.707640*%
%ADD12O,2.032000X2.707640*%
%ADD13C,2.032000*%
%ADD14C,2.908000*%
%ADD15R,2.908000X2.908000*%
%ADD16R,2.506980X2.032000*%
%ADD17O,2.506980X2.032000*%
%ADD18R,2.707640X2.032000*%
%ADD19O,2.707640X2.032000*%
%ADD20R,2.032000X2.032000*%
%ADD21R,3.507740X3.507740*%
%ADD22C,3.507740*%
%ADD23C,2.286000*%
%ADD24R,2.286000X2.286000*%
%ADD25O,2.032000X3.048000*%
%ADD26C,3.683000*%
%ADD27R,3.007360X1.905000*%
G04 APERTURE END LIST*
D10*
%LPC*%
D11*
X78905100Y91059000D03*
D12*
X81445100Y91059000D03*
X83985100Y91059000D03*
X86525100Y91059000D03*
D13*
X26416000Y77470000D03*
X26416000Y80010000D03*
X26416000Y87630000D03*
X26416000Y90170000D03*
X44196000Y90170000D03*
X44196000Y87630000D03*
X44196000Y80010000D03*
X44196000Y77470000D03*
X68326000Y20320000D03*
X65786000Y20320000D03*
X63246000Y20320000D03*
X60706000Y20320000D03*
X58166000Y20320000D03*
X55626000Y20320000D03*
X53086000Y20320000D03*
X50546000Y20320000D03*
X50546000Y7620000D03*
X53086000Y7620000D03*
X55626000Y7620000D03*
X58166000Y7620000D03*
X60706000Y7620000D03*
X63246000Y7620000D03*
X65786000Y7620000D03*
X68326000Y7620000D03*
D14*
X4256000Y85062000D03*
D15*
X4256000Y81562000D03*
D14*
X4256000Y74140000D03*
D15*
X4256000Y70640000D03*
D16*
X87116920Y36576000D03*
D17*
X84079080Y36576000D03*
X87116920Y39116000D03*
X84079080Y39116000D03*
X87116920Y41656000D03*
X84079080Y41656000D03*
D18*
X51054000Y87884000D03*
D19*
X51054000Y85344000D03*
D18*
X48514000Y87884000D03*
D19*
X48514000Y85344000D03*
D11*
X41650920Y13558520D03*
D12*
X44190920Y13558520D03*
D11*
X30226000Y17780000D03*
D12*
X32766000Y17780000D03*
X35306000Y17780000D03*
D11*
X35941000Y23495000D03*
D12*
X33401000Y23495000D03*
X30861000Y23495000D03*
D11*
X35306000Y13335000D03*
D12*
X32766000Y13335000D03*
D20*
X4318000Y60706000D03*
D13*
X4318000Y63246000D03*
D20*
X4318000Y52578000D03*
D13*
X4318000Y55118000D03*
X26416000Y62230000D03*
X28956000Y62230000D03*
X31496000Y62230000D03*
X34036000Y62230000D03*
X36576000Y62230000D03*
X39116000Y62230000D03*
X41656000Y62230000D03*
X44196000Y62230000D03*
X44196000Y74930000D03*
X41656000Y74930000D03*
X39116000Y74930000D03*
X36576000Y74930000D03*
X34036000Y74930000D03*
X31496000Y74930000D03*
X28956000Y74930000D03*
X26416000Y74930000D03*
D20*
X4318000Y42926000D03*
D13*
X4318000Y45466000D03*
D18*
X88646000Y74930000D03*
D19*
X88646000Y72390000D03*
X88646000Y69850000D03*
X88646000Y67310000D03*
X88646000Y64770000D03*
X88646000Y62230000D03*
D11*
X9906000Y92710000D03*
D12*
X12446000Y92710000D03*
X14986000Y92710000D03*
X17526000Y92710000D03*
D18*
X88646000Y1905000D03*
D19*
X88646000Y4445000D03*
D18*
X55626000Y23495000D03*
D20*
X4318000Y25654000D03*
D13*
X4318000Y28194000D03*
D21*
X4826000Y13970000D03*
D22*
X4826000Y19050000D03*
D21*
X4826000Y3810000D03*
D22*
X4826000Y8890000D03*
D20*
X44196000Y3175000D03*
D13*
X41656000Y3175000D03*
X39116000Y3175000D03*
X36576000Y3175000D03*
D20*
X63246000Y3175000D03*
D13*
X60706000Y3175000D03*
X58166000Y3175000D03*
X55626000Y3175000D03*
D20*
X83566000Y3175000D03*
D13*
X81026000Y3175000D03*
X78486000Y3175000D03*
X75946000Y3175000D03*
D20*
X55626000Y91541600D03*
D13*
X58166000Y91541600D03*
X60706000Y91541600D03*
X63246000Y91541600D03*
D18*
X97536000Y15240000D03*
D19*
X97536000Y17780000D03*
X97536000Y20320000D03*
X97536000Y22860000D03*
X97536000Y25400000D03*
X97536000Y27940000D03*
X97536000Y30480000D03*
X97536000Y33020000D03*
X97536000Y35560000D03*
X97536000Y38100000D03*
X97536000Y40640000D03*
X97536000Y43180000D03*
X97536000Y45720000D03*
X97536000Y48260000D03*
X97536000Y50800000D03*
X97536000Y53340000D03*
X97536000Y55880000D03*
X97536000Y58420000D03*
D16*
X78734920Y33020000D03*
D17*
X75697080Y33020000D03*
X78734920Y35560000D03*
X75697080Y35560000D03*
X78734920Y38100000D03*
X75697080Y38100000D03*
X78734920Y40640000D03*
X75697080Y40640000D03*
X78734920Y43180000D03*
X75697080Y43180000D03*
D18*
X91186000Y74930000D03*
D19*
X91186000Y72390000D03*
X91186000Y69850000D03*
X91186000Y67310000D03*
X91186000Y64770000D03*
X91186000Y62230000D03*
D20*
X66903600Y91541600D03*
D13*
X69443600Y91541600D03*
X71983600Y91541600D03*
X74523600Y91541600D03*
D20*
X32766000Y3175000D03*
D13*
X30226000Y3175000D03*
D20*
X96243140Y75869800D03*
D13*
X96243140Y73329800D03*
D18*
X89789000Y93472000D03*
D19*
X89789000Y90932000D03*
X89789000Y88392000D03*
X89789000Y85852000D03*
X89789000Y83312000D03*
X89789000Y80772000D03*
D16*
X94620080Y93472000D03*
D17*
X97657920Y93472000D03*
X94620080Y90932000D03*
X97657920Y90932000D03*
X94620080Y88392000D03*
X97657920Y88392000D03*
X94620080Y85852000D03*
X97657920Y85852000D03*
X94620080Y83312000D03*
X97657920Y83312000D03*
X94620080Y80772000D03*
X97657920Y80772000D03*
D23*
X18796000Y45974000D03*
X16256000Y45974000D03*
D24*
X21336000Y45974000D03*
D23*
X18542000Y64008000D03*
X16002000Y64008000D03*
D24*
X21082000Y64008000D03*
D23*
X18796000Y52324000D03*
X16256000Y52324000D03*
D24*
X21336000Y52324000D03*
D25*
X67056000Y58420000D03*
X69596000Y58420000D03*
X72136000Y58420000D03*
X74676000Y58420000D03*
X77216000Y58420000D03*
X79756000Y58420000D03*
X82296000Y58420000D03*
X84836000Y58420000D03*
X89916000Y10160000D03*
X87376000Y10160000D03*
X84836000Y10160000D03*
X82296000Y10160000D03*
X72136000Y10160000D03*
X67056000Y10160000D03*
X64516000Y10160000D03*
X74676000Y10160000D03*
X77216000Y10160000D03*
X79756000Y10160000D03*
X61976000Y10160000D03*
X59436000Y10160000D03*
X56896000Y10160000D03*
X49276000Y10160000D03*
X51816000Y10160000D03*
X54356000Y10160000D03*
X44196000Y10160000D03*
X41656000Y10160000D03*
X39116000Y10160000D03*
X34036000Y10160000D03*
X31496000Y10160000D03*
X61976000Y58420000D03*
X59436000Y58420000D03*
X56896000Y58420000D03*
X54356000Y58420000D03*
X51816000Y58420000D03*
X49276000Y58420000D03*
X46736000Y58420000D03*
X44196000Y58420000D03*
X40132000Y58420000D03*
X37592000Y58420000D03*
X35052000Y58420000D03*
X32512000Y58420000D03*
X29972000Y58420000D03*
X27432000Y58420000D03*
X24892000Y58420000D03*
X22352000Y58420000D03*
X36576000Y10160000D03*
D26*
X94996000Y10160000D03*
X88646000Y58420000D03*
X13716000Y58420000D03*
X12446000Y10160000D03*
D13*
X92456000Y55880000D03*
X94996000Y55880000D03*
X92456000Y53340000D03*
X94996000Y53340000D03*
X92456000Y50800000D03*
X94996000Y50800000D03*
X92456000Y48260000D03*
X94996000Y48260000D03*
X92456000Y58420000D03*
X94996000Y58420000D03*
X94996000Y45720000D03*
X92456000Y45720000D03*
X92456000Y43180000D03*
X94996000Y43180000D03*
X92456000Y40640000D03*
X94996000Y40640000D03*
X92456000Y38100000D03*
X94996000Y38100000D03*
X92456000Y35560000D03*
X94996000Y35560000D03*
X92456000Y33020000D03*
X94996000Y33020000D03*
X92456000Y30480000D03*
X94996000Y30480000D03*
X92456000Y27940000D03*
X94996000Y27940000D03*
X92456000Y25400000D03*
X94996000Y25400000D03*
X92456000Y22860000D03*
X94996000Y22860000D03*
X92456000Y20320000D03*
X94996000Y20320000D03*
X92456000Y17780000D03*
X94996000Y17780000D03*
X92456000Y15240000D03*
X94996000Y15240000D03*
D25*
X19812000Y58420000D03*
X17272000Y58420000D03*
X28956000Y10160000D03*
X26416000Y10160000D03*
D27*
X91747340Y924560D03*
X91747340Y5425440D03*
X98247200Y924560D03*
X98247200Y5425440D03*
D23*
X24511000Y24765000D03*
X27051000Y24765000D03*
D24*
X21971000Y24765000D03*
D13*
X48006000Y20320000D03*
X45466000Y20320000D03*
X42926000Y20320000D03*
X40386000Y20320000D03*
X37846000Y20320000D03*
X35306000Y20320000D03*
X32766000Y20320000D03*
X30226000Y20320000D03*
X30226000Y7620000D03*
X32766000Y7620000D03*
X35306000Y7620000D03*
X37846000Y7620000D03*
X40386000Y7620000D03*
X42926000Y7620000D03*
X45466000Y7620000D03*
X48006000Y7620000D03*
X88646000Y20320000D03*
X86106000Y20320000D03*
X83566000Y20320000D03*
X81026000Y20320000D03*
X78486000Y20320000D03*
X75946000Y20320000D03*
X73406000Y20320000D03*
X70866000Y20320000D03*
X70866000Y7620000D03*
X73406000Y7620000D03*
X75946000Y7620000D03*
X78486000Y7620000D03*
X81026000Y7620000D03*
X83566000Y7620000D03*
X86106000Y7620000D03*
X88646000Y7620000D03*
X46736000Y62230000D03*
X49276000Y62230000D03*
X51816000Y62230000D03*
X54356000Y62230000D03*
X56896000Y62230000D03*
X59436000Y62230000D03*
X61976000Y62230000D03*
X64516000Y62230000D03*
X64516000Y74930000D03*
X61976000Y74930000D03*
X59436000Y74930000D03*
X56896000Y74930000D03*
X54356000Y74930000D03*
X51816000Y74930000D03*
X49276000Y74930000D03*
X46736000Y74930000D03*
X67056000Y62484000D03*
X69596000Y62484000D03*
X72136000Y62484000D03*
X74676000Y62484000D03*
X77216000Y62484000D03*
X79756000Y62484000D03*
X82296000Y62484000D03*
X84836000Y62484000D03*
X84836000Y75184000D03*
X82296000Y75184000D03*
X79756000Y75184000D03*
X77216000Y75184000D03*
X74676000Y75184000D03*
X72136000Y75184000D03*
X69596000Y75184000D03*
X67056000Y75184000D03*
X23876000Y10414000D03*
X23876000Y20414000D03*
X16002000Y10414000D03*
X16002000Y20414000D03*
M02*
