M48
;DRILL file {KiCad 4.0.4+dfsg1-stable} date Mon May  8 08:59:13 2017
;FORMAT={-:-/ absolute / inch / decimal}
FMAT,2
INCH,TZ
T1C0.012
T2C0.020
T3C0.030
T4C0.032
T5C0.039
T6C0.040
T7C0.047
T8C0.055
T9C0.125
%
G90
G05
M72
T1
X2.12Y-3.27
X2.25Y-3.35
X2.447Y-1.731
X2.52Y-2.82
X2.59Y-3.32
X2.67Y-2.59
X2.72Y-2.4
X2.8Y-2.39
X2.95Y-2.92
X2.96Y-2.77
X2.991Y-2.5189
X2.9918Y-2.7818
X3.01Y-2.65
X3.02Y-2.72
X3.05Y-2.47
X3.0813Y-2.4596
X3.12Y-2.92
X3.35Y-3.99
X3.41Y-4.455
X3.413Y-5.156
X3.5697Y-3.812
X3.57Y-2.91
X3.57Y-4.245
X3.5985Y-4.4301
X3.6295Y-1.5845
X3.6394Y-3.625
X3.64Y-2.06
X3.6845Y-3.75
X3.6967Y-4.1548
X3.7Y-3.87
X3.7135Y-3.975
X3.723Y-4.556
X3.728Y-3.48
X3.76Y-4.054
X3.795Y-4.26
X3.8175Y-3.8575
X3.8175Y-3.9475
X3.819Y-3.812
X3.84Y-2.74
X3.85Y-3.233
X3.85Y-3.72
X3.8812Y-3.9101
X3.896Y-4.457
X3.9Y-2.06
X3.95Y-2.73
X3.95Y-3.125
X4.015Y-3.755
X4.035Y-5.225
X4.05Y-2.82
X4.085Y-4.37
X4.109Y-5.031
X4.15Y-2.8
X4.2083Y-4.7
X4.24Y-3.1
X4.45Y-4.3
X4.53Y-3.86
X4.57Y-3.225
X4.65Y-4.3
X4.67Y-3.3767
X4.7417Y-4.2622
X4.75Y-3.12
X4.78Y-3.755
X4.8045Y-4.2337
X4.81Y-3.725
X4.83Y-2.7157
X4.841Y-3.71
X4.8415Y-2.7785
X4.8677Y-2.7523
X4.89Y-3.86
X4.8979Y-4.5614
X4.94Y-2.395
X4.95Y-3.225
X4.96Y-3.4675
X4.9961Y-4.6024
X5.056Y-2.4197
X5.067Y-4.6278
X5.09Y-3.4455
X5.0923Y-2.6323
X5.103Y-4.614
X5.15Y-2.66
X5.15Y-2.735
X5.15Y-4.0548
X5.152Y-2.466
X5.156Y-2.578
X5.1567Y-2.2443
X5.174Y-2.44
X5.186Y-4.079
X5.2075Y-3.94
X5.2174Y-4.45
X5.23Y-2.423
X5.2359Y-3.2124
X5.242Y-2.928
X5.25Y-2.16
X5.25Y-4.3
X5.258Y-3.581
X5.265Y-2.575
X5.275Y-3.255
X5.284Y-3.551
X5.295Y-2.595
X5.335Y-4.06
X5.344Y-3.314
X5.3495Y-2.5772
X5.35Y-2.145
X5.36Y-2.92
X5.381Y-3.315
X5.3965Y-3.4211
X5.4Y-3.5
X5.4036Y-2.7356
X5.4265Y-2.5
X5.44Y-3.395
X5.45Y-4.3
X5.4774Y-2.7747
X5.512Y-4.094
X5.514Y-4.214
X5.5208Y-3.3283
X5.527Y-4.33
X5.5347Y-3.54
X5.547Y-4.13
X5.61Y-4.585
X5.6183Y-4.1526
X5.717Y-2.293
X5.736Y-2.695
X5.873Y-2.912
X5.944Y-2.928
T2
X2.875Y-1.7125
X3.48Y-3.28
X3.52Y-2.43
X4.085Y-4.37
X4.1333Y-2.55
X4.28Y-2.48
X4.59Y-3.14
X4.7Y-2.22
X4.9698Y-2.4905
X5.16Y-1.98
X5.32Y-4.67
X5.42Y-1.97
X5.925Y-4.823
T3
X2.69Y-4.4963
X2.69Y-4.89
X3.Y-4.4963
X3.Y-4.89
T4
X3.1Y-1.75
X3.1Y-1.85
X3.1Y-2.15
X3.1Y-2.25
X3.1Y-2.35
X3.1Y-2.85
X3.2Y-2.35
X3.2Y-2.85
X3.25Y-4.5
X3.25Y-5.
X3.3Y-2.35
X3.3Y-2.85
X3.35Y-4.5
X3.35Y-5.
X3.4Y-2.35
X3.4Y-2.85
X3.45Y-4.5
X3.45Y-5.
X3.5Y-2.35
X3.5Y-2.85
X3.55Y-4.5
X3.55Y-5.
X3.6Y-2.35
X3.6Y-2.85
X3.65Y-4.5
X3.65Y-5.
X3.7Y-2.35
X3.7Y-2.85
X3.75Y-4.5
X3.75Y-5.
X3.8Y-1.75
X3.8Y-1.85
X3.8Y-2.15
X3.8Y-2.25
X3.8Y-2.35
X3.8Y-2.85
X3.85Y-4.5
X3.85Y-5.
X3.9Y-2.35
X3.9Y-2.85
X3.95Y-4.5
X3.95Y-5.
X4.Y-2.35
X4.Y-2.85
X4.05Y-4.5
X4.05Y-5.
X4.1Y-2.35
X4.1Y-2.85
X4.15Y-4.5
X4.15Y-5.
X4.2Y-2.35
X4.2Y-2.85
X4.25Y-4.5
X4.25Y-5.
X4.3Y-2.35
X4.3Y-2.85
X4.35Y-4.5
X4.35Y-5.
X4.4Y-2.35
X4.4Y-2.85
X4.45Y-4.5
X4.45Y-5.
X4.5Y-2.35
X4.5Y-2.85
X4.55Y-4.5
X4.55Y-5.
X4.6Y-2.35
X4.6Y-2.85
X4.65Y-4.5
X4.65Y-5.
X4.7Y-2.34
X4.7Y-2.84
X4.75Y-4.5
X4.75Y-5.
X4.8Y-2.34
X4.8Y-2.84
X4.85Y-4.5
X4.85Y-5.
X4.9Y-2.34
X4.9Y-2.84
X4.95Y-4.5
X4.95Y-5.
X5.Y-2.34
X5.Y-2.84
X5.05Y-4.5
X5.05Y-5.
X5.1Y-2.34
X5.1Y-2.84
X5.15Y-4.5
X5.15Y-5.
X5.2Y-2.34
X5.2Y-2.84
X5.25Y-4.5
X5.25Y-5.
X5.3Y-2.34
X5.3Y-2.84
X5.35Y-4.5
X5.35Y-5.
X5.4Y-2.34
X5.4Y-2.84
X5.45Y-4.5
X5.45Y-5.
X5.55Y-4.5
X5.55Y-5.
T5
X2.45Y-1.65
X2.55Y-1.65
X2.65Y-1.65
X2.75Y-1.65
X3.25Y-4.6
X3.275Y-4.375
X3.35Y-4.6
X3.35Y-4.775
X3.375Y-4.375
X3.45Y-4.6
X3.45Y-4.775
X3.475Y-4.375
X3.6998Y-4.7662
X3.7998Y-4.7662
X3.97Y-1.84
X3.97Y-1.94
X4.07Y-1.84
X4.07Y-1.94
X4.25Y-4.375
X5.05Y-3.6
X5.05Y-3.7
X5.05Y-3.8
X5.05Y-3.9
X5.05Y-4.
X5.15Y-3.6
X5.15Y-3.7
X5.15Y-3.8
X5.15Y-3.9
X5.15Y-4.
X5.1665Y-1.715
X5.2665Y-1.715
X5.3665Y-1.715
X5.38Y-3.66
X5.38Y-3.76
X5.38Y-3.86
X5.4665Y-1.715
X5.48Y-3.66
X5.48Y-3.76
X5.48Y-3.86
X5.55Y-2.35
X5.55Y-2.45
X5.55Y-2.55
X5.55Y-2.65
X5.55Y-2.75
X5.55Y-2.85
X5.55Y-5.125
X5.55Y-5.225
X5.595Y-1.62
X5.595Y-1.72
X5.595Y-1.82
X5.595Y-1.92
X5.595Y-2.02
X5.595Y-2.12
X5.65Y-2.35
X5.65Y-2.45
X5.65Y-2.55
X5.65Y-2.65
X5.65Y-2.75
X5.65Y-2.85
X5.6721Y-5.0864
X5.6721Y-5.2636
X5.795Y-1.62
X5.795Y-1.72
X5.795Y-1.82
X5.795Y-1.92
X5.795Y-2.02
X5.795Y-2.12
X5.895Y-1.62
X5.895Y-1.72
X5.895Y-1.82
X5.895Y-1.92
X5.895Y-2.02
X5.895Y-2.12
X5.9Y-3.
X5.9Y-3.1
X5.9Y-3.2
X5.9Y-3.3
X5.9Y-3.4
X5.9Y-3.5
X5.9Y-3.6
X5.9Y-3.7
X5.9Y-3.8
X5.9Y-3.9
X5.9Y-4.
X5.9Y-4.1
X5.9Y-4.2
X5.9Y-4.3
X5.9Y-4.4
X5.9Y-4.5
X5.9Y-4.6
X5.9Y-4.7
X5.928Y-5.0864
X5.928Y-5.2636
T6
X2.23Y-2.81
X2.23Y-2.91
X2.23Y-3.13
X2.23Y-3.23
X2.23Y-3.51
X2.23Y-3.61
X2.23Y-4.19
X2.23Y-4.29
X2.33Y-2.78
X2.35Y-3.41
X2.5209Y-3.76
X2.55Y-2.59
X2.69Y-2.78
X2.7Y-3.24
X2.7Y-3.49
X2.74Y-3.
X2.79Y-2.78
X2.8Y-3.24
X2.8Y-3.49
X2.84Y-3.
X2.85Y-3.39
X2.89Y-2.78
X2.9Y-3.24
X2.9Y-3.49
X2.925Y-4.325
X2.94Y-3.
X3.025Y-4.325
X3.04Y-3.
X3.1Y-4.9
X3.125Y-4.325
X3.14Y-3.
X3.14Y-5.25
X3.2Y-4.9
X3.24Y-3.
X3.25Y-5.175
X3.27Y-2.666
X3.3Y-4.9
X3.34Y-3.
X3.35Y-5.175
X3.4Y-4.9
X3.44Y-3.
X3.5Y-4.9
X3.5Y-5.175
X3.54Y-3.
X3.6Y-4.9
X3.6Y-5.175
X3.64Y-3.
X3.7Y-4.9
X3.7Y-5.175
X3.8Y-3.
X3.8Y-4.9
X3.8Y-5.175
X3.9Y-3.
X4.Y-3.
X4.Y-4.9
X4.1Y-3.
X4.1Y-4.9
X4.2Y-3.
X4.2Y-4.9
X4.25Y-1.696
X4.25Y-5.175
X4.3Y-3.
X4.3Y-4.9
X4.35Y-1.696
X4.35Y-5.175
X4.4Y-3.
X4.4Y-4.9
X4.45Y-1.696
X4.45Y-5.175
X4.5Y-3.
X4.5Y-4.9
X4.55Y-1.696
X4.55Y-5.175
X4.6Y-4.9
X4.694Y-1.696
X4.7Y-3.
X4.7Y-4.9
X4.794Y-1.696
X4.8Y-3.
X4.894Y-1.696
X4.9Y-3.
X4.9Y-4.9
X4.994Y-1.696
X5.Y-3.
X5.Y-4.9
X5.05Y-5.175
X5.1Y-3.
X5.1Y-4.9
X5.15Y-5.175
X5.2Y-3.
X5.2Y-4.9
X5.25Y-5.175
X5.3Y-3.
X5.3Y-4.9
X5.35Y-5.175
X5.4Y-3.
X5.4Y-4.9
X5.5Y-4.9
X5.6Y-4.9
X5.7Y-3.
X5.7Y-3.1
X5.7Y-3.2
X5.7Y-3.3
X5.7Y-3.4
X5.7Y-3.5
X5.7Y-3.6
X5.7Y-3.7
X5.7Y-3.8
X5.7Y-3.9
X5.7Y-4.
X5.7Y-4.1
X5.7Y-4.2
X5.7Y-4.3
X5.7Y-4.4
X5.7Y-4.5
X5.7Y-4.6
X5.7Y-4.7
X5.8Y-3.
X5.8Y-3.1
X5.8Y-3.2
X5.8Y-3.3
X5.8Y-3.4
X5.8Y-3.5
X5.8Y-3.6
X5.8Y-3.7
X5.8Y-3.8
X5.8Y-3.9
X5.8Y-4.
X5.8Y-4.1
X5.8Y-4.2
X5.8Y-4.3
X5.8Y-4.4
X5.8Y-4.5
X5.8Y-4.6
X5.8Y-4.7
X5.8491Y-2.313
X5.8491Y-2.413
T7
X2.2276Y-1.9511
X2.2276Y-2.0889
X2.2276Y-2.3811
X2.2276Y-2.5189
T8
X2.25Y-4.55
X2.25Y-4.75
X2.25Y-4.95
X2.25Y-5.15
T9
X2.55Y-4.9
X2.6Y-3.
X5.55Y-3.
X5.8Y-4.9
T0
M30
