M48
;DRILL file {KiCad 4.0.4+dfsg1-stable} date Tue Oct 10 12:55:28 2017
;FORMAT={-:-/ absolute / metric / decimal}
FMAT,2
METRIC,TZ
T1C0.400
T2C0.508
T3C0.762
T4C0.813
T5C1.001
T6C1.016
T7C1.250
T8C1.270
T9C3.175
%
G90
G05
M71
T1
X64.5Y-48.25
X70.5Y-68.836
X71.75Y-60.
X76.75Y-70.864
X81.025Y-43.275
X81.025Y-49.2
X85.09Y-101.346
X86.69Y-130.962
X87.75Y-51.075
X89.6Y-69.75
X90.424Y-94.234
X90.678Y-107.823
X91.25Y-53.25
X92.189Y-40.246
X92.441Y-92.075
X93.451Y-104.899
X93.9Y-94.75
X94.082Y-98.044
X94.323Y-100.965
X94.475Y-49.
X95.175Y-109.125
X95.4Y-88.
X96.266Y-96.266
X96.266Y-98.044
X96.7Y-102.972
X96.774Y-100.267
X97.7Y-93.7
X98.325Y-100.65
X98.5Y-89.5
X98.9Y-51.5
X100.33Y-69.342
X100.33Y-79.375
X101.981Y-95.377
X102.489Y-132.715
X102.687Y-122.916
X102.925Y-71.075
X103.759Y-110.998
X104.3Y-121.075
X105.25Y-118.
X105.41Y-71.12
X107.696Y-78.74
X110.176Y-106.1
X110.3Y-110.8
X110.75Y-121.425
X113.03Y-109.22
X115.062Y-98.044
X118.5Y-74.5
X120.44Y-108.26
X120.65Y-79.248
X121.7Y-112.4
X122.035Y-107.537
X122.961Y-94.234
X124.Y-82.75
X125.25Y-90.25
X125.8Y-70.
X125.9Y-65.532
X126.1Y-73.4
X126.1Y-96.7
X126.2Y-117.7
X126.5Y-89.25
X127.Y-61.275
X128.3Y-67.4
X128.525Y-117.8
X129.225Y-116.85
X129.9Y-67.1
X130.5Y-62.2
X130.8Y-54.15
X130.81Y-69.469
X131.15Y-60.875
X132.1Y-65.8
X132.1Y-74.277
X132.521Y-113.03
X132.525Y-81.575
X133.35Y-109.22
X133.5Y-55.9
X133.775Y-93.525
X134.Y-84.375
X135.1Y-45.025
X135.25Y-93.425
X135.509Y-103.124
X135.89Y-54.483
X136.35Y-66.
X136.775Y-84.375
X136.95Y-68.825
X137.65Y-64.75
X138.43Y-109.22
X139.21Y-59.7
X139.65Y-68.625
X140.005Y-103.988
X140.4Y-107.5
X140.4Y-109.4
X141.4Y-104.7
X142.3Y-71.2
X142.888Y-105.188
X144.8Y-71.1
X146.418Y-59.449
X147.925Y-71.4
T2
X53.175Y-68.175
X75.5Y-43.7
X78.925Y-100.925
X86.75Y-62.25
X88.392Y-83.312
X99.3Y-83.1
X103.759Y-110.998
X104.986Y-64.77
X116.586Y-79.756
X119.38Y-56.388
X124.2Y-100.7
X126.232Y-63.258
X131.064Y-50.292
X135.128Y-118.618
X136.906Y-49.276
X150.495Y-122.504
T3
X68.1Y-114.23
X68.1Y-124.23
X74.9Y-114.23
X74.9Y-124.23
T4
X78.74Y-44.196
X78.74Y-46.736
X78.74Y-54.356
X78.74Y-56.896
X78.74Y-59.436
X78.74Y-72.136
X81.28Y-59.436
X81.28Y-72.136
X82.55Y-114.3
X82.55Y-127.
X83.82Y-59.436
X83.82Y-72.136
X85.09Y-114.3
X85.09Y-127.
X86.36Y-59.436
X86.36Y-72.136
X87.63Y-114.3
X87.63Y-127.
X88.9Y-59.436
X88.9Y-72.136
X90.17Y-114.3
X90.17Y-127.
X91.44Y-59.436
X91.44Y-72.136
X92.71Y-114.3
X92.71Y-127.
X93.98Y-59.436
X93.98Y-72.136
X95.25Y-114.3
X95.25Y-127.
X96.52Y-44.196
X96.52Y-46.736
X96.52Y-54.356
X96.52Y-56.896
X96.52Y-59.436
X96.52Y-72.136
X97.79Y-114.3
X97.79Y-127.
X99.06Y-59.436
X99.06Y-72.136
X100.33Y-114.3
X100.33Y-127.
X101.6Y-59.436
X101.6Y-72.136
X102.87Y-114.3
X102.87Y-127.
X104.14Y-59.436
X104.14Y-72.136
X105.41Y-114.3
X105.41Y-127.
X106.68Y-59.436
X106.68Y-72.136
X107.95Y-114.3
X107.95Y-127.
X109.22Y-59.436
X109.22Y-72.136
X110.49Y-114.3
X110.49Y-127.
X111.76Y-59.436
X111.76Y-72.136
X113.03Y-114.3
X113.03Y-127.
X114.3Y-59.436
X114.3Y-72.136
X115.57Y-114.3
X115.57Y-127.
X116.84Y-59.436
X116.84Y-72.136
X118.11Y-114.3
X118.11Y-127.
X119.38Y-59.436
X119.38Y-72.136
X120.65Y-114.3
X120.65Y-127.
X121.92Y-59.436
X121.92Y-72.136
X123.19Y-114.3
X123.19Y-127.
X124.46Y-59.436
X124.46Y-72.136
X125.73Y-114.3
X125.73Y-127.
X127.Y-59.436
X127.Y-72.136
X128.27Y-114.3
X128.27Y-127.
X129.54Y-59.436
X129.54Y-72.136
X130.81Y-114.3
X130.81Y-127.
X132.08Y-59.436
X132.08Y-72.136
X133.35Y-114.3
X133.35Y-127.
X134.62Y-59.436
X134.62Y-72.136
X135.89Y-114.3
X135.89Y-127.
X137.16Y-59.436
X137.16Y-72.136
X138.43Y-114.3
X138.43Y-127.
X140.97Y-114.3
X140.97Y-127.
T5
X62.23Y-41.91
X63.25Y-114.23
X63.25Y-116.77
X64.77Y-41.91
X67.31Y-41.91
X68.1Y-95.45
X68.125Y-80.765
X69.85Y-41.91
X79.5Y-108.25
X79.5Y-110.79
X100.15Y-47.605
X100.15Y-50.145
X102.95Y-47.605
X102.95Y-50.145
X107.95Y-111.125
X128.27Y-91.44
X128.27Y-93.98
X128.27Y-96.52
X128.27Y-99.06
X128.27Y-101.6
X130.81Y-91.44
X130.81Y-93.98
X130.81Y-96.52
X130.81Y-99.06
X130.81Y-101.6
X131.229Y-43.561
X133.769Y-43.561
X136.309Y-43.561
X137.25Y-88.75
X137.25Y-91.29
X137.25Y-93.83
X137.25Y-96.37
X137.25Y-98.91
X137.25Y-101.45
X138.849Y-43.561
X139.79Y-88.75
X139.79Y-91.29
X139.79Y-93.83
X139.79Y-96.37
X139.79Y-98.91
X139.79Y-101.45
X140.97Y-59.69
X140.97Y-62.23
X140.97Y-64.77
X140.97Y-67.31
X140.97Y-69.85
X140.97Y-72.39
X140.97Y-130.175
X140.97Y-132.715
X142.113Y-41.148
X142.113Y-43.688
X142.113Y-46.228
X142.113Y-48.768
X142.113Y-51.308
X142.113Y-53.848
X143.51Y-59.69
X143.51Y-62.23
X143.51Y-64.77
X143.51Y-67.31
X143.51Y-69.85
X143.51Y-72.39
X144.071Y-129.195
X144.071Y-133.695
X147.193Y-41.148
X147.193Y-43.688
X147.193Y-46.228
X147.193Y-48.768
X147.193Y-51.308
X147.193Y-53.848
X149.733Y-41.148
X149.733Y-43.688
X149.733Y-46.228
X149.733Y-48.768
X149.733Y-51.308
X149.733Y-53.848
X149.86Y-76.2
X149.86Y-78.74
X149.86Y-81.28
X149.86Y-83.82
X149.86Y-86.36
X149.86Y-88.9
X149.86Y-91.44
X149.86Y-93.98
X149.86Y-96.52
X149.86Y-99.06
X149.86Y-101.6
X149.86Y-104.14
X149.86Y-106.68
X149.86Y-109.22
X149.86Y-111.76
X149.86Y-114.3
X149.86Y-116.84
X149.86Y-119.38
X150.571Y-129.195
X150.571Y-133.695
T6
X68.2Y-50.45
X68.21Y-64.3
X69.596Y-76.2
X70.74Y-50.45
X70.75Y-64.3
X72.136Y-76.2
X72.87Y-82.45
X72.87Y-89.4
X73.28Y-50.45
X73.29Y-64.3
X74.676Y-76.2
X75.41Y-82.45
X75.41Y-89.4
X77.216Y-76.2
X77.95Y-82.45
X77.95Y-89.4
X78.74Y-124.46
X79.756Y-76.2
X81.28Y-124.46
X82.164Y-66.924
X82.296Y-76.2
X82.55Y-131.445
X83.82Y-124.46
X84.836Y-76.2
X85.09Y-131.445
X86.36Y-124.46
X87.376Y-76.2
X88.9Y-124.46
X88.9Y-131.445
X89.916Y-76.2
X91.44Y-124.46
X91.44Y-131.445
X92.456Y-76.2
X93.975Y-119.38
X93.98Y-124.46
X93.98Y-131.445
X96.52Y-76.2
X96.52Y-124.46
X96.52Y-131.445
X99.06Y-76.2
X101.6Y-76.2
X101.6Y-124.46
X104.14Y-76.2
X104.14Y-124.46
X106.68Y-76.2
X106.68Y-124.46
X107.95Y-43.078
X107.95Y-131.445
X109.22Y-76.2
X109.22Y-124.46
X110.49Y-43.078
X110.49Y-131.445
X111.76Y-76.2
X111.76Y-124.46
X113.03Y-43.078
X113.03Y-131.445
X114.3Y-76.2
X114.3Y-124.46
X115.57Y-43.078
X115.57Y-131.445
X116.84Y-124.46
X119.228Y-43.078
X119.38Y-76.2
X119.38Y-124.46
X121.768Y-43.078
X121.92Y-76.2
X124.308Y-43.078
X124.46Y-76.2
X124.46Y-124.46
X126.848Y-43.078
X127.Y-76.2
X127.Y-124.46
X128.27Y-131.445
X129.54Y-76.2
X129.54Y-124.46
X130.81Y-131.445
X132.08Y-76.2
X132.08Y-124.46
X133.35Y-131.445
X134.62Y-76.2
X134.62Y-124.46
X135.89Y-131.445
X137.16Y-76.2
X137.16Y-124.46
X139.7Y-124.46
X142.24Y-124.46
X144.78Y-76.2
X144.78Y-78.74
X144.78Y-81.28
X144.78Y-83.82
X144.78Y-86.36
X144.78Y-88.9
X144.78Y-91.44
X144.78Y-93.98
X144.78Y-96.52
X144.78Y-99.06
X144.78Y-101.6
X144.78Y-104.14
X144.78Y-106.68
X144.78Y-109.22
X144.78Y-111.76
X144.78Y-114.3
X144.78Y-116.84
X144.78Y-119.38
X147.32Y-76.2
X147.32Y-78.74
X147.32Y-81.28
X147.32Y-83.82
X147.32Y-86.36
X147.32Y-88.9
X147.32Y-91.44
X147.32Y-93.98
X147.32Y-96.52
X147.32Y-99.06
X147.32Y-101.6
X147.32Y-104.14
X147.32Y-106.68
X147.32Y-109.22
X147.32Y-111.76
X147.32Y-114.3
X147.32Y-116.84
X147.32Y-119.38
X148.567Y-58.75
X148.567Y-61.29
T7
X57.Y-115.46
X57.Y-120.54
X57.Y-125.96
X57.Y-131.04
X57.5Y-47.7
X57.5Y-52.78
X57.5Y-58.26
X57.5Y-63.34
X57.5Y-69.46
X57.5Y-74.54
X57.5Y-79.96
X57.5Y-85.04
X57.5Y-90.46
X57.5Y-95.54
X57.5Y-100.96
X57.5Y-106.04
T8
X68.1Y-105.61
X68.125Y-90.925
T9
X64.77Y-124.46
X66.04Y-76.2
X140.97Y-76.2
X147.32Y-124.46
T0
M30
