%FSLAX45Y45*%
G04 Gerber Fmt 4.5, Leading zero omitted, Abs format (unit mm)*
G04 Created by KiCad (PCBNEW 4.0.4+dfsg1-stable) date Tue Oct 10 12:55:21 2017*
%MOMM*%
%LPD*%
G01*
G04 APERTURE LIST*
%ADD10C,0.127000*%
%ADD11C,0.381000*%
%ADD12C,0.200000*%
%ADD13C,0.300000*%
G04 APERTURE END LIST*
D10*
D11*
X5232400Y-3962000D02*
X15240000Y-3962000D01*
X5232400Y-13462000D02*
X15240000Y-13462000D01*
X5232400Y-3962000D02*
X5232400Y-13462000D01*
X15240000Y-3962000D02*
X15240000Y-13462000D01*
D12*
X6430000Y-4805000D02*
X6470000Y-4845000D01*
X6470000Y-4805000D02*
X6430000Y-4845000D01*
X7030000Y-6863630D02*
X7070000Y-6903630D01*
X7070000Y-6863630D02*
X7030000Y-6903630D01*
X7155000Y-5980000D02*
X7195000Y-6020000D01*
X7195000Y-5980000D02*
X7155000Y-6020000D01*
X7655000Y-7066350D02*
X7695000Y-7106350D01*
X7695000Y-7066350D02*
X7655000Y-7106350D01*
X8082500Y-4307500D02*
X8122500Y-4347500D01*
X8122500Y-4307500D02*
X8082500Y-4347500D01*
X8082500Y-4900000D02*
X8122500Y-4940000D01*
X8122500Y-4900000D02*
X8082500Y-4940000D01*
X8489000Y-10114600D02*
X8529000Y-10154600D01*
X8529000Y-10114600D02*
X8489000Y-10154600D01*
X8649020Y-13076240D02*
X8689020Y-13116240D01*
X8689020Y-13076240D02*
X8649020Y-13116240D01*
X8755000Y-5087500D02*
X8795000Y-5127500D01*
X8795000Y-5087500D02*
X8755000Y-5127500D01*
X8940000Y-6955000D02*
X8980000Y-6995000D01*
X8980000Y-6955000D02*
X8940000Y-6995000D01*
X9022400Y-9403400D02*
X9062400Y-9443400D01*
X9062400Y-9403400D02*
X9022400Y-9443400D01*
X9047800Y-10762300D02*
X9087800Y-10802300D01*
X9087800Y-10762300D02*
X9047800Y-10802300D01*
X9105000Y-5305000D02*
X9145000Y-5345000D01*
X9145000Y-5305000D02*
X9105000Y-5345000D01*
X9198930Y-4004630D02*
X9238930Y-4044630D01*
X9238930Y-4004630D02*
X9198930Y-4044630D01*
X9224076Y-9187500D02*
X9264076Y-9227500D01*
X9264076Y-9187500D02*
X9224076Y-9227500D01*
X9325093Y-10469908D02*
X9365093Y-10509908D01*
X9365093Y-10469908D02*
X9325093Y-10509908D01*
X9370000Y-9455000D02*
X9410000Y-9495000D01*
X9410000Y-9455000D02*
X9370000Y-9495000D01*
X9388160Y-9784400D02*
X9428160Y-9824400D01*
X9428160Y-9784400D02*
X9388160Y-9824400D01*
X9412290Y-10076500D02*
X9452290Y-10116500D01*
X9452290Y-10076500D02*
X9412290Y-10116500D01*
X9427500Y-4880000D02*
X9467500Y-4920000D01*
X9467500Y-4880000D02*
X9427500Y-4920000D01*
X9497500Y-10892500D02*
X9537500Y-10932500D01*
X9537500Y-10892500D02*
X9497500Y-10932500D01*
X9520000Y-8780000D02*
X9560000Y-8820000D01*
X9560000Y-8780000D02*
X9520000Y-8820000D01*
X9606600Y-9606600D02*
X9646600Y-9646600D01*
X9646600Y-9606600D02*
X9606600Y-9646600D01*
X9606600Y-9784400D02*
X9646600Y-9824400D01*
X9646600Y-9784400D02*
X9606600Y-9824400D01*
X9650000Y-10277160D02*
X9690000Y-10317160D01*
X9690000Y-10277160D02*
X9650000Y-10317160D01*
X9657400Y-10006650D02*
X9697400Y-10046650D01*
X9697400Y-10006650D02*
X9657400Y-10046650D01*
X9750000Y-9350000D02*
X9790000Y-9390000D01*
X9790000Y-9350000D02*
X9750000Y-9390000D01*
X9812500Y-10045000D02*
X9852500Y-10085000D01*
X9852500Y-10045000D02*
X9812500Y-10085000D01*
X9830000Y-8930000D02*
X9870000Y-8970000D01*
X9870000Y-8930000D02*
X9830000Y-8970000D01*
X9870000Y-5130000D02*
X9910000Y-5170000D01*
X9910000Y-5130000D02*
X9870000Y-5170000D01*
X10013000Y-6914200D02*
X10053000Y-6954200D01*
X10053000Y-6914200D02*
X10013000Y-6954200D01*
X10013000Y-7917500D02*
X10053000Y-7957500D01*
X10053000Y-7917500D02*
X10013000Y-7957500D01*
X10178100Y-9517700D02*
X10218100Y-9557700D01*
X10218100Y-9517700D02*
X10178100Y-9557700D01*
X10228900Y-13251500D02*
X10268900Y-13291500D01*
X10268900Y-13251500D02*
X10228900Y-13291500D01*
X10248730Y-12271636D02*
X10288730Y-12311636D01*
X10288730Y-12271636D02*
X10248730Y-12311636D01*
X10272500Y-7087500D02*
X10312500Y-7127500D01*
X10312500Y-7087500D02*
X10272500Y-7127500D01*
X10355900Y-11079800D02*
X10395900Y-11119800D01*
X10395900Y-11079800D02*
X10355900Y-11119800D01*
X10410000Y-12087500D02*
X10450000Y-12127500D01*
X10450000Y-12087500D02*
X10410000Y-12127500D01*
X10505000Y-11780000D02*
X10545000Y-11820000D01*
X10545000Y-11780000D02*
X10505000Y-11820000D01*
X10521000Y-7092000D02*
X10561000Y-7132000D01*
X10561000Y-7092000D02*
X10521000Y-7132000D01*
X10749600Y-7854000D02*
X10789600Y-7894000D01*
X10789600Y-7854000D02*
X10749600Y-7894000D01*
X10997592Y-10590000D02*
X11037592Y-10630000D01*
X11037592Y-10590000D02*
X10997592Y-10630000D01*
X11010000Y-11060000D02*
X11050000Y-11100000D01*
X11050000Y-11060000D02*
X11010000Y-11100000D01*
X11055000Y-12122500D02*
X11095000Y-12162500D01*
X11095000Y-12122500D02*
X11055000Y-12162500D01*
X11283000Y-10902000D02*
X11323000Y-10942000D01*
X11323000Y-10902000D02*
X11283000Y-10942000D01*
X11486200Y-9784400D02*
X11526200Y-9824400D01*
X11526200Y-9784400D02*
X11486200Y-9824400D01*
X11830000Y-7430000D02*
X11870000Y-7470000D01*
X11870000Y-7430000D02*
X11830000Y-7470000D01*
X12024000Y-10806000D02*
X12064000Y-10846000D01*
X12064000Y-10806000D02*
X12024000Y-10846000D01*
X12045000Y-7904800D02*
X12085000Y-7944800D01*
X12085000Y-7904800D02*
X12045000Y-7944800D01*
X12150000Y-11220000D02*
X12190000Y-11260000D01*
X12190000Y-11220000D02*
X12150000Y-11260000D01*
X12183480Y-10733720D02*
X12223480Y-10773720D01*
X12223480Y-10733720D02*
X12183480Y-10773720D01*
X12276140Y-9403400D02*
X12316140Y-9443400D01*
X12316140Y-9403400D02*
X12276140Y-9443400D01*
X12380000Y-8255000D02*
X12420000Y-8295000D01*
X12420000Y-8255000D02*
X12380000Y-8295000D01*
X12505000Y-9005000D02*
X12545000Y-9045000D01*
X12545000Y-9005000D02*
X12505000Y-9045000D01*
X12560000Y-6980000D02*
X12600000Y-7020000D01*
X12600000Y-6980000D02*
X12560000Y-7020000D01*
X12570000Y-6533200D02*
X12610000Y-6573200D01*
X12610000Y-6533200D02*
X12570000Y-6573200D01*
X12590000Y-7320000D02*
X12630000Y-7360000D01*
X12630000Y-7320000D02*
X12590000Y-7360000D01*
X12590000Y-9650000D02*
X12630000Y-9690000D01*
X12630000Y-9650000D02*
X12590000Y-9690000D01*
X12600000Y-11750000D02*
X12640000Y-11790000D01*
X12640000Y-11750000D02*
X12600000Y-11790000D01*
X12630000Y-8905000D02*
X12670000Y-8945000D01*
X12670000Y-8905000D02*
X12630000Y-8945000D01*
X12680000Y-6107500D02*
X12720000Y-6147500D01*
X12720000Y-6107500D02*
X12680000Y-6147500D01*
X12810000Y-6720000D02*
X12850000Y-6760000D01*
X12850000Y-6720000D02*
X12810000Y-6760000D01*
X12832500Y-11760000D02*
X12872500Y-11800000D01*
X12872500Y-11760000D02*
X12832500Y-11800000D01*
X12902500Y-11665000D02*
X12942500Y-11705000D01*
X12942500Y-11665000D02*
X12902500Y-11705000D01*
X12970000Y-6690000D02*
X13010000Y-6730000D01*
X13010000Y-6690000D02*
X12970000Y-6730000D01*
X13030000Y-6200000D02*
X13070000Y-6240000D01*
X13070000Y-6200000D02*
X13030000Y-6240000D01*
X13060000Y-5395000D02*
X13100000Y-5435000D01*
X13100000Y-5395000D02*
X13060000Y-5435000D01*
X13061000Y-6926900D02*
X13101000Y-6966900D01*
X13101000Y-6926900D02*
X13061000Y-6966900D01*
X13095000Y-6067500D02*
X13135000Y-6107500D01*
X13135000Y-6067500D02*
X13095000Y-6107500D01*
X13190000Y-6560000D02*
X13230000Y-6600000D01*
X13230000Y-6560000D02*
X13190000Y-6600000D01*
X13190033Y-7407695D02*
X13230033Y-7447695D01*
X13230033Y-7407695D02*
X13190033Y-7447695D01*
X13232100Y-11283050D02*
X13272100Y-11323050D01*
X13272100Y-11283050D02*
X13232100Y-11323050D01*
X13232500Y-8137500D02*
X13272500Y-8177500D01*
X13272500Y-8137500D02*
X13232500Y-8177500D01*
X13315000Y-10902000D02*
X13355000Y-10942000D01*
X13355000Y-10902000D02*
X13315000Y-10942000D01*
X13330000Y-5570000D02*
X13370000Y-5610000D01*
X13370000Y-5570000D02*
X13330000Y-5610000D01*
X13357500Y-9332500D02*
X13397500Y-9372500D01*
X13397500Y-9332500D02*
X13357500Y-9372500D01*
X13380000Y-8417500D02*
X13420000Y-8457500D01*
X13420000Y-8417500D02*
X13380000Y-8457500D01*
X13490000Y-4482500D02*
X13530000Y-4522500D01*
X13530000Y-4482500D02*
X13490000Y-4522500D01*
X13505000Y-9322500D02*
X13545000Y-9362500D01*
X13545000Y-9322500D02*
X13505000Y-9362500D01*
X13530900Y-10292400D02*
X13570900Y-10332400D01*
X13570900Y-10292400D02*
X13530900Y-10332400D01*
X13569000Y-5428300D02*
X13609000Y-5468300D01*
X13609000Y-5428300D02*
X13569000Y-5468300D01*
X13615000Y-6580000D02*
X13655000Y-6620000D01*
X13655000Y-6580000D02*
X13615000Y-6620000D01*
X13657500Y-8417500D02*
X13697500Y-8457500D01*
X13697500Y-8417500D02*
X13657500Y-8457500D01*
X13675000Y-6862500D02*
X13715000Y-6902500D01*
X13715000Y-6862500D02*
X13675000Y-6902500D01*
X13745000Y-6455000D02*
X13785000Y-6495000D01*
X13785000Y-6455000D02*
X13745000Y-6495000D01*
X13823000Y-10902000D02*
X13863000Y-10942000D01*
X13863000Y-10902000D02*
X13823000Y-10942000D01*
X13901020Y-5950000D02*
X13941020Y-5990000D01*
X13941020Y-5950000D02*
X13901020Y-5990000D01*
X13945000Y-6842500D02*
X13985000Y-6882500D01*
X13985000Y-6842500D02*
X13945000Y-6882500D01*
X13980480Y-10378760D02*
X14020480Y-10418760D01*
X14020480Y-10378760D02*
X13980480Y-10418760D01*
X14020000Y-10730000D02*
X14060000Y-10770000D01*
X14060000Y-10730000D02*
X14020000Y-10770000D01*
X14020000Y-10920000D02*
X14060000Y-10960000D01*
X14060000Y-10920000D02*
X14020000Y-10960000D01*
X14120000Y-10450000D02*
X14160000Y-10490000D01*
X14160000Y-10450000D02*
X14120000Y-10490000D01*
X14210000Y-7100000D02*
X14250000Y-7140000D01*
X14250000Y-7100000D02*
X14210000Y-7140000D01*
X14268792Y-10498793D02*
X14308792Y-10538793D01*
X14308792Y-10498793D02*
X14268792Y-10538793D01*
X14460000Y-7090000D02*
X14500000Y-7130000D01*
X14500000Y-7090000D02*
X14460000Y-7130000D01*
X14621830Y-5924870D02*
X14661830Y-5964870D01*
X14661830Y-5924870D02*
X14621830Y-5964870D01*
X14772500Y-7120000D02*
X14812500Y-7160000D01*
X14812500Y-7120000D02*
X14772500Y-7160000D01*
X5342900Y-6817500D02*
G75*
G03X5342900Y-6817500I-25400J0D01*
G01*
X7575400Y-4370000D02*
G75*
G03X7575400Y-4370000I-25400J0D01*
G01*
X7917900Y-10092500D02*
G75*
G03X7917900Y-10092500I-25400J0D01*
G01*
X8700400Y-6225000D02*
G75*
G03X8700400Y-6225000I-25400J0D01*
G01*
X8864600Y-8331200D02*
G75*
G03X8864600Y-8331200I-25400J0D01*
G01*
X9955400Y-8310000D02*
G75*
G03X9955400Y-8310000I-25400J0D01*
G01*
X10401300Y-11099800D02*
G75*
G03X10401300Y-11099800I-25400J0D01*
G01*
X10523982Y-6477000D02*
G75*
G03X10523982Y-6477000I-25400J0D01*
G01*
X11684000Y-7975600D02*
G75*
G03X11684000Y-7975600I-25400J0D01*
G01*
X11963400Y-5638800D02*
G75*
G03X11963400Y-5638800I-25400J0D01*
G01*
X12445400Y-10070000D02*
G75*
G03X12445400Y-10070000I-25400J0D01*
G01*
X12648630Y-6325840D02*
G75*
G03X12648630Y-6325840I-25400J0D01*
G01*
X13131800Y-5029200D02*
G75*
G03X13131800Y-5029200I-25400J0D01*
G01*
X13538200Y-11861800D02*
G75*
G03X13538200Y-11861800I-25400J0D01*
G01*
X13716000Y-4927600D02*
G75*
G03X13716000Y-4927600I-25400J0D01*
G01*
X15074900Y-12250420D02*
G75*
G03X15074900Y-12250420I-25400J0D01*
G01*
X6810000Y-11384900D02*
X6810000Y-11461100D01*
X6771900Y-11423000D02*
X6848100Y-11423000D01*
X6810000Y-12384900D02*
X6810000Y-12461100D01*
X6771900Y-12423000D02*
X6848100Y-12423000D01*
X7490000Y-11384900D02*
X7490000Y-11461100D01*
X7451900Y-11423000D02*
X7528100Y-11423000D01*
X7490000Y-12384900D02*
X7490000Y-12461100D01*
X7451900Y-12423000D02*
X7528100Y-12423000D01*
X7902737Y-4448337D02*
X7902737Y-4390863D01*
X7845263Y-4390863D01*
X7845263Y-4448337D01*
X7902737Y-4448337D01*
X7902737Y-4702337D02*
X7902737Y-4644863D01*
X7845263Y-4644863D01*
X7845263Y-4702337D01*
X7902737Y-4702337D01*
X7902737Y-5464337D02*
X7902737Y-5406863D01*
X7845263Y-5406863D01*
X7845263Y-5464337D01*
X7902737Y-5464337D01*
X7902737Y-5718337D02*
X7902737Y-5660863D01*
X7845263Y-5660863D01*
X7845263Y-5718337D01*
X7902737Y-5718337D01*
X7902737Y-5972337D02*
X7902737Y-5914863D01*
X7845263Y-5914863D01*
X7845263Y-5972337D01*
X7902737Y-5972337D01*
X7902737Y-7242337D02*
X7902737Y-7184863D01*
X7845263Y-7184863D01*
X7845263Y-7242337D01*
X7902737Y-7242337D01*
X8156737Y-5972337D02*
X8156737Y-5914863D01*
X8099263Y-5914863D01*
X8099263Y-5972337D01*
X8156737Y-5972337D01*
X8156737Y-7242337D02*
X8156737Y-7184863D01*
X8099263Y-7184863D01*
X8099263Y-7242337D01*
X8156737Y-7242337D01*
X8283737Y-11458737D02*
X8283737Y-11401263D01*
X8226263Y-11401263D01*
X8226263Y-11458737D01*
X8283737Y-11458737D01*
X8283737Y-12728737D02*
X8283737Y-12671263D01*
X8226263Y-12671263D01*
X8226263Y-12728737D01*
X8283737Y-12728737D01*
X8410737Y-5972337D02*
X8410737Y-5914863D01*
X8353263Y-5914863D01*
X8353263Y-5972337D01*
X8410737Y-5972337D01*
X8410737Y-7242337D02*
X8410737Y-7184863D01*
X8353263Y-7184863D01*
X8353263Y-7242337D01*
X8410737Y-7242337D01*
X8537737Y-11458737D02*
X8537737Y-11401263D01*
X8480263Y-11401263D01*
X8480263Y-11458737D01*
X8537737Y-11458737D01*
X8537737Y-12728737D02*
X8537737Y-12671263D01*
X8480263Y-12671263D01*
X8480263Y-12728737D01*
X8537737Y-12728737D01*
X8664737Y-5972337D02*
X8664737Y-5914863D01*
X8607263Y-5914863D01*
X8607263Y-5972337D01*
X8664737Y-5972337D01*
X8664737Y-7242337D02*
X8664737Y-7184863D01*
X8607263Y-7184863D01*
X8607263Y-7242337D01*
X8664737Y-7242337D01*
X8791737Y-11458737D02*
X8791737Y-11401263D01*
X8734263Y-11401263D01*
X8734263Y-11458737D01*
X8791737Y-11458737D01*
X8791737Y-12728737D02*
X8791737Y-12671263D01*
X8734263Y-12671263D01*
X8734263Y-12728737D01*
X8791737Y-12728737D01*
X8918737Y-5972337D02*
X8918737Y-5914863D01*
X8861263Y-5914863D01*
X8861263Y-5972337D01*
X8918737Y-5972337D01*
X8918737Y-7242337D02*
X8918737Y-7184863D01*
X8861263Y-7184863D01*
X8861263Y-7242337D01*
X8918737Y-7242337D01*
X9045737Y-11458737D02*
X9045737Y-11401263D01*
X8988263Y-11401263D01*
X8988263Y-11458737D01*
X9045737Y-11458737D01*
X9045737Y-12728737D02*
X9045737Y-12671263D01*
X8988263Y-12671263D01*
X8988263Y-12728737D01*
X9045737Y-12728737D01*
X9172737Y-5972337D02*
X9172737Y-5914863D01*
X9115263Y-5914863D01*
X9115263Y-5972337D01*
X9172737Y-5972337D01*
X9172737Y-7242337D02*
X9172737Y-7184863D01*
X9115263Y-7184863D01*
X9115263Y-7242337D01*
X9172737Y-7242337D01*
X9299737Y-11458737D02*
X9299737Y-11401263D01*
X9242263Y-11401263D01*
X9242263Y-11458737D01*
X9299737Y-11458737D01*
X9299737Y-12728737D02*
X9299737Y-12671263D01*
X9242263Y-12671263D01*
X9242263Y-12728737D01*
X9299737Y-12728737D01*
X9426737Y-5972337D02*
X9426737Y-5914863D01*
X9369263Y-5914863D01*
X9369263Y-5972337D01*
X9426737Y-5972337D01*
X9426737Y-7242337D02*
X9426737Y-7184863D01*
X9369263Y-7184863D01*
X9369263Y-7242337D01*
X9426737Y-7242337D01*
X9553737Y-11458737D02*
X9553737Y-11401263D01*
X9496263Y-11401263D01*
X9496263Y-11458737D01*
X9553737Y-11458737D01*
X9553737Y-12728737D02*
X9553737Y-12671263D01*
X9496263Y-12671263D01*
X9496263Y-12728737D01*
X9553737Y-12728737D01*
X9680737Y-4448337D02*
X9680737Y-4390863D01*
X9623263Y-4390863D01*
X9623263Y-4448337D01*
X9680737Y-4448337D01*
X9680737Y-4702337D02*
X9680737Y-4644863D01*
X9623263Y-4644863D01*
X9623263Y-4702337D01*
X9680737Y-4702337D01*
X9680737Y-5464337D02*
X9680737Y-5406863D01*
X9623263Y-5406863D01*
X9623263Y-5464337D01*
X9680737Y-5464337D01*
X9680737Y-5718337D02*
X9680737Y-5660863D01*
X9623263Y-5660863D01*
X9623263Y-5718337D01*
X9680737Y-5718337D01*
X9680737Y-5972337D02*
X9680737Y-5914863D01*
X9623263Y-5914863D01*
X9623263Y-5972337D01*
X9680737Y-5972337D01*
X9680737Y-7242337D02*
X9680737Y-7184863D01*
X9623263Y-7184863D01*
X9623263Y-7242337D01*
X9680737Y-7242337D01*
X9807737Y-11458737D02*
X9807737Y-11401263D01*
X9750263Y-11401263D01*
X9750263Y-11458737D01*
X9807737Y-11458737D01*
X9807737Y-12728737D02*
X9807737Y-12671263D01*
X9750263Y-12671263D01*
X9750263Y-12728737D01*
X9807737Y-12728737D01*
X9934737Y-5972337D02*
X9934737Y-5914863D01*
X9877263Y-5914863D01*
X9877263Y-5972337D01*
X9934737Y-5972337D01*
X9934737Y-7242337D02*
X9934737Y-7184863D01*
X9877263Y-7184863D01*
X9877263Y-7242337D01*
X9934737Y-7242337D01*
X10061737Y-11458737D02*
X10061737Y-11401263D01*
X10004263Y-11401263D01*
X10004263Y-11458737D01*
X10061737Y-11458737D01*
X10061737Y-12728737D02*
X10061737Y-12671263D01*
X10004263Y-12671263D01*
X10004263Y-12728737D01*
X10061737Y-12728737D01*
X10188737Y-5972337D02*
X10188737Y-5914863D01*
X10131263Y-5914863D01*
X10131263Y-5972337D01*
X10188737Y-5972337D01*
X10188737Y-7242337D02*
X10188737Y-7184863D01*
X10131263Y-7184863D01*
X10131263Y-7242337D01*
X10188737Y-7242337D01*
X10315737Y-11458737D02*
X10315737Y-11401263D01*
X10258263Y-11401263D01*
X10258263Y-11458737D01*
X10315737Y-11458737D01*
X10315737Y-12728737D02*
X10315737Y-12671263D01*
X10258263Y-12671263D01*
X10258263Y-12728737D01*
X10315737Y-12728737D01*
X10442737Y-5972337D02*
X10442737Y-5914863D01*
X10385263Y-5914863D01*
X10385263Y-5972337D01*
X10442737Y-5972337D01*
X10442737Y-7242337D02*
X10442737Y-7184863D01*
X10385263Y-7184863D01*
X10385263Y-7242337D01*
X10442737Y-7242337D01*
X10569737Y-11458737D02*
X10569737Y-11401263D01*
X10512263Y-11401263D01*
X10512263Y-11458737D01*
X10569737Y-11458737D01*
X10569737Y-12728737D02*
X10569737Y-12671263D01*
X10512263Y-12671263D01*
X10512263Y-12728737D01*
X10569737Y-12728737D01*
X10696737Y-5972337D02*
X10696737Y-5914863D01*
X10639263Y-5914863D01*
X10639263Y-5972337D01*
X10696737Y-5972337D01*
X10696737Y-7242337D02*
X10696737Y-7184863D01*
X10639263Y-7184863D01*
X10639263Y-7242337D01*
X10696737Y-7242337D01*
X10823737Y-11458737D02*
X10823737Y-11401263D01*
X10766263Y-11401263D01*
X10766263Y-11458737D01*
X10823737Y-11458737D01*
X10823737Y-12728737D02*
X10823737Y-12671263D01*
X10766263Y-12671263D01*
X10766263Y-12728737D01*
X10823737Y-12728737D01*
X10950737Y-5972337D02*
X10950737Y-5914863D01*
X10893263Y-5914863D01*
X10893263Y-5972337D01*
X10950737Y-5972337D01*
X10950737Y-7242337D02*
X10950737Y-7184863D01*
X10893263Y-7184863D01*
X10893263Y-7242337D01*
X10950737Y-7242337D01*
X11077737Y-11458737D02*
X11077737Y-11401263D01*
X11020263Y-11401263D01*
X11020263Y-11458737D01*
X11077737Y-11458737D01*
X11077737Y-12728737D02*
X11077737Y-12671263D01*
X11020263Y-12671263D01*
X11020263Y-12728737D01*
X11077737Y-12728737D01*
X11204737Y-5972337D02*
X11204737Y-5914863D01*
X11147263Y-5914863D01*
X11147263Y-5972337D01*
X11204737Y-5972337D01*
X11204737Y-7242337D02*
X11204737Y-7184863D01*
X11147263Y-7184863D01*
X11147263Y-7242337D01*
X11204737Y-7242337D01*
X11331737Y-11458737D02*
X11331737Y-11401263D01*
X11274263Y-11401263D01*
X11274263Y-11458737D01*
X11331737Y-11458737D01*
X11331737Y-12728737D02*
X11331737Y-12671263D01*
X11274263Y-12671263D01*
X11274263Y-12728737D01*
X11331737Y-12728737D01*
X11458737Y-5972337D02*
X11458737Y-5914863D01*
X11401263Y-5914863D01*
X11401263Y-5972337D01*
X11458737Y-5972337D01*
X11458737Y-7242337D02*
X11458737Y-7184863D01*
X11401263Y-7184863D01*
X11401263Y-7242337D01*
X11458737Y-7242337D01*
X11585737Y-11458737D02*
X11585737Y-11401263D01*
X11528263Y-11401263D01*
X11528263Y-11458737D01*
X11585737Y-11458737D01*
X11585737Y-12728737D02*
X11585737Y-12671263D01*
X11528263Y-12671263D01*
X11528263Y-12728737D01*
X11585737Y-12728737D01*
X11712737Y-5972337D02*
X11712737Y-5914863D01*
X11655263Y-5914863D01*
X11655263Y-5972337D01*
X11712737Y-5972337D01*
X11712737Y-7242337D02*
X11712737Y-7184863D01*
X11655263Y-7184863D01*
X11655263Y-7242337D01*
X11712737Y-7242337D01*
X11839737Y-11458737D02*
X11839737Y-11401263D01*
X11782263Y-11401263D01*
X11782263Y-11458737D01*
X11839737Y-11458737D01*
X11839737Y-12728737D02*
X11839737Y-12671263D01*
X11782263Y-12671263D01*
X11782263Y-12728737D01*
X11839737Y-12728737D01*
X11966737Y-5972337D02*
X11966737Y-5914863D01*
X11909263Y-5914863D01*
X11909263Y-5972337D01*
X11966737Y-5972337D01*
X11966737Y-7242337D02*
X11966737Y-7184863D01*
X11909263Y-7184863D01*
X11909263Y-7242337D01*
X11966737Y-7242337D01*
X12093737Y-11458737D02*
X12093737Y-11401263D01*
X12036263Y-11401263D01*
X12036263Y-11458737D01*
X12093737Y-11458737D01*
X12093737Y-12728737D02*
X12093737Y-12671263D01*
X12036263Y-12671263D01*
X12036263Y-12728737D01*
X12093737Y-12728737D01*
X12220737Y-5972337D02*
X12220737Y-5914863D01*
X12163263Y-5914863D01*
X12163263Y-5972337D01*
X12220737Y-5972337D01*
X12220737Y-7242337D02*
X12220737Y-7184863D01*
X12163263Y-7184863D01*
X12163263Y-7242337D01*
X12220737Y-7242337D01*
X12347737Y-11458737D02*
X12347737Y-11401263D01*
X12290263Y-11401263D01*
X12290263Y-11458737D01*
X12347737Y-11458737D01*
X12347737Y-12728737D02*
X12347737Y-12671263D01*
X12290263Y-12671263D01*
X12290263Y-12728737D01*
X12347737Y-12728737D01*
X12474737Y-5972337D02*
X12474737Y-5914863D01*
X12417263Y-5914863D01*
X12417263Y-5972337D01*
X12474737Y-5972337D01*
X12474737Y-7242337D02*
X12474737Y-7184863D01*
X12417263Y-7184863D01*
X12417263Y-7242337D01*
X12474737Y-7242337D01*
X12601737Y-11458737D02*
X12601737Y-11401263D01*
X12544263Y-11401263D01*
X12544263Y-11458737D01*
X12601737Y-11458737D01*
X12601737Y-12728737D02*
X12601737Y-12671263D01*
X12544263Y-12671263D01*
X12544263Y-12728737D01*
X12601737Y-12728737D01*
X12728737Y-5972337D02*
X12728737Y-5914863D01*
X12671263Y-5914863D01*
X12671263Y-5972337D01*
X12728737Y-5972337D01*
X12728737Y-7242337D02*
X12728737Y-7184863D01*
X12671263Y-7184863D01*
X12671263Y-7242337D01*
X12728737Y-7242337D01*
X12855737Y-11458737D02*
X12855737Y-11401263D01*
X12798263Y-11401263D01*
X12798263Y-11458737D01*
X12855737Y-11458737D01*
X12855737Y-12728737D02*
X12855737Y-12671263D01*
X12798263Y-12671263D01*
X12798263Y-12728737D01*
X12855737Y-12728737D01*
X12982737Y-5972337D02*
X12982737Y-5914863D01*
X12925263Y-5914863D01*
X12925263Y-5972337D01*
X12982737Y-5972337D01*
X12982737Y-7242337D02*
X12982737Y-7184863D01*
X12925263Y-7184863D01*
X12925263Y-7242337D01*
X12982737Y-7242337D01*
X13109737Y-11458737D02*
X13109737Y-11401263D01*
X13052263Y-11401263D01*
X13052263Y-11458737D01*
X13109737Y-11458737D01*
X13109737Y-12728737D02*
X13109737Y-12671263D01*
X13052263Y-12671263D01*
X13052263Y-12728737D01*
X13109737Y-12728737D01*
X13236737Y-5972337D02*
X13236737Y-5914863D01*
X13179263Y-5914863D01*
X13179263Y-5972337D01*
X13236737Y-5972337D01*
X13236737Y-7242337D02*
X13236737Y-7184863D01*
X13179263Y-7184863D01*
X13179263Y-7242337D01*
X13236737Y-7242337D01*
X13363737Y-11458737D02*
X13363737Y-11401263D01*
X13306263Y-11401263D01*
X13306263Y-11458737D01*
X13363737Y-11458737D01*
X13363737Y-12728737D02*
X13363737Y-12671263D01*
X13306263Y-12671263D01*
X13306263Y-12728737D01*
X13363737Y-12728737D01*
X13490737Y-5972337D02*
X13490737Y-5914863D01*
X13433263Y-5914863D01*
X13433263Y-5972337D01*
X13490737Y-5972337D01*
X13490737Y-7242337D02*
X13490737Y-7184863D01*
X13433263Y-7184863D01*
X13433263Y-7242337D01*
X13490737Y-7242337D01*
X13617737Y-11458737D02*
X13617737Y-11401263D01*
X13560263Y-11401263D01*
X13560263Y-11458737D01*
X13617737Y-11458737D01*
X13617737Y-12728737D02*
X13617737Y-12671263D01*
X13560263Y-12671263D01*
X13560263Y-12728737D01*
X13617737Y-12728737D01*
X13744737Y-5972337D02*
X13744737Y-5914863D01*
X13687263Y-5914863D01*
X13687263Y-5972337D01*
X13744737Y-5972337D01*
X13744737Y-7242337D02*
X13744737Y-7184863D01*
X13687263Y-7184863D01*
X13687263Y-7242337D01*
X13744737Y-7242337D01*
X13871737Y-11458737D02*
X13871737Y-11401263D01*
X13814263Y-11401263D01*
X13814263Y-11458737D01*
X13871737Y-11458737D01*
X13871737Y-12728737D02*
X13871737Y-12671263D01*
X13814263Y-12671263D01*
X13814263Y-12728737D01*
X13871737Y-12728737D01*
X14125737Y-11458737D02*
X14125737Y-11401263D01*
X14068263Y-11401263D01*
X14068263Y-11458737D01*
X14125737Y-11458737D01*
X14125737Y-12728737D02*
X14125737Y-12671263D01*
X14068263Y-12671263D01*
X14068263Y-12728737D01*
X14125737Y-12728737D01*
X6223000Y-4241038D02*
X6273038Y-4191000D01*
X6223000Y-4140962D01*
X6172962Y-4191000D01*
X6223000Y-4241038D01*
X6325000Y-11473038D02*
X6375038Y-11423000D01*
X6325000Y-11372962D01*
X6274962Y-11423000D01*
X6325000Y-11473038D01*
X6325000Y-11727038D02*
X6375038Y-11677000D01*
X6325000Y-11626962D01*
X6274962Y-11677000D01*
X6325000Y-11727038D01*
X6477000Y-4241038D02*
X6527038Y-4191000D01*
X6477000Y-4140962D01*
X6426962Y-4191000D01*
X6477000Y-4241038D01*
X6731000Y-4241038D02*
X6781038Y-4191000D01*
X6731000Y-4140962D01*
X6680962Y-4191000D01*
X6731000Y-4241038D01*
X6810000Y-9595038D02*
X6860038Y-9545000D01*
X6810000Y-9494962D01*
X6759962Y-9545000D01*
X6810000Y-9595038D01*
X6812500Y-8126538D02*
X6862538Y-8076500D01*
X6812500Y-8026462D01*
X6762462Y-8076500D01*
X6812500Y-8126538D01*
X6985000Y-4241038D02*
X7035038Y-4191000D01*
X6985000Y-4140962D01*
X6934962Y-4191000D01*
X6985000Y-4241038D01*
X7950000Y-10875038D02*
X8000038Y-10825000D01*
X7950000Y-10774962D01*
X7899962Y-10825000D01*
X7950000Y-10875038D01*
X7950000Y-11129038D02*
X8000038Y-11079000D01*
X7950000Y-11028962D01*
X7899962Y-11079000D01*
X7950000Y-11129038D01*
X10015000Y-4810538D02*
X10065038Y-4760500D01*
X10015000Y-4710462D01*
X9964962Y-4760500D01*
X10015000Y-4810538D01*
X10015000Y-5064538D02*
X10065038Y-5014500D01*
X10015000Y-4964462D01*
X9964962Y-5014500D01*
X10015000Y-5064538D01*
X10295000Y-4810538D02*
X10345038Y-4760500D01*
X10295000Y-4710462D01*
X10244962Y-4760500D01*
X10295000Y-4810538D01*
X10295000Y-5064538D02*
X10345038Y-5014500D01*
X10295000Y-4964462D01*
X10244962Y-5014500D01*
X10295000Y-5064538D01*
X10795000Y-11162538D02*
X10845038Y-11112500D01*
X10795000Y-11062462D01*
X10744962Y-11112500D01*
X10795000Y-11162538D01*
X12827000Y-9194038D02*
X12877038Y-9144000D01*
X12827000Y-9093962D01*
X12776962Y-9144000D01*
X12827000Y-9194038D01*
X12827000Y-9448038D02*
X12877038Y-9398000D01*
X12827000Y-9347962D01*
X12776962Y-9398000D01*
X12827000Y-9448038D01*
X12827000Y-9702038D02*
X12877038Y-9652000D01*
X12827000Y-9601962D01*
X12776962Y-9652000D01*
X12827000Y-9702038D01*
X12827000Y-9956038D02*
X12877038Y-9906000D01*
X12827000Y-9855962D01*
X12776962Y-9906000D01*
X12827000Y-9956038D01*
X12827000Y-10210038D02*
X12877038Y-10160000D01*
X12827000Y-10109962D01*
X12776962Y-10160000D01*
X12827000Y-10210038D01*
X13081000Y-9194038D02*
X13131038Y-9144000D01*
X13081000Y-9093962D01*
X13030962Y-9144000D01*
X13081000Y-9194038D01*
X13081000Y-9448038D02*
X13131038Y-9398000D01*
X13081000Y-9347962D01*
X13030962Y-9398000D01*
X13081000Y-9448038D01*
X13081000Y-9702038D02*
X13131038Y-9652000D01*
X13081000Y-9601962D01*
X13030962Y-9652000D01*
X13081000Y-9702038D01*
X13081000Y-9956038D02*
X13131038Y-9906000D01*
X13081000Y-9855962D01*
X13030962Y-9906000D01*
X13081000Y-9956038D01*
X13081000Y-10210038D02*
X13131038Y-10160000D01*
X13081000Y-10109962D01*
X13030962Y-10160000D01*
X13081000Y-10210038D01*
X13122910Y-4406138D02*
X13172948Y-4356100D01*
X13122910Y-4306062D01*
X13072872Y-4356100D01*
X13122910Y-4406138D01*
X13376910Y-4406138D02*
X13426948Y-4356100D01*
X13376910Y-4306062D01*
X13326872Y-4356100D01*
X13376910Y-4406138D01*
X13630910Y-4406138D02*
X13680948Y-4356100D01*
X13630910Y-4306062D01*
X13580872Y-4356100D01*
X13630910Y-4406138D01*
X13725000Y-8925038D02*
X13775038Y-8875000D01*
X13725000Y-8824962D01*
X13674962Y-8875000D01*
X13725000Y-8925038D01*
X13725000Y-9179038D02*
X13775038Y-9129000D01*
X13725000Y-9078962D01*
X13674962Y-9129000D01*
X13725000Y-9179038D01*
X13725000Y-9433038D02*
X13775038Y-9383000D01*
X13725000Y-9332962D01*
X13674962Y-9383000D01*
X13725000Y-9433038D01*
X13725000Y-9687038D02*
X13775038Y-9637000D01*
X13725000Y-9586962D01*
X13674962Y-9637000D01*
X13725000Y-9687038D01*
X13725000Y-9941038D02*
X13775038Y-9891000D01*
X13725000Y-9840962D01*
X13674962Y-9891000D01*
X13725000Y-9941038D01*
X13725000Y-10195038D02*
X13775038Y-10145000D01*
X13725000Y-10094962D01*
X13674962Y-10145000D01*
X13725000Y-10195038D01*
X13884910Y-4406138D02*
X13934948Y-4356100D01*
X13884910Y-4306062D01*
X13834872Y-4356100D01*
X13884910Y-4406138D01*
X13979000Y-8925038D02*
X14029038Y-8875000D01*
X13979000Y-8824962D01*
X13928962Y-8875000D01*
X13979000Y-8925038D01*
X13979000Y-9179038D02*
X14029038Y-9129000D01*
X13979000Y-9078962D01*
X13928962Y-9129000D01*
X13979000Y-9179038D01*
X13979000Y-9433038D02*
X14029038Y-9383000D01*
X13979000Y-9332962D01*
X13928962Y-9383000D01*
X13979000Y-9433038D01*
X13979000Y-9687038D02*
X14029038Y-9637000D01*
X13979000Y-9586962D01*
X13928962Y-9637000D01*
X13979000Y-9687038D01*
X13979000Y-9941038D02*
X14029038Y-9891000D01*
X13979000Y-9840962D01*
X13928962Y-9891000D01*
X13979000Y-9941038D01*
X13979000Y-10195038D02*
X14029038Y-10145000D01*
X13979000Y-10094962D01*
X13928962Y-10145000D01*
X13979000Y-10195038D01*
X14097000Y-6019038D02*
X14147038Y-5969000D01*
X14097000Y-5918962D01*
X14046962Y-5969000D01*
X14097000Y-6019038D01*
X14097000Y-6273038D02*
X14147038Y-6223000D01*
X14097000Y-6172962D01*
X14046962Y-6223000D01*
X14097000Y-6273038D01*
X14097000Y-6527038D02*
X14147038Y-6477000D01*
X14097000Y-6426962D01*
X14046962Y-6477000D01*
X14097000Y-6527038D01*
X14097000Y-6781038D02*
X14147038Y-6731000D01*
X14097000Y-6680962D01*
X14046962Y-6731000D01*
X14097000Y-6781038D01*
X14097000Y-7035038D02*
X14147038Y-6985000D01*
X14097000Y-6934962D01*
X14046962Y-6985000D01*
X14097000Y-7035038D01*
X14097000Y-7289038D02*
X14147038Y-7239000D01*
X14097000Y-7188962D01*
X14046962Y-7239000D01*
X14097000Y-7289038D01*
X14097000Y-13067538D02*
X14147038Y-13017500D01*
X14097000Y-12967462D01*
X14046962Y-13017500D01*
X14097000Y-13067538D01*
X14097000Y-13321538D02*
X14147038Y-13271500D01*
X14097000Y-13221462D01*
X14046962Y-13271500D01*
X14097000Y-13321538D01*
X14211300Y-4164838D02*
X14261338Y-4114800D01*
X14211300Y-4064762D01*
X14161262Y-4114800D01*
X14211300Y-4164838D01*
X14211300Y-4418838D02*
X14261338Y-4368800D01*
X14211300Y-4318762D01*
X14161262Y-4368800D01*
X14211300Y-4418838D01*
X14211300Y-4672838D02*
X14261338Y-4622800D01*
X14211300Y-4572762D01*
X14161262Y-4622800D01*
X14211300Y-4672838D01*
X14211300Y-4926838D02*
X14261338Y-4876800D01*
X14211300Y-4826762D01*
X14161262Y-4876800D01*
X14211300Y-4926838D01*
X14211300Y-5180838D02*
X14261338Y-5130800D01*
X14211300Y-5080762D01*
X14161262Y-5130800D01*
X14211300Y-5180838D01*
X14211300Y-5434838D02*
X14261338Y-5384800D01*
X14211300Y-5334762D01*
X14161262Y-5384800D01*
X14211300Y-5434838D01*
X14351000Y-6019038D02*
X14401038Y-5969000D01*
X14351000Y-5918962D01*
X14300962Y-5969000D01*
X14351000Y-6019038D01*
X14351000Y-6273038D02*
X14401038Y-6223000D01*
X14351000Y-6172962D01*
X14300962Y-6223000D01*
X14351000Y-6273038D01*
X14351000Y-6527038D02*
X14401038Y-6477000D01*
X14351000Y-6426962D01*
X14300962Y-6477000D01*
X14351000Y-6527038D01*
X14351000Y-6781038D02*
X14401038Y-6731000D01*
X14351000Y-6680962D01*
X14300962Y-6731000D01*
X14351000Y-6781038D01*
X14351000Y-7035038D02*
X14401038Y-6985000D01*
X14351000Y-6934962D01*
X14300962Y-6985000D01*
X14351000Y-7035038D01*
X14351000Y-7289038D02*
X14401038Y-7239000D01*
X14351000Y-7188962D01*
X14300962Y-7239000D01*
X14351000Y-7289038D01*
X14407134Y-12969494D02*
X14457172Y-12919456D01*
X14407134Y-12869418D01*
X14357096Y-12919456D01*
X14407134Y-12969494D01*
X14407134Y-13419582D02*
X14457172Y-13369544D01*
X14407134Y-13319506D01*
X14357096Y-13369544D01*
X14407134Y-13419582D01*
X14719300Y-4164838D02*
X14769338Y-4114800D01*
X14719300Y-4064762D01*
X14669262Y-4114800D01*
X14719300Y-4164838D01*
X14719300Y-4418838D02*
X14769338Y-4368800D01*
X14719300Y-4318762D01*
X14669262Y-4368800D01*
X14719300Y-4418838D01*
X14719300Y-4672838D02*
X14769338Y-4622800D01*
X14719300Y-4572762D01*
X14669262Y-4622800D01*
X14719300Y-4672838D01*
X14719300Y-4926838D02*
X14769338Y-4876800D01*
X14719300Y-4826762D01*
X14669262Y-4876800D01*
X14719300Y-4926838D01*
X14719300Y-5180838D02*
X14769338Y-5130800D01*
X14719300Y-5080762D01*
X14669262Y-5130800D01*
X14719300Y-5180838D01*
X14719300Y-5434838D02*
X14769338Y-5384800D01*
X14719300Y-5334762D01*
X14669262Y-5384800D01*
X14719300Y-5434838D01*
X14973300Y-4164838D02*
X15023338Y-4114800D01*
X14973300Y-4064762D01*
X14923262Y-4114800D01*
X14973300Y-4164838D01*
X14973300Y-4418838D02*
X15023338Y-4368800D01*
X14973300Y-4318762D01*
X14923262Y-4368800D01*
X14973300Y-4418838D01*
X14973300Y-4672838D02*
X15023338Y-4622800D01*
X14973300Y-4572762D01*
X14923262Y-4622800D01*
X14973300Y-4672838D01*
X14973300Y-4926838D02*
X15023338Y-4876800D01*
X14973300Y-4826762D01*
X14923262Y-4876800D01*
X14973300Y-4926838D01*
X14973300Y-5180838D02*
X15023338Y-5130800D01*
X14973300Y-5080762D01*
X14923262Y-5130800D01*
X14973300Y-5180838D01*
X14973300Y-5434838D02*
X15023338Y-5384800D01*
X14973300Y-5334762D01*
X14923262Y-5384800D01*
X14973300Y-5434838D01*
X14986000Y-7670038D02*
X15036038Y-7620000D01*
X14986000Y-7569962D01*
X14935962Y-7620000D01*
X14986000Y-7670038D01*
X14986000Y-7924038D02*
X15036038Y-7874000D01*
X14986000Y-7823962D01*
X14935962Y-7874000D01*
X14986000Y-7924038D01*
X14986000Y-8178038D02*
X15036038Y-8128000D01*
X14986000Y-8077962D01*
X14935962Y-8128000D01*
X14986000Y-8178038D01*
X14986000Y-8432038D02*
X15036038Y-8382000D01*
X14986000Y-8331962D01*
X14935962Y-8382000D01*
X14986000Y-8432038D01*
X14986000Y-8686038D02*
X15036038Y-8636000D01*
X14986000Y-8585962D01*
X14935962Y-8636000D01*
X14986000Y-8686038D01*
X14986000Y-8940038D02*
X15036038Y-8890000D01*
X14986000Y-8839962D01*
X14935962Y-8890000D01*
X14986000Y-8940038D01*
X14986000Y-9194038D02*
X15036038Y-9144000D01*
X14986000Y-9093962D01*
X14935962Y-9144000D01*
X14986000Y-9194038D01*
X14986000Y-9448038D02*
X15036038Y-9398000D01*
X14986000Y-9347962D01*
X14935962Y-9398000D01*
X14986000Y-9448038D01*
X14986000Y-9702038D02*
X15036038Y-9652000D01*
X14986000Y-9601962D01*
X14935962Y-9652000D01*
X14986000Y-9702038D01*
X14986000Y-9956038D02*
X15036038Y-9906000D01*
X14986000Y-9855962D01*
X14935962Y-9906000D01*
X14986000Y-9956038D01*
X14986000Y-10210038D02*
X15036038Y-10160000D01*
X14986000Y-10109962D01*
X14935962Y-10160000D01*
X14986000Y-10210038D01*
X14986000Y-10464038D02*
X15036038Y-10414000D01*
X14986000Y-10363962D01*
X14935962Y-10414000D01*
X14986000Y-10464038D01*
X14986000Y-10718038D02*
X15036038Y-10668000D01*
X14986000Y-10617962D01*
X14935962Y-10668000D01*
X14986000Y-10718038D01*
X14986000Y-10972038D02*
X15036038Y-10922000D01*
X14986000Y-10871962D01*
X14935962Y-10922000D01*
X14986000Y-10972038D01*
X14986000Y-11226038D02*
X15036038Y-11176000D01*
X14986000Y-11125962D01*
X14935962Y-11176000D01*
X14986000Y-11226038D01*
X14986000Y-11480038D02*
X15036038Y-11430000D01*
X14986000Y-11379962D01*
X14935962Y-11430000D01*
X14986000Y-11480038D01*
X14986000Y-11734038D02*
X15036038Y-11684000D01*
X14986000Y-11633962D01*
X14935962Y-11684000D01*
X14986000Y-11734038D01*
X14986000Y-11988038D02*
X15036038Y-11938000D01*
X14986000Y-11887962D01*
X14935962Y-11938000D01*
X14986000Y-11988038D01*
X15057120Y-12969494D02*
X15107158Y-12919456D01*
X15057120Y-12869418D01*
X15007082Y-12919456D01*
X15057120Y-12969494D01*
X15057120Y-13419582D02*
X15107158Y-13369544D01*
X15057120Y-13319506D01*
X15007082Y-13369544D01*
X15057120Y-13419582D01*
X6769200Y-4994200D02*
X6870800Y-5095800D01*
X6870800Y-4994200D02*
X6769200Y-5095800D01*
X6870800Y-5045000D02*
G75*
G03X6870800Y-5045000I-50800J0D01*
G01*
X6770200Y-6379200D02*
X6871800Y-6480800D01*
X6871800Y-6379200D02*
X6770200Y-6480800D01*
X6871800Y-6430000D02*
G75*
G03X6871800Y-6430000I-50800J0D01*
G01*
X6908800Y-7569200D02*
X7010400Y-7670800D01*
X7010400Y-7569200D02*
X6908800Y-7670800D01*
X7010400Y-7620000D02*
G75*
G03X7010400Y-7620000I-50800J0D01*
G01*
X7023200Y-4994200D02*
X7124800Y-5095800D01*
X7124800Y-4994200D02*
X7023200Y-5095800D01*
X7124800Y-5045000D02*
G75*
G03X7124800Y-5045000I-50800J0D01*
G01*
X7024200Y-6379200D02*
X7125800Y-6480800D01*
X7125800Y-6379200D02*
X7024200Y-6480800D01*
X7125800Y-6430000D02*
G75*
G03X7125800Y-6430000I-50800J0D01*
G01*
X7162800Y-7569200D02*
X7264400Y-7670800D01*
X7264400Y-7569200D02*
X7162800Y-7670800D01*
X7264400Y-7620000D02*
G75*
G03X7264400Y-7620000I-50800J0D01*
G01*
X7236200Y-8194200D02*
X7337800Y-8295800D01*
X7337800Y-8194200D02*
X7236200Y-8295800D01*
X7337800Y-8245000D02*
G75*
G03X7337800Y-8245000I-50800J0D01*
G01*
X7236200Y-8889200D02*
X7337800Y-8990800D01*
X7337800Y-8889200D02*
X7236200Y-8990800D01*
X7337800Y-8940000D02*
G75*
G03X7337800Y-8940000I-50800J0D01*
G01*
X7277200Y-4994200D02*
X7378800Y-5095800D01*
X7378800Y-4994200D02*
X7277200Y-5095800D01*
X7378800Y-5045000D02*
G75*
G03X7378800Y-5045000I-50800J0D01*
G01*
X7278200Y-6379200D02*
X7379800Y-6480800D01*
X7379800Y-6379200D02*
X7278200Y-6480800D01*
X7379800Y-6430000D02*
G75*
G03X7379800Y-6430000I-50800J0D01*
G01*
X7416800Y-7569200D02*
X7518400Y-7670800D01*
X7518400Y-7569200D02*
X7416800Y-7670800D01*
X7518400Y-7620000D02*
G75*
G03X7518400Y-7620000I-50800J0D01*
G01*
X7490200Y-8194200D02*
X7591800Y-8295800D01*
X7591800Y-8194200D02*
X7490200Y-8295800D01*
X7591800Y-8245000D02*
G75*
G03X7591800Y-8245000I-50800J0D01*
G01*
X7490200Y-8889200D02*
X7591800Y-8990800D01*
X7591800Y-8889200D02*
X7490200Y-8990800D01*
X7591800Y-8940000D02*
G75*
G03X7591800Y-8940000I-50800J0D01*
G01*
X7670800Y-7569200D02*
X7772400Y-7670800D01*
X7772400Y-7569200D02*
X7670800Y-7670800D01*
X7772400Y-7620000D02*
G75*
G03X7772400Y-7620000I-50800J0D01*
G01*
X7744200Y-8194200D02*
X7845800Y-8295800D01*
X7845800Y-8194200D02*
X7744200Y-8295800D01*
X7845800Y-8245000D02*
G75*
G03X7845800Y-8245000I-50800J0D01*
G01*
X7744200Y-8889200D02*
X7845800Y-8990800D01*
X7845800Y-8889200D02*
X7744200Y-8990800D01*
X7845800Y-8940000D02*
G75*
G03X7845800Y-8940000I-50800J0D01*
G01*
X7823200Y-12395200D02*
X7924800Y-12496800D01*
X7924800Y-12395200D02*
X7823200Y-12496800D01*
X7924800Y-12446000D02*
G75*
G03X7924800Y-12446000I-50800J0D01*
G01*
X7924800Y-7569200D02*
X8026400Y-7670800D01*
X8026400Y-7569200D02*
X7924800Y-7670800D01*
X8026400Y-7620000D02*
G75*
G03X8026400Y-7620000I-50800J0D01*
G01*
X8077200Y-12395200D02*
X8178800Y-12496800D01*
X8178800Y-12395200D02*
X8077200Y-12496800D01*
X8178800Y-12446000D02*
G75*
G03X8178800Y-12446000I-50800J0D01*
G01*
X8165618Y-6641618D02*
X8267218Y-6743218D01*
X8267218Y-6641618D02*
X8165618Y-6743218D01*
X8267218Y-6692418D02*
G75*
G03X8267218Y-6692418I-50800J0D01*
G01*
X8178800Y-7569200D02*
X8280400Y-7670800D01*
X8280400Y-7569200D02*
X8178800Y-7670800D01*
X8280400Y-7620000D02*
G75*
G03X8280400Y-7620000I-50800J0D01*
G01*
X8204200Y-13093700D02*
X8305800Y-13195300D01*
X8305800Y-13093700D02*
X8204200Y-13195300D01*
X8305800Y-13144500D02*
G75*
G03X8305800Y-13144500I-50800J0D01*
G01*
X8331200Y-12395200D02*
X8432800Y-12496800D01*
X8432800Y-12395200D02*
X8331200Y-12496800D01*
X8432800Y-12446000D02*
G75*
G03X8432800Y-12446000I-50800J0D01*
G01*
X8432800Y-7569200D02*
X8534400Y-7670800D01*
X8534400Y-7569200D02*
X8432800Y-7670800D01*
X8534400Y-7620000D02*
G75*
G03X8534400Y-7620000I-50800J0D01*
G01*
X8458200Y-13093700D02*
X8559800Y-13195300D01*
X8559800Y-13093700D02*
X8458200Y-13195300D01*
X8559800Y-13144500D02*
G75*
G03X8559800Y-13144500I-50800J0D01*
G01*
X8585200Y-12395200D02*
X8686800Y-12496800D01*
X8686800Y-12395200D02*
X8585200Y-12496800D01*
X8686800Y-12446000D02*
G75*
G03X8686800Y-12446000I-50800J0D01*
G01*
X8686800Y-7569200D02*
X8788400Y-7670800D01*
X8788400Y-7569200D02*
X8686800Y-7670800D01*
X8788400Y-7620000D02*
G75*
G03X8788400Y-7620000I-50800J0D01*
G01*
X8839200Y-12395200D02*
X8940800Y-12496800D01*
X8940800Y-12395200D02*
X8839200Y-12496800D01*
X8940800Y-12446000D02*
G75*
G03X8940800Y-12446000I-50800J0D01*
G01*
X8839200Y-13093700D02*
X8940800Y-13195300D01*
X8940800Y-13093700D02*
X8839200Y-13195300D01*
X8940800Y-13144500D02*
G75*
G03X8940800Y-13144500I-50800J0D01*
G01*
X8940800Y-7569200D02*
X9042400Y-7670800D01*
X9042400Y-7569200D02*
X8940800Y-7670800D01*
X9042400Y-7620000D02*
G75*
G03X9042400Y-7620000I-50800J0D01*
G01*
X9093200Y-12395200D02*
X9194800Y-12496800D01*
X9194800Y-12395200D02*
X9093200Y-12496800D01*
X9194800Y-12446000D02*
G75*
G03X9194800Y-12446000I-50800J0D01*
G01*
X9093200Y-13093700D02*
X9194800Y-13195300D01*
X9194800Y-13093700D02*
X9093200Y-13195300D01*
X9194800Y-13144500D02*
G75*
G03X9194800Y-13144500I-50800J0D01*
G01*
X9194800Y-7569200D02*
X9296400Y-7670800D01*
X9296400Y-7569200D02*
X9194800Y-7670800D01*
X9296400Y-7620000D02*
G75*
G03X9296400Y-7620000I-50800J0D01*
G01*
X9346700Y-11887200D02*
X9448300Y-11988800D01*
X9448300Y-11887200D02*
X9346700Y-11988800D01*
X9448300Y-11938000D02*
G75*
G03X9448300Y-11938000I-50800J0D01*
G01*
X9347200Y-12395200D02*
X9448800Y-12496800D01*
X9448800Y-12395200D02*
X9347200Y-12496800D01*
X9448800Y-12446000D02*
G75*
G03X9448800Y-12446000I-50800J0D01*
G01*
X9347200Y-13093700D02*
X9448800Y-13195300D01*
X9448800Y-13093700D02*
X9347200Y-13195300D01*
X9448800Y-13144500D02*
G75*
G03X9448800Y-13144500I-50800J0D01*
G01*
X9601200Y-7569200D02*
X9702800Y-7670800D01*
X9702800Y-7569200D02*
X9601200Y-7670800D01*
X9702800Y-7620000D02*
G75*
G03X9702800Y-7620000I-50800J0D01*
G01*
X9601200Y-12395200D02*
X9702800Y-12496800D01*
X9702800Y-12395200D02*
X9601200Y-12496800D01*
X9702800Y-12446000D02*
G75*
G03X9702800Y-12446000I-50800J0D01*
G01*
X9601200Y-13093700D02*
X9702800Y-13195300D01*
X9702800Y-13093700D02*
X9601200Y-13195300D01*
X9702800Y-13144500D02*
G75*
G03X9702800Y-13144500I-50800J0D01*
G01*
X9855200Y-7569200D02*
X9956800Y-7670800D01*
X9956800Y-7569200D02*
X9855200Y-7670800D01*
X9956800Y-7620000D02*
G75*
G03X9956800Y-7620000I-50800J0D01*
G01*
X10109200Y-7569200D02*
X10210800Y-7670800D01*
X10210800Y-7569200D02*
X10109200Y-7670800D01*
X10210800Y-7620000D02*
G75*
G03X10210800Y-7620000I-50800J0D01*
G01*
X10109200Y-12395200D02*
X10210800Y-12496800D01*
X10210800Y-12395200D02*
X10109200Y-12496800D01*
X10210800Y-12446000D02*
G75*
G03X10210800Y-12446000I-50800J0D01*
G01*
X10363200Y-7569200D02*
X10464800Y-7670800D01*
X10464800Y-7569200D02*
X10363200Y-7670800D01*
X10464800Y-7620000D02*
G75*
G03X10464800Y-7620000I-50800J0D01*
G01*
X10363200Y-12395200D02*
X10464800Y-12496800D01*
X10464800Y-12395200D02*
X10363200Y-12496800D01*
X10464800Y-12446000D02*
G75*
G03X10464800Y-12446000I-50800J0D01*
G01*
X10617200Y-7569200D02*
X10718800Y-7670800D01*
X10718800Y-7569200D02*
X10617200Y-7670800D01*
X10718800Y-7620000D02*
G75*
G03X10718800Y-7620000I-50800J0D01*
G01*
X10617200Y-12395200D02*
X10718800Y-12496800D01*
X10718800Y-12395200D02*
X10617200Y-12496800D01*
X10718800Y-12446000D02*
G75*
G03X10718800Y-12446000I-50800J0D01*
G01*
X10744200Y-4257040D02*
X10845800Y-4358640D01*
X10845800Y-4257040D02*
X10744200Y-4358640D01*
X10845800Y-4307840D02*
G75*
G03X10845800Y-4307840I-50800J0D01*
G01*
X10744200Y-13093700D02*
X10845800Y-13195300D01*
X10845800Y-13093700D02*
X10744200Y-13195300D01*
X10845800Y-13144500D02*
G75*
G03X10845800Y-13144500I-50800J0D01*
G01*
X10871200Y-7569200D02*
X10972800Y-7670800D01*
X10972800Y-7569200D02*
X10871200Y-7670800D01*
X10972800Y-7620000D02*
G75*
G03X10972800Y-7620000I-50800J0D01*
G01*
X10871200Y-12395200D02*
X10972800Y-12496800D01*
X10972800Y-12395200D02*
X10871200Y-12496800D01*
X10972800Y-12446000D02*
G75*
G03X10972800Y-12446000I-50800J0D01*
G01*
X10998200Y-4257040D02*
X11099800Y-4358640D01*
X11099800Y-4257040D02*
X10998200Y-4358640D01*
X11099800Y-4307840D02*
G75*
G03X11099800Y-4307840I-50800J0D01*
G01*
X10998200Y-13093700D02*
X11099800Y-13195300D01*
X11099800Y-13093700D02*
X10998200Y-13195300D01*
X11099800Y-13144500D02*
G75*
G03X11099800Y-13144500I-50800J0D01*
G01*
X11125200Y-7569200D02*
X11226800Y-7670800D01*
X11226800Y-7569200D02*
X11125200Y-7670800D01*
X11226800Y-7620000D02*
G75*
G03X11226800Y-7620000I-50800J0D01*
G01*
X11125200Y-12395200D02*
X11226800Y-12496800D01*
X11226800Y-12395200D02*
X11125200Y-12496800D01*
X11226800Y-12446000D02*
G75*
G03X11226800Y-12446000I-50800J0D01*
G01*
X11252200Y-4257040D02*
X11353800Y-4358640D01*
X11353800Y-4257040D02*
X11252200Y-4358640D01*
X11353800Y-4307840D02*
G75*
G03X11353800Y-4307840I-50800J0D01*
G01*
X11252200Y-13093700D02*
X11353800Y-13195300D01*
X11353800Y-13093700D02*
X11252200Y-13195300D01*
X11353800Y-13144500D02*
G75*
G03X11353800Y-13144500I-50800J0D01*
G01*
X11379200Y-7569200D02*
X11480800Y-7670800D01*
X11480800Y-7569200D02*
X11379200Y-7670800D01*
X11480800Y-7620000D02*
G75*
G03X11480800Y-7620000I-50800J0D01*
G01*
X11379200Y-12395200D02*
X11480800Y-12496800D01*
X11480800Y-12395200D02*
X11379200Y-12496800D01*
X11480800Y-12446000D02*
G75*
G03X11480800Y-12446000I-50800J0D01*
G01*
X11506200Y-4257040D02*
X11607800Y-4358640D01*
X11607800Y-4257040D02*
X11506200Y-4358640D01*
X11607800Y-4307840D02*
G75*
G03X11607800Y-4307840I-50800J0D01*
G01*
X11506200Y-13093700D02*
X11607800Y-13195300D01*
X11607800Y-13093700D02*
X11506200Y-13195300D01*
X11607800Y-13144500D02*
G75*
G03X11607800Y-13144500I-50800J0D01*
G01*
X11633200Y-12395200D02*
X11734800Y-12496800D01*
X11734800Y-12395200D02*
X11633200Y-12496800D01*
X11734800Y-12446000D02*
G75*
G03X11734800Y-12446000I-50800J0D01*
G01*
X11871960Y-4257040D02*
X11973560Y-4358640D01*
X11973560Y-4257040D02*
X11871960Y-4358640D01*
X11973560Y-4307840D02*
G75*
G03X11973560Y-4307840I-50800J0D01*
G01*
X11887200Y-7569200D02*
X11988800Y-7670800D01*
X11988800Y-7569200D02*
X11887200Y-7670800D01*
X11988800Y-7620000D02*
G75*
G03X11988800Y-7620000I-50800J0D01*
G01*
X11887200Y-12395200D02*
X11988800Y-12496800D01*
X11988800Y-12395200D02*
X11887200Y-12496800D01*
X11988800Y-12446000D02*
G75*
G03X11988800Y-12446000I-50800J0D01*
G01*
X12125960Y-4257040D02*
X12227560Y-4358640D01*
X12227560Y-4257040D02*
X12125960Y-4358640D01*
X12227560Y-4307840D02*
G75*
G03X12227560Y-4307840I-50800J0D01*
G01*
X12141200Y-7569200D02*
X12242800Y-7670800D01*
X12242800Y-7569200D02*
X12141200Y-7670800D01*
X12242800Y-7620000D02*
G75*
G03X12242800Y-7620000I-50800J0D01*
G01*
X12379960Y-4257040D02*
X12481560Y-4358640D01*
X12481560Y-4257040D02*
X12379960Y-4358640D01*
X12481560Y-4307840D02*
G75*
G03X12481560Y-4307840I-50800J0D01*
G01*
X12395200Y-7569200D02*
X12496800Y-7670800D01*
X12496800Y-7569200D02*
X12395200Y-7670800D01*
X12496800Y-7620000D02*
G75*
G03X12496800Y-7620000I-50800J0D01*
G01*
X12395200Y-12395200D02*
X12496800Y-12496800D01*
X12496800Y-12395200D02*
X12395200Y-12496800D01*
X12496800Y-12446000D02*
G75*
G03X12496800Y-12446000I-50800J0D01*
G01*
X12633960Y-4257040D02*
X12735560Y-4358640D01*
X12735560Y-4257040D02*
X12633960Y-4358640D01*
X12735560Y-4307840D02*
G75*
G03X12735560Y-4307840I-50800J0D01*
G01*
X12649200Y-7569200D02*
X12750800Y-7670800D01*
X12750800Y-7569200D02*
X12649200Y-7670800D01*
X12750800Y-7620000D02*
G75*
G03X12750800Y-7620000I-50800J0D01*
G01*
X12649200Y-12395200D02*
X12750800Y-12496800D01*
X12750800Y-12395200D02*
X12649200Y-12496800D01*
X12750800Y-12446000D02*
G75*
G03X12750800Y-12446000I-50800J0D01*
G01*
X12776200Y-13093700D02*
X12877800Y-13195300D01*
X12877800Y-13093700D02*
X12776200Y-13195300D01*
X12877800Y-13144500D02*
G75*
G03X12877800Y-13144500I-50800J0D01*
G01*
X12903200Y-7569200D02*
X13004800Y-7670800D01*
X13004800Y-7569200D02*
X12903200Y-7670800D01*
X13004800Y-7620000D02*
G75*
G03X13004800Y-7620000I-50800J0D01*
G01*
X12903200Y-12395200D02*
X13004800Y-12496800D01*
X13004800Y-12395200D02*
X12903200Y-12496800D01*
X13004800Y-12446000D02*
G75*
G03X13004800Y-12446000I-50800J0D01*
G01*
X13030200Y-13093700D02*
X13131800Y-13195300D01*
X13131800Y-13093700D02*
X13030200Y-13195300D01*
X13131800Y-13144500D02*
G75*
G03X13131800Y-13144500I-50800J0D01*
G01*
X13157200Y-7569200D02*
X13258800Y-7670800D01*
X13258800Y-7569200D02*
X13157200Y-7670800D01*
X13258800Y-7620000D02*
G75*
G03X13258800Y-7620000I-50800J0D01*
G01*
X13157200Y-12395200D02*
X13258800Y-12496800D01*
X13258800Y-12395200D02*
X13157200Y-12496800D01*
X13258800Y-12446000D02*
G75*
G03X13258800Y-12446000I-50800J0D01*
G01*
X13284200Y-13093700D02*
X13385800Y-13195300D01*
X13385800Y-13093700D02*
X13284200Y-13195300D01*
X13385800Y-13144500D02*
G75*
G03X13385800Y-13144500I-50800J0D01*
G01*
X13411200Y-7569200D02*
X13512800Y-7670800D01*
X13512800Y-7569200D02*
X13411200Y-7670800D01*
X13512800Y-7620000D02*
G75*
G03X13512800Y-7620000I-50800J0D01*
G01*
X13411200Y-12395200D02*
X13512800Y-12496800D01*
X13512800Y-12395200D02*
X13411200Y-12496800D01*
X13512800Y-12446000D02*
G75*
G03X13512800Y-12446000I-50800J0D01*
G01*
X13538200Y-13093700D02*
X13639800Y-13195300D01*
X13639800Y-13093700D02*
X13538200Y-13195300D01*
X13639800Y-13144500D02*
G75*
G03X13639800Y-13144500I-50800J0D01*
G01*
X13665200Y-7569200D02*
X13766800Y-7670800D01*
X13766800Y-7569200D02*
X13665200Y-7670800D01*
X13766800Y-7620000D02*
G75*
G03X13766800Y-7620000I-50800J0D01*
G01*
X13665200Y-12395200D02*
X13766800Y-12496800D01*
X13766800Y-12395200D02*
X13665200Y-12496800D01*
X13766800Y-12446000D02*
G75*
G03X13766800Y-12446000I-50800J0D01*
G01*
X13919200Y-12395200D02*
X14020800Y-12496800D01*
X14020800Y-12395200D02*
X13919200Y-12496800D01*
X14020800Y-12446000D02*
G75*
G03X14020800Y-12446000I-50800J0D01*
G01*
X14173200Y-12395200D02*
X14274800Y-12496800D01*
X14274800Y-12395200D02*
X14173200Y-12496800D01*
X14274800Y-12446000D02*
G75*
G03X14274800Y-12446000I-50800J0D01*
G01*
X14427200Y-7569200D02*
X14528800Y-7670800D01*
X14528800Y-7569200D02*
X14427200Y-7670800D01*
X14528800Y-7620000D02*
G75*
G03X14528800Y-7620000I-50800J0D01*
G01*
X14427200Y-7823200D02*
X14528800Y-7924800D01*
X14528800Y-7823200D02*
X14427200Y-7924800D01*
X14528800Y-7874000D02*
G75*
G03X14528800Y-7874000I-50800J0D01*
G01*
X14427200Y-8077200D02*
X14528800Y-8178800D01*
X14528800Y-8077200D02*
X14427200Y-8178800D01*
X14528800Y-8128000D02*
G75*
G03X14528800Y-8128000I-50800J0D01*
G01*
X14427200Y-8331200D02*
X14528800Y-8432800D01*
X14528800Y-8331200D02*
X14427200Y-8432800D01*
X14528800Y-8382000D02*
G75*
G03X14528800Y-8382000I-50800J0D01*
G01*
X14427200Y-8585200D02*
X14528800Y-8686800D01*
X14528800Y-8585200D02*
X14427200Y-8686800D01*
X14528800Y-8636000D02*
G75*
G03X14528800Y-8636000I-50800J0D01*
G01*
X14427200Y-8839200D02*
X14528800Y-8940800D01*
X14528800Y-8839200D02*
X14427200Y-8940800D01*
X14528800Y-8890000D02*
G75*
G03X14528800Y-8890000I-50800J0D01*
G01*
X14427200Y-9093200D02*
X14528800Y-9194800D01*
X14528800Y-9093200D02*
X14427200Y-9194800D01*
X14528800Y-9144000D02*
G75*
G03X14528800Y-9144000I-50800J0D01*
G01*
X14427200Y-9347200D02*
X14528800Y-9448800D01*
X14528800Y-9347200D02*
X14427200Y-9448800D01*
X14528800Y-9398000D02*
G75*
G03X14528800Y-9398000I-50800J0D01*
G01*
X14427200Y-9601200D02*
X14528800Y-9702800D01*
X14528800Y-9601200D02*
X14427200Y-9702800D01*
X14528800Y-9652000D02*
G75*
G03X14528800Y-9652000I-50800J0D01*
G01*
X14427200Y-9855200D02*
X14528800Y-9956800D01*
X14528800Y-9855200D02*
X14427200Y-9956800D01*
X14528800Y-9906000D02*
G75*
G03X14528800Y-9906000I-50800J0D01*
G01*
X14427200Y-10109200D02*
X14528800Y-10210800D01*
X14528800Y-10109200D02*
X14427200Y-10210800D01*
X14528800Y-10160000D02*
G75*
G03X14528800Y-10160000I-50800J0D01*
G01*
X14427200Y-10363200D02*
X14528800Y-10464800D01*
X14528800Y-10363200D02*
X14427200Y-10464800D01*
X14528800Y-10414000D02*
G75*
G03X14528800Y-10414000I-50800J0D01*
G01*
X14427200Y-10617200D02*
X14528800Y-10718800D01*
X14528800Y-10617200D02*
X14427200Y-10718800D01*
X14528800Y-10668000D02*
G75*
G03X14528800Y-10668000I-50800J0D01*
G01*
X14427200Y-10871200D02*
X14528800Y-10972800D01*
X14528800Y-10871200D02*
X14427200Y-10972800D01*
X14528800Y-10922000D02*
G75*
G03X14528800Y-10922000I-50800J0D01*
G01*
X14427200Y-11125200D02*
X14528800Y-11226800D01*
X14528800Y-11125200D02*
X14427200Y-11226800D01*
X14528800Y-11176000D02*
G75*
G03X14528800Y-11176000I-50800J0D01*
G01*
X14427200Y-11379200D02*
X14528800Y-11480800D01*
X14528800Y-11379200D02*
X14427200Y-11480800D01*
X14528800Y-11430000D02*
G75*
G03X14528800Y-11430000I-50800J0D01*
G01*
X14427200Y-11633200D02*
X14528800Y-11734800D01*
X14528800Y-11633200D02*
X14427200Y-11734800D01*
X14528800Y-11684000D02*
G75*
G03X14528800Y-11684000I-50800J0D01*
G01*
X14427200Y-11887200D02*
X14528800Y-11988800D01*
X14528800Y-11887200D02*
X14427200Y-11988800D01*
X14528800Y-11938000D02*
G75*
G03X14528800Y-11938000I-50800J0D01*
G01*
X14681200Y-7569200D02*
X14782800Y-7670800D01*
X14782800Y-7569200D02*
X14681200Y-7670800D01*
X14782800Y-7620000D02*
G75*
G03X14782800Y-7620000I-50800J0D01*
G01*
X14681200Y-7823200D02*
X14782800Y-7924800D01*
X14782800Y-7823200D02*
X14681200Y-7924800D01*
X14782800Y-7874000D02*
G75*
G03X14782800Y-7874000I-50800J0D01*
G01*
X14681200Y-8077200D02*
X14782800Y-8178800D01*
X14782800Y-8077200D02*
X14681200Y-8178800D01*
X14782800Y-8128000D02*
G75*
G03X14782800Y-8128000I-50800J0D01*
G01*
X14681200Y-8331200D02*
X14782800Y-8432800D01*
X14782800Y-8331200D02*
X14681200Y-8432800D01*
X14782800Y-8382000D02*
G75*
G03X14782800Y-8382000I-50800J0D01*
G01*
X14681200Y-8585200D02*
X14782800Y-8686800D01*
X14782800Y-8585200D02*
X14681200Y-8686800D01*
X14782800Y-8636000D02*
G75*
G03X14782800Y-8636000I-50800J0D01*
G01*
X14681200Y-8839200D02*
X14782800Y-8940800D01*
X14782800Y-8839200D02*
X14681200Y-8940800D01*
X14782800Y-8890000D02*
G75*
G03X14782800Y-8890000I-50800J0D01*
G01*
X14681200Y-9093200D02*
X14782800Y-9194800D01*
X14782800Y-9093200D02*
X14681200Y-9194800D01*
X14782800Y-9144000D02*
G75*
G03X14782800Y-9144000I-50800J0D01*
G01*
X14681200Y-9347200D02*
X14782800Y-9448800D01*
X14782800Y-9347200D02*
X14681200Y-9448800D01*
X14782800Y-9398000D02*
G75*
G03X14782800Y-9398000I-50800J0D01*
G01*
X14681200Y-9601200D02*
X14782800Y-9702800D01*
X14782800Y-9601200D02*
X14681200Y-9702800D01*
X14782800Y-9652000D02*
G75*
G03X14782800Y-9652000I-50800J0D01*
G01*
X14681200Y-9855200D02*
X14782800Y-9956800D01*
X14782800Y-9855200D02*
X14681200Y-9956800D01*
X14782800Y-9906000D02*
G75*
G03X14782800Y-9906000I-50800J0D01*
G01*
X14681200Y-10109200D02*
X14782800Y-10210800D01*
X14782800Y-10109200D02*
X14681200Y-10210800D01*
X14782800Y-10160000D02*
G75*
G03X14782800Y-10160000I-50800J0D01*
G01*
X14681200Y-10363200D02*
X14782800Y-10464800D01*
X14782800Y-10363200D02*
X14681200Y-10464800D01*
X14782800Y-10414000D02*
G75*
G03X14782800Y-10414000I-50800J0D01*
G01*
X14681200Y-10617200D02*
X14782800Y-10718800D01*
X14782800Y-10617200D02*
X14681200Y-10718800D01*
X14782800Y-10668000D02*
G75*
G03X14782800Y-10668000I-50800J0D01*
G01*
X14681200Y-10871200D02*
X14782800Y-10972800D01*
X14782800Y-10871200D02*
X14681200Y-10972800D01*
X14782800Y-10922000D02*
G75*
G03X14782800Y-10922000I-50800J0D01*
G01*
X14681200Y-11125200D02*
X14782800Y-11226800D01*
X14782800Y-11125200D02*
X14681200Y-11226800D01*
X14782800Y-11176000D02*
G75*
G03X14782800Y-11176000I-50800J0D01*
G01*
X14681200Y-11379200D02*
X14782800Y-11480800D01*
X14782800Y-11379200D02*
X14681200Y-11480800D01*
X14782800Y-11430000D02*
G75*
G03X14782800Y-11430000I-50800J0D01*
G01*
X14681200Y-11633200D02*
X14782800Y-11734800D01*
X14782800Y-11633200D02*
X14681200Y-11734800D01*
X14782800Y-11684000D02*
G75*
G03X14782800Y-11684000I-50800J0D01*
G01*
X14681200Y-11887200D02*
X14782800Y-11988800D01*
X14782800Y-11887200D02*
X14681200Y-11988800D01*
X14782800Y-11938000D02*
G75*
G03X14782800Y-11938000I-50800J0D01*
G01*
X14805914Y-5824220D02*
X14907514Y-5925820D01*
X14907514Y-5824220D02*
X14805914Y-5925820D01*
X14907514Y-5875020D02*
G75*
G03X14907514Y-5875020I-50800J0D01*
G01*
X14805914Y-6078220D02*
X14907514Y-6179820D01*
X14907514Y-6078220D02*
X14805914Y-6179820D01*
X14907514Y-6129020D02*
G75*
G03X14907514Y-6129020I-50800J0D01*
G01*
X5637516Y-11483516D02*
X5762484Y-11608484D01*
X5762484Y-11483516D02*
X5637516Y-11608484D01*
X5700000Y-11483516D02*
X5700000Y-11608484D01*
X5637516Y-11546000D02*
X5762484Y-11546000D01*
X5637516Y-11991516D02*
X5762484Y-12116484D01*
X5762484Y-11991516D02*
X5637516Y-12116484D01*
X5700000Y-11991516D02*
X5700000Y-12116484D01*
X5637516Y-12054000D02*
X5762484Y-12054000D01*
X5637516Y-12533516D02*
X5762484Y-12658484D01*
X5762484Y-12533516D02*
X5637516Y-12658484D01*
X5700000Y-12533516D02*
X5700000Y-12658484D01*
X5637516Y-12596000D02*
X5762484Y-12596000D01*
X5637516Y-13041516D02*
X5762484Y-13166484D01*
X5762484Y-13041516D02*
X5637516Y-13166484D01*
X5700000Y-13041516D02*
X5700000Y-13166484D01*
X5637516Y-13104000D02*
X5762484Y-13104000D01*
X5687516Y-4707516D02*
X5812484Y-4832484D01*
X5812484Y-4707516D02*
X5687516Y-4832484D01*
X5750000Y-4707516D02*
X5750000Y-4832484D01*
X5687516Y-4770000D02*
X5812484Y-4770000D01*
X5687516Y-5215516D02*
X5812484Y-5340484D01*
X5812484Y-5215516D02*
X5687516Y-5340484D01*
X5750000Y-5215516D02*
X5750000Y-5340484D01*
X5687516Y-5278000D02*
X5812484Y-5278000D01*
X5687516Y-5763516D02*
X5812484Y-5888484D01*
X5812484Y-5763516D02*
X5687516Y-5888484D01*
X5750000Y-5763516D02*
X5750000Y-5888484D01*
X5687516Y-5826000D02*
X5812484Y-5826000D01*
X5687516Y-6271516D02*
X5812484Y-6396484D01*
X5812484Y-6271516D02*
X5687516Y-6396484D01*
X5750000Y-6271516D02*
X5750000Y-6396484D01*
X5687516Y-6334000D02*
X5812484Y-6334000D01*
X5687516Y-6883516D02*
X5812484Y-7008484D01*
X5812484Y-6883516D02*
X5687516Y-7008484D01*
X5750000Y-6883516D02*
X5750000Y-7008484D01*
X5687516Y-6946000D02*
X5812484Y-6946000D01*
X5687516Y-7391516D02*
X5812484Y-7516484D01*
X5812484Y-7391516D02*
X5687516Y-7516484D01*
X5750000Y-7391516D02*
X5750000Y-7516484D01*
X5687516Y-7454000D02*
X5812484Y-7454000D01*
X5687516Y-7933516D02*
X5812484Y-8058484D01*
X5812484Y-7933516D02*
X5687516Y-8058484D01*
X5750000Y-7933516D02*
X5750000Y-8058484D01*
X5687516Y-7996000D02*
X5812484Y-7996000D01*
X5687516Y-8441516D02*
X5812484Y-8566484D01*
X5812484Y-8441516D02*
X5687516Y-8566484D01*
X5750000Y-8441516D02*
X5750000Y-8566484D01*
X5687516Y-8504000D02*
X5812484Y-8504000D01*
X5687516Y-8983516D02*
X5812484Y-9108484D01*
X5812484Y-8983516D02*
X5687516Y-9108484D01*
X5750000Y-8983516D02*
X5750000Y-9108484D01*
X5687516Y-9046000D02*
X5812484Y-9046000D01*
X5687516Y-9491516D02*
X5812484Y-9616484D01*
X5812484Y-9491516D02*
X5687516Y-9616484D01*
X5750000Y-9491516D02*
X5750000Y-9616484D01*
X5687516Y-9554000D02*
X5812484Y-9554000D01*
X5687516Y-10033516D02*
X5812484Y-10158484D01*
X5812484Y-10033516D02*
X5687516Y-10158484D01*
X5750000Y-10033516D02*
X5750000Y-10158484D01*
X5687516Y-10096000D02*
X5812484Y-10096000D01*
X5687516Y-10541516D02*
X5812484Y-10666484D01*
X5812484Y-10541516D02*
X5687516Y-10666484D01*
X5750000Y-10541516D02*
X5750000Y-10666484D01*
X5687516Y-10604000D02*
X5812484Y-10604000D01*
X6746500Y-10497500D02*
X6873500Y-10624500D01*
X6873500Y-10497500D02*
X6746500Y-10624500D01*
X6854902Y-10605902D02*
X6854902Y-10516098D01*
X6765098Y-10516098D01*
X6765098Y-10605902D01*
X6854902Y-10605902D01*
X6749000Y-9029000D02*
X6876000Y-9156000D01*
X6876000Y-9029000D02*
X6749000Y-9156000D01*
X6857402Y-9137402D02*
X6857402Y-9047598D01*
X6767598Y-9047598D01*
X6767598Y-9137402D01*
X6857402Y-9137402D01*
X6318250Y-12287250D02*
X6635750Y-12604750D01*
X6635750Y-12287250D02*
X6318250Y-12604750D01*
X6477000Y-12604750D02*
X6635750Y-12446000D01*
X6477000Y-12287250D01*
X6318250Y-12446000D01*
X6477000Y-12604750D01*
X6445250Y-7461250D02*
X6762750Y-7778750D01*
X6762750Y-7461250D02*
X6445250Y-7778750D01*
X6604000Y-7778750D02*
X6762750Y-7620000D01*
X6604000Y-7461250D01*
X6445250Y-7620000D01*
X6604000Y-7778750D01*
X13938250Y-7461250D02*
X14255750Y-7778750D01*
X14255750Y-7461250D02*
X13938250Y-7778750D01*
X14097000Y-7778750D02*
X14255750Y-7620000D01*
X14097000Y-7461250D01*
X13938250Y-7620000D01*
X14097000Y-7778750D01*
X14573250Y-12287250D02*
X14890750Y-12604750D01*
X14890750Y-12287250D02*
X14573250Y-12604750D01*
X14732000Y-12604750D02*
X14890750Y-12446000D01*
X14732000Y-12287250D01*
X14573250Y-12446000D01*
X14732000Y-12604750D01*
D13*
X5484779Y-13946764D02*
X5484779Y-13646764D01*
X5556207Y-13646764D01*
X5599064Y-13661050D01*
X5627636Y-13689621D01*
X5641921Y-13718193D01*
X5656207Y-13775336D01*
X5656207Y-13818193D01*
X5641921Y-13875336D01*
X5627636Y-13903907D01*
X5599064Y-13932479D01*
X5556207Y-13946764D01*
X5484779Y-13946764D01*
X5784778Y-13946764D02*
X5784778Y-13746764D01*
X5784778Y-13803907D02*
X5799064Y-13775336D01*
X5813350Y-13761050D01*
X5841921Y-13746764D01*
X5870493Y-13746764D01*
X5970493Y-13946764D02*
X5970493Y-13746764D01*
X5970493Y-13646764D02*
X5956207Y-13661050D01*
X5970493Y-13675336D01*
X5984778Y-13661050D01*
X5970493Y-13646764D01*
X5970493Y-13675336D01*
X6156207Y-13946764D02*
X6127636Y-13932479D01*
X6113350Y-13903907D01*
X6113350Y-13646764D01*
X6313350Y-13946764D02*
X6284778Y-13932479D01*
X6270493Y-13903907D01*
X6270493Y-13646764D01*
X6656207Y-13946764D02*
X6656207Y-13646764D01*
X6756207Y-13861050D01*
X6856207Y-13646764D01*
X6856207Y-13946764D01*
X7127636Y-13946764D02*
X7127636Y-13789621D01*
X7113350Y-13761050D01*
X7084778Y-13746764D01*
X7027636Y-13746764D01*
X6999064Y-13761050D01*
X7127636Y-13932479D02*
X7099064Y-13946764D01*
X7027636Y-13946764D01*
X6999064Y-13932479D01*
X6984778Y-13903907D01*
X6984778Y-13875336D01*
X6999064Y-13846764D01*
X7027636Y-13832479D01*
X7099064Y-13832479D01*
X7127636Y-13818193D01*
X7270493Y-13746764D02*
X7270493Y-14046764D01*
X7270493Y-13761050D02*
X7299064Y-13746764D01*
X7356207Y-13746764D01*
X7384778Y-13761050D01*
X7399064Y-13775336D01*
X7413350Y-13803907D01*
X7413350Y-13889621D01*
X7399064Y-13918193D01*
X7384778Y-13932479D01*
X7356207Y-13946764D01*
X7299064Y-13946764D01*
X7270493Y-13932479D01*
X7541921Y-13918193D02*
X7556207Y-13932479D01*
X7541921Y-13946764D01*
X7527636Y-13932479D01*
X7541921Y-13918193D01*
X7541921Y-13946764D01*
X7541921Y-13761050D02*
X7556207Y-13775336D01*
X7541921Y-13789621D01*
X7527636Y-13775336D01*
X7541921Y-13761050D01*
X7541921Y-13789621D01*
X5173350Y-14421050D02*
X5213350Y-14461050D01*
X5213350Y-14421050D02*
X5173350Y-14461050D01*
X5541921Y-14276764D02*
X5570493Y-14276764D01*
X5599064Y-14291050D01*
X5613350Y-14305336D01*
X5627636Y-14333907D01*
X5641921Y-14391050D01*
X5641921Y-14462479D01*
X5627636Y-14519621D01*
X5613350Y-14548193D01*
X5599064Y-14562479D01*
X5570493Y-14576764D01*
X5541921Y-14576764D01*
X5513350Y-14562479D01*
X5499064Y-14548193D01*
X5484779Y-14519621D01*
X5470493Y-14462479D01*
X5470493Y-14391050D01*
X5484779Y-14333907D01*
X5499064Y-14305336D01*
X5513350Y-14291050D01*
X5541921Y-14276764D01*
X5770493Y-14548193D02*
X5784778Y-14562479D01*
X5770493Y-14576764D01*
X5756207Y-14562479D01*
X5770493Y-14548193D01*
X5770493Y-14576764D01*
X6041921Y-14376764D02*
X6041921Y-14576764D01*
X5970493Y-14262479D02*
X5899064Y-14476764D01*
X6084778Y-14476764D01*
X6256207Y-14276764D02*
X6284778Y-14276764D01*
X6313350Y-14291050D01*
X6327636Y-14305336D01*
X6341921Y-14333907D01*
X6356207Y-14391050D01*
X6356207Y-14462479D01*
X6341921Y-14519621D01*
X6327636Y-14548193D01*
X6313350Y-14562479D01*
X6284778Y-14576764D01*
X6256207Y-14576764D01*
X6227636Y-14562479D01*
X6213350Y-14548193D01*
X6199064Y-14519621D01*
X6184778Y-14462479D01*
X6184778Y-14391050D01*
X6199064Y-14333907D01*
X6213350Y-14305336D01*
X6227636Y-14291050D01*
X6256207Y-14276764D01*
X6484778Y-14576764D02*
X6484778Y-14376764D01*
X6484778Y-14405336D02*
X6499064Y-14391050D01*
X6527636Y-14376764D01*
X6570493Y-14376764D01*
X6599064Y-14391050D01*
X6613350Y-14419621D01*
X6613350Y-14576764D01*
X6613350Y-14419621D02*
X6627636Y-14391050D01*
X6656207Y-14376764D01*
X6699064Y-14376764D01*
X6727636Y-14391050D01*
X6741921Y-14419621D01*
X6741921Y-14576764D01*
X6884778Y-14576764D02*
X6884778Y-14376764D01*
X6884778Y-14405336D02*
X6899064Y-14391050D01*
X6927636Y-14376764D01*
X6970493Y-14376764D01*
X6999064Y-14391050D01*
X7013350Y-14419621D01*
X7013350Y-14576764D01*
X7013350Y-14419621D02*
X7027636Y-14391050D01*
X7056207Y-14376764D01*
X7099064Y-14376764D01*
X7127636Y-14391050D01*
X7141921Y-14419621D01*
X7141921Y-14576764D01*
X7727636Y-14262479D02*
X7470493Y-14648193D01*
X8113350Y-14276764D02*
X8141921Y-14276764D01*
X8170493Y-14291050D01*
X8184778Y-14305336D01*
X8199064Y-14333907D01*
X8213350Y-14391050D01*
X8213350Y-14462479D01*
X8199064Y-14519621D01*
X8184778Y-14548193D01*
X8170493Y-14562479D01*
X8141921Y-14576764D01*
X8113350Y-14576764D01*
X8084778Y-14562479D01*
X8070493Y-14548193D01*
X8056207Y-14519621D01*
X8041921Y-14462479D01*
X8041921Y-14391050D01*
X8056207Y-14333907D01*
X8070493Y-14305336D01*
X8084778Y-14291050D01*
X8113350Y-14276764D01*
X8341921Y-14548193D02*
X8356207Y-14562479D01*
X8341921Y-14576764D01*
X8327636Y-14562479D01*
X8341921Y-14548193D01*
X8341921Y-14576764D01*
X8541921Y-14276764D02*
X8570493Y-14276764D01*
X8599064Y-14291050D01*
X8613350Y-14305336D01*
X8627636Y-14333907D01*
X8641921Y-14391050D01*
X8641921Y-14462479D01*
X8627636Y-14519621D01*
X8613350Y-14548193D01*
X8599064Y-14562479D01*
X8570493Y-14576764D01*
X8541921Y-14576764D01*
X8513350Y-14562479D01*
X8499064Y-14548193D01*
X8484778Y-14519621D01*
X8470493Y-14462479D01*
X8470493Y-14391050D01*
X8484778Y-14333907D01*
X8499064Y-14305336D01*
X8513350Y-14291050D01*
X8541921Y-14276764D01*
X8927636Y-14576764D02*
X8756207Y-14576764D01*
X8841921Y-14576764D02*
X8841921Y-14276764D01*
X8813350Y-14319621D01*
X8784778Y-14348193D01*
X8756207Y-14362479D01*
X9184778Y-14276764D02*
X9127636Y-14276764D01*
X9099064Y-14291050D01*
X9084778Y-14305336D01*
X9056207Y-14348193D01*
X9041921Y-14405336D01*
X9041921Y-14519621D01*
X9056207Y-14548193D01*
X9070493Y-14562479D01*
X9099064Y-14576764D01*
X9156207Y-14576764D01*
X9184778Y-14562479D01*
X9199064Y-14548193D01*
X9213350Y-14519621D01*
X9213350Y-14448193D01*
X9199064Y-14419621D01*
X9184778Y-14405336D01*
X9156207Y-14391050D01*
X9099064Y-14391050D01*
X9070493Y-14405336D01*
X9056207Y-14419621D01*
X9041921Y-14448193D01*
X9327636Y-14276764D02*
X9327636Y-14333907D01*
X9441921Y-14276764D02*
X9441921Y-14333907D01*
X9884778Y-14691050D02*
X9870493Y-14676764D01*
X9841921Y-14633907D01*
X9827636Y-14605336D01*
X9813350Y-14562479D01*
X9799064Y-14491050D01*
X9799064Y-14433907D01*
X9813350Y-14362479D01*
X9827636Y-14319621D01*
X9841921Y-14291050D01*
X9870493Y-14248193D01*
X9884778Y-14233907D01*
X10013350Y-14576764D02*
X10070493Y-14576764D01*
X10099064Y-14562479D01*
X10113350Y-14548193D01*
X10141921Y-14505336D01*
X10156207Y-14448193D01*
X10156207Y-14333907D01*
X10141921Y-14305336D01*
X10127636Y-14291050D01*
X10099064Y-14276764D01*
X10041921Y-14276764D01*
X10013350Y-14291050D01*
X9999064Y-14305336D01*
X9984778Y-14333907D01*
X9984778Y-14405336D01*
X9999064Y-14433907D01*
X10013350Y-14448193D01*
X10041921Y-14462479D01*
X10099064Y-14462479D01*
X10127636Y-14448193D01*
X10141921Y-14433907D01*
X10156207Y-14405336D01*
X10256207Y-14276764D02*
X10456207Y-14276764D01*
X10327636Y-14576764D01*
X10799064Y-14576764D02*
X10799064Y-14276764D01*
X10927636Y-14576764D02*
X10927636Y-14419621D01*
X10913350Y-14391050D01*
X10884778Y-14376764D01*
X10841921Y-14376764D01*
X10813350Y-14391050D01*
X10799064Y-14405336D01*
X11113350Y-14576764D02*
X11084778Y-14562479D01*
X11070493Y-14548193D01*
X11056207Y-14519621D01*
X11056207Y-14433907D01*
X11070493Y-14405336D01*
X11084778Y-14391050D01*
X11113350Y-14376764D01*
X11156207Y-14376764D01*
X11184778Y-14391050D01*
X11199064Y-14405336D01*
X11213350Y-14433907D01*
X11213350Y-14519621D01*
X11199064Y-14548193D01*
X11184778Y-14562479D01*
X11156207Y-14576764D01*
X11113350Y-14576764D01*
X11384778Y-14576764D02*
X11356207Y-14562479D01*
X11341921Y-14533907D01*
X11341921Y-14276764D01*
X11613350Y-14562479D02*
X11584778Y-14576764D01*
X11527636Y-14576764D01*
X11499064Y-14562479D01*
X11484778Y-14533907D01*
X11484778Y-14419621D01*
X11499064Y-14391050D01*
X11527636Y-14376764D01*
X11584778Y-14376764D01*
X11613350Y-14391050D01*
X11627636Y-14419621D01*
X11627636Y-14448193D01*
X11484778Y-14476764D01*
X11741921Y-14562479D02*
X11770493Y-14576764D01*
X11827636Y-14576764D01*
X11856207Y-14562479D01*
X11870493Y-14533907D01*
X11870493Y-14519621D01*
X11856207Y-14491050D01*
X11827636Y-14476764D01*
X11784778Y-14476764D01*
X11756207Y-14462479D01*
X11741921Y-14433907D01*
X11741921Y-14419621D01*
X11756207Y-14391050D01*
X11784778Y-14376764D01*
X11827636Y-14376764D01*
X11856207Y-14391050D01*
X11970493Y-14691050D02*
X11984778Y-14676764D01*
X12013350Y-14633907D01*
X12027636Y-14605336D01*
X12041921Y-14562479D01*
X12056207Y-14491050D01*
X12056207Y-14433907D01*
X12041921Y-14362479D01*
X12027636Y-14319621D01*
X12013350Y-14291050D01*
X11984778Y-14248193D01*
X11970493Y-14233907D01*
X5213350Y-14837050D02*
G75*
G03X5213350Y-14837050I-25400J0D01*
G01*
X5541921Y-14672764D02*
X5570493Y-14672764D01*
X5599064Y-14687050D01*
X5613350Y-14701336D01*
X5627636Y-14729907D01*
X5641921Y-14787050D01*
X5641921Y-14858479D01*
X5627636Y-14915621D01*
X5613350Y-14944193D01*
X5599064Y-14958479D01*
X5570493Y-14972764D01*
X5541921Y-14972764D01*
X5513350Y-14958479D01*
X5499064Y-14944193D01*
X5484779Y-14915621D01*
X5470493Y-14858479D01*
X5470493Y-14787050D01*
X5484779Y-14729907D01*
X5499064Y-14701336D01*
X5513350Y-14687050D01*
X5541921Y-14672764D01*
X5770493Y-14944193D02*
X5784778Y-14958479D01*
X5770493Y-14972764D01*
X5756207Y-14958479D01*
X5770493Y-14944193D01*
X5770493Y-14972764D01*
X6056207Y-14672764D02*
X5913350Y-14672764D01*
X5899064Y-14815621D01*
X5913350Y-14801336D01*
X5941921Y-14787050D01*
X6013350Y-14787050D01*
X6041921Y-14801336D01*
X6056207Y-14815621D01*
X6070493Y-14844193D01*
X6070493Y-14915621D01*
X6056207Y-14944193D01*
X6041921Y-14958479D01*
X6013350Y-14972764D01*
X5941921Y-14972764D01*
X5913350Y-14958479D01*
X5899064Y-14944193D01*
X6356207Y-14972764D02*
X6184778Y-14972764D01*
X6270493Y-14972764D02*
X6270493Y-14672764D01*
X6241921Y-14715621D01*
X6213350Y-14744193D01*
X6184778Y-14758479D01*
X6484778Y-14972764D02*
X6484778Y-14772764D01*
X6484778Y-14801336D02*
X6499064Y-14787050D01*
X6527636Y-14772764D01*
X6570493Y-14772764D01*
X6599064Y-14787050D01*
X6613350Y-14815621D01*
X6613350Y-14972764D01*
X6613350Y-14815621D02*
X6627636Y-14787050D01*
X6656207Y-14772764D01*
X6699064Y-14772764D01*
X6727636Y-14787050D01*
X6741921Y-14815621D01*
X6741921Y-14972764D01*
X6884778Y-14972764D02*
X6884778Y-14772764D01*
X6884778Y-14801336D02*
X6899064Y-14787050D01*
X6927636Y-14772764D01*
X6970493Y-14772764D01*
X6999064Y-14787050D01*
X7013350Y-14815621D01*
X7013350Y-14972764D01*
X7013350Y-14815621D02*
X7027636Y-14787050D01*
X7056207Y-14772764D01*
X7099064Y-14772764D01*
X7127636Y-14787050D01*
X7141921Y-14815621D01*
X7141921Y-14972764D01*
X7727636Y-14658479D02*
X7470493Y-15044193D01*
X8113350Y-14672764D02*
X8141921Y-14672764D01*
X8170493Y-14687050D01*
X8184778Y-14701336D01*
X8199064Y-14729907D01*
X8213350Y-14787050D01*
X8213350Y-14858479D01*
X8199064Y-14915621D01*
X8184778Y-14944193D01*
X8170493Y-14958479D01*
X8141921Y-14972764D01*
X8113350Y-14972764D01*
X8084778Y-14958479D01*
X8070493Y-14944193D01*
X8056207Y-14915621D01*
X8041921Y-14858479D01*
X8041921Y-14787050D01*
X8056207Y-14729907D01*
X8070493Y-14701336D01*
X8084778Y-14687050D01*
X8113350Y-14672764D01*
X8341921Y-14944193D02*
X8356207Y-14958479D01*
X8341921Y-14972764D01*
X8327636Y-14958479D01*
X8341921Y-14944193D01*
X8341921Y-14972764D01*
X8541921Y-14672764D02*
X8570493Y-14672764D01*
X8599064Y-14687050D01*
X8613350Y-14701336D01*
X8627636Y-14729907D01*
X8641921Y-14787050D01*
X8641921Y-14858479D01*
X8627636Y-14915621D01*
X8613350Y-14944193D01*
X8599064Y-14958479D01*
X8570493Y-14972764D01*
X8541921Y-14972764D01*
X8513350Y-14958479D01*
X8499064Y-14944193D01*
X8484778Y-14915621D01*
X8470493Y-14858479D01*
X8470493Y-14787050D01*
X8484778Y-14729907D01*
X8499064Y-14701336D01*
X8513350Y-14687050D01*
X8541921Y-14672764D01*
X8756207Y-14701336D02*
X8770493Y-14687050D01*
X8799064Y-14672764D01*
X8870493Y-14672764D01*
X8899064Y-14687050D01*
X8913350Y-14701336D01*
X8927636Y-14729907D01*
X8927636Y-14758479D01*
X8913350Y-14801336D01*
X8741921Y-14972764D01*
X8927636Y-14972764D01*
X9113350Y-14672764D02*
X9141921Y-14672764D01*
X9170493Y-14687050D01*
X9184778Y-14701336D01*
X9199064Y-14729907D01*
X9213350Y-14787050D01*
X9213350Y-14858479D01*
X9199064Y-14915621D01*
X9184778Y-14944193D01*
X9170493Y-14958479D01*
X9141921Y-14972764D01*
X9113350Y-14972764D01*
X9084778Y-14958479D01*
X9070493Y-14944193D01*
X9056207Y-14915621D01*
X9041921Y-14858479D01*
X9041921Y-14787050D01*
X9056207Y-14729907D01*
X9070493Y-14701336D01*
X9084778Y-14687050D01*
X9113350Y-14672764D01*
X9327636Y-14672764D02*
X9327636Y-14729907D01*
X9441921Y-14672764D02*
X9441921Y-14729907D01*
X9884778Y-15087050D02*
X9870493Y-15072764D01*
X9841921Y-15029907D01*
X9827636Y-15001336D01*
X9813350Y-14958479D01*
X9799064Y-14887050D01*
X9799064Y-14829907D01*
X9813350Y-14758479D01*
X9827636Y-14715621D01*
X9841921Y-14687050D01*
X9870493Y-14644193D01*
X9884778Y-14629907D01*
X10156207Y-14972764D02*
X9984778Y-14972764D01*
X10070493Y-14972764D02*
X10070493Y-14672764D01*
X10041921Y-14715621D01*
X10013350Y-14744193D01*
X9984778Y-14758479D01*
X10413350Y-14672764D02*
X10356207Y-14672764D01*
X10327636Y-14687050D01*
X10313350Y-14701336D01*
X10284778Y-14744193D01*
X10270493Y-14801336D01*
X10270493Y-14915621D01*
X10284778Y-14944193D01*
X10299064Y-14958479D01*
X10327636Y-14972764D01*
X10384778Y-14972764D01*
X10413350Y-14958479D01*
X10427636Y-14944193D01*
X10441921Y-14915621D01*
X10441921Y-14844193D01*
X10427636Y-14815621D01*
X10413350Y-14801336D01*
X10384778Y-14787050D01*
X10327636Y-14787050D01*
X10299064Y-14801336D01*
X10284778Y-14815621D01*
X10270493Y-14844193D01*
X10799064Y-14972764D02*
X10799064Y-14672764D01*
X10927636Y-14972764D02*
X10927636Y-14815621D01*
X10913350Y-14787050D01*
X10884778Y-14772764D01*
X10841921Y-14772764D01*
X10813350Y-14787050D01*
X10799064Y-14801336D01*
X11113350Y-14972764D02*
X11084778Y-14958479D01*
X11070493Y-14944193D01*
X11056207Y-14915621D01*
X11056207Y-14829907D01*
X11070493Y-14801336D01*
X11084778Y-14787050D01*
X11113350Y-14772764D01*
X11156207Y-14772764D01*
X11184778Y-14787050D01*
X11199064Y-14801336D01*
X11213350Y-14829907D01*
X11213350Y-14915621D01*
X11199064Y-14944193D01*
X11184778Y-14958479D01*
X11156207Y-14972764D01*
X11113350Y-14972764D01*
X11384778Y-14972764D02*
X11356207Y-14958479D01*
X11341921Y-14929907D01*
X11341921Y-14672764D01*
X11613350Y-14958479D02*
X11584778Y-14972764D01*
X11527636Y-14972764D01*
X11499064Y-14958479D01*
X11484778Y-14929907D01*
X11484778Y-14815621D01*
X11499064Y-14787050D01*
X11527636Y-14772764D01*
X11584778Y-14772764D01*
X11613350Y-14787050D01*
X11627636Y-14815621D01*
X11627636Y-14844193D01*
X11484778Y-14872764D01*
X11741921Y-14958479D02*
X11770493Y-14972764D01*
X11827636Y-14972764D01*
X11856207Y-14958479D01*
X11870493Y-14929907D01*
X11870493Y-14915621D01*
X11856207Y-14887050D01*
X11827636Y-14872764D01*
X11784778Y-14872764D01*
X11756207Y-14858479D01*
X11741921Y-14829907D01*
X11741921Y-14815621D01*
X11756207Y-14787050D01*
X11784778Y-14772764D01*
X11827636Y-14772764D01*
X11856207Y-14787050D01*
X11970493Y-15087050D02*
X11984778Y-15072764D01*
X12013350Y-15029907D01*
X12027636Y-15001336D01*
X12041921Y-14958479D01*
X12056207Y-14887050D01*
X12056207Y-14829907D01*
X12041921Y-14758479D01*
X12027636Y-14715621D01*
X12013350Y-14687050D01*
X11984778Y-14644193D01*
X11970493Y-14629907D01*
X5175250Y-15194950D02*
X5175250Y-15271150D01*
X5137150Y-15233050D02*
X5213350Y-15233050D01*
X5541921Y-15068764D02*
X5570493Y-15068764D01*
X5599064Y-15083050D01*
X5613350Y-15097336D01*
X5627636Y-15125907D01*
X5641921Y-15183050D01*
X5641921Y-15254479D01*
X5627636Y-15311621D01*
X5613350Y-15340193D01*
X5599064Y-15354479D01*
X5570493Y-15368764D01*
X5541921Y-15368764D01*
X5513350Y-15354479D01*
X5499064Y-15340193D01*
X5484779Y-15311621D01*
X5470493Y-15254479D01*
X5470493Y-15183050D01*
X5484779Y-15125907D01*
X5499064Y-15097336D01*
X5513350Y-15083050D01*
X5541921Y-15068764D01*
X5770493Y-15340193D02*
X5784778Y-15354479D01*
X5770493Y-15368764D01*
X5756207Y-15354479D01*
X5770493Y-15340193D01*
X5770493Y-15368764D01*
X5884778Y-15068764D02*
X6084778Y-15068764D01*
X5956207Y-15368764D01*
X6327636Y-15068764D02*
X6270493Y-15068764D01*
X6241921Y-15083050D01*
X6227636Y-15097336D01*
X6199064Y-15140193D01*
X6184778Y-15197336D01*
X6184778Y-15311621D01*
X6199064Y-15340193D01*
X6213350Y-15354479D01*
X6241921Y-15368764D01*
X6299064Y-15368764D01*
X6327636Y-15354479D01*
X6341921Y-15340193D01*
X6356207Y-15311621D01*
X6356207Y-15240193D01*
X6341921Y-15211621D01*
X6327636Y-15197336D01*
X6299064Y-15183050D01*
X6241921Y-15183050D01*
X6213350Y-15197336D01*
X6199064Y-15211621D01*
X6184778Y-15240193D01*
X6484778Y-15368764D02*
X6484778Y-15168764D01*
X6484778Y-15197336D02*
X6499064Y-15183050D01*
X6527636Y-15168764D01*
X6570493Y-15168764D01*
X6599064Y-15183050D01*
X6613350Y-15211621D01*
X6613350Y-15368764D01*
X6613350Y-15211621D02*
X6627636Y-15183050D01*
X6656207Y-15168764D01*
X6699064Y-15168764D01*
X6727636Y-15183050D01*
X6741921Y-15211621D01*
X6741921Y-15368764D01*
X6884778Y-15368764D02*
X6884778Y-15168764D01*
X6884778Y-15197336D02*
X6899064Y-15183050D01*
X6927636Y-15168764D01*
X6970493Y-15168764D01*
X6999064Y-15183050D01*
X7013350Y-15211621D01*
X7013350Y-15368764D01*
X7013350Y-15211621D02*
X7027636Y-15183050D01*
X7056207Y-15168764D01*
X7099064Y-15168764D01*
X7127636Y-15183050D01*
X7141921Y-15211621D01*
X7141921Y-15368764D01*
X7727636Y-15054479D02*
X7470493Y-15440193D01*
X8113350Y-15068764D02*
X8141921Y-15068764D01*
X8170493Y-15083050D01*
X8184778Y-15097336D01*
X8199064Y-15125907D01*
X8213350Y-15183050D01*
X8213350Y-15254479D01*
X8199064Y-15311621D01*
X8184778Y-15340193D01*
X8170493Y-15354479D01*
X8141921Y-15368764D01*
X8113350Y-15368764D01*
X8084778Y-15354479D01*
X8070493Y-15340193D01*
X8056207Y-15311621D01*
X8041921Y-15254479D01*
X8041921Y-15183050D01*
X8056207Y-15125907D01*
X8070493Y-15097336D01*
X8084778Y-15083050D01*
X8113350Y-15068764D01*
X8341921Y-15340193D02*
X8356207Y-15354479D01*
X8341921Y-15368764D01*
X8327636Y-15354479D01*
X8341921Y-15340193D01*
X8341921Y-15368764D01*
X8541921Y-15068764D02*
X8570493Y-15068764D01*
X8599064Y-15083050D01*
X8613350Y-15097336D01*
X8627636Y-15125907D01*
X8641921Y-15183050D01*
X8641921Y-15254479D01*
X8627636Y-15311621D01*
X8613350Y-15340193D01*
X8599064Y-15354479D01*
X8570493Y-15368764D01*
X8541921Y-15368764D01*
X8513350Y-15354479D01*
X8499064Y-15340193D01*
X8484778Y-15311621D01*
X8470493Y-15254479D01*
X8470493Y-15183050D01*
X8484778Y-15125907D01*
X8499064Y-15097336D01*
X8513350Y-15083050D01*
X8541921Y-15068764D01*
X8741921Y-15068764D02*
X8927636Y-15068764D01*
X8827636Y-15183050D01*
X8870493Y-15183050D01*
X8899064Y-15197336D01*
X8913350Y-15211621D01*
X8927636Y-15240193D01*
X8927636Y-15311621D01*
X8913350Y-15340193D01*
X8899064Y-15354479D01*
X8870493Y-15368764D01*
X8784778Y-15368764D01*
X8756207Y-15354479D01*
X8741921Y-15340193D01*
X9113350Y-15068764D02*
X9141921Y-15068764D01*
X9170493Y-15083050D01*
X9184778Y-15097336D01*
X9199064Y-15125907D01*
X9213350Y-15183050D01*
X9213350Y-15254479D01*
X9199064Y-15311621D01*
X9184778Y-15340193D01*
X9170493Y-15354479D01*
X9141921Y-15368764D01*
X9113350Y-15368764D01*
X9084778Y-15354479D01*
X9070493Y-15340193D01*
X9056207Y-15311621D01*
X9041921Y-15254479D01*
X9041921Y-15183050D01*
X9056207Y-15125907D01*
X9070493Y-15097336D01*
X9084778Y-15083050D01*
X9113350Y-15068764D01*
X9327636Y-15068764D02*
X9327636Y-15125907D01*
X9441921Y-15068764D02*
X9441921Y-15125907D01*
X9884778Y-15483050D02*
X9870493Y-15468764D01*
X9841921Y-15425907D01*
X9827636Y-15397336D01*
X9813350Y-15354479D01*
X9799064Y-15283050D01*
X9799064Y-15225907D01*
X9813350Y-15154479D01*
X9827636Y-15111621D01*
X9841921Y-15083050D01*
X9870493Y-15040193D01*
X9884778Y-15025907D01*
X10127636Y-15168764D02*
X10127636Y-15368764D01*
X10056207Y-15054479D02*
X9984778Y-15268764D01*
X10170493Y-15268764D01*
X10513350Y-15368764D02*
X10513350Y-15068764D01*
X10641921Y-15368764D02*
X10641921Y-15211621D01*
X10627636Y-15183050D01*
X10599064Y-15168764D01*
X10556207Y-15168764D01*
X10527636Y-15183050D01*
X10513350Y-15197336D01*
X10827636Y-15368764D02*
X10799064Y-15354479D01*
X10784778Y-15340193D01*
X10770493Y-15311621D01*
X10770493Y-15225907D01*
X10784778Y-15197336D01*
X10799064Y-15183050D01*
X10827636Y-15168764D01*
X10870493Y-15168764D01*
X10899064Y-15183050D01*
X10913350Y-15197336D01*
X10927636Y-15225907D01*
X10927636Y-15311621D01*
X10913350Y-15340193D01*
X10899064Y-15354479D01*
X10870493Y-15368764D01*
X10827636Y-15368764D01*
X11099064Y-15368764D02*
X11070493Y-15354479D01*
X11056207Y-15325907D01*
X11056207Y-15068764D01*
X11327636Y-15354479D02*
X11299064Y-15368764D01*
X11241921Y-15368764D01*
X11213350Y-15354479D01*
X11199064Y-15325907D01*
X11199064Y-15211621D01*
X11213350Y-15183050D01*
X11241921Y-15168764D01*
X11299064Y-15168764D01*
X11327636Y-15183050D01*
X11341921Y-15211621D01*
X11341921Y-15240193D01*
X11199064Y-15268764D01*
X11456207Y-15354479D02*
X11484778Y-15368764D01*
X11541921Y-15368764D01*
X11570493Y-15354479D01*
X11584778Y-15325907D01*
X11584778Y-15311621D01*
X11570493Y-15283050D01*
X11541921Y-15268764D01*
X11499064Y-15268764D01*
X11470493Y-15254479D01*
X11456207Y-15225907D01*
X11456207Y-15211621D01*
X11470493Y-15183050D01*
X11499064Y-15168764D01*
X11541921Y-15168764D01*
X11570493Y-15183050D01*
X11684778Y-15483050D02*
X11699064Y-15468764D01*
X11727636Y-15425907D01*
X11741921Y-15397336D01*
X11756207Y-15354479D01*
X11770493Y-15283050D01*
X11770493Y-15225907D01*
X11756207Y-15154479D01*
X11741921Y-15111621D01*
X11727636Y-15083050D01*
X11699064Y-15040193D01*
X11684778Y-15025907D01*
X5201447Y-15657787D02*
X5201447Y-15600313D01*
X5143973Y-15600313D01*
X5143973Y-15657787D01*
X5201447Y-15657787D01*
X5541921Y-15464764D02*
X5570493Y-15464764D01*
X5599064Y-15479050D01*
X5613350Y-15493336D01*
X5627636Y-15521907D01*
X5641921Y-15579050D01*
X5641921Y-15650479D01*
X5627636Y-15707621D01*
X5613350Y-15736193D01*
X5599064Y-15750479D01*
X5570493Y-15764764D01*
X5541921Y-15764764D01*
X5513350Y-15750479D01*
X5499064Y-15736193D01*
X5484779Y-15707621D01*
X5470493Y-15650479D01*
X5470493Y-15579050D01*
X5484779Y-15521907D01*
X5499064Y-15493336D01*
X5513350Y-15479050D01*
X5541921Y-15464764D01*
X5770493Y-15736193D02*
X5784778Y-15750479D01*
X5770493Y-15764764D01*
X5756207Y-15750479D01*
X5770493Y-15736193D01*
X5770493Y-15764764D01*
X5956207Y-15593336D02*
X5927636Y-15579050D01*
X5913350Y-15564764D01*
X5899064Y-15536193D01*
X5899064Y-15521907D01*
X5913350Y-15493336D01*
X5927636Y-15479050D01*
X5956207Y-15464764D01*
X6013350Y-15464764D01*
X6041921Y-15479050D01*
X6056207Y-15493336D01*
X6070493Y-15521907D01*
X6070493Y-15536193D01*
X6056207Y-15564764D01*
X6041921Y-15579050D01*
X6013350Y-15593336D01*
X5956207Y-15593336D01*
X5927636Y-15607621D01*
X5913350Y-15621907D01*
X5899064Y-15650479D01*
X5899064Y-15707621D01*
X5913350Y-15736193D01*
X5927636Y-15750479D01*
X5956207Y-15764764D01*
X6013350Y-15764764D01*
X6041921Y-15750479D01*
X6056207Y-15736193D01*
X6070493Y-15707621D01*
X6070493Y-15650479D01*
X6056207Y-15621907D01*
X6041921Y-15607621D01*
X6013350Y-15593336D01*
X6356207Y-15764764D02*
X6184778Y-15764764D01*
X6270493Y-15764764D02*
X6270493Y-15464764D01*
X6241921Y-15507621D01*
X6213350Y-15536193D01*
X6184778Y-15550479D01*
X6484778Y-15764764D02*
X6484778Y-15564764D01*
X6484778Y-15593336D02*
X6499064Y-15579050D01*
X6527636Y-15564764D01*
X6570493Y-15564764D01*
X6599064Y-15579050D01*
X6613350Y-15607621D01*
X6613350Y-15764764D01*
X6613350Y-15607621D02*
X6627636Y-15579050D01*
X6656207Y-15564764D01*
X6699064Y-15564764D01*
X6727636Y-15579050D01*
X6741921Y-15607621D01*
X6741921Y-15764764D01*
X6884778Y-15764764D02*
X6884778Y-15564764D01*
X6884778Y-15593336D02*
X6899064Y-15579050D01*
X6927636Y-15564764D01*
X6970493Y-15564764D01*
X6999064Y-15579050D01*
X7013350Y-15607621D01*
X7013350Y-15764764D01*
X7013350Y-15607621D02*
X7027636Y-15579050D01*
X7056207Y-15564764D01*
X7099064Y-15564764D01*
X7127636Y-15579050D01*
X7141921Y-15607621D01*
X7141921Y-15764764D01*
X7727636Y-15450479D02*
X7470493Y-15836193D01*
X8113350Y-15464764D02*
X8141921Y-15464764D01*
X8170493Y-15479050D01*
X8184778Y-15493336D01*
X8199064Y-15521907D01*
X8213350Y-15579050D01*
X8213350Y-15650479D01*
X8199064Y-15707621D01*
X8184778Y-15736193D01*
X8170493Y-15750479D01*
X8141921Y-15764764D01*
X8113350Y-15764764D01*
X8084778Y-15750479D01*
X8070493Y-15736193D01*
X8056207Y-15707621D01*
X8041921Y-15650479D01*
X8041921Y-15579050D01*
X8056207Y-15521907D01*
X8070493Y-15493336D01*
X8084778Y-15479050D01*
X8113350Y-15464764D01*
X8341921Y-15736193D02*
X8356207Y-15750479D01*
X8341921Y-15764764D01*
X8327636Y-15750479D01*
X8341921Y-15736193D01*
X8341921Y-15764764D01*
X8541921Y-15464764D02*
X8570493Y-15464764D01*
X8599064Y-15479050D01*
X8613350Y-15493336D01*
X8627636Y-15521907D01*
X8641921Y-15579050D01*
X8641921Y-15650479D01*
X8627636Y-15707621D01*
X8613350Y-15736193D01*
X8599064Y-15750479D01*
X8570493Y-15764764D01*
X8541921Y-15764764D01*
X8513350Y-15750479D01*
X8499064Y-15736193D01*
X8484778Y-15707621D01*
X8470493Y-15650479D01*
X8470493Y-15579050D01*
X8484778Y-15521907D01*
X8499064Y-15493336D01*
X8513350Y-15479050D01*
X8541921Y-15464764D01*
X8741921Y-15464764D02*
X8927636Y-15464764D01*
X8827636Y-15579050D01*
X8870493Y-15579050D01*
X8899064Y-15593336D01*
X8913350Y-15607621D01*
X8927636Y-15636193D01*
X8927636Y-15707621D01*
X8913350Y-15736193D01*
X8899064Y-15750479D01*
X8870493Y-15764764D01*
X8784778Y-15764764D01*
X8756207Y-15750479D01*
X8741921Y-15736193D01*
X9041921Y-15493336D02*
X9056207Y-15479050D01*
X9084778Y-15464764D01*
X9156207Y-15464764D01*
X9184778Y-15479050D01*
X9199064Y-15493336D01*
X9213350Y-15521907D01*
X9213350Y-15550479D01*
X9199064Y-15593336D01*
X9027636Y-15764764D01*
X9213350Y-15764764D01*
X9327636Y-15464764D02*
X9327636Y-15521907D01*
X9441921Y-15464764D02*
X9441921Y-15521907D01*
X9884778Y-15879050D02*
X9870493Y-15864764D01*
X9841921Y-15821907D01*
X9827636Y-15793336D01*
X9813350Y-15750479D01*
X9799064Y-15679050D01*
X9799064Y-15621907D01*
X9813350Y-15550479D01*
X9827636Y-15507621D01*
X9841921Y-15479050D01*
X9870493Y-15436193D01*
X9884778Y-15421907D01*
X10156207Y-15764764D02*
X9984778Y-15764764D01*
X10070493Y-15764764D02*
X10070493Y-15464764D01*
X10041921Y-15507621D01*
X10013350Y-15536193D01*
X9984778Y-15550479D01*
X10341921Y-15464764D02*
X10370493Y-15464764D01*
X10399064Y-15479050D01*
X10413350Y-15493336D01*
X10427636Y-15521907D01*
X10441921Y-15579050D01*
X10441921Y-15650479D01*
X10427636Y-15707621D01*
X10413350Y-15736193D01*
X10399064Y-15750479D01*
X10370493Y-15764764D01*
X10341921Y-15764764D01*
X10313350Y-15750479D01*
X10299064Y-15736193D01*
X10284778Y-15707621D01*
X10270493Y-15650479D01*
X10270493Y-15579050D01*
X10284778Y-15521907D01*
X10299064Y-15493336D01*
X10313350Y-15479050D01*
X10341921Y-15464764D01*
X10699064Y-15564764D02*
X10699064Y-15764764D01*
X10627636Y-15450479D02*
X10556207Y-15664764D01*
X10741921Y-15664764D01*
X11084778Y-15764764D02*
X11084778Y-15464764D01*
X11213350Y-15764764D02*
X11213350Y-15607621D01*
X11199064Y-15579050D01*
X11170493Y-15564764D01*
X11127636Y-15564764D01*
X11099064Y-15579050D01*
X11084778Y-15593336D01*
X11399064Y-15764764D02*
X11370493Y-15750479D01*
X11356207Y-15736193D01*
X11341921Y-15707621D01*
X11341921Y-15621907D01*
X11356207Y-15593336D01*
X11370493Y-15579050D01*
X11399064Y-15564764D01*
X11441921Y-15564764D01*
X11470493Y-15579050D01*
X11484778Y-15593336D01*
X11499064Y-15621907D01*
X11499064Y-15707621D01*
X11484778Y-15736193D01*
X11470493Y-15750479D01*
X11441921Y-15764764D01*
X11399064Y-15764764D01*
X11670493Y-15764764D02*
X11641921Y-15750479D01*
X11627636Y-15721907D01*
X11627636Y-15464764D01*
X11899064Y-15750479D02*
X11870493Y-15764764D01*
X11813350Y-15764764D01*
X11784778Y-15750479D01*
X11770493Y-15721907D01*
X11770493Y-15607621D01*
X11784778Y-15579050D01*
X11813350Y-15564764D01*
X11870493Y-15564764D01*
X11899064Y-15579050D01*
X11913350Y-15607621D01*
X11913350Y-15636193D01*
X11770493Y-15664764D01*
X12027636Y-15750479D02*
X12056207Y-15764764D01*
X12113350Y-15764764D01*
X12141921Y-15750479D01*
X12156207Y-15721907D01*
X12156207Y-15707621D01*
X12141921Y-15679050D01*
X12113350Y-15664764D01*
X12070493Y-15664764D01*
X12041921Y-15650479D01*
X12027636Y-15621907D01*
X12027636Y-15607621D01*
X12041921Y-15579050D01*
X12070493Y-15564764D01*
X12113350Y-15564764D01*
X12141921Y-15579050D01*
X12256207Y-15879050D02*
X12270493Y-15864764D01*
X12299064Y-15821907D01*
X12313350Y-15793336D01*
X12327636Y-15750479D01*
X12341921Y-15679050D01*
X12341921Y-15621907D01*
X12327636Y-15550479D01*
X12313350Y-15507621D01*
X12299064Y-15479050D01*
X12270493Y-15436193D01*
X12256207Y-15421907D01*
X5163312Y-16075088D02*
X5213350Y-16025050D01*
X5163312Y-15975012D01*
X5113274Y-16025050D01*
X5163312Y-16075088D01*
X5641921Y-16160764D02*
X5470493Y-16160764D01*
X5556207Y-16160764D02*
X5556207Y-15860764D01*
X5527636Y-15903621D01*
X5499064Y-15932193D01*
X5470493Y-15946479D01*
X5770493Y-16132193D02*
X5784778Y-16146479D01*
X5770493Y-16160764D01*
X5756207Y-16146479D01*
X5770493Y-16132193D01*
X5770493Y-16160764D01*
X5970493Y-15860764D02*
X5999064Y-15860764D01*
X6027636Y-15875050D01*
X6041921Y-15889336D01*
X6056207Y-15917907D01*
X6070493Y-15975050D01*
X6070493Y-16046479D01*
X6056207Y-16103621D01*
X6041921Y-16132193D01*
X6027636Y-16146479D01*
X5999064Y-16160764D01*
X5970493Y-16160764D01*
X5941921Y-16146479D01*
X5927636Y-16132193D01*
X5913350Y-16103621D01*
X5899064Y-16046479D01*
X5899064Y-15975050D01*
X5913350Y-15917907D01*
X5927636Y-15889336D01*
X5941921Y-15875050D01*
X5970493Y-15860764D01*
X6256207Y-15860764D02*
X6284778Y-15860764D01*
X6313350Y-15875050D01*
X6327636Y-15889336D01*
X6341921Y-15917907D01*
X6356207Y-15975050D01*
X6356207Y-16046479D01*
X6341921Y-16103621D01*
X6327636Y-16132193D01*
X6313350Y-16146479D01*
X6284778Y-16160764D01*
X6256207Y-16160764D01*
X6227636Y-16146479D01*
X6213350Y-16132193D01*
X6199064Y-16103621D01*
X6184778Y-16046479D01*
X6184778Y-15975050D01*
X6199064Y-15917907D01*
X6213350Y-15889336D01*
X6227636Y-15875050D01*
X6256207Y-15860764D01*
X6484778Y-16160764D02*
X6484778Y-15960764D01*
X6484778Y-15989336D02*
X6499064Y-15975050D01*
X6527636Y-15960764D01*
X6570493Y-15960764D01*
X6599064Y-15975050D01*
X6613350Y-16003621D01*
X6613350Y-16160764D01*
X6613350Y-16003621D02*
X6627636Y-15975050D01*
X6656207Y-15960764D01*
X6699064Y-15960764D01*
X6727636Y-15975050D01*
X6741921Y-16003621D01*
X6741921Y-16160764D01*
X6884778Y-16160764D02*
X6884778Y-15960764D01*
X6884778Y-15989336D02*
X6899064Y-15975050D01*
X6927636Y-15960764D01*
X6970493Y-15960764D01*
X6999064Y-15975050D01*
X7013350Y-16003621D01*
X7013350Y-16160764D01*
X7013350Y-16003621D02*
X7027636Y-15975050D01*
X7056207Y-15960764D01*
X7099064Y-15960764D01*
X7127636Y-15975050D01*
X7141921Y-16003621D01*
X7141921Y-16160764D01*
X7727636Y-15846479D02*
X7470493Y-16232193D01*
X8113350Y-15860764D02*
X8141921Y-15860764D01*
X8170493Y-15875050D01*
X8184778Y-15889336D01*
X8199064Y-15917907D01*
X8213350Y-15975050D01*
X8213350Y-16046479D01*
X8199064Y-16103621D01*
X8184778Y-16132193D01*
X8170493Y-16146479D01*
X8141921Y-16160764D01*
X8113350Y-16160764D01*
X8084778Y-16146479D01*
X8070493Y-16132193D01*
X8056207Y-16103621D01*
X8041921Y-16046479D01*
X8041921Y-15975050D01*
X8056207Y-15917907D01*
X8070493Y-15889336D01*
X8084778Y-15875050D01*
X8113350Y-15860764D01*
X8341921Y-16132193D02*
X8356207Y-16146479D01*
X8341921Y-16160764D01*
X8327636Y-16146479D01*
X8341921Y-16132193D01*
X8341921Y-16160764D01*
X8541921Y-15860764D02*
X8570493Y-15860764D01*
X8599064Y-15875050D01*
X8613350Y-15889336D01*
X8627636Y-15917907D01*
X8641921Y-15975050D01*
X8641921Y-16046479D01*
X8627636Y-16103621D01*
X8613350Y-16132193D01*
X8599064Y-16146479D01*
X8570493Y-16160764D01*
X8541921Y-16160764D01*
X8513350Y-16146479D01*
X8499064Y-16132193D01*
X8484778Y-16103621D01*
X8470493Y-16046479D01*
X8470493Y-15975050D01*
X8484778Y-15917907D01*
X8499064Y-15889336D01*
X8513350Y-15875050D01*
X8541921Y-15860764D01*
X8741921Y-15860764D02*
X8927636Y-15860764D01*
X8827636Y-15975050D01*
X8870493Y-15975050D01*
X8899064Y-15989336D01*
X8913350Y-16003621D01*
X8927636Y-16032193D01*
X8927636Y-16103621D01*
X8913350Y-16132193D01*
X8899064Y-16146479D01*
X8870493Y-16160764D01*
X8784778Y-16160764D01*
X8756207Y-16146479D01*
X8741921Y-16132193D01*
X9070493Y-16160764D02*
X9127636Y-16160764D01*
X9156207Y-16146479D01*
X9170493Y-16132193D01*
X9199064Y-16089336D01*
X9213350Y-16032193D01*
X9213350Y-15917907D01*
X9199064Y-15889336D01*
X9184778Y-15875050D01*
X9156207Y-15860764D01*
X9099064Y-15860764D01*
X9070493Y-15875050D01*
X9056207Y-15889336D01*
X9041921Y-15917907D01*
X9041921Y-15989336D01*
X9056207Y-16017907D01*
X9070493Y-16032193D01*
X9099064Y-16046479D01*
X9156207Y-16046479D01*
X9184778Y-16032193D01*
X9199064Y-16017907D01*
X9213350Y-15989336D01*
X9327636Y-15860764D02*
X9327636Y-15917907D01*
X9441921Y-15860764D02*
X9441921Y-15917907D01*
X9884778Y-16275050D02*
X9870493Y-16260764D01*
X9841921Y-16217907D01*
X9827636Y-16189336D01*
X9813350Y-16146479D01*
X9799064Y-16075050D01*
X9799064Y-16017907D01*
X9813350Y-15946479D01*
X9827636Y-15903621D01*
X9841921Y-15875050D01*
X9870493Y-15832193D01*
X9884778Y-15817907D01*
X10013350Y-16160764D02*
X10070493Y-16160764D01*
X10099064Y-16146479D01*
X10113350Y-16132193D01*
X10141921Y-16089336D01*
X10156207Y-16032193D01*
X10156207Y-15917907D01*
X10141921Y-15889336D01*
X10127636Y-15875050D01*
X10099064Y-15860764D01*
X10041921Y-15860764D01*
X10013350Y-15875050D01*
X9999064Y-15889336D01*
X9984778Y-15917907D01*
X9984778Y-15989336D01*
X9999064Y-16017907D01*
X10013350Y-16032193D01*
X10041921Y-16046479D01*
X10099064Y-16046479D01*
X10127636Y-16032193D01*
X10141921Y-16017907D01*
X10156207Y-15989336D01*
X10427636Y-15860764D02*
X10284778Y-15860764D01*
X10270493Y-16003621D01*
X10284778Y-15989336D01*
X10313350Y-15975050D01*
X10384778Y-15975050D01*
X10413350Y-15989336D01*
X10427636Y-16003621D01*
X10441921Y-16032193D01*
X10441921Y-16103621D01*
X10427636Y-16132193D01*
X10413350Y-16146479D01*
X10384778Y-16160764D01*
X10313350Y-16160764D01*
X10284778Y-16146479D01*
X10270493Y-16132193D01*
X10799064Y-16160764D02*
X10799064Y-15860764D01*
X10927636Y-16160764D02*
X10927636Y-16003621D01*
X10913350Y-15975050D01*
X10884778Y-15960764D01*
X10841921Y-15960764D01*
X10813350Y-15975050D01*
X10799064Y-15989336D01*
X11113350Y-16160764D02*
X11084778Y-16146479D01*
X11070493Y-16132193D01*
X11056207Y-16103621D01*
X11056207Y-16017907D01*
X11070493Y-15989336D01*
X11084778Y-15975050D01*
X11113350Y-15960764D01*
X11156207Y-15960764D01*
X11184778Y-15975050D01*
X11199064Y-15989336D01*
X11213350Y-16017907D01*
X11213350Y-16103621D01*
X11199064Y-16132193D01*
X11184778Y-16146479D01*
X11156207Y-16160764D01*
X11113350Y-16160764D01*
X11384778Y-16160764D02*
X11356207Y-16146479D01*
X11341921Y-16117907D01*
X11341921Y-15860764D01*
X11613350Y-16146479D02*
X11584778Y-16160764D01*
X11527636Y-16160764D01*
X11499064Y-16146479D01*
X11484778Y-16117907D01*
X11484778Y-16003621D01*
X11499064Y-15975050D01*
X11527636Y-15960764D01*
X11584778Y-15960764D01*
X11613350Y-15975050D01*
X11627636Y-16003621D01*
X11627636Y-16032193D01*
X11484778Y-16060764D01*
X11741921Y-16146479D02*
X11770493Y-16160764D01*
X11827636Y-16160764D01*
X11856207Y-16146479D01*
X11870493Y-16117907D01*
X11870493Y-16103621D01*
X11856207Y-16075050D01*
X11827636Y-16060764D01*
X11784778Y-16060764D01*
X11756207Y-16046479D01*
X11741921Y-16017907D01*
X11741921Y-16003621D01*
X11756207Y-15975050D01*
X11784778Y-15960764D01*
X11827636Y-15960764D01*
X11856207Y-15975050D01*
X11970493Y-16275050D02*
X11984778Y-16260764D01*
X12013350Y-16217907D01*
X12027636Y-16189336D01*
X12041921Y-16146479D01*
X12056207Y-16075050D01*
X12056207Y-16017907D01*
X12041921Y-15946479D01*
X12027636Y-15903621D01*
X12013350Y-15875050D01*
X11984778Y-15832193D01*
X11970493Y-15817907D01*
X5111750Y-16370250D02*
X5213350Y-16471850D01*
X5213350Y-16370250D02*
X5111750Y-16471850D01*
X5213350Y-16421050D02*
G75*
G03X5213350Y-16421050I-50800J0D01*
G01*
X5641921Y-16556764D02*
X5470493Y-16556764D01*
X5556207Y-16556764D02*
X5556207Y-16256764D01*
X5527636Y-16299621D01*
X5499064Y-16328193D01*
X5470493Y-16342479D01*
X5770493Y-16528193D02*
X5784778Y-16542479D01*
X5770493Y-16556764D01*
X5756207Y-16542479D01*
X5770493Y-16528193D01*
X5770493Y-16556764D01*
X5970493Y-16256764D02*
X5999064Y-16256764D01*
X6027636Y-16271050D01*
X6041921Y-16285336D01*
X6056207Y-16313907D01*
X6070493Y-16371050D01*
X6070493Y-16442479D01*
X6056207Y-16499621D01*
X6041921Y-16528193D01*
X6027636Y-16542479D01*
X5999064Y-16556764D01*
X5970493Y-16556764D01*
X5941921Y-16542479D01*
X5927636Y-16528193D01*
X5913350Y-16499621D01*
X5899064Y-16442479D01*
X5899064Y-16371050D01*
X5913350Y-16313907D01*
X5927636Y-16285336D01*
X5941921Y-16271050D01*
X5970493Y-16256764D01*
X6184778Y-16285336D02*
X6199064Y-16271050D01*
X6227636Y-16256764D01*
X6299064Y-16256764D01*
X6327636Y-16271050D01*
X6341921Y-16285336D01*
X6356207Y-16313907D01*
X6356207Y-16342479D01*
X6341921Y-16385336D01*
X6170493Y-16556764D01*
X6356207Y-16556764D01*
X6484778Y-16556764D02*
X6484778Y-16356764D01*
X6484778Y-16385336D02*
X6499064Y-16371050D01*
X6527636Y-16356764D01*
X6570493Y-16356764D01*
X6599064Y-16371050D01*
X6613350Y-16399621D01*
X6613350Y-16556764D01*
X6613350Y-16399621D02*
X6627636Y-16371050D01*
X6656207Y-16356764D01*
X6699064Y-16356764D01*
X6727636Y-16371050D01*
X6741921Y-16399621D01*
X6741921Y-16556764D01*
X6884778Y-16556764D02*
X6884778Y-16356764D01*
X6884778Y-16385336D02*
X6899064Y-16371050D01*
X6927636Y-16356764D01*
X6970493Y-16356764D01*
X6999064Y-16371050D01*
X7013350Y-16399621D01*
X7013350Y-16556764D01*
X7013350Y-16399621D02*
X7027636Y-16371050D01*
X7056207Y-16356764D01*
X7099064Y-16356764D01*
X7127636Y-16371050D01*
X7141921Y-16399621D01*
X7141921Y-16556764D01*
X7727636Y-16242479D02*
X7470493Y-16628193D01*
X8113350Y-16256764D02*
X8141921Y-16256764D01*
X8170493Y-16271050D01*
X8184778Y-16285336D01*
X8199064Y-16313907D01*
X8213350Y-16371050D01*
X8213350Y-16442479D01*
X8199064Y-16499621D01*
X8184778Y-16528193D01*
X8170493Y-16542479D01*
X8141921Y-16556764D01*
X8113350Y-16556764D01*
X8084778Y-16542479D01*
X8070493Y-16528193D01*
X8056207Y-16499621D01*
X8041921Y-16442479D01*
X8041921Y-16371050D01*
X8056207Y-16313907D01*
X8070493Y-16285336D01*
X8084778Y-16271050D01*
X8113350Y-16256764D01*
X8341921Y-16528193D02*
X8356207Y-16542479D01*
X8341921Y-16556764D01*
X8327636Y-16542479D01*
X8341921Y-16528193D01*
X8341921Y-16556764D01*
X8541921Y-16256764D02*
X8570493Y-16256764D01*
X8599064Y-16271050D01*
X8613350Y-16285336D01*
X8627636Y-16313907D01*
X8641921Y-16371050D01*
X8641921Y-16442479D01*
X8627636Y-16499621D01*
X8613350Y-16528193D01*
X8599064Y-16542479D01*
X8570493Y-16556764D01*
X8541921Y-16556764D01*
X8513350Y-16542479D01*
X8499064Y-16528193D01*
X8484778Y-16499621D01*
X8470493Y-16442479D01*
X8470493Y-16371050D01*
X8484778Y-16313907D01*
X8499064Y-16285336D01*
X8513350Y-16271050D01*
X8541921Y-16256764D01*
X8899064Y-16356764D02*
X8899064Y-16556764D01*
X8827636Y-16242479D02*
X8756207Y-16456764D01*
X8941921Y-16456764D01*
X9113350Y-16256764D02*
X9141921Y-16256764D01*
X9170493Y-16271050D01*
X9184778Y-16285336D01*
X9199064Y-16313907D01*
X9213350Y-16371050D01*
X9213350Y-16442479D01*
X9199064Y-16499621D01*
X9184778Y-16528193D01*
X9170493Y-16542479D01*
X9141921Y-16556764D01*
X9113350Y-16556764D01*
X9084778Y-16542479D01*
X9070493Y-16528193D01*
X9056207Y-16499621D01*
X9041921Y-16442479D01*
X9041921Y-16371050D01*
X9056207Y-16313907D01*
X9070493Y-16285336D01*
X9084778Y-16271050D01*
X9113350Y-16256764D01*
X9327636Y-16256764D02*
X9327636Y-16313907D01*
X9441921Y-16256764D02*
X9441921Y-16313907D01*
X9884778Y-16671050D02*
X9870493Y-16656764D01*
X9841921Y-16613907D01*
X9827636Y-16585336D01*
X9813350Y-16542479D01*
X9799064Y-16471050D01*
X9799064Y-16413907D01*
X9813350Y-16342479D01*
X9827636Y-16299621D01*
X9841921Y-16271050D01*
X9870493Y-16228193D01*
X9884778Y-16213907D01*
X10156207Y-16556764D02*
X9984778Y-16556764D01*
X10070493Y-16556764D02*
X10070493Y-16256764D01*
X10041921Y-16299621D01*
X10013350Y-16328193D01*
X9984778Y-16342479D01*
X10270493Y-16285336D02*
X10284778Y-16271050D01*
X10313350Y-16256764D01*
X10384778Y-16256764D01*
X10413350Y-16271050D01*
X10427636Y-16285336D01*
X10441921Y-16313907D01*
X10441921Y-16342479D01*
X10427636Y-16385336D01*
X10256207Y-16556764D01*
X10441921Y-16556764D01*
X10699064Y-16356764D02*
X10699064Y-16556764D01*
X10627636Y-16242479D02*
X10556207Y-16456764D01*
X10741921Y-16456764D01*
X11084778Y-16556764D02*
X11084778Y-16256764D01*
X11213350Y-16556764D02*
X11213350Y-16399621D01*
X11199064Y-16371050D01*
X11170493Y-16356764D01*
X11127636Y-16356764D01*
X11099064Y-16371050D01*
X11084778Y-16385336D01*
X11399064Y-16556764D02*
X11370493Y-16542479D01*
X11356207Y-16528193D01*
X11341921Y-16499621D01*
X11341921Y-16413907D01*
X11356207Y-16385336D01*
X11370493Y-16371050D01*
X11399064Y-16356764D01*
X11441921Y-16356764D01*
X11470493Y-16371050D01*
X11484778Y-16385336D01*
X11499064Y-16413907D01*
X11499064Y-16499621D01*
X11484778Y-16528193D01*
X11470493Y-16542479D01*
X11441921Y-16556764D01*
X11399064Y-16556764D01*
X11670493Y-16556764D02*
X11641921Y-16542479D01*
X11627636Y-16513907D01*
X11627636Y-16256764D01*
X11899064Y-16542479D02*
X11870493Y-16556764D01*
X11813350Y-16556764D01*
X11784778Y-16542479D01*
X11770493Y-16513907D01*
X11770493Y-16399621D01*
X11784778Y-16371050D01*
X11813350Y-16356764D01*
X11870493Y-16356764D01*
X11899064Y-16371050D01*
X11913350Y-16399621D01*
X11913350Y-16428193D01*
X11770493Y-16456764D01*
X12027636Y-16542479D02*
X12056207Y-16556764D01*
X12113350Y-16556764D01*
X12141921Y-16542479D01*
X12156207Y-16513907D01*
X12156207Y-16499621D01*
X12141921Y-16471050D01*
X12113350Y-16456764D01*
X12070493Y-16456764D01*
X12041921Y-16442479D01*
X12027636Y-16413907D01*
X12027636Y-16399621D01*
X12041921Y-16371050D01*
X12070493Y-16356764D01*
X12113350Y-16356764D01*
X12141921Y-16371050D01*
X12256207Y-16671050D02*
X12270493Y-16656764D01*
X12299064Y-16613907D01*
X12313350Y-16585336D01*
X12327636Y-16542479D01*
X12341921Y-16471050D01*
X12341921Y-16413907D01*
X12327636Y-16342479D01*
X12313350Y-16299621D01*
X12299064Y-16271050D01*
X12270493Y-16228193D01*
X12256207Y-16213907D01*
X5088382Y-16754566D02*
X5213350Y-16879534D01*
X5213350Y-16754566D02*
X5088382Y-16879534D01*
X5150866Y-16754566D02*
X5150866Y-16879534D01*
X5088382Y-16817050D02*
X5213350Y-16817050D01*
X5641921Y-16952764D02*
X5470493Y-16952764D01*
X5556207Y-16952764D02*
X5556207Y-16652764D01*
X5527636Y-16695621D01*
X5499064Y-16724193D01*
X5470493Y-16738479D01*
X5770493Y-16924193D02*
X5784778Y-16938479D01*
X5770493Y-16952764D01*
X5756207Y-16938479D01*
X5770493Y-16924193D01*
X5770493Y-16952764D01*
X5899064Y-16681336D02*
X5913350Y-16667050D01*
X5941921Y-16652764D01*
X6013350Y-16652764D01*
X6041921Y-16667050D01*
X6056207Y-16681336D01*
X6070493Y-16709907D01*
X6070493Y-16738479D01*
X6056207Y-16781336D01*
X5884778Y-16952764D01*
X6070493Y-16952764D01*
X6341921Y-16652764D02*
X6199064Y-16652764D01*
X6184778Y-16795622D01*
X6199064Y-16781336D01*
X6227636Y-16767050D01*
X6299064Y-16767050D01*
X6327636Y-16781336D01*
X6341921Y-16795622D01*
X6356207Y-16824193D01*
X6356207Y-16895622D01*
X6341921Y-16924193D01*
X6327636Y-16938479D01*
X6299064Y-16952764D01*
X6227636Y-16952764D01*
X6199064Y-16938479D01*
X6184778Y-16924193D01*
X6484778Y-16952764D02*
X6484778Y-16752764D01*
X6484778Y-16781336D02*
X6499064Y-16767050D01*
X6527636Y-16752764D01*
X6570493Y-16752764D01*
X6599064Y-16767050D01*
X6613350Y-16795622D01*
X6613350Y-16952764D01*
X6613350Y-16795622D02*
X6627636Y-16767050D01*
X6656207Y-16752764D01*
X6699064Y-16752764D01*
X6727636Y-16767050D01*
X6741921Y-16795622D01*
X6741921Y-16952764D01*
X6884778Y-16952764D02*
X6884778Y-16752764D01*
X6884778Y-16781336D02*
X6899064Y-16767050D01*
X6927636Y-16752764D01*
X6970493Y-16752764D01*
X6999064Y-16767050D01*
X7013350Y-16795622D01*
X7013350Y-16952764D01*
X7013350Y-16795622D02*
X7027636Y-16767050D01*
X7056207Y-16752764D01*
X7099064Y-16752764D01*
X7127636Y-16767050D01*
X7141921Y-16795622D01*
X7141921Y-16952764D01*
X7727636Y-16638479D02*
X7470493Y-17024193D01*
X8113350Y-16652764D02*
X8141921Y-16652764D01*
X8170493Y-16667050D01*
X8184778Y-16681336D01*
X8199064Y-16709907D01*
X8213350Y-16767050D01*
X8213350Y-16838479D01*
X8199064Y-16895622D01*
X8184778Y-16924193D01*
X8170493Y-16938479D01*
X8141921Y-16952764D01*
X8113350Y-16952764D01*
X8084778Y-16938479D01*
X8070493Y-16924193D01*
X8056207Y-16895622D01*
X8041921Y-16838479D01*
X8041921Y-16767050D01*
X8056207Y-16709907D01*
X8070493Y-16681336D01*
X8084778Y-16667050D01*
X8113350Y-16652764D01*
X8341921Y-16924193D02*
X8356207Y-16938479D01*
X8341921Y-16952764D01*
X8327636Y-16938479D01*
X8341921Y-16924193D01*
X8341921Y-16952764D01*
X8541921Y-16652764D02*
X8570493Y-16652764D01*
X8599064Y-16667050D01*
X8613350Y-16681336D01*
X8627636Y-16709907D01*
X8641921Y-16767050D01*
X8641921Y-16838479D01*
X8627636Y-16895622D01*
X8613350Y-16924193D01*
X8599064Y-16938479D01*
X8570493Y-16952764D01*
X8541921Y-16952764D01*
X8513350Y-16938479D01*
X8499064Y-16924193D01*
X8484778Y-16895622D01*
X8470493Y-16838479D01*
X8470493Y-16767050D01*
X8484778Y-16709907D01*
X8499064Y-16681336D01*
X8513350Y-16667050D01*
X8541921Y-16652764D01*
X8899064Y-16752764D02*
X8899064Y-16952764D01*
X8827636Y-16638479D02*
X8756207Y-16852764D01*
X8941921Y-16852764D01*
X9070493Y-16952764D02*
X9127636Y-16952764D01*
X9156207Y-16938479D01*
X9170493Y-16924193D01*
X9199064Y-16881336D01*
X9213350Y-16824193D01*
X9213350Y-16709907D01*
X9199064Y-16681336D01*
X9184778Y-16667050D01*
X9156207Y-16652764D01*
X9099064Y-16652764D01*
X9070493Y-16667050D01*
X9056207Y-16681336D01*
X9041921Y-16709907D01*
X9041921Y-16781336D01*
X9056207Y-16809907D01*
X9070493Y-16824193D01*
X9099064Y-16838479D01*
X9156207Y-16838479D01*
X9184778Y-16824193D01*
X9199064Y-16809907D01*
X9213350Y-16781336D01*
X9327636Y-16652764D02*
X9327636Y-16709907D01*
X9441921Y-16652764D02*
X9441921Y-16709907D01*
X9884778Y-17067050D02*
X9870493Y-17052764D01*
X9841921Y-17009907D01*
X9827636Y-16981336D01*
X9813350Y-16938479D01*
X9799064Y-16867050D01*
X9799064Y-16809907D01*
X9813350Y-16738479D01*
X9827636Y-16695621D01*
X9841921Y-16667050D01*
X9870493Y-16624193D01*
X9884778Y-16609907D01*
X10156207Y-16952764D02*
X9984778Y-16952764D01*
X10070493Y-16952764D02*
X10070493Y-16652764D01*
X10041921Y-16695621D01*
X10013350Y-16724193D01*
X9984778Y-16738479D01*
X10413350Y-16652764D02*
X10356207Y-16652764D01*
X10327636Y-16667050D01*
X10313350Y-16681336D01*
X10284778Y-16724193D01*
X10270493Y-16781336D01*
X10270493Y-16895622D01*
X10284778Y-16924193D01*
X10299064Y-16938479D01*
X10327636Y-16952764D01*
X10384778Y-16952764D01*
X10413350Y-16938479D01*
X10427636Y-16924193D01*
X10441921Y-16895622D01*
X10441921Y-16824193D01*
X10427636Y-16795622D01*
X10413350Y-16781336D01*
X10384778Y-16767050D01*
X10327636Y-16767050D01*
X10299064Y-16781336D01*
X10284778Y-16795622D01*
X10270493Y-16824193D01*
X10799064Y-16952764D02*
X10799064Y-16652764D01*
X10927636Y-16952764D02*
X10927636Y-16795622D01*
X10913350Y-16767050D01*
X10884778Y-16752764D01*
X10841921Y-16752764D01*
X10813350Y-16767050D01*
X10799064Y-16781336D01*
X11113350Y-16952764D02*
X11084778Y-16938479D01*
X11070493Y-16924193D01*
X11056207Y-16895622D01*
X11056207Y-16809907D01*
X11070493Y-16781336D01*
X11084778Y-16767050D01*
X11113350Y-16752764D01*
X11156207Y-16752764D01*
X11184778Y-16767050D01*
X11199064Y-16781336D01*
X11213350Y-16809907D01*
X11213350Y-16895622D01*
X11199064Y-16924193D01*
X11184778Y-16938479D01*
X11156207Y-16952764D01*
X11113350Y-16952764D01*
X11384778Y-16952764D02*
X11356207Y-16938479D01*
X11341921Y-16909907D01*
X11341921Y-16652764D01*
X11613350Y-16938479D02*
X11584778Y-16952764D01*
X11527636Y-16952764D01*
X11499064Y-16938479D01*
X11484778Y-16909907D01*
X11484778Y-16795622D01*
X11499064Y-16767050D01*
X11527636Y-16752764D01*
X11584778Y-16752764D01*
X11613350Y-16767050D01*
X11627636Y-16795622D01*
X11627636Y-16824193D01*
X11484778Y-16852764D01*
X11741921Y-16938479D02*
X11770493Y-16952764D01*
X11827636Y-16952764D01*
X11856207Y-16938479D01*
X11870493Y-16909907D01*
X11870493Y-16895622D01*
X11856207Y-16867050D01*
X11827636Y-16852764D01*
X11784778Y-16852764D01*
X11756207Y-16838479D01*
X11741921Y-16809907D01*
X11741921Y-16795622D01*
X11756207Y-16767050D01*
X11784778Y-16752764D01*
X11827636Y-16752764D01*
X11856207Y-16767050D01*
X11970493Y-17067050D02*
X11984778Y-17052764D01*
X12013350Y-17009907D01*
X12027636Y-16981336D01*
X12041921Y-16938479D01*
X12056207Y-16867050D01*
X12056207Y-16809907D01*
X12041921Y-16738479D01*
X12027636Y-16695621D01*
X12013350Y-16667050D01*
X11984778Y-16624193D01*
X11970493Y-16609907D01*
X5086350Y-17149550D02*
X5213350Y-17276550D01*
X5213350Y-17149550D02*
X5086350Y-17276550D01*
X5194752Y-17257952D02*
X5194752Y-17168148D01*
X5104948Y-17168148D01*
X5104948Y-17257952D01*
X5194752Y-17257952D01*
X5641921Y-17348764D02*
X5470493Y-17348764D01*
X5556207Y-17348764D02*
X5556207Y-17048764D01*
X5527636Y-17091622D01*
X5499064Y-17120193D01*
X5470493Y-17134479D01*
X5770493Y-17320193D02*
X5784778Y-17334479D01*
X5770493Y-17348764D01*
X5756207Y-17334479D01*
X5770493Y-17320193D01*
X5770493Y-17348764D01*
X5899064Y-17077336D02*
X5913350Y-17063050D01*
X5941921Y-17048764D01*
X6013350Y-17048764D01*
X6041921Y-17063050D01*
X6056207Y-17077336D01*
X6070493Y-17105907D01*
X6070493Y-17134479D01*
X6056207Y-17177336D01*
X5884778Y-17348764D01*
X6070493Y-17348764D01*
X6170493Y-17048764D02*
X6370493Y-17048764D01*
X6241921Y-17348764D01*
X6484778Y-17348764D02*
X6484778Y-17148764D01*
X6484778Y-17177336D02*
X6499064Y-17163050D01*
X6527636Y-17148764D01*
X6570493Y-17148764D01*
X6599064Y-17163050D01*
X6613350Y-17191622D01*
X6613350Y-17348764D01*
X6613350Y-17191622D02*
X6627636Y-17163050D01*
X6656207Y-17148764D01*
X6699064Y-17148764D01*
X6727636Y-17163050D01*
X6741921Y-17191622D01*
X6741921Y-17348764D01*
X6884778Y-17348764D02*
X6884778Y-17148764D01*
X6884778Y-17177336D02*
X6899064Y-17163050D01*
X6927636Y-17148764D01*
X6970493Y-17148764D01*
X6999064Y-17163050D01*
X7013350Y-17191622D01*
X7013350Y-17348764D01*
X7013350Y-17191622D02*
X7027636Y-17163050D01*
X7056207Y-17148764D01*
X7099064Y-17148764D01*
X7127636Y-17163050D01*
X7141921Y-17191622D01*
X7141921Y-17348764D01*
X7727636Y-17034479D02*
X7470493Y-17420193D01*
X8113350Y-17048764D02*
X8141921Y-17048764D01*
X8170493Y-17063050D01*
X8184778Y-17077336D01*
X8199064Y-17105907D01*
X8213350Y-17163050D01*
X8213350Y-17234479D01*
X8199064Y-17291622D01*
X8184778Y-17320193D01*
X8170493Y-17334479D01*
X8141921Y-17348764D01*
X8113350Y-17348764D01*
X8084778Y-17334479D01*
X8070493Y-17320193D01*
X8056207Y-17291622D01*
X8041921Y-17234479D01*
X8041921Y-17163050D01*
X8056207Y-17105907D01*
X8070493Y-17077336D01*
X8084778Y-17063050D01*
X8113350Y-17048764D01*
X8341921Y-17320193D02*
X8356207Y-17334479D01*
X8341921Y-17348764D01*
X8327636Y-17334479D01*
X8341921Y-17320193D01*
X8341921Y-17348764D01*
X8541921Y-17048764D02*
X8570493Y-17048764D01*
X8599064Y-17063050D01*
X8613350Y-17077336D01*
X8627636Y-17105907D01*
X8641921Y-17163050D01*
X8641921Y-17234479D01*
X8627636Y-17291622D01*
X8613350Y-17320193D01*
X8599064Y-17334479D01*
X8570493Y-17348764D01*
X8541921Y-17348764D01*
X8513350Y-17334479D01*
X8499064Y-17320193D01*
X8484778Y-17291622D01*
X8470493Y-17234479D01*
X8470493Y-17163050D01*
X8484778Y-17105907D01*
X8499064Y-17077336D01*
X8513350Y-17063050D01*
X8541921Y-17048764D01*
X8913350Y-17048764D02*
X8770493Y-17048764D01*
X8756207Y-17191622D01*
X8770493Y-17177336D01*
X8799064Y-17163050D01*
X8870493Y-17163050D01*
X8899064Y-17177336D01*
X8913350Y-17191622D01*
X8927636Y-17220193D01*
X8927636Y-17291622D01*
X8913350Y-17320193D01*
X8899064Y-17334479D01*
X8870493Y-17348764D01*
X8799064Y-17348764D01*
X8770493Y-17334479D01*
X8756207Y-17320193D01*
X9113350Y-17048764D02*
X9141921Y-17048764D01*
X9170493Y-17063050D01*
X9184778Y-17077336D01*
X9199064Y-17105907D01*
X9213350Y-17163050D01*
X9213350Y-17234479D01*
X9199064Y-17291622D01*
X9184778Y-17320193D01*
X9170493Y-17334479D01*
X9141921Y-17348764D01*
X9113350Y-17348764D01*
X9084778Y-17334479D01*
X9070493Y-17320193D01*
X9056207Y-17291622D01*
X9041921Y-17234479D01*
X9041921Y-17163050D01*
X9056207Y-17105907D01*
X9070493Y-17077336D01*
X9084778Y-17063050D01*
X9113350Y-17048764D01*
X9327636Y-17048764D02*
X9327636Y-17105907D01*
X9441921Y-17048764D02*
X9441921Y-17105907D01*
X9884778Y-17463050D02*
X9870493Y-17448764D01*
X9841921Y-17405907D01*
X9827636Y-17377336D01*
X9813350Y-17334479D01*
X9799064Y-17263050D01*
X9799064Y-17205907D01*
X9813350Y-17134479D01*
X9827636Y-17091622D01*
X9841921Y-17063050D01*
X9870493Y-17020193D01*
X9884778Y-17005907D01*
X9984778Y-17077336D02*
X9999064Y-17063050D01*
X10027636Y-17048764D01*
X10099064Y-17048764D01*
X10127636Y-17063050D01*
X10141921Y-17077336D01*
X10156207Y-17105907D01*
X10156207Y-17134479D01*
X10141921Y-17177336D01*
X9970493Y-17348764D01*
X10156207Y-17348764D01*
X10513350Y-17348764D02*
X10513350Y-17048764D01*
X10641921Y-17348764D02*
X10641921Y-17191622D01*
X10627636Y-17163050D01*
X10599064Y-17148764D01*
X10556207Y-17148764D01*
X10527636Y-17163050D01*
X10513350Y-17177336D01*
X10827636Y-17348764D02*
X10799064Y-17334479D01*
X10784778Y-17320193D01*
X10770493Y-17291622D01*
X10770493Y-17205907D01*
X10784778Y-17177336D01*
X10799064Y-17163050D01*
X10827636Y-17148764D01*
X10870493Y-17148764D01*
X10899064Y-17163050D01*
X10913350Y-17177336D01*
X10927636Y-17205907D01*
X10927636Y-17291622D01*
X10913350Y-17320193D01*
X10899064Y-17334479D01*
X10870493Y-17348764D01*
X10827636Y-17348764D01*
X11099064Y-17348764D02*
X11070493Y-17334479D01*
X11056207Y-17305907D01*
X11056207Y-17048764D01*
X11327636Y-17334479D02*
X11299064Y-17348764D01*
X11241921Y-17348764D01*
X11213350Y-17334479D01*
X11199064Y-17305907D01*
X11199064Y-17191622D01*
X11213350Y-17163050D01*
X11241921Y-17148764D01*
X11299064Y-17148764D01*
X11327636Y-17163050D01*
X11341921Y-17191622D01*
X11341921Y-17220193D01*
X11199064Y-17248764D01*
X11456207Y-17334479D02*
X11484778Y-17348764D01*
X11541921Y-17348764D01*
X11570493Y-17334479D01*
X11584778Y-17305907D01*
X11584778Y-17291622D01*
X11570493Y-17263050D01*
X11541921Y-17248764D01*
X11499064Y-17248764D01*
X11470493Y-17234479D01*
X11456207Y-17205907D01*
X11456207Y-17191622D01*
X11470493Y-17163050D01*
X11499064Y-17148764D01*
X11541921Y-17148764D01*
X11570493Y-17163050D01*
X11684778Y-17463050D02*
X11699064Y-17448764D01*
X11727636Y-17405907D01*
X11741921Y-17377336D01*
X11756207Y-17334479D01*
X11770493Y-17263050D01*
X11770493Y-17205907D01*
X11756207Y-17134479D01*
X11741921Y-17091622D01*
X11727636Y-17063050D01*
X11699064Y-17020193D01*
X11684778Y-17005907D01*
X4895850Y-17450300D02*
X5213350Y-17767800D01*
X5213350Y-17450300D02*
X4895850Y-17767800D01*
X5054600Y-17767800D02*
X5213350Y-17609050D01*
X5054600Y-17450300D01*
X4895850Y-17609050D01*
X5054600Y-17767800D01*
X5456207Y-17444764D02*
X5641921Y-17444764D01*
X5541921Y-17559050D01*
X5584779Y-17559050D01*
X5613350Y-17573336D01*
X5627636Y-17587622D01*
X5641921Y-17616193D01*
X5641921Y-17687622D01*
X5627636Y-17716193D01*
X5613350Y-17730479D01*
X5584779Y-17744764D01*
X5499064Y-17744764D01*
X5470493Y-17730479D01*
X5456207Y-17716193D01*
X5770493Y-17716193D02*
X5784778Y-17730479D01*
X5770493Y-17744764D01*
X5756207Y-17730479D01*
X5770493Y-17716193D01*
X5770493Y-17744764D01*
X6070493Y-17744764D02*
X5899064Y-17744764D01*
X5984778Y-17744764D02*
X5984778Y-17444764D01*
X5956207Y-17487622D01*
X5927636Y-17516193D01*
X5899064Y-17530479D01*
X6170493Y-17444764D02*
X6370493Y-17444764D01*
X6241921Y-17744764D01*
X6484778Y-17744764D02*
X6484778Y-17544764D01*
X6484778Y-17573336D02*
X6499064Y-17559050D01*
X6527636Y-17544764D01*
X6570493Y-17544764D01*
X6599064Y-17559050D01*
X6613350Y-17587622D01*
X6613350Y-17744764D01*
X6613350Y-17587622D02*
X6627636Y-17559050D01*
X6656207Y-17544764D01*
X6699064Y-17544764D01*
X6727636Y-17559050D01*
X6741921Y-17587622D01*
X6741921Y-17744764D01*
X6884778Y-17744764D02*
X6884778Y-17544764D01*
X6884778Y-17573336D02*
X6899064Y-17559050D01*
X6927636Y-17544764D01*
X6970493Y-17544764D01*
X6999064Y-17559050D01*
X7013350Y-17587622D01*
X7013350Y-17744764D01*
X7013350Y-17587622D02*
X7027636Y-17559050D01*
X7056207Y-17544764D01*
X7099064Y-17544764D01*
X7127636Y-17559050D01*
X7141921Y-17587622D01*
X7141921Y-17744764D01*
X7727636Y-17430479D02*
X7470493Y-17816193D01*
X8113350Y-17444764D02*
X8141921Y-17444764D01*
X8170493Y-17459050D01*
X8184778Y-17473336D01*
X8199064Y-17501907D01*
X8213350Y-17559050D01*
X8213350Y-17630479D01*
X8199064Y-17687622D01*
X8184778Y-17716193D01*
X8170493Y-17730479D01*
X8141921Y-17744764D01*
X8113350Y-17744764D01*
X8084778Y-17730479D01*
X8070493Y-17716193D01*
X8056207Y-17687622D01*
X8041921Y-17630479D01*
X8041921Y-17559050D01*
X8056207Y-17501907D01*
X8070493Y-17473336D01*
X8084778Y-17459050D01*
X8113350Y-17444764D01*
X8341921Y-17716193D02*
X8356207Y-17730479D01*
X8341921Y-17744764D01*
X8327636Y-17730479D01*
X8341921Y-17716193D01*
X8341921Y-17744764D01*
X8641921Y-17744764D02*
X8470493Y-17744764D01*
X8556207Y-17744764D02*
X8556207Y-17444764D01*
X8527636Y-17487622D01*
X8499064Y-17516193D01*
X8470493Y-17530479D01*
X8756207Y-17473336D02*
X8770493Y-17459050D01*
X8799064Y-17444764D01*
X8870493Y-17444764D01*
X8899064Y-17459050D01*
X8913350Y-17473336D01*
X8927636Y-17501907D01*
X8927636Y-17530479D01*
X8913350Y-17573336D01*
X8741921Y-17744764D01*
X8927636Y-17744764D01*
X9199064Y-17444764D02*
X9056207Y-17444764D01*
X9041921Y-17587622D01*
X9056207Y-17573336D01*
X9084778Y-17559050D01*
X9156207Y-17559050D01*
X9184778Y-17573336D01*
X9199064Y-17587622D01*
X9213350Y-17616193D01*
X9213350Y-17687622D01*
X9199064Y-17716193D01*
X9184778Y-17730479D01*
X9156207Y-17744764D01*
X9084778Y-17744764D01*
X9056207Y-17730479D01*
X9041921Y-17716193D01*
X9327636Y-17444764D02*
X9327636Y-17501907D01*
X9441921Y-17444764D02*
X9441921Y-17501907D01*
X9884778Y-17859050D02*
X9870493Y-17844764D01*
X9841921Y-17801907D01*
X9827636Y-17773336D01*
X9813350Y-17730479D01*
X9799064Y-17659050D01*
X9799064Y-17601907D01*
X9813350Y-17530479D01*
X9827636Y-17487622D01*
X9841921Y-17459050D01*
X9870493Y-17416193D01*
X9884778Y-17401907D01*
X10127636Y-17544764D02*
X10127636Y-17744764D01*
X10056207Y-17430479D02*
X9984778Y-17644764D01*
X10170493Y-17644764D01*
X10513350Y-17744764D02*
X10513350Y-17444764D01*
X10641921Y-17744764D02*
X10641921Y-17587622D01*
X10627636Y-17559050D01*
X10599064Y-17544764D01*
X10556207Y-17544764D01*
X10527636Y-17559050D01*
X10513350Y-17573336D01*
X10827636Y-17744764D02*
X10799064Y-17730479D01*
X10784778Y-17716193D01*
X10770493Y-17687622D01*
X10770493Y-17601907D01*
X10784778Y-17573336D01*
X10799064Y-17559050D01*
X10827636Y-17544764D01*
X10870493Y-17544764D01*
X10899064Y-17559050D01*
X10913350Y-17573336D01*
X10927636Y-17601907D01*
X10927636Y-17687622D01*
X10913350Y-17716193D01*
X10899064Y-17730479D01*
X10870493Y-17744764D01*
X10827636Y-17744764D01*
X11099064Y-17744764D02*
X11070493Y-17730479D01*
X11056207Y-17701907D01*
X11056207Y-17444764D01*
X11327636Y-17730479D02*
X11299064Y-17744764D01*
X11241921Y-17744764D01*
X11213350Y-17730479D01*
X11199064Y-17701907D01*
X11199064Y-17587622D01*
X11213350Y-17559050D01*
X11241921Y-17544764D01*
X11299064Y-17544764D01*
X11327636Y-17559050D01*
X11341921Y-17587622D01*
X11341921Y-17616193D01*
X11199064Y-17644764D01*
X11456207Y-17730479D02*
X11484778Y-17744764D01*
X11541921Y-17744764D01*
X11570493Y-17730479D01*
X11584778Y-17701907D01*
X11584778Y-17687622D01*
X11570493Y-17659050D01*
X11541921Y-17644764D01*
X11499064Y-17644764D01*
X11470493Y-17630479D01*
X11456207Y-17601907D01*
X11456207Y-17587622D01*
X11470493Y-17559050D01*
X11499064Y-17544764D01*
X11541921Y-17544764D01*
X11570493Y-17559050D01*
X11684778Y-17859050D02*
X11699064Y-17844764D01*
X11727636Y-17801907D01*
X11741921Y-17773336D01*
X11756207Y-17730479D01*
X11770493Y-17659050D01*
X11770493Y-17601907D01*
X11756207Y-17530479D01*
X11741921Y-17487622D01*
X11727636Y-17459050D01*
X11699064Y-17416193D01*
X11684778Y-17401907D01*
M02*
